<?xml version="1.0" encoding="UTF-8" standalone="no"?>
<!DOCTYPE svg PUBLIC "-//W3C//DTD SVG 1.1//EN" "http://www.w3.org/Graphics/SVG/1.1/DTD/svg11.dtd">
<svg xmlns="http://www.w3.org/2000/svg" xmlns:xlink="http://www.w3.org/1999/xlink" version="1.1" width="410.3113pt" height="309.71913pt" viewBox="0 0 410.3113 309.71913">
<g enable-background="new">
<path transform="matrix(1,0,0,-1,-17.3537,327.07)" d="M 0 0 L 460.8 0 L 460.8 345.6 L 0 345.6 Z " fill="#ffffff"/>
<path transform="matrix(1,0,0,-1,-17.3537,327.07)" d="M 57.6 190.35861 L 414.72 190.35861 L 414.72 304.128 L 57.6 304.128 Z " fill="#ffffff"/>
<clipPath id="cp0">
<path transform="matrix(1,0,0,-1,-17.3537,327.07)" d="M 57.6 190.35861 L 414.72 190.35861 L 414.72 304.128 L 57.6 304.128 Z "/>
</clipPath>
<g clip-path="url(#cp0)">
<clipPath id="cp1">
<path transform="matrix(1,0,0,-1,56.479028,131.54006)" d="M -4 -4 L 4 -4 L 4 4 L -4 4 Z "/>
</clipPath>
<g clip-path="url(#cp1)">
<path transform="matrix(1,0,0,-1,56.479028,131.54006)" d="M 0 -3 C .795609 -3 1.55874 -2.683901 2.12132 -2.12132 C 2.683901 -1.55874 3 -.795609 3 0 C 3 .795609 2.683901 1.55874 2.12132 2.12132 C 1.55874 2.683901 .795609 3 0 3 C -.795609 3 -1.55874 2.683901 -2.12132 2.12132 C -2.683901 1.55874 -3 .795609 -3 0 C -3 -.795609 -2.683901 -1.55874 -2.12132 -2.12132 C -1.55874 -2.683901 -.795609 -3 0 -3 Z " fill="#0000ff"/>
<path transform="matrix(1,0,0,-1,56.479028,131.54006)" stroke-width="1" stroke-linecap="butt" stroke-linejoin="round" fill="none" stroke="#0000ff" d="M 0 -3 C .795609 -3 1.55874 -2.683901 2.12132 -2.12132 C 2.683901 -1.55874 3 -.795609 3 0 C 3 .795609 2.683901 1.55874 2.12132 2.12132 C 1.55874 2.683901 .795609 3 0 3 C -.795609 3 -1.55874 2.683901 -2.12132 2.12132 C -2.683901 1.55874 -3 .795609 -3 0 C -3 -.795609 -2.683901 -1.55874 -2.12132 -2.12132 C -1.55874 -2.683901 -.795609 -3 0 -3 Z "/>
</g>
<clipPath id="cp2">
<path transform="matrix(1,0,0,-1,88.94448,131.54006)" d="M -4 -4 L 4 -4 L 4 4 L -4 4 Z "/>
</clipPath>
<g clip-path="url(#cp2)">
<path transform="matrix(1,0,0,-1,88.94448,131.54006)" d="M 0 -3 C .795609 -3 1.55874 -2.683901 2.12132 -2.12132 C 2.683901 -1.55874 3 -.795609 3 0 C 3 .795609 2.683901 1.55874 2.12132 2.12132 C 1.55874 2.683901 .795609 3 0 3 C -.795609 3 -1.55874 2.683901 -2.12132 2.12132 C -2.683901 1.55874 -3 .795609 -3 0 C -3 -.795609 -2.683901 -1.55874 -2.12132 -2.12132 C -1.55874 -2.683901 -.795609 -3 0 -3 Z " fill="#0000ff"/>
<path transform="matrix(1,0,0,-1,88.94448,131.54006)" stroke-width="1" stroke-linecap="butt" stroke-linejoin="round" fill="none" stroke="#0000ff" d="M 0 -3 C .795609 -3 1.55874 -2.683901 2.12132 -2.12132 C 2.683901 -1.55874 3 -.795609 3 0 C 3 .795609 2.683901 1.55874 2.12132 2.12132 C 1.55874 2.683901 .795609 3 0 3 C -.795609 3 -1.55874 2.683901 -2.12132 2.12132 C -2.683901 1.55874 -3 .795609 -3 0 C -3 -.795609 -2.683901 -1.55874 -2.12132 -2.12132 C -1.55874 -2.683901 -.795609 -3 0 -3 Z "/>
</g>
<clipPath id="cp3">
<path transform="matrix(1,0,0,-1,121.409938,131.54006)" d="M -4 -4 L 4 -4 L 4 4 L -4 4 Z "/>
</clipPath>
<g clip-path="url(#cp3)">
<path transform="matrix(1,0,0,-1,121.409938,131.54006)" d="M 0 -3 C .795609 -3 1.55874 -2.683901 2.12132 -2.12132 C 2.683901 -1.55874 3 -.795609 3 0 C 3 .795609 2.683901 1.55874 2.12132 2.12132 C 1.55874 2.683901 .795609 3 0 3 C -.795609 3 -1.55874 2.683901 -2.12132 2.12132 C -2.683901 1.55874 -3 .795609 -3 0 C -3 -.795609 -2.683901 -1.55874 -2.12132 -2.12132 C -1.55874 -2.683901 -.795609 -3 0 -3 Z " fill="#0000ff"/>
<path transform="matrix(1,0,0,-1,121.409938,131.54006)" stroke-width="1" stroke-linecap="butt" stroke-linejoin="round" fill="none" stroke="#0000ff" d="M 0 -3 C .795609 -3 1.55874 -2.683901 2.12132 -2.12132 C 2.683901 -1.55874 3 -.795609 3 0 C 3 .795609 2.683901 1.55874 2.12132 2.12132 C 1.55874 2.683901 .795609 3 0 3 C -.795609 3 -1.55874 2.683901 -2.12132 2.12132 C -2.683901 1.55874 -3 .795609 -3 0 C -3 -.795609 -2.683901 -1.55874 -2.12132 -2.12132 C -1.55874 -2.683901 -.795609 -3 0 -3 Z "/>
</g>
<clipPath id="cp4">
<path transform="matrix(1,0,0,-1,153.8754,131.54006)" d="M -4 -4 L 4 -4 L 4 4 L -4 4 Z "/>
</clipPath>
<g clip-path="url(#cp4)">
<path transform="matrix(1,0,0,-1,153.8754,131.54006)" d="M 0 -3 C .795609 -3 1.55874 -2.683901 2.12132 -2.12132 C 2.683901 -1.55874 3 -.795609 3 0 C 3 .795609 2.683901 1.55874 2.12132 2.12132 C 1.55874 2.683901 .795609 3 0 3 C -.795609 3 -1.55874 2.683901 -2.12132 2.12132 C -2.683901 1.55874 -3 .795609 -3 0 C -3 -.795609 -2.683901 -1.55874 -2.12132 -2.12132 C -1.55874 -2.683901 -.795609 -3 0 -3 Z " fill="#0000ff"/>
<path transform="matrix(1,0,0,-1,153.8754,131.54006)" stroke-width="1" stroke-linecap="butt" stroke-linejoin="round" fill="none" stroke="#0000ff" d="M 0 -3 C .795609 -3 1.55874 -2.683901 2.12132 -2.12132 C 2.683901 -1.55874 3 -.795609 3 0 C 3 .795609 2.683901 1.55874 2.12132 2.12132 C 1.55874 2.683901 .795609 3 0 3 C -.795609 3 -1.55874 2.683901 -2.12132 2.12132 C -2.683901 1.55874 -3 .795609 -3 0 C -3 -.795609 -2.683901 -1.55874 -2.12132 -2.12132 C -1.55874 -2.683901 -.795609 -3 0 -3 Z "/>
</g>
<clipPath id="cp5">
<path transform="matrix(1,0,0,-1,186.34085,131.54006)" d="M -4 -4 L 4 -4 L 4 4 L -4 4 Z "/>
</clipPath>
<g clip-path="url(#cp5)">
<path transform="matrix(1,0,0,-1,186.34085,131.54006)" d="M 0 -3 C .795609 -3 1.55874 -2.683901 2.12132 -2.12132 C 2.683901 -1.55874 3 -.795609 3 0 C 3 .795609 2.683901 1.55874 2.12132 2.12132 C 1.55874 2.683901 .795609 3 0 3 C -.795609 3 -1.55874 2.683901 -2.12132 2.12132 C -2.683901 1.55874 -3 .795609 -3 0 C -3 -.795609 -2.683901 -1.55874 -2.12132 -2.12132 C -1.55874 -2.683901 -.795609 -3 0 -3 Z " fill="#0000ff"/>
<path transform="matrix(1,0,0,-1,186.34085,131.54006)" stroke-width="1" stroke-linecap="butt" stroke-linejoin="round" fill="none" stroke="#0000ff" d="M 0 -3 C .795609 -3 1.55874 -2.683901 2.12132 -2.12132 C 2.683901 -1.55874 3 -.795609 3 0 C 3 .795609 2.683901 1.55874 2.12132 2.12132 C 1.55874 2.683901 .795609 3 0 3 C -.795609 3 -1.55874 2.683901 -2.12132 2.12132 C -2.683901 1.55874 -3 .795609 -3 0 C -3 -.795609 -2.683901 -1.55874 -2.12132 -2.12132 C -1.55874 -2.683901 -.795609 -3 0 -3 Z "/>
</g>
<clipPath id="cp6">
<path transform="matrix(1,0,0,-1,218.8063,131.54006)" d="M -4 -4 L 4 -4 L 4 4 L -4 4 Z "/>
</clipPath>
<g clip-path="url(#cp6)">
<path transform="matrix(1,0,0,-1,218.8063,131.54006)" d="M 0 -3 C .795609 -3 1.55874 -2.683901 2.12132 -2.12132 C 2.683901 -1.55874 3 -.795609 3 0 C 3 .795609 2.683901 1.55874 2.12132 2.12132 C 1.55874 2.683901 .795609 3 0 3 C -.795609 3 -1.55874 2.683901 -2.12132 2.12132 C -2.683901 1.55874 -3 .795609 -3 0 C -3 -.795609 -2.683901 -1.55874 -2.12132 -2.12132 C -1.55874 -2.683901 -.795609 -3 0 -3 Z " fill="#0000ff"/>
<path transform="matrix(1,0,0,-1,218.8063,131.54006)" stroke-width="1" stroke-linecap="butt" stroke-linejoin="round" fill="none" stroke="#0000ff" d="M 0 -3 C .795609 -3 1.55874 -2.683901 2.12132 -2.12132 C 2.683901 -1.55874 3 -.795609 3 0 C 3 .795609 2.683901 1.55874 2.12132 2.12132 C 1.55874 2.683901 .795609 3 0 3 C -.795609 3 -1.55874 2.683901 -2.12132 2.12132 C -2.683901 1.55874 -3 .795609 -3 0 C -3 -.795609 -2.683901 -1.55874 -2.12132 -2.12132 C -1.55874 -2.683901 -.795609 -3 0 -3 Z "/>
</g>
<clipPath id="cp7">
<path transform="matrix(1,0,0,-1,251.27176,131.54006)" d="M -4 -4 L 4 -4 L 4 4 L -4 4 Z "/>
</clipPath>
<g clip-path="url(#cp7)">
<path transform="matrix(1,0,0,-1,251.27176,131.54006)" d="M 0 -3 C .795609 -3 1.55874 -2.683901 2.12132 -2.12132 C 2.683901 -1.55874 3 -.795609 3 0 C 3 .795609 2.683901 1.55874 2.12132 2.12132 C 1.55874 2.683901 .795609 3 0 3 C -.795609 3 -1.55874 2.683901 -2.12132 2.12132 C -2.683901 1.55874 -3 .795609 -3 0 C -3 -.795609 -2.683901 -1.55874 -2.12132 -2.12132 C -1.55874 -2.683901 -.795609 -3 0 -3 Z " fill="#0000ff"/>
<path transform="matrix(1,0,0,-1,251.27176,131.54006)" stroke-width="1" stroke-linecap="butt" stroke-linejoin="round" fill="none" stroke="#0000ff" d="M 0 -3 C .795609 -3 1.55874 -2.683901 2.12132 -2.12132 C 2.683901 -1.55874 3 -.795609 3 0 C 3 .795609 2.683901 1.55874 2.12132 2.12132 C 1.55874 2.683901 .795609 3 0 3 C -.795609 3 -1.55874 2.683901 -2.12132 2.12132 C -2.683901 1.55874 -3 .795609 -3 0 C -3 -.795609 -2.683901 -1.55874 -2.12132 -2.12132 C -1.55874 -2.683901 -.795609 -3 0 -3 Z "/>
</g>
<clipPath id="cp8">
<path transform="matrix(1,0,0,-1,283.7372,131.54006)" d="M -4 -4 L 4 -4 L 4 4 L -4 4 Z "/>
</clipPath>
<g clip-path="url(#cp8)">
<path transform="matrix(1,0,0,-1,283.7372,131.54006)" d="M 0 -3 C .795609 -3 1.55874 -2.683901 2.12132 -2.12132 C 2.683901 -1.55874 3 -.795609 3 0 C 3 .795609 2.683901 1.55874 2.12132 2.12132 C 1.55874 2.683901 .795609 3 0 3 C -.795609 3 -1.55874 2.683901 -2.12132 2.12132 C -2.683901 1.55874 -3 .795609 -3 0 C -3 -.795609 -2.683901 -1.55874 -2.12132 -2.12132 C -1.55874 -2.683901 -.795609 -3 0 -3 Z " fill="#0000ff"/>
<path transform="matrix(1,0,0,-1,283.7372,131.54006)" stroke-width="1" stroke-linecap="butt" stroke-linejoin="round" fill="none" stroke="#0000ff" d="M 0 -3 C .795609 -3 1.55874 -2.683901 2.12132 -2.12132 C 2.683901 -1.55874 3 -.795609 3 0 C 3 .795609 2.683901 1.55874 2.12132 2.12132 C 1.55874 2.683901 .795609 3 0 3 C -.795609 3 -1.55874 2.683901 -2.12132 2.12132 C -2.683901 1.55874 -3 .795609 -3 0 C -3 -.795609 -2.683901 -1.55874 -2.12132 -2.12132 C -1.55874 -2.683901 -.795609 -3 0 -3 Z "/>
</g>
<clipPath id="cp9">
<path transform="matrix(1,0,0,-1,316.20268,131.54006)" d="M -4 -4 L 4 -4 L 4 4 L -4 4 Z "/>
</clipPath>
<g clip-path="url(#cp9)">
<path transform="matrix(1,0,0,-1,316.20268,131.54006)" d="M 0 -3 C .795609 -3 1.55874 -2.683901 2.12132 -2.12132 C 2.683901 -1.55874 3 -.795609 3 0 C 3 .795609 2.683901 1.55874 2.12132 2.12132 C 1.55874 2.683901 .795609 3 0 3 C -.795609 3 -1.55874 2.683901 -2.12132 2.12132 C -2.683901 1.55874 -3 .795609 -3 0 C -3 -.795609 -2.683901 -1.55874 -2.12132 -2.12132 C -1.55874 -2.683901 -.795609 -3 0 -3 Z " fill="#0000ff"/>
<path transform="matrix(1,0,0,-1,316.20268,131.54006)" stroke-width="1" stroke-linecap="butt" stroke-linejoin="round" fill="none" stroke="#0000ff" d="M 0 -3 C .795609 -3 1.55874 -2.683901 2.12132 -2.12132 C 2.683901 -1.55874 3 -.795609 3 0 C 3 .795609 2.683901 1.55874 2.12132 2.12132 C 1.55874 2.683901 .795609 3 0 3 C -.795609 3 -1.55874 2.683901 -2.12132 2.12132 C -2.683901 1.55874 -3 .795609 -3 0 C -3 -.795609 -2.683901 -1.55874 -2.12132 -2.12132 C -1.55874 -2.683901 -.795609 -3 0 -3 Z "/>
</g>
<clipPath id="cp10">
<path transform="matrix(1,0,0,-1,348.66813,131.54006)" d="M -4 -4 L 4 -4 L 4 4 L -4 4 Z "/>
</clipPath>
<g clip-path="url(#cp10)">
<path transform="matrix(1,0,0,-1,348.66813,131.54006)" d="M 0 -3 C .795609 -3 1.55874 -2.683901 2.12132 -2.12132 C 2.683901 -1.55874 3 -.795609 3 0 C 3 .795609 2.683901 1.55874 2.12132 2.12132 C 1.55874 2.683901 .795609 3 0 3 C -.795609 3 -1.55874 2.683901 -2.12132 2.12132 C -2.683901 1.55874 -3 .795609 -3 0 C -3 -.795609 -2.683901 -1.55874 -2.12132 -2.12132 C -1.55874 -2.683901 -.795609 -3 0 -3 Z " fill="#0000ff"/>
<path transform="matrix(1,0,0,-1,348.66813,131.54006)" stroke-width="1" stroke-linecap="butt" stroke-linejoin="round" fill="none" stroke="#0000ff" d="M 0 -3 C .795609 -3 1.55874 -2.683901 2.12132 -2.12132 C 2.683901 -1.55874 3 -.795609 3 0 C 3 .795609 2.683901 1.55874 2.12132 2.12132 C 1.55874 2.683901 .795609 3 0 3 C -.795609 3 -1.55874 2.683901 -2.12132 2.12132 C -2.683901 1.55874 -3 .795609 -3 0 C -3 -.795609 -2.683901 -1.55874 -2.12132 -2.12132 C -1.55874 -2.683901 -.795609 -3 0 -3 Z "/>
</g>
<clipPath id="cp11">
<path transform="matrix(1,0,0,-1,381.13359,131.54006)" d="M -4 -4 L 4 -4 L 4 4 L -4 4 Z "/>
</clipPath>
<g clip-path="url(#cp11)">
<path transform="matrix(1,0,0,-1,381.13359,131.54006)" d="M 0 -3 C .795609 -3 1.55874 -2.683901 2.12132 -2.12132 C 2.683901 -1.55874 3 -.795609 3 0 C 3 .795609 2.683901 1.55874 2.12132 2.12132 C 1.55874 2.683901 .795609 3 0 3 C -.795609 3 -1.55874 2.683901 -2.12132 2.12132 C -2.683901 1.55874 -3 .795609 -3 0 C -3 -.795609 -2.683901 -1.55874 -2.12132 -2.12132 C -1.55874 -2.683901 -.795609 -3 0 -3 Z " fill="#0000ff"/>
<path transform="matrix(1,0,0,-1,381.13359,131.54006)" stroke-width="1" stroke-linecap="butt" stroke-linejoin="round" fill="none" stroke="#0000ff" d="M 0 -3 C .795609 -3 1.55874 -2.683901 2.12132 -2.12132 C 2.683901 -1.55874 3 -.795609 3 0 C 3 .795609 2.683901 1.55874 2.12132 2.12132 C 1.55874 2.683901 .795609 3 0 3 C -.795609 3 -1.55874 2.683901 -2.12132 2.12132 C -2.683901 1.55874 -3 .795609 -3 0 C -3 -.795609 -2.683901 -1.55874 -2.12132 -2.12132 C -1.55874 -2.683901 -.795609 -3 0 -3 Z "/>
</g>
<clipPath id="cp12">
<path transform="matrix(1,0,0,-1,218.8063,28.113343)" d="M -4 -4 L 4 -4 L 4 4 L -4 4 Z "/>
</clipPath>
<g clip-path="url(#cp12)">
<path transform="matrix(1,0,0,-1,218.8063,28.113343)" d="M 0 -3 C .795609 -3 1.55874 -2.683901 2.12132 -2.12132 C 2.683901 -1.55874 3 -.795609 3 0 C 3 .795609 2.683901 1.55874 2.12132 2.12132 C 1.55874 2.683901 .795609 3 0 3 C -.795609 3 -1.55874 2.683901 -2.12132 2.12132 C -2.683901 1.55874 -3 .795609 -3 0 C -3 -.795609 -2.683901 -1.55874 -2.12132 -2.12132 C -1.55874 -2.683901 -.795609 -3 0 -3 Z " fill="#0000ff"/>
<path transform="matrix(1,0,0,-1,218.8063,28.113343)" stroke-width="1" stroke-linecap="butt" stroke-linejoin="round" fill="none" stroke="#0000ff" d="M 0 -3 C .795609 -3 1.55874 -2.683901 2.12132 -2.12132 C 2.683901 -1.55874 3 -.795609 3 0 C 3 .795609 2.683901 1.55874 2.12132 2.12132 C 1.55874 2.683901 .795609 3 0 3 C -.795609 3 -1.55874 2.683901 -2.12132 2.12132 C -2.683901 1.55874 -3 .795609 -3 0 C -3 -.795609 -2.683901 -1.55874 -2.12132 -2.12132 C -1.55874 -2.683901 -.795609 -3 0 -3 Z "/>
</g>
</g>
<path transform="matrix(1,0,0,-1,-17.3537,327.07)" d="M 73.832729 190.35861 L 73.832729 186.85861 "/>
<path transform="matrix(1,0,0,-1,-17.3537,327.07)" stroke-width=".8" stroke-linecap="butt" stroke-linejoin="round" fill="none" stroke="#000000" d="M 73.832729 190.35861 L 73.832729 186.85861 "/>
<text xml:space="preserve" transform="matrix(1 0 -0 1 49.11184 151.30515)" font-size="10" font-family="DejaVuSans"><tspan y="0" x="8.378906">4</tspan></text>
<clipPath id="cp13">
<path transform="matrix(.01,0,0,-.01,49.11184,151.30515)" d="M -1021 -463 L 1794 -463 L 1794 1233 L -1021 1233 Z "/>
</clipPath>
<g clip-path="url(#cp13)">
<path transform="matrix(.01,0,0,-.01,49.11184,151.30515)" d="M 106 355 L 732 355 L 732 272 L 106 272 L 106 355 Z "/>
</g>
<path transform="matrix(1,0,0,-1,-17.3537,327.07)" d="M 114.41454 190.35861 L 114.41454 186.85861 "/>
<path transform="matrix(1,0,0,-1,-17.3537,327.07)" stroke-width=".8" stroke-linecap="butt" stroke-linejoin="round" fill="none" stroke="#000000" d="M 114.41454 190.35861 L 114.41454 186.85861 "/>
<text xml:space="preserve" transform="matrix(1 0 -0 1 89.69366 151.30515)" font-size="10" font-family="DejaVuSans"><tspan y="0" x="8.378906">3</tspan></text>
<clipPath id="cp14">
<path transform="matrix(.01,0,0,-.01,89.69366,151.30515)" d="M -1021 -463 L 1794 -463 L 1794 1233 L -1021 1233 Z "/>
</clipPath>
<g clip-path="url(#cp14)">
<path transform="matrix(.01,0,0,-.01,89.69366,151.30515)" d="M 106 355 L 732 355 L 732 272 L 106 272 L 106 355 Z "/>
</g>
<path transform="matrix(1,0,0,-1,-17.3537,327.07)" d="M 154.99637 190.35861 L 154.99637 186.85861 "/>
<path transform="matrix(1,0,0,-1,-17.3537,327.07)" stroke-width=".8" stroke-linecap="butt" stroke-linejoin="round" fill="none" stroke="#000000" d="M 154.99637 190.35861 L 154.99637 186.85861 "/>
<text xml:space="preserve" transform="matrix(1 0 -0 1 130.27548 151.30515)" font-size="10" font-family="DejaVuSans"><tspan y="0" x="8.378906">2</tspan></text>
<clipPath id="cp15">
<path transform="matrix(.01,0,0,-.01,130.27548,151.30515)" d="M -1021 -463 L 1794 -463 L 1794 1233 L -1021 1233 Z "/>
</clipPath>
<g clip-path="url(#cp15)">
<path transform="matrix(.01,0,0,-.01,130.27548,151.30515)" d="M 106 355 L 732 355 L 732 272 L 106 272 L 106 355 Z "/>
</g>
<path transform="matrix(1,0,0,-1,-17.3537,327.07)" d="M 195.57819 190.35861 L 195.57819 186.85861 "/>
<path transform="matrix(1,0,0,-1,-17.3537,327.07)" stroke-width=".8" stroke-linecap="butt" stroke-linejoin="round" fill="none" stroke="#000000" d="M 195.57819 190.35861 L 195.57819 186.85861 "/>
<text xml:space="preserve" transform="matrix(1 0 -0 1 170.8573 151.30515)" font-size="10" font-family="DejaVuSans"><tspan y="0" x="8.378906">1</tspan></text>
<clipPath id="cp16">
<path transform="matrix(.01,0,0,-.01,170.8573,151.30515)" d="M -1021 -463 L 1794 -463 L 1794 1233 L -1021 1233 Z "/>
</clipPath>
<g clip-path="url(#cp16)">
<path transform="matrix(.01,0,0,-.01,170.8573,151.30515)" d="M 106 355 L 732 355 L 732 272 L 106 272 L 106 355 Z "/>
</g>
<path transform="matrix(1,0,0,-1,-17.3537,327.07)" d="M 236.16 190.35861 L 236.16 186.85861 "/>
<path transform="matrix(1,0,0,-1,-17.3537,327.07)" stroke-width=".8" stroke-linecap="butt" stroke-linejoin="round" fill="none" stroke="#000000" d="M 236.16 190.35861 L 236.16 186.85861 "/>
<text xml:space="preserve" transform="matrix(1 0 -0 1 215.62662 151.30515)" font-size="10" font-family="DejaVuSans"><tspan y="0" x="0">0</tspan></text>
<path transform="matrix(1,0,0,-1,-17.3537,327.07)" d="M 276.74183 190.35861 L 276.74183 186.85861 "/>
<path transform="matrix(1,0,0,-1,-17.3537,327.07)" stroke-width=".8" stroke-linecap="butt" stroke-linejoin="round" fill="none" stroke="#000000" d="M 276.74183 190.35861 L 276.74183 186.85861 "/>
<text xml:space="preserve" transform="matrix(1 0 -0 1 256.20845 151.30515)" font-size="10" font-family="DejaVuSans"><tspan y="0" x="0">1</tspan></text>
<path transform="matrix(1,0,0,-1,-17.3537,327.07)" d="M 317.32365 190.35861 L 317.32365 186.85861 "/>
<path transform="matrix(1,0,0,-1,-17.3537,327.07)" stroke-width=".8" stroke-linecap="butt" stroke-linejoin="round" fill="none" stroke="#000000" d="M 317.32365 190.35861 L 317.32365 186.85861 "/>
<text xml:space="preserve" transform="matrix(1 0 -0 1 296.79026 151.30515)" font-size="10" font-family="DejaVuSans"><tspan y="0" x="0">2</tspan></text>
<path transform="matrix(1,0,0,-1,-17.3537,327.07)" d="M 357.90547 190.35861 L 357.90547 186.85861 "/>
<path transform="matrix(1,0,0,-1,-17.3537,327.07)" stroke-width=".8" stroke-linecap="butt" stroke-linejoin="round" fill="none" stroke="#000000" d="M 357.90547 190.35861 L 357.90547 186.85861 "/>
<text xml:space="preserve" transform="matrix(1 0 -0 1 337.37208 151.30515)" font-size="10" font-family="DejaVuSans"><tspan y="0" x="0">3</tspan></text>
<path transform="matrix(1,0,0,-1,-17.3537,327.07)" d="M 398.48728 190.35861 L 398.48728 186.85861 "/>
<path transform="matrix(1,0,0,-1,-17.3537,327.07)" stroke-width=".8" stroke-linecap="butt" stroke-linejoin="round" fill="none" stroke="#000000" d="M 398.48728 190.35861 L 398.48728 186.85861 "/>
<text xml:space="preserve" transform="matrix(1 0 -0 1 377.9539 151.30515)" font-size="10" font-family="DejaVuSans"><tspan y="0" x="0">4</tspan></text>
<path transform="matrix(1,0,0,-1,-17.3537,327.07)" d="M 57.6 195.52996 L 54.1 195.52996 "/>
<path transform="matrix(1,0,0,-1,-17.3537,327.07)" stroke-width=".8" stroke-linecap="butt" stroke-linejoin="round" fill="none" stroke="#000000" d="M 57.6 195.52996 L 54.1 195.52996 "/>
<text xml:space="preserve" transform="matrix(1 0 -0 1 10.980675 135.33693)" font-size="10" font-family="DejaVuSans"><tspan y="0" x="0 6.3600008 9.540001 15.900002">0.00</tspan></text>
<path transform="matrix(1,0,0,-1,-17.3537,327.07)" d="M 57.6 221.38663 L 54.1 221.38663 "/>
<path transform="matrix(1,0,0,-1,-17.3537,327.07)" stroke-width=".8" stroke-linecap="butt" stroke-linejoin="round" fill="none" stroke="#000000" d="M 57.6 221.38663 L 54.1 221.38663 "/>
<text xml:space="preserve" transform="matrix(1 0 -0 1 10.980675 109.480258)" font-size="10" font-family="DejaVuSans"><tspan y="0" x="0 6.3600008 9.540001 15.900002">0.25</tspan></text>
<path transform="matrix(1,0,0,-1,-17.3537,327.07)" d="M 57.6 247.2433 L 54.1 247.2433 "/>
<path transform="matrix(1,0,0,-1,-17.3537,327.07)" stroke-width=".8" stroke-linecap="butt" stroke-linejoin="round" fill="none" stroke="#000000" d="M 57.6 247.2433 L 54.1 247.2433 "/>
<text xml:space="preserve" transform="matrix(1 0 -0 1 10.980675 83.62358)" font-size="10" font-family="DejaVuSans"><tspan y="0" x="0 6.3600008 9.540001 15.900002">0.50</tspan></text>
<path transform="matrix(1,0,0,-1,-17.3537,327.07)" d="M 57.6 273.09999 L 54.1 273.09999 "/>
<path transform="matrix(1,0,0,-1,-17.3537,327.07)" stroke-width=".8" stroke-linecap="butt" stroke-linejoin="round" fill="none" stroke="#000000" d="M 57.6 273.09999 L 54.1 273.09999 "/>
<text xml:space="preserve" transform="matrix(1 0 -0 1 10.980675 57.766908)" font-size="10" font-family="DejaVuSans"><tspan y="0" x="0 6.3600008 9.540001 15.900002">0.75</tspan></text>
<path transform="matrix(1,0,0,-1,-17.3537,327.07)" d="M 57.6 298.95668 L 54.1 298.95668 "/>
<path transform="matrix(1,0,0,-1,-17.3537,327.07)" stroke-width=".8" stroke-linecap="butt" stroke-linejoin="round" fill="none" stroke="#000000" d="M 57.6 298.95668 L 54.1 298.95668 "/>
<text xml:space="preserve" transform="matrix(1 0 -0 1 10.980675 31.910218)" font-size="10" font-family="DejaVuSans"><tspan y="0" x="0 6.3600008 9.540001 15.900002">1.00</tspan></text>
<path transform="matrix(1,0,0,-1,-17.3537,327.07)" stroke-width=".8" stroke-linecap="square" stroke-miterlimit="10" stroke-linejoin="miter" fill="none" stroke="#000000" d="M 57.6 190.35861 L 57.6 304.128 "/>
<path transform="matrix(1,0,0,-1,-17.3537,327.07)" stroke-width=".8" stroke-linecap="square" stroke-miterlimit="10" stroke-linejoin="miter" fill="none" stroke="#000000" d="M 414.72 190.35861 L 414.72 304.128 "/>
<path transform="matrix(1,0,0,-1,-17.3537,327.07)" stroke-width=".8" stroke-linecap="square" stroke-miterlimit="10" stroke-linejoin="miter" fill="none" stroke="#000000" d="M 57.6 190.35861 L 414.72 190.35861 "/>
<path transform="matrix(1,0,0,-1,-17.3537,327.07)" stroke-width=".8" stroke-linecap="square" stroke-miterlimit="10" stroke-linejoin="miter" fill="none" stroke="#000000" d="M 57.6 304.128 L 414.72 304.128 "/>
<text xml:space="preserve" transform="matrix(1 0 -0 1 207.47037 16.942017)" font-size="12" font-family="DejaVuSans"><tspan y="0" x="0 6.2621257 15.706125">LOF</tspan></text>
<g>
<path transform="matrix(1,0,0,-1,-17.3537,327.07)" d="M 64.6 266.78425 L 130.56876 266.78425 C 131.90209 266.78425 132.56876 267.45094 132.56876 268.78425 L 132.56876 297.128 C 132.56876 298.46134 131.90209 299.128 130.56876 299.128 L 64.6 299.128 C 63.266668 299.128 62.6 298.46134 62.6 297.128 L 62.6 268.78425 C 62.6 267.45094 63.266668 266.78425 64.6 266.78425 Z " fill="#ffffff" fill-opacity=".8"/>
<path transform="matrix(1,0,0,-1,-17.3537,327.07)" stroke-width="1" stroke-linecap="butt" stroke-miterlimit="10" stroke-linejoin="miter" fill="none" stroke="#d5d6d5" stroke-opacity=".8" d="M 64.6 266.78425 L 130.56876 266.78425 C 131.90209 266.78425 132.56876 267.45094 132.56876 268.78425 L 132.56876 297.128 C 132.56876 298.46134 131.90209 299.128 130.56876 299.128 L 64.6 299.128 C 63.266668 299.128 62.6 298.46134 62.6 297.128 L 62.6 268.78425 C 62.6 267.45094 63.266668 266.78425 64.6 266.78425 Z "/>
</g>
<path transform="matrix(1,0,0,-1,-17.3537,327.07)" d="M 76.6 288.03425 C 77.39561 288.03425 78.15874 288.35035 78.72132 288.91294 C 79.2839 289.47554 79.6 290.23866 79.6 291.03425 C 79.6 291.82987 79.2839 292.593 78.72132 293.15559 C 78.15874 293.71815 77.39561 294.03425 76.6 294.03425 C 75.80439 294.03425 75.04126 293.71815 74.47868 293.15559 C 73.9161 292.593 73.6 291.82987 73.6 291.03425 C 73.6 290.23866 73.9161 289.47554 74.47868 288.91294 C 75.04126 288.35035 75.80439 288.03425 76.6 288.03425 Z " fill="#0000ff"/>
<path transform="matrix(1,0,0,-1,-17.3537,327.07)" stroke-width="1" stroke-linecap="butt" stroke-linejoin="round" fill="none" stroke="#1f77b4" d="M 76.6 288.03425 C 77.39561 288.03425 78.15874 288.35035 78.72132 288.91294 C 79.2839 289.47554 79.6 290.23866 79.6 291.03425 C 79.6 291.82987 79.2839 292.593 78.72132 293.15559 C 78.15874 293.71815 77.39561 294.03425 76.6 294.03425 C 75.80439 294.03425 75.04126 293.71815 74.47868 293.15559 C 73.9161 292.593 73.6 291.82987 73.6 291.03425 C 73.6 290.23866 73.9161 289.47554 74.47868 288.91294 C 75.04126 288.35035 75.80439 288.03425 76.6 288.03425 Z "/>
<text xml:space="preserve" transform="matrix(1 0 -0 1 77.2463 39.535768)" font-size="10" font-family="DejaVuSans"><tspan y="0" x="0 2.9500004 9.290001 12.070002 14.850002 21.000002">Inlier</tspan></text>
<path transform="matrix(1,0,0,-1,-17.3537,327.07)" d="M 76.6 273.36238 C 77.39561 273.36238 78.15874 273.67848 78.72132 274.24107 C 79.2839 274.80366 79.6 275.56678 79.6 276.36238 C 79.6 277.158 79.2839 277.9211 78.72132 278.4837 C 78.15874 279.04627 77.39561 279.36238 76.6 279.36238 C 75.80439 279.36238 75.04126 279.04627 74.47868 278.4837 C 73.9161 277.9211 73.6 277.158 73.6 276.36238 C 73.6 275.56678 73.9161 274.80366 74.47868 274.24107 C 75.04126 273.67848 75.80439 273.36238 76.6 273.36238 Z " fill="#ff0000"/>
<path transform="matrix(1,0,0,-1,-17.3537,327.07)" stroke-width="1" stroke-linecap="butt" stroke-linejoin="round" fill="none" stroke="#1f77b4" d="M 76.6 273.36238 C 77.39561 273.36238 78.15874 273.67848 78.72132 274.24107 C 79.2839 274.80366 79.6 275.56678 79.6 276.36238 C 79.6 277.158 79.2839 277.9211 78.72132 278.4837 C 78.15874 279.04627 77.39561 279.36238 76.6 279.36238 C 75.80439 279.36238 75.04126 279.04627 74.47868 278.4837 C 73.9161 277.9211 73.6 277.158 73.6 276.36238 C 73.6 275.56678 73.9161 274.80366 74.47868 274.24107 C 75.04126 273.67848 75.80439 273.36238 76.6 273.36238 Z "/>
<text xml:space="preserve" transform="matrix(1 0 -0 1 77.2463 54.20764)" font-size="10" font-family="DejaVuSans"><tspan y="0" x="0 7.870001 14.210001 18.130002 20.910002 23.690003 29.840003">Outlier</tspan></text>
<path transform="matrix(1,0,0,-1,-17.3537,327.07)" d="M 57.6 38.016 L 414.72 38.016 L 414.72 151.78539 L 57.6 151.78539 Z " fill="#ffffff"/>
<clipPath id="cp17">
<path transform="matrix(1,0,0,-1,-17.3537,327.07)" d="M 57.6 38.016 L 414.72 38.016 L 414.72 151.78537 L 57.6 151.78537 Z "/>
</clipPath>
<g clip-path="url(#cp17)">
<clipPath id="cp18">
<path transform="matrix(1,0,0,-1,56.479028,283.88267)" d="M -4 -4 L 4 -4 L 4 4 L -4 4 Z "/>
</clipPath>
<g clip-path="url(#cp18)">
<path transform="matrix(1,0,0,-1,56.479028,283.88267)" d="M 0 -3 C .795609 -3 1.55874 -2.683901 2.12132 -2.12132 C 2.683901 -1.55874 3 -.795609 3 0 C 3 .795609 2.683901 1.55874 2.12132 2.12132 C 1.55874 2.683901 .795609 3 0 3 C -.795609 3 -1.55874 2.683901 -2.12132 2.12132 C -2.683901 1.55874 -3 .795609 -3 0 C -3 -.795609 -2.683901 -1.55874 -2.12132 -2.12132 C -1.55874 -2.683901 -.795609 -3 0 -3 Z " fill="#0000ff"/>
<path transform="matrix(1,0,0,-1,56.479028,283.88267)" stroke-width="1" stroke-linecap="butt" stroke-linejoin="round" fill="none" stroke="#0000ff" d="M 0 -3 C .795609 -3 1.55874 -2.683901 2.12132 -2.12132 C 2.683901 -1.55874 3 -.795609 3 0 C 3 .795609 2.683901 1.55874 2.12132 2.12132 C 1.55874 2.683901 .795609 3 0 3 C -.795609 3 -1.55874 2.683901 -2.12132 2.12132 C -2.683901 1.55874 -3 .795609 -3 0 C -3 -.795609 -2.683901 -1.55874 -2.12132 -2.12132 C -1.55874 -2.683901 -.795609 -3 0 -3 Z "/>
</g>
<clipPath id="cp19">
<path transform="matrix(1,0,0,-1,88.94448,283.88267)" d="M -4 -4 L 4 -4 L 4 4 L -4 4 Z "/>
</clipPath>
<g clip-path="url(#cp19)">
<path transform="matrix(1,0,0,-1,88.94448,283.88267)" d="M 0 -3 C .795609 -3 1.55874 -2.683901 2.12132 -2.12132 C 2.683901 -1.55874 3 -.795609 3 0 C 3 .795609 2.683901 1.55874 2.12132 2.12132 C 1.55874 2.683901 .795609 3 0 3 C -.795609 3 -1.55874 2.683901 -2.12132 2.12132 C -2.683901 1.55874 -3 .795609 -3 0 C -3 -.795609 -2.683901 -1.55874 -2.12132 -2.12132 C -1.55874 -2.683901 -.795609 -3 0 -3 Z " fill="#0000ff"/>
<path transform="matrix(1,0,0,-1,88.94448,283.88267)" stroke-width="1" stroke-linecap="butt" stroke-linejoin="round" fill="none" stroke="#0000ff" d="M 0 -3 C .795609 -3 1.55874 -2.683901 2.12132 -2.12132 C 2.683901 -1.55874 3 -.795609 3 0 C 3 .795609 2.683901 1.55874 2.12132 2.12132 C 1.55874 2.683901 .795609 3 0 3 C -.795609 3 -1.55874 2.683901 -2.12132 2.12132 C -2.683901 1.55874 -3 .795609 -3 0 C -3 -.795609 -2.683901 -1.55874 -2.12132 -2.12132 C -1.55874 -2.683901 -.795609 -3 0 -3 Z "/>
</g>
<clipPath id="cp20">
<path transform="matrix(1,0,0,-1,121.409938,283.88267)" d="M -4 -4 L 4 -4 L 4 4 L -4 4 Z "/>
</clipPath>
<g clip-path="url(#cp20)">
<path transform="matrix(1,0,0,-1,121.409938,283.88267)" d="M 0 -3 C .795609 -3 1.55874 -2.683901 2.12132 -2.12132 C 2.683901 -1.55874 3 -.795609 3 0 C 3 .795609 2.683901 1.55874 2.12132 2.12132 C 1.55874 2.683901 .795609 3 0 3 C -.795609 3 -1.55874 2.683901 -2.12132 2.12132 C -2.683901 1.55874 -3 .795609 -3 0 C -3 -.795609 -2.683901 -1.55874 -2.12132 -2.12132 C -1.55874 -2.683901 -.795609 -3 0 -3 Z " fill="#0000ff"/>
<path transform="matrix(1,0,0,-1,121.409938,283.88267)" stroke-width="1" stroke-linecap="butt" stroke-linejoin="round" fill="none" stroke="#0000ff" d="M 0 -3 C .795609 -3 1.55874 -2.683901 2.12132 -2.12132 C 2.683901 -1.55874 3 -.795609 3 0 C 3 .795609 2.683901 1.55874 2.12132 2.12132 C 1.55874 2.683901 .795609 3 0 3 C -.795609 3 -1.55874 2.683901 -2.12132 2.12132 C -2.683901 1.55874 -3 .795609 -3 0 C -3 -.795609 -2.683901 -1.55874 -2.12132 -2.12132 C -1.55874 -2.683901 -.795609 -3 0 -3 Z "/>
</g>
<clipPath id="cp21">
<path transform="matrix(1,0,0,-1,153.8754,283.88267)" d="M -4 -4 L 4 -4 L 4 4 L -4 4 Z "/>
</clipPath>
<g clip-path="url(#cp21)">
<path transform="matrix(1,0,0,-1,153.8754,283.88267)" d="M 0 -3 C .795609 -3 1.55874 -2.683901 2.12132 -2.12132 C 2.683901 -1.55874 3 -.795609 3 0 C 3 .795609 2.683901 1.55874 2.12132 2.12132 C 1.55874 2.683901 .795609 3 0 3 C -.795609 3 -1.55874 2.683901 -2.12132 2.12132 C -2.683901 1.55874 -3 .795609 -3 0 C -3 -.795609 -2.683901 -1.55874 -2.12132 -2.12132 C -1.55874 -2.683901 -.795609 -3 0 -3 Z " fill="#0000ff"/>
<path transform="matrix(1,0,0,-1,153.8754,283.88267)" stroke-width="1" stroke-linecap="butt" stroke-linejoin="round" fill="none" stroke="#0000ff" d="M 0 -3 C .795609 -3 1.55874 -2.683901 2.12132 -2.12132 C 2.683901 -1.55874 3 -.795609 3 0 C 3 .795609 2.683901 1.55874 2.12132 2.12132 C 1.55874 2.683901 .795609 3 0 3 C -.795609 3 -1.55874 2.683901 -2.12132 2.12132 C -2.683901 1.55874 -3 .795609 -3 0 C -3 -.795609 -2.683901 -1.55874 -2.12132 -2.12132 C -1.55874 -2.683901 -.795609 -3 0 -3 Z "/>
</g>
<clipPath id="cp22">
<path transform="matrix(1,0,0,-1,186.34085,283.88267)" d="M -4 -4 L 4 -4 L 4 4 L -4 4 Z "/>
</clipPath>
<g clip-path="url(#cp22)">
<path transform="matrix(1,0,0,-1,186.34085,283.88267)" d="M 0 -3 C .795609 -3 1.55874 -2.683901 2.12132 -2.12132 C 2.683901 -1.55874 3 -.795609 3 0 C 3 .795609 2.683901 1.55874 2.12132 2.12132 C 1.55874 2.683901 .795609 3 0 3 C -.795609 3 -1.55874 2.683901 -2.12132 2.12132 C -2.683901 1.55874 -3 .795609 -3 0 C -3 -.795609 -2.683901 -1.55874 -2.12132 -2.12132 C -1.55874 -2.683901 -.795609 -3 0 -3 Z " fill="#0000ff"/>
<path transform="matrix(1,0,0,-1,186.34085,283.88267)" stroke-width="1" stroke-linecap="butt" stroke-linejoin="round" fill="none" stroke="#0000ff" d="M 0 -3 C .795609 -3 1.55874 -2.683901 2.12132 -2.12132 C 2.683901 -1.55874 3 -.795609 3 0 C 3 .795609 2.683901 1.55874 2.12132 2.12132 C 1.55874 2.683901 .795609 3 0 3 C -.795609 3 -1.55874 2.683901 -2.12132 2.12132 C -2.683901 1.55874 -3 .795609 -3 0 C -3 -.795609 -2.683901 -1.55874 -2.12132 -2.12132 C -1.55874 -2.683901 -.795609 -3 0 -3 Z "/>
</g>
<clipPath id="cp23">
<path transform="matrix(1,0,0,-1,218.8063,283.88267)" d="M -4 -4 L 4 -4 L 4 4 L -4 4 Z "/>
</clipPath>
<g clip-path="url(#cp23)">
<path transform="matrix(1,0,0,-1,218.8063,283.88267)" d="M 0 -3 C .795609 -3 1.55874 -2.683901 2.12132 -2.12132 C 2.683901 -1.55874 3 -.795609 3 0 C 3 .795609 2.683901 1.55874 2.12132 2.12132 C 1.55874 2.683901 .795609 3 0 3 C -.795609 3 -1.55874 2.683901 -2.12132 2.12132 C -2.683901 1.55874 -3 .795609 -3 0 C -3 -.795609 -2.683901 -1.55874 -2.12132 -2.12132 C -1.55874 -2.683901 -.795609 -3 0 -3 Z " fill="#0000ff"/>
<path transform="matrix(1,0,0,-1,218.8063,283.88267)" stroke-width="1" stroke-linecap="butt" stroke-linejoin="round" fill="none" stroke="#0000ff" d="M 0 -3 C .795609 -3 1.55874 -2.683901 2.12132 -2.12132 C 2.683901 -1.55874 3 -.795609 3 0 C 3 .795609 2.683901 1.55874 2.12132 2.12132 C 1.55874 2.683901 .795609 3 0 3 C -.795609 3 -1.55874 2.683901 -2.12132 2.12132 C -2.683901 1.55874 -3 .795609 -3 0 C -3 -.795609 -2.683901 -1.55874 -2.12132 -2.12132 C -1.55874 -2.683901 -.795609 -3 0 -3 Z "/>
</g>
<clipPath id="cp24">
<path transform="matrix(1,0,0,-1,251.27176,283.88267)" d="M -4 -4 L 4 -4 L 4 4 L -4 4 Z "/>
</clipPath>
<g clip-path="url(#cp24)">
<path transform="matrix(1,0,0,-1,251.27176,283.88267)" d="M 0 -3 C .795609 -3 1.55874 -2.683901 2.12132 -2.12132 C 2.683901 -1.55874 3 -.795609 3 0 C 3 .795609 2.683901 1.55874 2.12132 2.12132 C 1.55874 2.683901 .795609 3 0 3 C -.795609 3 -1.55874 2.683901 -2.12132 2.12132 C -2.683901 1.55874 -3 .795609 -3 0 C -3 -.795609 -2.683901 -1.55874 -2.12132 -2.12132 C -1.55874 -2.683901 -.795609 -3 0 -3 Z " fill="#0000ff"/>
<path transform="matrix(1,0,0,-1,251.27176,283.88267)" stroke-width="1" stroke-linecap="butt" stroke-linejoin="round" fill="none" stroke="#0000ff" d="M 0 -3 C .795609 -3 1.55874 -2.683901 2.12132 -2.12132 C 2.683901 -1.55874 3 -.795609 3 0 C 3 .795609 2.683901 1.55874 2.12132 2.12132 C 1.55874 2.683901 .795609 3 0 3 C -.795609 3 -1.55874 2.683901 -2.12132 2.12132 C -2.683901 1.55874 -3 .795609 -3 0 C -3 -.795609 -2.683901 -1.55874 -2.12132 -2.12132 C -1.55874 -2.683901 -.795609 -3 0 -3 Z "/>
</g>
<clipPath id="cp25">
<path transform="matrix(1,0,0,-1,283.7372,283.88267)" d="M -4 -4 L 4 -4 L 4 4 L -4 4 Z "/>
</clipPath>
<g clip-path="url(#cp25)">
<path transform="matrix(1,0,0,-1,283.7372,283.88267)" d="M 0 -3 C .795609 -3 1.55874 -2.683901 2.12132 -2.12132 C 2.683901 -1.55874 3 -.795609 3 0 C 3 .795609 2.683901 1.55874 2.12132 2.12132 C 1.55874 2.683901 .795609 3 0 3 C -.795609 3 -1.55874 2.683901 -2.12132 2.12132 C -2.683901 1.55874 -3 .795609 -3 0 C -3 -.795609 -2.683901 -1.55874 -2.12132 -2.12132 C -1.55874 -2.683901 -.795609 -3 0 -3 Z " fill="#0000ff"/>
<path transform="matrix(1,0,0,-1,283.7372,283.88267)" stroke-width="1" stroke-linecap="butt" stroke-linejoin="round" fill="none" stroke="#0000ff" d="M 0 -3 C .795609 -3 1.55874 -2.683901 2.12132 -2.12132 C 2.683901 -1.55874 3 -.795609 3 0 C 3 .795609 2.683901 1.55874 2.12132 2.12132 C 1.55874 2.683901 .795609 3 0 3 C -.795609 3 -1.55874 2.683901 -2.12132 2.12132 C -2.683901 1.55874 -3 .795609 -3 0 C -3 -.795609 -2.683901 -1.55874 -2.12132 -2.12132 C -1.55874 -2.683901 -.795609 -3 0 -3 Z "/>
</g>
<clipPath id="cp26">
<path transform="matrix(1,0,0,-1,316.20268,283.88267)" d="M -4 -4 L 4 -4 L 4 4 L -4 4 Z "/>
</clipPath>
<g clip-path="url(#cp26)">
<path transform="matrix(1,0,0,-1,316.20268,283.88267)" d="M 0 -3 C .795609 -3 1.55874 -2.683901 2.12132 -2.12132 C 2.683901 -1.55874 3 -.795609 3 0 C 3 .795609 2.683901 1.55874 2.12132 2.12132 C 1.55874 2.683901 .795609 3 0 3 C -.795609 3 -1.55874 2.683901 -2.12132 2.12132 C -2.683901 1.55874 -3 .795609 -3 0 C -3 -.795609 -2.683901 -1.55874 -2.12132 -2.12132 C -1.55874 -2.683901 -.795609 -3 0 -3 Z " fill="#0000ff"/>
<path transform="matrix(1,0,0,-1,316.20268,283.88267)" stroke-width="1" stroke-linecap="butt" stroke-linejoin="round" fill="none" stroke="#0000ff" d="M 0 -3 C .795609 -3 1.55874 -2.683901 2.12132 -2.12132 C 2.683901 -1.55874 3 -.795609 3 0 C 3 .795609 2.683901 1.55874 2.12132 2.12132 C 1.55874 2.683901 .795609 3 0 3 C -.795609 3 -1.55874 2.683901 -2.12132 2.12132 C -2.683901 1.55874 -3 .795609 -3 0 C -3 -.795609 -2.683901 -1.55874 -2.12132 -2.12132 C -1.55874 -2.683901 -.795609 -3 0 -3 Z "/>
</g>
<clipPath id="cp27">
<path transform="matrix(1,0,0,-1,348.66813,283.88267)" d="M -4 -4 L 4 -4 L 4 4 L -4 4 Z "/>
</clipPath>
<g clip-path="url(#cp27)">
<path transform="matrix(1,0,0,-1,348.66813,283.88267)" d="M 0 -3 C .795609 -3 1.55874 -2.683901 2.12132 -2.12132 C 2.683901 -1.55874 3 -.795609 3 0 C 3 .795609 2.683901 1.55874 2.12132 2.12132 C 1.55874 2.683901 .795609 3 0 3 C -.795609 3 -1.55874 2.683901 -2.12132 2.12132 C -2.683901 1.55874 -3 .795609 -3 0 C -3 -.795609 -2.683901 -1.55874 -2.12132 -2.12132 C -1.55874 -2.683901 -.795609 -3 0 -3 Z " fill="#0000ff"/>
<path transform="matrix(1,0,0,-1,348.66813,283.88267)" stroke-width="1" stroke-linecap="butt" stroke-linejoin="round" fill="none" stroke="#0000ff" d="M 0 -3 C .795609 -3 1.55874 -2.683901 2.12132 -2.12132 C 2.683901 -1.55874 3 -.795609 3 0 C 3 .795609 2.683901 1.55874 2.12132 2.12132 C 1.55874 2.683901 .795609 3 0 3 C -.795609 3 -1.55874 2.683901 -2.12132 2.12132 C -2.683901 1.55874 -3 .795609 -3 0 C -3 -.795609 -2.683901 -1.55874 -2.12132 -2.12132 C -1.55874 -2.683901 -.795609 -3 0 -3 Z "/>
</g>
<clipPath id="cp28">
<path transform="matrix(1,0,0,-1,381.13359,283.88267)" d="M -4 -4 L 4 -4 L 4 4 L -4 4 Z "/>
</clipPath>
<g clip-path="url(#cp28)">
<path transform="matrix(1,0,0,-1,381.13359,283.88267)" d="M 0 -3 C .795609 -3 1.55874 -2.683901 2.12132 -2.12132 C 2.683901 -1.55874 3 -.795609 3 0 C 3 .795609 2.683901 1.55874 2.12132 2.12132 C 1.55874 2.683901 .795609 3 0 3 C -.795609 3 -1.55874 2.683901 -2.12132 2.12132 C -2.683901 1.55874 -3 .795609 -3 0 C -3 -.795609 -2.683901 -1.55874 -2.12132 -2.12132 C -1.55874 -2.683901 -.795609 -3 0 -3 Z " fill="#0000ff"/>
<path transform="matrix(1,0,0,-1,381.13359,283.88267)" stroke-width="1" stroke-linecap="butt" stroke-linejoin="round" fill="none" stroke="#0000ff" d="M 0 -3 C .795609 -3 1.55874 -2.683901 2.12132 -2.12132 C 2.683901 -1.55874 3 -.795609 3 0 C 3 .795609 2.683901 1.55874 2.12132 2.12132 C 1.55874 2.683901 .795609 3 0 3 C -.795609 3 -1.55874 2.683901 -2.12132 2.12132 C -2.683901 1.55874 -3 .795609 -3 0 C -3 -.795609 -2.683901 -1.55874 -2.12132 -2.12132 C -1.55874 -2.683901 -.795609 -3 0 -3 Z "/>
</g>
<clipPath id="cp29">
<path transform="matrix(1,0,0,-1,218.8063,180.45595)" d="M -4 -4 L 4 -4 L 4 4 L -4 4 Z "/>
</clipPath>
<g clip-path="url(#cp29)">
<path transform="matrix(1,0,0,-1,218.8063,180.45595)" d="M 0 -3 C .795609 -3 1.55874 -2.683901 2.12132 -2.12132 C 2.683901 -1.55874 3 -.795609 3 0 C 3 .795609 2.683901 1.55874 2.12132 2.12132 C 1.55874 2.683901 .795609 3 0 3 C -.795609 3 -1.55874 2.683901 -2.12132 2.12132 C -2.683901 1.55874 -3 .795609 -3 0 C -3 -.795609 -2.683901 -1.55874 -2.12132 -2.12132 C -1.55874 -2.683901 -.795609 -3 0 -3 Z " fill="#ff0000"/>
<path transform="matrix(1,0,0,-1,218.8063,180.45595)" stroke-width="1" stroke-linecap="butt" stroke-linejoin="round" fill="none" stroke="#ff0000" d="M 0 -3 C .795609 -3 1.55874 -2.683901 2.12132 -2.12132 C 2.683901 -1.55874 3 -.795609 3 0 C 3 .795609 2.683901 1.55874 2.12132 2.12132 C 1.55874 2.683901 .795609 3 0 3 C -.795609 3 -1.55874 2.683901 -2.12132 2.12132 C -2.683901 1.55874 -3 .795609 -3 0 C -3 -.795609 -2.683901 -1.55874 -2.12132 -2.12132 C -1.55874 -2.683901 -.795609 -3 0 -3 Z "/>
</g>
</g>
<path transform="matrix(1,0,0,-1,-17.3537,327.07)" d="M 73.832729 38.016 L 73.832729 34.516 "/>
<path transform="matrix(1,0,0,-1,-17.3537,327.07)" stroke-width=".8" stroke-linecap="butt" stroke-linejoin="round" fill="none" stroke="#000000" d="M 73.832729 38.016 L 73.832729 34.516 "/>
<text xml:space="preserve" transform="matrix(1 0 -0 1 49.11184 303.64778)" font-size="10" font-family="DejaVuSans"><tspan y="0" x="8.378906">4</tspan></text>
<clipPath id="cp30">
<path transform="matrix(.01,0,0,-.01,49.11184,303.64778)" d="M -1021 -463 L 1794 -463 L 1794 1233 L -1021 1233 Z "/>
</clipPath>
<g clip-path="url(#cp30)">
<path transform="matrix(.01,0,0,-.01,49.11184,303.64778)" d="M 106 355 L 732 355 L 732 272 L 106 272 L 106 355 Z "/>
</g>
<path transform="matrix(1,0,0,-1,-17.3537,327.07)" d="M 114.41454 38.016 L 114.41454 34.516 "/>
<path transform="matrix(1,0,0,-1,-17.3537,327.07)" stroke-width=".8" stroke-linecap="butt" stroke-linejoin="round" fill="none" stroke="#000000" d="M 114.41454 38.016 L 114.41454 34.516 "/>
<text xml:space="preserve" transform="matrix(1 0 -0 1 89.69366 303.64778)" font-size="10" font-family="DejaVuSans"><tspan y="0" x="8.378906">3</tspan></text>
<clipPath id="cp31">
<path transform="matrix(.01,0,0,-.01,89.69366,303.64778)" d="M -1021 -463 L 1794 -463 L 1794 1233 L -1021 1233 Z "/>
</clipPath>
<g clip-path="url(#cp31)">
<path transform="matrix(.01,0,0,-.01,89.69366,303.64778)" d="M 106 355 L 732 355 L 732 272 L 106 272 L 106 355 Z "/>
</g>
<path transform="matrix(1,0,0,-1,-17.3537,327.07)" d="M 154.99637 38.016 L 154.99637 34.516 "/>
<path transform="matrix(1,0,0,-1,-17.3537,327.07)" stroke-width=".8" stroke-linecap="butt" stroke-linejoin="round" fill="none" stroke="#000000" d="M 154.99637 38.016 L 154.99637 34.516 "/>
<text xml:space="preserve" transform="matrix(1 0 -0 1 130.27548 303.64778)" font-size="10" font-family="DejaVuSans"><tspan y="0" x="8.378906">2</tspan></text>
<clipPath id="cp32">
<path transform="matrix(.01,0,0,-.01,130.27548,303.64778)" d="M -1021 -463 L 1794 -463 L 1794 1233 L -1021 1233 Z "/>
</clipPath>
<g clip-path="url(#cp32)">
<path transform="matrix(.01,0,0,-.01,130.27548,303.64778)" d="M 106 355 L 732 355 L 732 272 L 106 272 L 106 355 Z "/>
</g>
<path transform="matrix(1,0,0,-1,-17.3537,327.07)" d="M 195.57819 38.016 L 195.57819 34.516 "/>
<path transform="matrix(1,0,0,-1,-17.3537,327.07)" stroke-width=".8" stroke-linecap="butt" stroke-linejoin="round" fill="none" stroke="#000000" d="M 195.57819 38.016 L 195.57819 34.516 "/>
<text xml:space="preserve" transform="matrix(1 0 -0 1 170.8573 303.64778)" font-size="10" font-family="DejaVuSans"><tspan y="0" x="8.378906">1</tspan></text>
<clipPath id="cp33">
<path transform="matrix(.01,0,0,-.01,170.8573,303.64778)" d="M -1021 -463 L 1794 -463 L 1794 1233 L -1021 1233 Z "/>
</clipPath>
<g clip-path="url(#cp33)">
<path transform="matrix(.01,0,0,-.01,170.8573,303.64778)" d="M 106 355 L 732 355 L 732 272 L 106 272 L 106 355 Z "/>
</g>
<path transform="matrix(1,0,0,-1,-17.3537,327.07)" d="M 236.16 38.016 L 236.16 34.516 "/>
<path transform="matrix(1,0,0,-1,-17.3537,327.07)" stroke-width=".8" stroke-linecap="butt" stroke-linejoin="round" fill="none" stroke="#000000" d="M 236.16 38.016 L 236.16 34.516 "/>
<text xml:space="preserve" transform="matrix(1 0 -0 1 215.62662 303.64778)" font-size="10" font-family="DejaVuSans"><tspan y="0" x="0">0</tspan></text>
<path transform="matrix(1,0,0,-1,-17.3537,327.07)" d="M 276.74183 38.016 L 276.74183 34.516 "/>
<path transform="matrix(1,0,0,-1,-17.3537,327.07)" stroke-width=".8" stroke-linecap="butt" stroke-linejoin="round" fill="none" stroke="#000000" d="M 276.74183 38.016 L 276.74183 34.516 "/>
<text xml:space="preserve" transform="matrix(1 0 -0 1 256.20845 303.64778)" font-size="10" font-family="DejaVuSans"><tspan y="0" x="0">1</tspan></text>
<path transform="matrix(1,0,0,-1,-17.3537,327.07)" d="M 317.32365 38.016 L 317.32365 34.516 "/>
<path transform="matrix(1,0,0,-1,-17.3537,327.07)" stroke-width=".8" stroke-linecap="butt" stroke-linejoin="round" fill="none" stroke="#000000" d="M 317.32365 38.016 L 317.32365 34.516 "/>
<text xml:space="preserve" transform="matrix(1 0 -0 1 296.79026 303.64778)" font-size="10" font-family="DejaVuSans"><tspan y="0" x="0">2</tspan></text>
<path transform="matrix(1,0,0,-1,-17.3537,327.07)" d="M 357.90547 38.016 L 357.90547 34.516 "/>
<path transform="matrix(1,0,0,-1,-17.3537,327.07)" stroke-width=".8" stroke-linecap="butt" stroke-linejoin="round" fill="none" stroke="#000000" d="M 357.90547 38.016 L 357.90547 34.516 "/>
<text xml:space="preserve" transform="matrix(1 0 -0 1 337.37208 303.64778)" font-size="10" font-family="DejaVuSans"><tspan y="0" x="0">3</tspan></text>
<path transform="matrix(1,0,0,-1,-17.3537,327.07)" d="M 398.48728 38.016 L 398.48728 34.516 "/>
<path transform="matrix(1,0,0,-1,-17.3537,327.07)" stroke-width=".8" stroke-linecap="butt" stroke-linejoin="round" fill="none" stroke="#000000" d="M 398.48728 38.016 L 398.48728 34.516 "/>
<text xml:space="preserve" transform="matrix(1 0 -0 1 377.9539 303.64778)" font-size="10" font-family="DejaVuSans"><tspan y="0" x="0">4</tspan></text>
<path transform="matrix(1,0,0,-1,-17.3537,327.07)" d="M 57.6 43.187337 L 54.1 43.187337 "/>
<path transform="matrix(1,0,0,-1,-17.3537,327.07)" stroke-width=".8" stroke-linecap="butt" stroke-linejoin="round" fill="none" stroke="#000000" d="M 57.6 43.187337 L 54.1 43.187337 "/>
<text xml:space="preserve" transform="matrix(1 0 -0 1 10.980675 287.67955)" font-size="10" font-family="DejaVuSans"><tspan y="0" x="0 6.3600008 9.540001 15.900002">0.00</tspan></text>
<path transform="matrix(1,0,0,-1,-17.3537,327.07)" d="M 57.6 69.044017 L 54.1 69.044017 "/>
<path transform="matrix(1,0,0,-1,-17.3537,327.07)" stroke-width=".8" stroke-linecap="butt" stroke-linejoin="round" fill="none" stroke="#000000" d="M 57.6 69.044017 L 54.1 69.044017 "/>
<text xml:space="preserve" transform="matrix(1 0 -0 1 10.980675 261.82289)" font-size="10" font-family="DejaVuSans"><tspan y="0" x="0 6.3600008 9.540001 15.900002">0.25</tspan></text>
<path transform="matrix(1,0,0,-1,-17.3537,327.07)" d="M 57.6 94.90069 L 54.1 94.90069 "/>
<path transform="matrix(1,0,0,-1,-17.3537,327.07)" stroke-width=".8" stroke-linecap="butt" stroke-linejoin="round" fill="none" stroke="#000000" d="M 57.6 94.90069 L 54.1 94.90069 "/>
<text xml:space="preserve" transform="matrix(1 0 -0 1 10.980675 235.96619)" font-size="10" font-family="DejaVuSans"><tspan y="0" x="0 6.3600008 9.540001 15.900002">0.50</tspan></text>
<path transform="matrix(1,0,0,-1,-17.3537,327.07)" d="M 57.6 120.75737 L 54.1 120.75737 "/>
<path transform="matrix(1,0,0,-1,-17.3537,327.07)" stroke-width=".8" stroke-linecap="butt" stroke-linejoin="round" fill="none" stroke="#000000" d="M 57.6 120.75737 L 54.1 120.75737 "/>
<text xml:space="preserve" transform="matrix(1 0 -0 1 10.980675 210.10951)" font-size="10" font-family="DejaVuSans"><tspan y="0" x="0 6.3600008 9.540001 15.900002">0.75</tspan></text>
<path transform="matrix(1,0,0,-1,-17.3537,327.07)" d="M 57.6 146.61405 L 54.1 146.61405 "/>
<path transform="matrix(1,0,0,-1,-17.3537,327.07)" stroke-width=".8" stroke-linecap="butt" stroke-linejoin="round" fill="none" stroke="#000000" d="M 57.6 146.61405 L 54.1 146.61405 "/>
<text xml:space="preserve" transform="matrix(1 0 -0 1 10.980675 184.25284)" font-size="10" font-family="DejaVuSans"><tspan y="0" x="0 6.3600008 9.540001 15.900002">1.00</tspan></text>
<path transform="matrix(1,0,0,-1,-17.3537,327.07)" stroke-width=".8" stroke-linecap="square" stroke-miterlimit="10" stroke-linejoin="miter" fill="none" stroke="#000000" d="M 57.6 38.016 L 57.6 151.78539 "/>
<path transform="matrix(1,0,0,-1,-17.3537,327.07)" stroke-width=".8" stroke-linecap="square" stroke-miterlimit="10" stroke-linejoin="miter" fill="none" stroke="#000000" d="M 414.72 38.016 L 414.72 151.78539 "/>
<path transform="matrix(1,0,0,-1,-17.3537,327.07)" stroke-width=".8" stroke-linecap="square" stroke-miterlimit="10" stroke-linejoin="miter" fill="none" stroke="#000000" d="M 57.6 38.016 L 414.72 38.016 "/>
<path transform="matrix(1,0,0,-1,-17.3537,327.07)" stroke-width=".8" stroke-linecap="square" stroke-miterlimit="10" stroke-linejoin="miter" fill="none" stroke="#000000" d="M 57.6 151.78539 L 414.72 151.78539 "/>
<text xml:space="preserve" transform="matrix(1 0 -0 1 206.43912 169.28462)" font-size="12" font-family="DejaVuSans"><tspan y="0" x="0 8.376 17.82">COF</tspan></text>
<g>
<path transform="matrix(1,0,0,-1,-17.3537,327.07)" d="M 64.6 114.44163 L 130.56876 114.44163 C 131.90209 114.44163 132.56876 115.1083 132.56876 116.44163 L 132.56876 144.78539 C 132.56876 146.11872 131.90209 146.78539 130.56876 146.78539 L 64.6 146.78539 C 63.266668 146.78539 62.6 146.11872 62.6 144.78539 L 62.6 116.44163 C 62.6 115.1083 63.266668 114.44163 64.6 114.44163 Z " fill="#ffffff" fill-opacity=".8"/>
<path transform="matrix(1,0,0,-1,-17.3537,327.07)" stroke-width="1" stroke-linecap="butt" stroke-miterlimit="10" stroke-linejoin="miter" fill="none" stroke="#d5d6d5" stroke-opacity=".8" d="M 64.6 114.44163 L 130.56876 114.44163 C 131.90209 114.44163 132.56876 115.1083 132.56876 116.44163 L 132.56876 144.78539 C 132.56876 146.11872 131.90209 146.78539 130.56876 146.78539 L 64.6 146.78539 C 63.266668 146.78539 62.6 146.11872 62.6 144.78539 L 62.6 116.44163 C 62.6 115.1083 63.266668 114.44163 64.6 114.44163 Z "/>
</g>
<path transform="matrix(1,0,0,-1,-17.3537,327.07)" d="M 76.6 135.69164 C 77.39561 135.69164 78.15874 136.00774 78.72132 136.57032 C 79.2839 137.13289 79.6 137.89603 79.6 138.69164 C 79.6 139.48725 79.2839 140.25037 78.72132 140.81296 C 78.15874 141.37554 77.39561 141.69164 76.6 141.69164 C 75.80439 141.69164 75.04126 141.37554 74.47868 140.81296 C 73.9161 140.25037 73.6 139.48725 73.6 138.69164 C 73.6 137.89603 73.9161 137.13289 74.47868 136.57032 C 75.04126 136.00774 75.80439 135.69164 76.6 135.69164 Z " fill="#0000ff"/>
<path transform="matrix(1,0,0,-1,-17.3537,327.07)" stroke-width="1" stroke-linecap="butt" stroke-linejoin="round" fill="none" stroke="#1f77b4" d="M 76.6 135.69164 C 77.39561 135.69164 78.15874 136.00774 78.72132 136.57032 C 79.2839 137.13289 79.6 137.89603 79.6 138.69164 C 79.6 139.48725 79.2839 140.25037 78.72132 140.81296 C 78.15874 141.37554 77.39561 141.69164 76.6 141.69164 C 75.80439 141.69164 75.04126 141.37554 74.47868 140.81296 C 73.9161 140.25037 73.6 139.48725 73.6 138.69164 C 73.6 137.89603 73.9161 137.13289 74.47868 136.57032 C 75.04126 136.00774 75.80439 135.69164 76.6 135.69164 Z "/>
<text xml:space="preserve" transform="matrix(1 0 -0 1 77.2463 191.87837)" font-size="10" font-family="DejaVuSans"><tspan y="0" x="0 2.9500004 9.290001 12.070002 14.850002 21.000002">Inlier</tspan></text>
<path transform="matrix(1,0,0,-1,-17.3537,327.07)" d="M 76.6 121.01975 C 77.39561 121.01975 78.15874 121.33585 78.72132 121.89844 C 79.2839 122.46101 79.6 123.224147 79.6 124.01975 C 79.6 124.81537 79.2839 125.5785 78.72132 126.141078 C 78.15874 126.70366 77.39561 127.01975 76.6 127.01975 C 75.80439 127.01975 75.04126 126.70366 74.47868 126.141078 C 73.9161 125.5785 73.6 124.81537 73.6 124.01975 C 73.6 123.224147 73.9161 122.46101 74.47868 121.89844 C 75.04126 121.33585 75.80439 121.01975 76.6 121.01975 Z " fill="#ff0000"/>
<path transform="matrix(1,0,0,-1,-17.3537,327.07)" stroke-width="1" stroke-linecap="butt" stroke-linejoin="round" fill="none" stroke="#1f77b4" d="M 76.6 121.01975 C 77.39561 121.01975 78.15874 121.33585 78.72132 121.89844 C 79.2839 122.46101 79.6 123.224147 79.6 124.01975 C 79.6 124.81537 79.2839 125.5785 78.72132 126.141078 C 78.15874 126.70366 77.39561 127.01975 76.6 127.01975 C 75.80439 127.01975 75.04126 126.70366 74.47868 126.141078 C 73.9161 125.5785 73.6 124.81537 73.6 124.01975 C 73.6 123.224147 73.9161 122.46101 74.47868 121.89844 C 75.04126 121.33585 75.80439 121.01975 76.6 121.01975 Z "/>
<text xml:space="preserve" transform="matrix(1 0 -0 1 77.2463 206.55027)" font-size="10" font-family="DejaVuSans"><tspan y="0" x="0 7.870001 14.210001 18.130002 20.910002 23.690003 29.840003">Outlier</tspan></text>
</g>
</svg>
