<?xml version="1.0" encoding="UTF-8" standalone="no"?>
<svg
   xmlns:dc="http://purl.org/dc/elements/1.1/"
   xmlns:cc="http://creativecommons.org/ns#"
   xmlns:rdf="http://www.w3.org/1999/02/22-rdf-syntax-ns#"
   xmlns:svg="http://www.w3.org/2000/svg"
   xmlns="http://www.w3.org/2000/svg"
   viewBox="0 0 1036.8 499.96799"
   height="499.96799"
   width="1036.8"
   xml:space="preserve"
   id="svg2"
   version="1.1"><metadata
     id="metadata8"><rdf:RDF><cc:Work
         rdf:about=""><dc:format>image/svg+xml</dc:format><dc:type
           rdf:resource="http://purl.org/dc/dcmitype/StillImage" /></cc:Work></rdf:RDF></metadata><defs
     id="defs6"><clipPath
       id="clipPath138"
       clipPathUnits="userSpaceOnUse"><path
         id="path136"
         d="M 97.2,41.24736 H 699.84 V 329.97888 H 97.2 Z" /></clipPath><clipPath
       id="clipPath148"
       clipPathUnits="userSpaceOnUse"><path
         id="path146"
         d="M 97.2,41.24736 H 699.84 V 329.97888 H 97.2 Z" /></clipPath></defs><g
     transform="matrix(1.3333333,0,0,-1.3333333,0,499.968)"
     id="g10"><path
       id="path12"
       style="fill:#ffffff;fill-opacity:1;fill-rule:nonzero;stroke:none"
       d="M 0,0 H 777.6 V 374.976 H 0 Z" /><path
       id="path14"
       style="fill:#ffffff;fill-opacity:1;fill-rule:nonzero;stroke:none"
       d="M 97.2,41.24736 H 699.84 V 329.97888 H 97.2 Z" /><path
       id="path16"
       style="fill:#000000;fill-opacity:1;fill-rule:nonzero;stroke:#000000;stroke-width:0.80000001;stroke-linecap:butt;stroke-linejoin:round;stroke-miterlimit:10;stroke-dasharray:none;stroke-opacity:1"
       d="m 121.00324,41.24736 v -3.5" /><g
       transform="translate(117.82355,26.65361)"
       id="g18"><text
         id="text22"
         style="font-variant:normal;font-weight:normal;font-size:10px;font-family:'DejaVu Sans';-inkscape-font-specification:DejaVuSans;writing-mode:lr-tb;fill:#000000;fill-opacity:1;fill-rule:nonzero;stroke:none"
         transform="scale(1,-1)"><tspan
           id="tspan20"
           y="0"
           x="0">0</tspan></text>
</g><path
       id="path24"
       style="fill:#000000;fill-opacity:1;fill-rule:nonzero;stroke:#000000;stroke-width:0.80000001;stroke-linecap:butt;stroke-linejoin:round;stroke-miterlimit:10;stroke-dasharray:none;stroke-opacity:1"
       d="m 204.18484,41.24736 v -3.5" /><g
       transform="translate(201.00515,26.65361)"
       id="g26"><text
         id="text30"
         style="font-variant:normal;font-weight:normal;font-size:10px;font-family:'DejaVu Sans';-inkscape-font-specification:DejaVuSans;writing-mode:lr-tb;fill:#000000;fill-opacity:1;fill-rule:nonzero;stroke:none"
         transform="scale(1,-1)"><tspan
           id="tspan28"
           y="0"
           x="0">1</tspan></text>
</g><path
       id="path32"
       style="fill:#000000;fill-opacity:1;fill-rule:nonzero;stroke:#000000;stroke-width:0.80000001;stroke-linecap:butt;stroke-linejoin:round;stroke-miterlimit:10;stroke-dasharray:none;stroke-opacity:1"
       d="m 287.36643,41.24736 v -3.5" /><g
       transform="translate(284.18675,26.65361)"
       id="g34"><text
         id="text38"
         style="font-variant:normal;font-weight:normal;font-size:10px;font-family:'DejaVu Sans';-inkscape-font-specification:DejaVuSans;writing-mode:lr-tb;fill:#000000;fill-opacity:1;fill-rule:nonzero;stroke:none"
         transform="scale(1,-1)"><tspan
           id="tspan36"
           y="0"
           x="0">2</tspan></text>
</g><path
       id="path40"
       style="fill:#000000;fill-opacity:1;fill-rule:nonzero;stroke:#000000;stroke-width:0.80000001;stroke-linecap:butt;stroke-linejoin:round;stroke-miterlimit:10;stroke-dasharray:none;stroke-opacity:1"
       d="m 370.54803,41.24736 v -3.5" /><g
       transform="translate(367.36834,26.65361)"
       id="g42"><text
         id="text46"
         style="font-variant:normal;font-weight:normal;font-size:10px;font-family:'DejaVu Sans';-inkscape-font-specification:DejaVuSans;writing-mode:lr-tb;fill:#000000;fill-opacity:1;fill-rule:nonzero;stroke:none"
         transform="scale(1,-1)"><tspan
           id="tspan44"
           y="0"
           x="0">3</tspan></text>
</g><path
       id="path48"
       style="fill:#000000;fill-opacity:1;fill-rule:nonzero;stroke:#000000;stroke-width:0.80000001;stroke-linecap:butt;stroke-linejoin:round;stroke-miterlimit:10;stroke-dasharray:none;stroke-opacity:1"
       d="m 453.72963,41.24736 v -3.5" /><g
       transform="translate(450.54994,26.65361)"
       id="g50"><text
         id="text54"
         style="font-variant:normal;font-weight:normal;font-size:10px;font-family:'DejaVu Sans';-inkscape-font-specification:DejaVuSans;writing-mode:lr-tb;fill:#000000;fill-opacity:1;fill-rule:nonzero;stroke:none"
         transform="scale(1,-1)"><tspan
           id="tspan52"
           y="0"
           x="0">4</tspan></text>
</g><path
       id="path56"
       style="fill:#000000;fill-opacity:1;fill-rule:nonzero;stroke:#000000;stroke-width:0.80000001;stroke-linecap:butt;stroke-linejoin:round;stroke-miterlimit:10;stroke-dasharray:none;stroke-opacity:1"
       d="m 536.91123,41.24736 v -3.5" /><g
       transform="translate(533.73154,26.65361)"
       id="g58"><text
         id="text62"
         style="font-variant:normal;font-weight:normal;font-size:10px;font-family:'DejaVu Sans';-inkscape-font-specification:DejaVuSans;writing-mode:lr-tb;fill:#000000;fill-opacity:1;fill-rule:nonzero;stroke:none"
         transform="scale(1,-1)"><tspan
           id="tspan60"
           y="0"
           x="0">5</tspan></text>
</g><path
       id="path64"
       style="fill:#000000;fill-opacity:1;fill-rule:nonzero;stroke:#000000;stroke-width:0.80000001;stroke-linecap:butt;stroke-linejoin:round;stroke-miterlimit:10;stroke-dasharray:none;stroke-opacity:1"
       d="m 620.09282,41.24736 v -3.5" /><g
       transform="translate(616.91314,26.65361)"
       id="g66"><text
         id="text70"
         style="font-variant:normal;font-weight:normal;font-size:10px;font-family:'DejaVu Sans';-inkscape-font-specification:DejaVuSans;writing-mode:lr-tb;fill:#000000;fill-opacity:1;fill-rule:nonzero;stroke:none"
         transform="scale(1,-1)"><tspan
           id="tspan68"
           y="0"
           x="0">6</tspan></text>
</g><g
       transform="translate(344.38719,12.981735)"
       id="g72"><text
         id="text76"
         style="font-variant:normal;font-weight:normal;font-size:10px;font-family:'DejaVu Sans';-inkscape-font-specification:DejaVuSans;writing-mode:lr-tb;fill:#000000;fill-opacity:1;fill-rule:nonzero;stroke:none"
         transform="scale(1,-1)"><tspan
           id="tspan74"
           y="0"
           x="0 7.6999998 10.48 15.69 19.610001 25.74 32.080002 37.580002 43.73 46.91 50.830002 56.950001 60.130001 64.050003 70.389999 76.540001 79.720001 85.839996 89.949997 92.730003 99.080002 101.86">Distance to the origin</tspan></text>
</g><path
       id="path78"
       style="fill:#000000;fill-opacity:1;fill-rule:nonzero;stroke:#000000;stroke-width:0.80000001;stroke-linecap:butt;stroke-linejoin:round;stroke-miterlimit:10;stroke-dasharray:none;stroke-opacity:1"
       d="M 97.2,59.258834 H 93.7" /><g
       transform="translate(74.29375,55.461959)"
       id="g80"><text
         id="text84"
         style="font-variant:normal;font-weight:normal;font-size:10px;font-family:'DejaVu Sans';-inkscape-font-specification:DejaVuSans;writing-mode:lr-tb;fill:#000000;fill-opacity:1;fill-rule:nonzero;stroke:none"
         transform="scale(1,-1)"><tspan
           id="tspan82"
           y="0"
           x="0 6.3600001 9.54">0.5</tspan></text>
</g><path
       id="path86"
       style="fill:#000000;fill-opacity:1;fill-rule:nonzero;stroke:#000000;stroke-width:0.80000001;stroke-linecap:butt;stroke-linejoin:round;stroke-miterlimit:10;stroke-dasharray:none;stroke-opacity:1"
       d="M 97.2,110.77801 H 93.7" /><g
       transform="translate(74.29375,106.98114)"
       id="g88"><text
         id="text92"
         style="font-variant:normal;font-weight:normal;font-size:10px;font-family:'DejaVu Sans';-inkscape-font-specification:DejaVuSans;writing-mode:lr-tb;fill:#000000;fill-opacity:1;fill-rule:nonzero;stroke:none"
         transform="scale(1,-1)"><tspan
           id="tspan90"
           y="0"
           x="0 6.3600001 9.54">0.6</tspan></text>
</g><path
       id="path94"
       style="fill:#000000;fill-opacity:1;fill-rule:nonzero;stroke:#000000;stroke-width:0.80000001;stroke-linecap:butt;stroke-linejoin:round;stroke-miterlimit:10;stroke-dasharray:none;stroke-opacity:1"
       d="M 97.2,162.29719 H 93.7" /><g
       transform="translate(74.29375,158.50031)"
       id="g96"><text
         id="text100"
         style="font-variant:normal;font-weight:normal;font-size:10px;font-family:'DejaVu Sans';-inkscape-font-specification:DejaVuSans;writing-mode:lr-tb;fill:#000000;fill-opacity:1;fill-rule:nonzero;stroke:none"
         transform="scale(1,-1)"><tspan
           id="tspan98"
           y="0"
           x="0 6.3600001 9.54">0.7</tspan></text>
</g><path
       id="path102"
       style="fill:#000000;fill-opacity:1;fill-rule:nonzero;stroke:#000000;stroke-width:0.80000001;stroke-linecap:butt;stroke-linejoin:round;stroke-miterlimit:10;stroke-dasharray:none;stroke-opacity:1"
       d="M 97.2,213.81637 H 93.7" /><g
       transform="translate(74.29375,210.01949)"
       id="g104"><text
         id="text108"
         style="font-variant:normal;font-weight:normal;font-size:10px;font-family:'DejaVu Sans';-inkscape-font-specification:DejaVuSans;writing-mode:lr-tb;fill:#000000;fill-opacity:1;fill-rule:nonzero;stroke:none"
         transform="scale(1,-1)"><tspan
           id="tspan106"
           y="0"
           x="0 6.3600001 9.54">0.8</tspan></text>
</g><path
       id="path110"
       style="fill:#000000;fill-opacity:1;fill-rule:nonzero;stroke:#000000;stroke-width:0.80000001;stroke-linecap:butt;stroke-linejoin:round;stroke-miterlimit:10;stroke-dasharray:none;stroke-opacity:1"
       d="M 97.2,265.33554 H 93.7" /><g
       transform="translate(74.29375,261.53867)"
       id="g112"><text
         id="text116"
         style="font-variant:normal;font-weight:normal;font-size:10px;font-family:'DejaVu Sans';-inkscape-font-specification:DejaVuSans;writing-mode:lr-tb;fill:#000000;fill-opacity:1;fill-rule:nonzero;stroke:none"
         transform="scale(1,-1)"><tspan
           id="tspan114"
           y="0"
           x="0 6.3600001 9.54">0.9</tspan></text>
</g><path
       id="path118"
       style="fill:#000000;fill-opacity:1;fill-rule:nonzero;stroke:#000000;stroke-width:0.80000001;stroke-linecap:butt;stroke-linejoin:round;stroke-miterlimit:10;stroke-dasharray:none;stroke-opacity:1"
       d="M 97.2,316.85472 H 93.7" /><g
       transform="translate(74.29375,313.05785)"
       id="g120"><text
         id="text124"
         style="font-variant:normal;font-weight:normal;font-size:10px;font-family:'DejaVu Sans';-inkscape-font-specification:DejaVuSans;writing-mode:lr-tb;fill:#000000;fill-opacity:1;fill-rule:nonzero;stroke:none"
         transform="scale(1,-1)"><tspan
           id="tspan122"
           y="0"
           x="0 6.3600001 9.54">1.0</tspan></text>
</g><g
       transform="rotate(90,-35.718279,103.9339)"
       id="g126"><text
         id="text130"
         style="font-variant:normal;font-weight:normal;font-size:10px;font-family:'DejaVu Sans';-inkscape-font-specification:DejaVuSans;writing-mode:lr-tb;fill:#000000;fill-opacity:1;fill-rule:nonzero;stroke:none"
         transform="scale(1,-1)"><tspan
           id="tspan128"
           y="0"
           x="0 7.8699999 14.21 18.129999 20.91 23.690001 29.84 33.950001 37.130001 42.630001 48.75 55.09 58.610001 61.389999 67.739998 73.889999 80.230003 85.730003">Outlier confidence</tspan></text>
</g><g
       id="g132"><g
         clip-path="url(#clipPath138)"
         id="g134"><path
           id="path140"
           style="fill:none;stroke:#1f77b4;stroke-width:1.5;stroke-linecap:square;stroke-linejoin:round;stroke-miterlimit:10;stroke-dasharray:none;stroke-opacity:1"
           d="m 124.59273,316.85472 85.59819,-0.002 0.46704,-0.53257 0.14831,0.53395 3.57215,1.9e-4 0.11427,-0.24092 0.0173,-1.39619 1.18876,-1.64472 0.62473,3.2776 0.95286,-0.10035 0.8097,-6.20143 1.60423,5.5223 0.0172,0.78371 1.64039,-0.0437 0.10244,-0.31673 0.18448,0.20099 2.17879,-43.50103 0.0564,-11.2902 0.0689,54.95071 0.76587,-1.1e-4 1.36084,-2.32993 0.1904,-18.07469 0.3244,-63.56255 2.36101,79.39357 0.32869,-7.0265 0.30563,-3.87231 0.0768,15.44462 3.74698,-262.4553 1.64435,194.14555 0.0803,-53.89538 0.88966,-22.57358 0.41811,42.87871 3.18932,-131.289371 0.41609,206.615271 2.46291,-177.52645 1.23726,-19.723398 0.004,27.903418 0.57653,187.34823 2.9946,-25.68069 6.80589,-89.41698 0.55639,-25.13571 0.27963,-20.63863 6.40715,68.6588 0.30395,-74.99817 1.97879,112.97771 11.57036,27.16278 1.46858,-44.80053 5.26911,32.54114 34.4182,35.42876 2.05602,7.15655 6.89241,-20.51931 2.84585,7.61955 8.66753,9.93708 23.95565,8.30785 5.94373,-3.32358 6.62855,2.98448 3.77223,-1.65427 13.81456,1.91001 6.66731,-1.06749 1.67077,0.97864 4.49876,0.17221 27.55079,-0.0167 5.91054,-0.62146 0.85786,0.63807 234.34391,10e-5 v 0" /></g></g><g
       id="g142"><g
         clip-path="url(#clipPath148)"
         id="g144"><path
           id="path150"
           style="fill:none;stroke:#ff0000;stroke-width:1.5;stroke-linecap:butt;stroke-linejoin:round;stroke-miterlimit:10;stroke-dasharray:5.55, 2.4;stroke-dashoffset:0;stroke-opacity:1"
           d="M 240.41428,41.24736 V 329.97888" /></g></g><g
       id="g152"><path
         id="path154"
         style="fill:none;stroke:#000000;stroke-width:0.80000001;stroke-linecap:square;stroke-linejoin:miter;stroke-miterlimit:10;stroke-dasharray:none;stroke-opacity:1"
         d="M 97.2,41.24736 V 329.97888" /><path
         id="path156"
         style="fill:none;stroke:#000000;stroke-width:0.80000001;stroke-linecap:square;stroke-linejoin:miter;stroke-miterlimit:10;stroke-dasharray:none;stroke-opacity:1"
         d="M 699.84,41.24736 V 329.97888" /><path
         id="path158"
         style="fill:none;stroke:#000000;stroke-width:0.80000001;stroke-linecap:square;stroke-linejoin:miter;stroke-miterlimit:10;stroke-dasharray:none;stroke-opacity:1"
         d="M 97.2,41.24736 H 699.84" /><path
         id="path160"
         style="fill:none;stroke:#000000;stroke-width:0.80000001;stroke-linecap:square;stroke-linejoin:miter;stroke-miterlimit:10;stroke-dasharray:none;stroke-opacity:1"
         d="M 97.2,329.97888 H 699.84" /><g
         transform="translate(343.38719,335.97888)"
         id="g162"><text
           id="text166"
           style="font-variant:normal;font-weight:normal;font-size:12px;font-family:'DejaVu Sans';-inkscape-font-specification:DejaVuSans;writing-mode:lr-tb;fill:#000000;fill-opacity:1;fill-rule:nonzero;stroke:none"
           transform="scale(1,-1)"><tspan
             id="tspan164"
             y="0"
             x="0 9.4440002 17.052 21.756001 25.091999 28.427999 35.807999 40.740002 44.556 51.155998 58.5 66.108002 70.332001 73.667999 81.288002 88.667999 96.276001 102.876">Outlier confidence</tspan></text>
</g><path
         id="path168"
         style="fill:#ffffff;fill-opacity:0.8;fill-rule:nonzero;stroke:#cccccc;stroke-width:1;stroke-linecap:butt;stroke-linejoin:miter;stroke-miterlimit:10;stroke-dasharray:none;stroke-opacity:0.8"
         d="M 544.35562,46.24736 H 692.84 c 1.33333,0 2,0.666667 2,2 v 28.34375 c 0,1.333333 -0.66667,2 -2,2 H 544.35562 c -1.33333,0 -2,-0.666667 -2,-2 V 48.24736 c 0,-1.333333 0.66667,-2 2,-2 z" /><path
         id="path170"
         style="fill:none;stroke:#1f77b4;stroke-width:1.5;stroke-linecap:square;stroke-linejoin:round;stroke-miterlimit:10;stroke-dasharray:none;stroke-opacity:1"
         d="m 546.35562,70.49736 h 10 10" /><g
         transform="translate(574.35562,66.99736)"
         id="g172"><text
           id="text176"
           style="font-variant:normal;font-weight:normal;font-size:10px;font-family:'DejaVu Sans';-inkscape-font-specification:DejaVuSans;writing-mode:lr-tb;fill:#000000;fill-opacity:1;fill-rule:nonzero;stroke:none"
           transform="scale(1,-1)"><tspan
             id="tspan174"
             y="0"
             x="0 6.98 13.1 19.440001 22.959999 25.74 32.09 38.240002 44.580002 50.080002">Confidence</tspan></text>
</g><path
         id="path178"
         style="fill:none;stroke:#ff0000;stroke-width:1.5;stroke-linecap:butt;stroke-linejoin:round;stroke-miterlimit:10;stroke-dasharray:5.55, 2.4;stroke-dashoffset:0;stroke-opacity:1"
         d="m 546.35562,55.825485 h 10 10" /><g
         transform="translate(574.35562,52.325485)"
         id="g180"><text
           id="text184"
           style="font-variant:normal;font-weight:normal;font-size:10px;font-family:'DejaVu Sans';-inkscape-font-specification:DejaVuSans;writing-mode:lr-tb;fill:#000000;fill-opacity:1;fill-rule:nonzero;stroke:none"
           transform="scale(1,-1)"><tspan
             id="tspan182"
             y="0"
             x="0 6.98 9.7600002 15.89 21.1 26.309999 29.09 32.610001 35.389999 40.889999 47.02 50.939999 53.720001 59.84 66.18 69.360001 73.279999 79.620003 83.511253 89.661247 94.871246 101.21125 107.33125 110.11125">Classification threshold</tspan></text>
</g></g></g></svg>