<?xml version="1.0" encoding="UTF-8" standalone="no"?>
<svg
   xmlns:dc="http://purl.org/dc/elements/1.1/"
   xmlns:cc="http://creativecommons.org/ns#"
   xmlns:rdf="http://www.w3.org/1999/02/22-rdf-syntax-ns#"
   xmlns:svg="http://www.w3.org/2000/svg"
   xmlns="http://www.w3.org/2000/svg"
   viewBox="0 0 264 181.44"
   height="181.44"
   width="264"
   xml:space="preserve"
   id="svg2"
   version="1.1"><metadata
     id="metadata8"><rdf:RDF><cc:Work
         rdf:about=""><dc:format>image/svg+xml</dc:format><dc:type
           rdf:resource="http://purl.org/dc/dcmitype/StillImage" /></cc:Work></rdf:RDF></metadata><defs
     id="defs6"><clipPath
       id="clipPath18"
       clipPathUnits="userSpaceOnUse"><path
         style="clip-rule:evenodd"
         id="path16"
         d="M 0,0 H 824.99994 V 564.94562 H 0 Z" /></clipPath><clipPath
       id="clipPath30"
       clipPathUnits="userSpaceOnUse"><path
         style="clip-rule:evenodd"
         id="path28"
         d="M 0,0 H 824.99994 V 561.95648 H 0 Z" /></clipPath></defs><g
     transform="matrix(0.31999998,0,0,0.31999998,0,1.8693334e-6)"
     id="g10"><g
       id="g12"><g
         clip-path="url(#clipPath18)"
         id="g14"><g
           transform="scale(2.9891303)"
           id="g20"><path
             id="path22"
             style="fill:#ffffff;fill-opacity:1;fill-rule:nonzero;stroke:none"
             d="M 0,0 H 276 V 189 H 0 Z" /></g></g></g><g
       id="g24"><g
         clip-path="url(#clipPath30)"
         id="g26"><g
           transform="matrix(2.9891303,0,0,2.9891303,1.4945651,1.4945651)"
           id="g32"><path
             id="path34"
             style="fill:none;stroke:#000000;stroke-width:1;stroke-linecap:butt;stroke-linejoin:miter;stroke-miterlimit:10;stroke-dasharray:none;stroke-opacity:1"
             d="M 8,176 V 14.37" /><path
             id="path36"
             style="fill:#000000;fill-opacity:1;fill-rule:nonzero;stroke:none"
             d="M 8,9.1199999 11.5,16.120001 8,14.37 4.5,16.120001 Z" /><path
             id="path38"
             style="fill:none;stroke:#000000;stroke-width:1;stroke-linecap:butt;stroke-linejoin:miter;stroke-miterlimit:10;stroke-dasharray:none;stroke-opacity:1"
             d="M 8,9.1199999 11.5,16.120001 8,14.37 4.5,16.120001 Z" /><path
             id="path40"
             style="fill:none;stroke:#000000;stroke-width:1;stroke-linecap:butt;stroke-linejoin:miter;stroke-miterlimit:10;stroke-dasharray:none;stroke-opacity:1"
             d="M 8,176 H 259.63" /><path
             id="path42"
             style="fill:#000000;fill-opacity:1;fill-rule:nonzero;stroke:none"
             d="m 264.88,176 -7,3.5 1.75,-3.5 -1.75,-3.5 z" /><path
             id="path44"
             style="fill:none;stroke:#000000;stroke-width:1;stroke-linecap:butt;stroke-linejoin:miter;stroke-miterlimit:10;stroke-dasharray:none;stroke-opacity:1"
             d="m 264.88,176 -7,3.5 1.75,-3.5 -1.75,-3.5 z" /><path
             id="path46"
             style="fill:#f8cecc;fill-opacity:1;fill-rule:nonzero;stroke:none"
             d="m 20,176 c -2e-6,0.39781 -0.07612,0.78049 -0.228365,1.14803 -0.152241,0.36753 -0.369013,0.69195 -0.650316,0.97328 -0.281305,0.28129 -0.60573,0.49806 -0.973271,0.65031 C 17.780508,178.92386 17.397825,178.99998 17,179 c -0.397825,-2e-5 -0.78051,-0.0761 -1.148053,-0.22838 -0.367542,-0.15225 -0.691965,-0.36902 -0.973269,-0.65031 -0.281304,-0.28133 -0.498077,-0.60575 -0.650319,-0.97328 C 14.076119,176.78049 13.999999,176.39781 14,176 c -10e-7,-0.39784 0.07612,-0.78055 0.228359,-1.14809 0.152242,-0.36753 0.369015,-0.69195 0.650319,-0.97325 0.281304,-0.28129 0.605727,-0.49808 0.97327,-0.65031 C 16.21949,173.07611 16.602175,173 17,173 c 0.397825,0 0.780508,0.0761 1.148048,0.22835 0.367541,0.15223 0.691966,0.36902 0.973271,0.65031 0.281303,0.2813 0.498075,0.60572 0.650316,0.97325 C 19.923878,175.21945 19.999998,175.60216 20,176 Z" /><path
             id="path48"
             style="fill:none;stroke:#b85450;stroke-width:1;stroke-linecap:butt;stroke-linejoin:miter;stroke-miterlimit:10;stroke-dasharray:none;stroke-opacity:1"
             d="m 20,176 c -2e-6,0.39781 -0.07612,0.78049 -0.228365,1.14803 -0.152241,0.36753 -0.369013,0.69195 -0.650316,0.97328 -0.281305,0.28129 -0.60573,0.49806 -0.973271,0.65031 C 17.780508,178.92386 17.397825,178.99998 17,179 c -0.397825,-2e-5 -0.78051,-0.0761 -1.148053,-0.22838 -0.367542,-0.15225 -0.691965,-0.36902 -0.973269,-0.65031 -0.281304,-0.28133 -0.498077,-0.60575 -0.650319,-0.97328 C 14.076119,176.78049 13.999999,176.39781 14,176 c -10e-7,-0.39784 0.07612,-0.78055 0.228359,-1.14809 0.152242,-0.36753 0.369015,-0.69195 0.650319,-0.97325 0.281304,-0.28129 0.605727,-0.49808 0.97327,-0.65031 C 16.21949,173.07611 16.602175,173 17,173 c 0.397825,0 0.780508,0.0761 1.148048,0.22835 0.367541,0.15223 0.691966,0.36902 0.973271,0.65031 0.281303,0.2813 0.498075,0.60572 0.650316,0.97325 C 19.923878,175.21945 19.999998,175.60216 20,176 Z" /><path
             id="path50"
             style="fill:#f8cecc;fill-opacity:1;fill-rule:nonzero;stroke:none"
             d="m 34,176 c -4e-6,0.39781 -0.07612,0.78049 -0.228363,1.14803 -0.152245,0.36753 -0.369019,0.69195 -0.650318,0.97328 -0.281307,0.28129 -0.605728,0.49806 -0.973271,0.65031 C 31.780504,178.92386 31.397821,178.99998 31,179 c -0.397827,-2e-5 -0.780512,-0.0761 -1.148054,-0.22838 -0.367542,-0.15225 -0.691965,-0.36902 -0.973269,-0.65031 -0.281305,-0.28133 -0.498079,-0.60575 -0.65032,-0.97328 C 28.076117,176.78049 27.999998,176.39781 28,176 c -2e-6,-0.39784 0.07612,-0.78055 0.228357,-1.14809 0.152241,-0.36753 0.369015,-0.69195 0.65032,-0.97325 0.281304,-0.28129 0.605727,-0.49808 0.973269,-0.65031 C 30.219488,173.07611 30.602173,173 31,173 c 0.397821,0 0.780504,0.0761 1.148048,0.22835 0.367543,0.15223 0.691964,0.36902 0.973271,0.65031 0.281299,0.2813 0.498073,0.60572 0.650318,0.97325 C 33.923878,175.21945 33.999996,175.60216 34,176 Z" /><path
             id="path52"
             style="fill:none;stroke:#b85450;stroke-width:1;stroke-linecap:butt;stroke-linejoin:miter;stroke-miterlimit:10;stroke-dasharray:none;stroke-opacity:1"
             d="m 34,176 c -4e-6,0.39781 -0.07612,0.78049 -0.228363,1.14803 -0.152245,0.36753 -0.369019,0.69195 -0.650318,0.97328 -0.281307,0.28129 -0.605728,0.49806 -0.973271,0.65031 C 31.780504,178.92386 31.397821,178.99998 31,179 c -0.397827,-2e-5 -0.780512,-0.0761 -1.148054,-0.22838 -0.367542,-0.15225 -0.691965,-0.36902 -0.973269,-0.65031 -0.281305,-0.28133 -0.498079,-0.60575 -0.65032,-0.97328 C 28.076117,176.78049 27.999998,176.39781 28,176 c -2e-6,-0.39784 0.07612,-0.78055 0.228357,-1.14809 0.152241,-0.36753 0.369015,-0.69195 0.65032,-0.97325 0.281304,-0.28129 0.605727,-0.49808 0.973269,-0.65031 C 30.219488,173.07611 30.602173,173 31,173 c 0.397821,0 0.780504,0.0761 1.148048,0.22835 0.367543,0.15223 0.691964,0.36902 0.973271,0.65031 0.281299,0.2813 0.498073,0.60572 0.650318,0.97325 C 33.923878,175.21945 33.999996,175.60216 34,176 Z" /><path
             id="path54"
             style="fill:#f8cecc;fill-opacity:1;fill-rule:nonzero;stroke:none"
             d="m 51,176 c -4e-6,0.39781 -0.07612,0.78049 -0.228363,1.14803 -0.152245,0.36753 -0.369019,0.69195 -0.650318,0.97328 -0.281307,0.28129 -0.605732,0.49806 -0.973274,0.65031 C 48.780502,178.92386 48.39782,178.99998 48,179 c -0.397827,-2e-5 -0.780514,-0.0761 -1.148056,-0.22838 -0.367542,-0.15225 -0.691963,-0.36902 -0.973267,-0.65031 -0.281303,-0.28133 -0.498077,-0.60575 -0.650322,-0.97328 C 45.076118,176.78049 45,176.39781 45,176 c 0,-0.39784 0.07612,-0.78055 0.228359,-1.14809 0.152241,-0.36753 0.369015,-0.69195 0.650318,-0.97325 0.281304,-0.28129 0.605729,-0.49808 0.973271,-0.65031 C 47.21949,173.07611 47.602173,173 48,173 c 0.39782,0 0.780502,0.0761 1.148045,0.22835 0.367542,0.15223 0.691967,0.36902 0.973274,0.65031 0.281299,0.2813 0.498073,0.60572 0.650314,0.97325 C 50.923874,175.21945 50.999996,175.60216 51,176 Z" /><path
             id="path56"
             style="fill:none;stroke:#b85450;stroke-width:1;stroke-linecap:butt;stroke-linejoin:miter;stroke-miterlimit:10;stroke-dasharray:none;stroke-opacity:1"
             d="m 51,176 c -4e-6,0.39781 -0.07612,0.78049 -0.228363,1.14803 -0.152245,0.36753 -0.369019,0.69195 -0.650318,0.97328 -0.281307,0.28129 -0.605732,0.49806 -0.973274,0.65031 C 48.780502,178.92386 48.39782,178.99998 48,179 c -0.397827,-2e-5 -0.780514,-0.0761 -1.148056,-0.22838 -0.367542,-0.15225 -0.691963,-0.36902 -0.973267,-0.65031 -0.281303,-0.28133 -0.498077,-0.60575 -0.650322,-0.97328 C 45.076118,176.78049 45,176.39781 45,176 c 0,-0.39784 0.07612,-0.78055 0.228359,-1.14809 0.152241,-0.36753 0.369015,-0.69195 0.650318,-0.97325 0.281304,-0.28129 0.605729,-0.49808 0.973271,-0.65031 C 47.21949,173.07611 47.602173,173 48,173 c 0.39782,0 0.780502,0.0761 1.148045,0.22835 0.367542,0.15223 0.691967,0.36902 0.973274,0.65031 0.281299,0.2813 0.498073,0.60572 0.650314,0.97325 C 50.923874,175.21945 50.999996,175.60216 51,176 Z" /><path
             id="path58"
             style="fill:#f8cecc;fill-opacity:1;fill-rule:nonzero;stroke:none"
             d="m 64,176 c -4e-6,0.39781 -0.07613,0.78049 -0.228367,1.14803 -0.152244,0.36753 -0.369015,0.69195 -0.650314,0.97328 -0.281307,0.28129 -0.605732,0.49806 -0.973274,0.65031 C 61.780502,178.92386 61.39782,178.99998 61,179 c -0.397827,-2e-5 -0.780514,-0.0761 -1.148056,-0.22838 -0.367542,-0.15225 -0.691967,-0.36902 -0.97327,-0.65031 -0.281308,-0.28133 -0.498082,-0.60575 -0.650322,-0.97328 C 58.076111,176.78049 57.999996,176.39781 58,176 c -4e-6,-0.39784 0.07611,-0.78055 0.228352,-1.14809 0.15224,-0.36753 0.369014,-0.69195 0.650322,-0.97325 0.281303,-0.28129 0.605724,-0.49808 0.973266,-0.65031 C 60.219486,173.07611 60.602173,173 61,173 c 0.39782,0 0.780502,0.0761 1.148045,0.22835 0.367542,0.15223 0.691967,0.36902 0.973274,0.65031 0.281299,0.2813 0.49807,0.60572 0.650314,0.97325 C 63.923874,175.21945 63.999996,175.60216 64,176 Z" /><path
             id="path60"
             style="fill:none;stroke:#b85450;stroke-width:1;stroke-linecap:butt;stroke-linejoin:miter;stroke-miterlimit:10;stroke-dasharray:none;stroke-opacity:1"
             d="m 64,176 c -4e-6,0.39781 -0.07613,0.78049 -0.228367,1.14803 -0.152244,0.36753 -0.369015,0.69195 -0.650314,0.97328 -0.281307,0.28129 -0.605732,0.49806 -0.973274,0.65031 C 61.780502,178.92386 61.39782,178.99998 61,179 c -0.397827,-2e-5 -0.780514,-0.0761 -1.148056,-0.22838 -0.367542,-0.15225 -0.691967,-0.36902 -0.97327,-0.65031 -0.281308,-0.28133 -0.498082,-0.60575 -0.650322,-0.97328 C 58.076111,176.78049 57.999996,176.39781 58,176 c -4e-6,-0.39784 0.07611,-0.78055 0.228352,-1.14809 0.15224,-0.36753 0.369014,-0.69195 0.650322,-0.97325 0.281303,-0.28129 0.605724,-0.49808 0.973266,-0.65031 C 60.219486,173.07611 60.602173,173 61,173 c 0.39782,0 0.780502,0.0761 1.148045,0.22835 0.367542,0.15223 0.691967,0.36902 0.973274,0.65031 0.281299,0.2813 0.49807,0.60572 0.650314,0.97325 C 63.923874,175.21945 63.999996,175.60216 64,176 Z" /><path
             id="path62"
             style="fill:#f8cecc;fill-opacity:1;fill-rule:nonzero;stroke:none"
             d="m 75,176 c -8e-6,0.39781 -0.07613,0.78049 -0.228371,1.14803 -0.152244,0.36753 -0.369011,0.69195 -0.650314,0.97328 -0.281303,0.28129 -0.605728,0.49806 -0.973274,0.65031 C 72.780495,178.92386 72.39782,178.99998 72,179 c -0.397827,-2e-5 -0.780518,-0.0761 -1.148064,-0.22838 -0.367538,-0.15225 -0.691955,-0.36902 -0.973259,-0.65031 -0.281311,-0.28133 -0.498085,-0.60575 -0.650322,-0.97328 C 69.076111,176.78049 68.999992,176.39781 69,176 c -8e-6,-0.39784 0.07611,-0.78055 0.228348,-1.14809 0.152244,-0.36753 0.369018,-0.69195 0.650329,-0.97325 0.281304,-0.28129 0.605721,-0.49808 0.973259,-0.65031 C 71.219482,173.07611 71.602173,173 72,173 c 0.39782,0 0.780495,0.0761 1.148041,0.22835 0.367546,0.15223 0.691971,0.36902 0.973274,0.65031 0.281303,0.2813 0.49807,0.60572 0.650314,0.97325 C 74.923866,175.21945 74.999992,175.60216 75,176 Z" /><path
             id="path64"
             style="fill:none;stroke:#b85450;stroke-width:1;stroke-linecap:butt;stroke-linejoin:miter;stroke-miterlimit:10;stroke-dasharray:none;stroke-opacity:1"
             d="m 75,176 c -8e-6,0.39781 -0.07613,0.78049 -0.228371,1.14803 -0.152244,0.36753 -0.369011,0.69195 -0.650314,0.97328 -0.281303,0.28129 -0.605728,0.49806 -0.973274,0.65031 C 72.780495,178.92386 72.39782,178.99998 72,179 c -0.397827,-2e-5 -0.780518,-0.0761 -1.148064,-0.22838 -0.367538,-0.15225 -0.691955,-0.36902 -0.973259,-0.65031 -0.281311,-0.28133 -0.498085,-0.60575 -0.650322,-0.97328 C 69.076111,176.78049 68.999992,176.39781 69,176 c -8e-6,-0.39784 0.07611,-0.78055 0.228348,-1.14809 0.152244,-0.36753 0.369018,-0.69195 0.650329,-0.97325 0.281304,-0.28129 0.605721,-0.49808 0.973259,-0.65031 C 71.219482,173.07611 71.602173,173 72,173 c 0.39782,0 0.780495,0.0761 1.148041,0.22835 0.367546,0.15223 0.691971,0.36902 0.973274,0.65031 0.281303,0.2813 0.49807,0.60572 0.650314,0.97325 C 74.923866,175.21945 74.999992,175.60216 75,176 Z" /><path
             id="path66"
             style="fill:#d5e8d4;fill-opacity:1;fill-rule:nonzero;stroke:none"
             d="m 110,176 c -1e-5,0.39781 -0.0761,0.78049 -0.22838,1.14803 -0.15224,0.36753 -0.36901,0.69195 -0.65031,0.97328 -0.28131,0.28129 -0.60574,0.49806 -0.97328,0.65031 -0.36754,0.15224 -0.75022,0.22836 -1.14803,0.22838 -0.39783,-2e-5 -0.78052,-0.0761 -1.14806,-0.22838 -0.36755,-0.15225 -0.69197,-0.36902 -0.97327,-0.65031 -0.28131,-0.28133 -0.49809,-0.60575 -0.65032,-0.97328 C 104.0761,176.78049 103.99999,176.39781 104,176 c -1e-5,-0.39784 0.0761,-0.78055 0.22835,-1.14809 0.15223,-0.36753 0.36901,-0.69195 0.65032,-0.97325 0.2813,-0.28129 0.60572,-0.49808 0.97327,-0.65031 C 106.21948,173.07611 106.60217,173 107,173 c 0.39781,0 0.78049,0.0761 1.14803,0.22835 0.36754,0.15223 0.69197,0.36902 0.97328,0.65031 0.2813,0.2813 0.49807,0.60572 0.65032,0.97325 0.15224,0.36754 0.22836,0.75025 0.22837,1.14809 z" /><path
             id="path68"
             style="fill:none;stroke:#82b366;stroke-width:1;stroke-linecap:butt;stroke-linejoin:miter;stroke-miterlimit:10;stroke-dasharray:none;stroke-opacity:1"
             d="m 110,176 c -1e-5,0.39781 -0.0761,0.78049 -0.22838,1.14803 -0.15224,0.36753 -0.36901,0.69195 -0.65031,0.97328 -0.28131,0.28129 -0.60574,0.49806 -0.97328,0.65031 -0.36754,0.15224 -0.75022,0.22836 -1.14803,0.22838 -0.39783,-2e-5 -0.78052,-0.0761 -1.14806,-0.22838 -0.36755,-0.15225 -0.69197,-0.36902 -0.97327,-0.65031 -0.28131,-0.28133 -0.49809,-0.60575 -0.65032,-0.97328 C 104.0761,176.78049 103.99999,176.39781 104,176 c -1e-5,-0.39784 0.0761,-0.78055 0.22835,-1.14809 0.15223,-0.36753 0.36901,-0.69195 0.65032,-0.97325 0.2813,-0.28129 0.60572,-0.49808 0.97327,-0.65031 C 106.21948,173.07611 106.60217,173 107,173 c 0.39781,0 0.78049,0.0761 1.14803,0.22835 0.36754,0.15223 0.69197,0.36902 0.97328,0.65031 0.2813,0.2813 0.49807,0.60572 0.65032,0.97325 0.15224,0.36754 0.22836,0.75025 0.22837,1.14809 z" /><path
             id="path70"
             style="fill:#d5e8d4;fill-opacity:1;fill-rule:nonzero;stroke:none"
             d="m 121,176 c -1e-5,0.39781 -0.0761,0.78049 -0.22837,1.14803 -0.15225,0.36753 -0.36901,0.69195 -0.65032,0.97328 -0.28131,0.28129 -0.60573,0.49806 -0.97328,0.65031 -0.36753,0.15224 -0.75021,0.22836 -1.14803,0.22838 -0.39783,-2e-5 -0.78052,-0.0761 -1.14807,-0.22838 -0.36754,-0.15225 -0.69196,-0.36902 -0.97326,-0.65031 -0.2813,-0.28133 -0.49809,-0.60575 -0.65033,-0.97328 C 115.0761,176.78049 114.99999,176.39781 115,176 c -1e-5,-0.39784 0.0761,-0.78055 0.22834,-1.14809 0.15224,-0.36753 0.36903,-0.69195 0.65033,-0.97325 0.2813,-0.28129 0.60572,-0.49808 0.97327,-0.65031 C 117.21948,173.07611 117.60217,173 118,173 c 0.39782,0 0.7805,0.0761 1.14803,0.22835 0.36755,0.15223 0.69197,0.36902 0.97328,0.65031 0.28131,0.2813 0.49807,0.60572 0.65032,0.97325 0.15224,0.36754 0.22836,0.75025 0.22837,1.14809 z" /><path
             id="path72"
             style="fill:none;stroke:#82b366;stroke-width:1;stroke-linecap:butt;stroke-linejoin:miter;stroke-miterlimit:10;stroke-dasharray:none;stroke-opacity:1"
             d="m 121,176 c -1e-5,0.39781 -0.0761,0.78049 -0.22837,1.14803 -0.15225,0.36753 -0.36901,0.69195 -0.65032,0.97328 -0.28131,0.28129 -0.60573,0.49806 -0.97328,0.65031 -0.36753,0.15224 -0.75021,0.22836 -1.14803,0.22838 -0.39783,-2e-5 -0.78052,-0.0761 -1.14807,-0.22838 -0.36754,-0.15225 -0.69196,-0.36902 -0.97326,-0.65031 -0.2813,-0.28133 -0.49809,-0.60575 -0.65033,-0.97328 C 115.0761,176.78049 114.99999,176.39781 115,176 c -1e-5,-0.39784 0.0761,-0.78055 0.22834,-1.14809 0.15224,-0.36753 0.36903,-0.69195 0.65033,-0.97325 0.2813,-0.28129 0.60572,-0.49808 0.97327,-0.65031 C 117.21948,173.07611 117.60217,173 118,173 c 0.39782,0 0.7805,0.0761 1.14803,0.22835 0.36755,0.15223 0.69197,0.36902 0.97328,0.65031 0.28131,0.2813 0.49807,0.60572 0.65032,0.97325 0.15224,0.36754 0.22836,0.75025 0.22837,1.14809 z" /><path
             id="path74"
             style="fill:#d5e8d4;fill-opacity:1;fill-rule:nonzero;stroke:none"
             d="m 134,176 c 0,0.39781 -0.0761,0.78049 -0.22838,1.14803 -0.15225,0.36753 -0.36902,0.69195 -0.65031,0.97328 -0.28131,0.28129 -0.60575,0.49806 -0.97328,0.65031 -0.36754,0.15224 -0.75022,0.22836 -1.14803,0.22838 -0.39784,-2e-5 -0.78053,-0.0761 -1.14807,-0.22838 -0.36754,-0.15225 -0.69196,-0.36902 -0.97325,-0.65031 -0.28131,-0.28133 -0.4981,-0.60575 -0.65033,-0.97328 C 128.07611,176.78049 127.99999,176.39781 128,176 c -1e-5,-0.39784 0.0761,-0.78055 0.22835,-1.14809 0.15223,-0.36753 0.36902,-0.69195 0.65033,-0.97325 0.28129,-0.28129 0.60571,-0.49808 0.97325,-0.65031 C 130.21947,173.07611 130.60216,173 131,173 c 0.39781,0 0.7805,0.0761 1.14804,0.22835 0.36754,0.15223 0.69196,0.36902 0.97327,0.65031 0.28129,0.2813 0.49806,0.60572 0.65031,0.97325 C 133.92387,175.21945 134,175.60216 134,176 Z" /><path
             id="path76"
             style="fill:none;stroke:#82b366;stroke-width:1;stroke-linecap:butt;stroke-linejoin:miter;stroke-miterlimit:10;stroke-dasharray:none;stroke-opacity:1"
             d="m 134,176 c 0,0.39781 -0.0761,0.78049 -0.22838,1.14803 -0.15225,0.36753 -0.36902,0.69195 -0.65031,0.97328 -0.28131,0.28129 -0.60575,0.49806 -0.97328,0.65031 -0.36754,0.15224 -0.75022,0.22836 -1.14803,0.22838 -0.39784,-2e-5 -0.78053,-0.0761 -1.14807,-0.22838 -0.36754,-0.15225 -0.69196,-0.36902 -0.97325,-0.65031 -0.28131,-0.28133 -0.4981,-0.60575 -0.65033,-0.97328 C 128.07611,176.78049 127.99999,176.39781 128,176 c -1e-5,-0.39784 0.0761,-0.78055 0.22835,-1.14809 0.15223,-0.36753 0.36902,-0.69195 0.65033,-0.97325 0.28129,-0.28129 0.60571,-0.49808 0.97325,-0.65031 C 130.21947,173.07611 130.60216,173 131,173 c 0.39781,0 0.7805,0.0761 1.14804,0.22835 0.36754,0.15223 0.69196,0.36902 0.97327,0.65031 0.28129,0.2813 0.49806,0.60572 0.65031,0.97325 C 133.92387,175.21945 134,175.60216 134,176 Z" /><path
             id="path78"
             style="fill:#d5e8d4;fill-opacity:1;fill-rule:nonzero;stroke:none"
             d="m 146,176 c -2e-5,0.39781 -0.0761,0.78049 -0.22838,1.14803 -0.15225,0.36753 -0.36902,0.69195 -0.65031,0.97328 -0.28131,0.28129 -0.60573,0.49806 -0.97327,0.65031 -0.36754,0.15224 -0.75023,0.22836 -1.14804,0.22838 -0.39783,-2e-5 -0.78052,-0.0761 -1.14806,-0.22838 -0.36753,-0.15225 -0.69197,-0.36902 -0.97326,-0.65031 -0.28131,-0.28133 -0.4981,-0.60575 -0.65033,-0.97328 C 140.07611,176.78049 139.99998,176.39781 140,176 c -2e-5,-0.39784 0.0761,-0.78055 0.22835,-1.14809 0.15223,-0.36753 0.36902,-0.69195 0.65033,-0.97325 0.28129,-0.28129 0.60573,-0.49808 0.97326,-0.65031 C 142.21948,173.07611 142.60217,173 143,173 c 0.39781,0 0.7805,0.0761 1.14804,0.22835 0.36754,0.15223 0.69196,0.36902 0.97327,0.65031 0.28129,0.2813 0.49806,0.60572 0.65031,0.97325 0.15224,0.36754 0.22836,0.75025 0.22838,1.14809 z" /><path
             id="path80"
             style="fill:none;stroke:#82b366;stroke-width:1;stroke-linecap:butt;stroke-linejoin:miter;stroke-miterlimit:10;stroke-dasharray:none;stroke-opacity:1"
             d="m 146,176 c -2e-5,0.39781 -0.0761,0.78049 -0.22838,1.14803 -0.15225,0.36753 -0.36902,0.69195 -0.65031,0.97328 -0.28131,0.28129 -0.60573,0.49806 -0.97327,0.65031 -0.36754,0.15224 -0.75023,0.22836 -1.14804,0.22838 -0.39783,-2e-5 -0.78052,-0.0761 -1.14806,-0.22838 -0.36753,-0.15225 -0.69197,-0.36902 -0.97326,-0.65031 -0.28131,-0.28133 -0.4981,-0.60575 -0.65033,-0.97328 C 140.07611,176.78049 139.99998,176.39781 140,176 c -2e-5,-0.39784 0.0761,-0.78055 0.22835,-1.14809 0.15223,-0.36753 0.36902,-0.69195 0.65033,-0.97325 0.28129,-0.28129 0.60573,-0.49808 0.97326,-0.65031 C 142.21948,173.07611 142.60217,173 143,173 c 0.39781,0 0.7805,0.0761 1.14804,0.22835 0.36754,0.15223 0.69196,0.36902 0.97327,0.65031 0.28129,0.2813 0.49806,0.60572 0.65031,0.97325 0.15224,0.36754 0.22836,0.75025 0.22838,1.14809 z" /><path
             id="path82"
             style="fill:#d5e8d4;fill-opacity:1;fill-rule:nonzero;stroke:none"
             d="m 162,176.5 c -2e-5,0.46413 -0.0888,0.91058 -0.26643,1.33939 -0.17763,0.4288 -0.43053,0.80729 -0.7587,1.13548 -0.3282,0.32818 -0.70671,0.58108 -1.1355,0.7587 C 159.41058,179.91119 158.96413,180 158.5,180 c -0.46413,0 -0.9106,-0.0888 -1.3394,-0.26643 -0.4288,-0.17762 -0.8073,-0.43052 -1.13548,-0.7587 -0.32821,-0.32819 -0.5811,-0.70668 -0.7587,-1.13548 C 155.08881,177.41058 155,176.96413 155,176.5 c 0,-0.46414 0.0888,-0.91061 0.26642,-1.33942 0.1776,-0.42881 0.43049,-0.80729 0.7587,-1.13546 0.32818,-0.32821 0.70668,-0.5811 1.13548,-0.75872 0.4288,-0.17759 0.87527,-0.2664 1.3394,-0.2664 0.46413,0 0.91058,0.0888 1.33937,0.2664 0.42879,0.17762 0.8073,0.43051 1.1355,0.75872 0.32817,0.32817 0.58107,0.70665 0.7587,1.13546 0.17759,0.42881 0.26641,0.87528 0.26643,1.33942 z" /><path
             id="path84"
             style="fill:none;stroke:#82b366;stroke-width:1;stroke-linecap:butt;stroke-linejoin:miter;stroke-miterlimit:10;stroke-dasharray:none;stroke-opacity:1"
             d="m 162,176.5 c -2e-5,0.46413 -0.0888,0.91058 -0.26643,1.33939 -0.17763,0.4288 -0.43053,0.80729 -0.7587,1.13548 -0.3282,0.32818 -0.70671,0.58108 -1.1355,0.7587 C 159.41058,179.91119 158.96413,180 158.5,180 c -0.46413,0 -0.9106,-0.0888 -1.3394,-0.26643 -0.4288,-0.17762 -0.8073,-0.43052 -1.13548,-0.7587 -0.32821,-0.32819 -0.5811,-0.70668 -0.7587,-1.13548 C 155.08881,177.41058 155,176.96413 155,176.5 c 0,-0.46414 0.0888,-0.91061 0.26642,-1.33942 0.1776,-0.42881 0.43049,-0.80729 0.7587,-1.13546 0.32818,-0.32821 0.70668,-0.5811 1.13548,-0.75872 0.4288,-0.17759 0.87527,-0.2664 1.3394,-0.2664 0.46413,0 0.91058,0.0888 1.33937,0.2664 0.42879,0.17762 0.8073,0.43051 1.1355,0.75872 0.32817,0.32817 0.58107,0.70665 0.7587,1.13546 0.17759,0.42881 0.26641,0.87528 0.26643,1.33942 z" /><path
             id="path86"
             style="fill:#f8cecc;fill-opacity:1;fill-rule:nonzero;stroke:none"
             d="m 200,176.5 c -2e-5,0.39781 -0.0762,0.78049 -0.22839,1.14803 -0.15224,0.36753 -0.36901,0.69197 -0.6503,0.97328 -0.28131,0.28129 -0.60575,0.49806 -0.97328,0.65031 -0.36754,0.15224 -0.75022,0.22836 -1.14803,0.22838 -0.39784,-2e-5 -0.78053,-0.0761 -1.14809,-0.22838 -0.36753,-0.15225 -0.69195,-0.36902 -0.97325,-0.65031 -0.28132,-0.28131 -0.49809,-0.60575 -0.65033,-0.97328 C 194.0761,177.28049 193.99998,176.89781 194,176.5 c -2e-5,-0.39784 0.0761,-0.78053 0.22833,-1.14807 0.15224,-0.36754 0.36901,-0.69197 0.65033,-0.97327 0.2813,-0.28131 0.60572,-0.49809 0.97325,-0.65033 C 196.21947,173.57611 196.60216,173.5 197,173.5 c 0.39781,0 0.78049,0.0761 1.14803,0.22833 0.36753,0.15224 0.69197,0.36902 0.97328,0.65033 0.28129,0.2813 0.49806,0.60573 0.6503,0.97327 0.15223,0.36754 0.22837,0.75023 0.22839,1.14807 z" /><path
             id="path88"
             style="fill:none;stroke:#b85450;stroke-width:1;stroke-linecap:butt;stroke-linejoin:miter;stroke-miterlimit:10;stroke-dasharray:none;stroke-opacity:1"
             d="m 200,176.5 c -2e-5,0.39781 -0.0762,0.78049 -0.22839,1.14803 -0.15224,0.36753 -0.36901,0.69197 -0.6503,0.97328 -0.28131,0.28129 -0.60575,0.49806 -0.97328,0.65031 -0.36754,0.15224 -0.75022,0.22836 -1.14803,0.22838 -0.39784,-2e-5 -0.78053,-0.0761 -1.14809,-0.22838 -0.36753,-0.15225 -0.69195,-0.36902 -0.97325,-0.65031 -0.28132,-0.28131 -0.49809,-0.60575 -0.65033,-0.97328 C 194.0761,177.28049 193.99998,176.89781 194,176.5 c -2e-5,-0.39784 0.0761,-0.78053 0.22833,-1.14807 0.15224,-0.36754 0.36901,-0.69197 0.65033,-0.97327 0.2813,-0.28131 0.60572,-0.49809 0.97325,-0.65033 C 196.21947,173.57611 196.60216,173.5 197,173.5 c 0.39781,0 0.78049,0.0761 1.14803,0.22833 0.36753,0.15224 0.69197,0.36902 0.97328,0.65033 0.28129,0.2813 0.49806,0.60573 0.6503,0.97327 0.15223,0.36754 0.22837,0.75023 0.22839,1.14807 z" /><path
             id="path90"
             style="fill:#f8cecc;fill-opacity:1;fill-rule:nonzero;stroke:none"
             d="m 209,176.5 c -2e-5,0.39781 -0.0761,0.78049 -0.22838,1.14803 -0.15224,0.36753 -0.36902,0.69197 -0.65031,0.97328 -0.28131,0.28129 -0.60575,0.49806 -0.97328,0.65031 -0.36754,0.15224 -0.75022,0.22836 -1.14803,0.22838 -0.39784,-2e-5 -0.78053,-0.0761 -1.14807,-0.22838 -0.36754,-0.15225 -0.69197,-0.36902 -0.97327,-0.65031 -0.28131,-0.28131 -0.49809,-0.60575 -0.65033,-0.97328 C 203.0761,177.28049 202.99998,176.89781 203,176.5 c -2e-5,-0.39784 0.0761,-0.78053 0.22833,-1.14807 0.15224,-0.36754 0.36902,-0.69197 0.65033,-0.97327 0.2813,-0.28131 0.60573,-0.49809 0.97327,-0.65033 C 205.21947,173.57611 205.60216,173.5 206,173.5 c 0.39781,0 0.78049,0.0761 1.14803,0.22833 0.36753,0.15224 0.69197,0.36902 0.97328,0.65033 0.28129,0.2813 0.49807,0.60573 0.65031,0.97327 0.15224,0.36754 0.22836,0.75023 0.22838,1.14807 z" /><path
             id="path92"
             style="fill:none;stroke:#b85450;stroke-width:1;stroke-linecap:butt;stroke-linejoin:miter;stroke-miterlimit:10;stroke-dasharray:none;stroke-opacity:1"
             d="m 209,176.5 c -2e-5,0.39781 -0.0761,0.78049 -0.22838,1.14803 -0.15224,0.36753 -0.36902,0.69197 -0.65031,0.97328 -0.28131,0.28129 -0.60575,0.49806 -0.97328,0.65031 -0.36754,0.15224 -0.75022,0.22836 -1.14803,0.22838 -0.39784,-2e-5 -0.78053,-0.0761 -1.14807,-0.22838 -0.36754,-0.15225 -0.69197,-0.36902 -0.97327,-0.65031 -0.28131,-0.28131 -0.49809,-0.60575 -0.65033,-0.97328 C 203.0761,177.28049 202.99998,176.89781 203,176.5 c -2e-5,-0.39784 0.0761,-0.78053 0.22833,-1.14807 0.15224,-0.36754 0.36902,-0.69197 0.65033,-0.97327 0.2813,-0.28131 0.60573,-0.49809 0.97327,-0.65033 C 205.21947,173.57611 205.60216,173.5 206,173.5 c 0.39781,0 0.78049,0.0761 1.14803,0.22833 0.36753,0.15224 0.69197,0.36902 0.97328,0.65033 0.28129,0.2813 0.49807,0.60573 0.65031,0.97327 0.15224,0.36754 0.22836,0.75023 0.22838,1.14807 z" /><path
             id="path94"
             style="fill:#f8cecc;fill-opacity:1;fill-rule:nonzero;stroke:none"
             d="m 218,176 c 0,0.39781 -0.0761,0.78049 -0.22836,1.14803 -0.15226,0.36753 -0.36902,0.69195 -0.65032,0.97328 -0.28132,0.28129 -0.60576,0.49806 -0.97329,0.65031 -0.36754,0.15224 -0.75022,0.22836 -1.14803,0.22838 -0.39784,-2e-5 -0.78055,-0.0761 -1.14809,-0.22838 -0.36753,-0.15225 -0.69197,-0.36902 -0.97326,-0.65031 -0.28131,-0.28133 -0.4981,-0.60575 -0.65033,-0.97328 C 212.07608,176.78049 211.99998,176.39781 212,176 c -2e-5,-0.39784 0.0761,-0.78055 0.22832,-1.14809 0.15223,-0.36753 0.36902,-0.69195 0.65033,-0.97325 0.28129,-0.28129 0.60573,-0.49808 0.97326,-0.65031 C 214.21945,173.07611 214.60216,173 215,173 c 0.39781,0 0.7805,0.0761 1.14804,0.22835 0.36754,0.15223 0.69196,0.36902 0.97328,0.65031 0.2813,0.2813 0.49806,0.60572 0.6503,0.97325 C 217.92387,175.21945 218,175.60216 218,176 Z" /><path
             id="path96"
             style="fill:none;stroke:#b85450;stroke-width:1;stroke-linecap:butt;stroke-linejoin:miter;stroke-miterlimit:10;stroke-dasharray:none;stroke-opacity:1"
             d="m 218,176 c 0,0.39781 -0.0761,0.78049 -0.22836,1.14803 -0.15226,0.36753 -0.36902,0.69195 -0.65032,0.97328 -0.28132,0.28129 -0.60576,0.49806 -0.97329,0.65031 -0.36754,0.15224 -0.75022,0.22836 -1.14803,0.22838 -0.39784,-2e-5 -0.78055,-0.0761 -1.14809,-0.22838 -0.36753,-0.15225 -0.69197,-0.36902 -0.97326,-0.65031 -0.28131,-0.28133 -0.4981,-0.60575 -0.65033,-0.97328 C 212.07608,176.78049 211.99998,176.39781 212,176 c -2e-5,-0.39784 0.0761,-0.78055 0.22832,-1.14809 0.15223,-0.36753 0.36902,-0.69195 0.65033,-0.97325 0.28129,-0.28129 0.60573,-0.49808 0.97326,-0.65031 C 214.21945,173.07611 214.60216,173 215,173 c 0.39781,0 0.7805,0.0761 1.14804,0.22835 0.36754,0.15223 0.69196,0.36902 0.97328,0.65031 0.2813,0.2813 0.49806,0.60572 0.6503,0.97325 C 217.92387,175.21945 218,175.60216 218,176 Z" /><path
             id="path98"
             style="fill:#f8cecc;fill-opacity:1;fill-rule:nonzero;stroke:none"
             d="m 231,176 c -2e-5,0.39781 -0.0761,0.78049 -0.22839,1.14803 -0.15224,0.36753 -0.36901,0.69195 -0.6503,0.97328 -0.28133,0.28129 -0.60575,0.49806 -0.97328,0.65031 -0.36754,0.15224 -0.75022,0.22836 -1.14803,0.22838 -0.39784,-2e-5 -0.78053,-0.0761 -1.14807,-0.22838 -0.36754,-0.15225 -0.69197,-0.36902 -0.97327,-0.65031 -0.28131,-0.28133 -0.49809,-0.60575 -0.65033,-0.97328 C 225.0761,176.78049 224.99998,176.39781 225,176 c -2e-5,-0.39784 0.0761,-0.78055 0.22833,-1.14809 0.15224,-0.36753 0.36902,-0.69195 0.65033,-0.97325 0.2813,-0.28129 0.60573,-0.49808 0.97327,-0.65031 C 227.21947,173.07611 227.60216,173 228,173 c 0.39781,0 0.7805,0.0761 1.14804,0.22835 0.36752,0.15223 0.69194,0.36902 0.97327,0.65031 0.28129,0.2813 0.49806,0.60572 0.6503,0.97325 0.15225,0.36754 0.22837,0.75025 0.22839,1.14809 z" /><path
             id="path100"
             style="fill:none;stroke:#b85450;stroke-width:1;stroke-linecap:butt;stroke-linejoin:miter;stroke-miterlimit:10;stroke-dasharray:none;stroke-opacity:1"
             d="m 231,176 c -2e-5,0.39781 -0.0761,0.78049 -0.22839,1.14803 -0.15224,0.36753 -0.36901,0.69195 -0.6503,0.97328 -0.28133,0.28129 -0.60575,0.49806 -0.97328,0.65031 -0.36754,0.15224 -0.75022,0.22836 -1.14803,0.22838 -0.39784,-2e-5 -0.78053,-0.0761 -1.14807,-0.22838 -0.36754,-0.15225 -0.69197,-0.36902 -0.97327,-0.65031 -0.28131,-0.28133 -0.49809,-0.60575 -0.65033,-0.97328 C 225.0761,176.78049 224.99998,176.39781 225,176 c -2e-5,-0.39784 0.0761,-0.78055 0.22833,-1.14809 0.15224,-0.36753 0.36902,-0.69195 0.65033,-0.97325 0.2813,-0.28129 0.60573,-0.49808 0.97327,-0.65031 C 227.21947,173.07611 227.60216,173 228,173 c 0.39781,0 0.7805,0.0761 1.14804,0.22835 0.36752,0.15223 0.69194,0.36902 0.97327,0.65031 0.28129,0.2813 0.49806,0.60572 0.6503,0.97325 0.15225,0.36754 0.22837,0.75025 0.22839,1.14809 z" /><path
             id="path102"
             style="fill:#f8cecc;fill-opacity:1;fill-rule:nonzero;stroke:none"
             d="m 248,176.5 c -2e-5,0.46413 -0.0888,0.91058 -0.26645,1.33939 -0.17761,0.4288 -0.43051,0.80729 -0.75868,1.13548 -0.3282,0.32818 -0.7067,0.58108 -1.1355,0.7587 C 245.41057,179.91119 244.96411,180 244.5,180 c -0.46416,0 -0.91063,-0.0888 -1.33943,-0.26643 -0.42879,-0.17762 -0.80728,-0.43052 -1.13547,-0.7587 -0.3282,-0.32819 -0.5811,-0.70668 -0.75871,-1.13548 -0.1776,-0.42881 -0.26641,-0.87526 -0.26639,-1.33939 -2e-5,-0.46414 0.0888,-0.91061 0.26639,-1.33942 0.17761,-0.42881 0.43051,-0.80729 0.75871,-1.13546 0.32819,-0.32821 0.70668,-0.5811 1.13548,-0.75872 C 243.58937,173.08881 244.03584,173 244.5,173 c 0.46411,0 0.91057,0.0888 1.33937,0.2664 0.4288,0.17762 0.8073,0.43051 1.1355,0.75872 0.32817,0.32817 0.58107,0.70665 0.75868,1.13546 0.17763,0.42881 0.26643,0.87528 0.26645,1.33942 z" /><path
             id="path104"
             style="fill:none;stroke:#b85450;stroke-width:1;stroke-linecap:butt;stroke-linejoin:miter;stroke-miterlimit:10;stroke-dasharray:none;stroke-opacity:1"
             d="m 248,176.5 c -2e-5,0.46413 -0.0888,0.91058 -0.26645,1.33939 -0.17761,0.4288 -0.43051,0.80729 -0.75868,1.13548 -0.3282,0.32818 -0.7067,0.58108 -1.1355,0.7587 C 245.41057,179.91119 244.96411,180 244.5,180 c -0.46416,0 -0.91063,-0.0888 -1.33943,-0.26643 -0.42879,-0.17762 -0.80728,-0.43052 -1.13547,-0.7587 -0.3282,-0.32819 -0.5811,-0.70668 -0.75871,-1.13548 -0.1776,-0.42881 -0.26641,-0.87526 -0.26639,-1.33939 -2e-5,-0.46414 0.0888,-0.91061 0.26639,-1.33942 0.17761,-0.42881 0.43051,-0.80729 0.75871,-1.13546 0.32819,-0.32821 0.70668,-0.5811 1.13548,-0.75872 C 243.58937,173.08881 244.03584,173 244.5,173 c 0.46411,0 0.91057,0.0888 1.33937,0.2664 0.4288,0.17762 0.8073,0.43051 1.1355,0.75872 0.32817,0.32817 0.58107,0.70665 0.75868,1.13546 0.17763,0.42881 0.26643,0.87528 0.26645,1.33942 z" /><path
             id="path106"
             style="fill:none;stroke:#000000;stroke-width:1;stroke-linecap:butt;stroke-linejoin:miter;stroke-miterlimit:10;stroke-dasharray:none;stroke-opacity:1"
             d="M 8,176 C 113.33334,157.33333 197,105.33334 259,20" /><path
             id="path108"
             style="fill:#f8cecc;fill-opacity:1;fill-rule:nonzero;stroke:none"
             d="m 51,166 c -4e-6,0.39781 -0.07612,0.78049 -0.228363,1.14803 -0.152245,0.36753 -0.369019,0.69197 -0.650318,0.97328 -0.281307,0.28129 -0.605732,0.49807 -0.973274,0.65031 C 48.780502,168.92386 48.39782,168.99998 48,169 c -0.397827,-2e-5 -0.780514,-0.0761 -1.148056,-0.22838 -0.367542,-0.15224 -0.691963,-0.36902 -0.973267,-0.65031 C 45.597374,167.84 45.3806,167.51556 45.228355,167.14803 45.076118,166.78049 45,166.39781 45,166 c 0,-0.39784 0.07612,-0.78053 0.228359,-1.14807 0.152241,-0.36754 0.369015,-0.69197 0.650318,-0.97327 0.281304,-0.28131 0.605729,-0.49809 0.973271,-0.65033 C 47.21949,163.07611 47.602173,163 48,163 c 0.39782,0 0.780502,0.0761 1.148045,0.22833 0.367542,0.15224 0.691967,0.36902 0.973274,0.65033 0.281299,0.2813 0.498073,0.60573 0.650314,0.97327 C 50.923874,165.21947 50.999996,165.60216 51,166 Z" /><path
             id="path110"
             style="fill:none;stroke:#b85450;stroke-width:1;stroke-linecap:butt;stroke-linejoin:miter;stroke-miterlimit:10;stroke-dasharray:none;stroke-opacity:1"
             d="m 51,166 c -4e-6,0.39781 -0.07612,0.78049 -0.228363,1.14803 -0.152245,0.36753 -0.369019,0.69197 -0.650318,0.97328 -0.281307,0.28129 -0.605732,0.49807 -0.973274,0.65031 C 48.780502,168.92386 48.39782,168.99998 48,169 c -0.397827,-2e-5 -0.780514,-0.0761 -1.148056,-0.22838 -0.367542,-0.15224 -0.691963,-0.36902 -0.973267,-0.65031 C 45.597374,167.84 45.3806,167.51556 45.228355,167.14803 45.076118,166.78049 45,166.39781 45,166 c 0,-0.39784 0.07612,-0.78053 0.228359,-1.14807 0.152241,-0.36754 0.369015,-0.69197 0.650318,-0.97327 0.281304,-0.28131 0.605729,-0.49809 0.973271,-0.65033 C 47.21949,163.07611 47.602173,163 48,163 c 0.39782,0 0.780502,0.0761 1.148045,0.22833 0.367542,0.15224 0.691967,0.36902 0.973274,0.65033 0.281299,0.2813 0.498073,0.60573 0.650314,0.97327 C 50.923874,165.21947 50.999996,165.60216 51,166 Z" /><path
             id="path112"
             style="fill:#f8cecc;fill-opacity:1;fill-rule:nonzero;stroke:none"
             d="m 34,171 c -4e-6,0.39781 -0.07612,0.78049 -0.228363,1.14803 -0.152245,0.36753 -0.369019,0.69197 -0.650318,0.97326 -0.281307,0.28131 -0.605728,0.49808 -0.973271,0.65032 C 31.780504,173.92386 31.397821,173.99998 31,174 c -0.397827,-2e-5 -0.780512,-0.0761 -1.148054,-0.22839 -0.367542,-0.15224 -0.691965,-0.36901 -0.973269,-0.65032 -0.281305,-0.28129 -0.498079,-0.60573 -0.65032,-0.97326 C 28.076117,171.78049 27.999998,171.39781 28,171 c -2e-6,-0.39783 0.07612,-0.78052 0.228357,-1.14807 0.152241,-0.36754 0.369015,-0.69196 0.65032,-0.97325 0.281304,-0.28131 0.605727,-0.4981 0.973269,-0.65033 C 30.219488,168.07611 30.602173,168 31,168 c 0.397821,0 0.780504,0.0761 1.148048,0.22835 0.367543,0.15223 0.691964,0.36902 0.973271,0.65033 0.281299,0.28129 0.498073,0.60571 0.650318,0.97325 C 33.923878,170.21948 33.999996,170.60217 34,171 Z" /><path
             id="path114"
             style="fill:none;stroke:#b85450;stroke-width:1;stroke-linecap:butt;stroke-linejoin:miter;stroke-miterlimit:10;stroke-dasharray:none;stroke-opacity:1"
             d="m 34,171 c -4e-6,0.39781 -0.07612,0.78049 -0.228363,1.14803 -0.152245,0.36753 -0.369019,0.69197 -0.650318,0.97326 -0.281307,0.28131 -0.605728,0.49808 -0.973271,0.65032 C 31.780504,173.92386 31.397821,173.99998 31,174 c -0.397827,-2e-5 -0.780512,-0.0761 -1.148054,-0.22839 -0.367542,-0.15224 -0.691965,-0.36901 -0.973269,-0.65032 -0.281305,-0.28129 -0.498079,-0.60573 -0.65032,-0.97326 C 28.076117,171.78049 27.999998,171.39781 28,171 c -2e-6,-0.39783 0.07612,-0.78052 0.228357,-1.14807 0.152241,-0.36754 0.369015,-0.69196 0.65032,-0.97325 0.281304,-0.28131 0.605727,-0.4981 0.973269,-0.65033 C 30.219488,168.07611 30.602173,168 31,168 c 0.397821,0 0.780504,0.0761 1.148048,0.22835 0.367543,0.15223 0.691964,0.36902 0.973271,0.65033 0.281299,0.28129 0.498073,0.60571 0.650318,0.97325 C 33.923878,170.21948 33.999996,170.60217 34,171 Z" /><path
             id="path116"
             style="fill:#f8cecc;fill-opacity:1;fill-rule:nonzero;stroke:none"
             d="m 64,163 c -4e-6,0.39781 -0.07613,0.78049 -0.228367,1.14803 -0.152244,0.36753 -0.369015,0.69195 -0.650314,0.97328 -0.281307,0.28129 -0.605732,0.49807 -0.973274,0.65033 C 61.780502,165.92387 61.39782,165.99998 61,166 c -0.397827,-2e-5 -0.780514,-0.0761 -1.148056,-0.22836 -0.367542,-0.15226 -0.691967,-0.36904 -0.97327,-0.65033 -0.281308,-0.28133 -0.498082,-0.60575 -0.650322,-0.97328 C 58.076111,163.78049 57.999996,163.39781 58,163 c -4e-6,-0.39783 0.07611,-0.78052 0.228352,-1.14806 0.15224,-0.36753 0.369014,-0.69197 0.650322,-0.97326 0.281303,-0.28131 0.605724,-0.4981 0.973266,-0.65033 C 60.219486,160.07611 60.602173,160 61,160 c 0.39782,0 0.780502,0.0761 1.148045,0.22835 0.367542,0.15223 0.691967,0.36902 0.973274,0.65033 0.281299,0.28129 0.49807,0.60573 0.650314,0.97326 C 63.923874,162.21948 63.999996,162.60217 64,163 Z" /><path
             id="path118"
             style="fill:none;stroke:#b85450;stroke-width:1;stroke-linecap:butt;stroke-linejoin:miter;stroke-miterlimit:10;stroke-dasharray:none;stroke-opacity:1"
             d="m 64,163 c -4e-6,0.39781 -0.07613,0.78049 -0.228367,1.14803 -0.152244,0.36753 -0.369015,0.69195 -0.650314,0.97328 -0.281307,0.28129 -0.605732,0.49807 -0.973274,0.65033 C 61.780502,165.92387 61.39782,165.99998 61,166 c -0.397827,-2e-5 -0.780514,-0.0761 -1.148056,-0.22836 -0.367542,-0.15226 -0.691967,-0.36904 -0.97327,-0.65033 -0.281308,-0.28133 -0.498082,-0.60575 -0.650322,-0.97328 C 58.076111,163.78049 57.999996,163.39781 58,163 c -4e-6,-0.39783 0.07611,-0.78052 0.228352,-1.14806 0.15224,-0.36753 0.369014,-0.69197 0.650322,-0.97326 0.281303,-0.28131 0.605724,-0.4981 0.973266,-0.65033 C 60.219486,160.07611 60.602173,160 61,160 c 0.39782,0 0.780502,0.0761 1.148045,0.22835 0.367542,0.15223 0.691967,0.36902 0.973274,0.65033 0.281299,0.28129 0.49807,0.60573 0.650314,0.97326 C 63.923874,162.21948 63.999996,162.60217 64,163 Z" /><path
             id="path120"
             style="fill:#f8cecc;fill-opacity:1;fill-rule:nonzero;stroke:none"
             d="m 75,159 c -8e-6,0.39781 -0.07613,0.78049 -0.228371,1.14803 -0.152244,0.36753 -0.369011,0.69197 -0.650314,0.97328 -0.281303,0.28129 -0.605728,0.49807 -0.973274,0.65031 C 72.780495,161.92386 72.39782,161.99998 72,162 c -0.397827,-2e-5 -0.780518,-0.0761 -1.148064,-0.22838 -0.367538,-0.15224 -0.691955,-0.36902 -0.973259,-0.65031 C 69.597366,160.84 69.380592,160.51556 69.228355,160.14803 69.076111,159.78049 68.999992,159.39781 69,159 c -8e-6,-0.39784 0.07611,-0.78053 0.228348,-1.14807 0.152244,-0.36756 0.369018,-0.69197 0.650329,-0.97327 0.281304,-0.28129 0.605721,-0.49808 0.973259,-0.65031 C 71.219482,156.07611 71.602173,156 72,156 c 0.39782,0 0.780495,0.0761 1.148041,0.22835 0.367546,0.15223 0.691971,0.36902 0.973274,0.65031 0.281303,0.2813 0.49807,0.60571 0.650314,0.97327 C 74.923866,158.21947 74.999992,158.60216 75,159 Z" /><path
             id="path122"
             style="fill:none;stroke:#b85450;stroke-width:1;stroke-linecap:butt;stroke-linejoin:miter;stroke-miterlimit:10;stroke-dasharray:none;stroke-opacity:1"
             d="m 75,159 c -8e-6,0.39781 -0.07613,0.78049 -0.228371,1.14803 -0.152244,0.36753 -0.369011,0.69197 -0.650314,0.97328 -0.281303,0.28129 -0.605728,0.49807 -0.973274,0.65031 C 72.780495,161.92386 72.39782,161.99998 72,162 c -0.397827,-2e-5 -0.780518,-0.0761 -1.148064,-0.22838 -0.367538,-0.15224 -0.691955,-0.36902 -0.973259,-0.65031 C 69.597366,160.84 69.380592,160.51556 69.228355,160.14803 69.076111,159.78049 68.999992,159.39781 69,159 c -8e-6,-0.39784 0.07611,-0.78053 0.228348,-1.14807 0.152244,-0.36756 0.369018,-0.69197 0.650329,-0.97327 0.281304,-0.28129 0.605721,-0.49808 0.973259,-0.65031 C 71.219482,156.07611 71.602173,156 72,156 c 0.39782,0 0.780495,0.0761 1.148041,0.22835 0.367546,0.15223 0.691971,0.36902 0.973274,0.65031 0.281303,0.2813 0.49807,0.60571 0.650314,0.97327 C 74.923866,158.21947 74.999992,158.60216 75,159 Z" /><path
             id="path124"
             style="fill:#d5e8d4;fill-opacity:1;fill-rule:nonzero;stroke:none"
             d="m 110,147 c -1e-5,0.39781 -0.0761,0.78049 -0.22838,1.14803 -0.15224,0.36753 -0.36901,0.69197 -0.65031,0.97328 -0.28131,0.28129 -0.60574,0.49807 -0.97328,0.65031 -0.36754,0.15224 -0.75022,0.22836 -1.14803,0.22838 -0.39783,-2e-5 -0.78052,-0.0761 -1.14806,-0.22838 -0.36755,-0.15224 -0.69197,-0.36902 -0.97327,-0.65031 -0.28131,-0.28131 -0.49809,-0.60575 -0.65032,-0.97328 C 104.0761,147.78049 103.99999,147.39781 104,147 c -1e-5,-0.39784 0.0761,-0.78053 0.22835,-1.14807 0.15223,-0.36754 0.36901,-0.69197 0.65032,-0.97327 0.2813,-0.28131 0.60572,-0.49809 0.97327,-0.65033 C 106.21948,144.07611 106.60217,144 107,144 c 0.39781,0 0.78049,0.0761 1.14803,0.22833 0.36754,0.15224 0.69197,0.36902 0.97328,0.65033 0.2813,0.2813 0.49807,0.60573 0.65032,0.97327 0.15224,0.36754 0.22836,0.75023 0.22837,1.14807 z" /><path
             id="path126"
             style="fill:none;stroke:#82b366;stroke-width:1;stroke-linecap:butt;stroke-linejoin:miter;stroke-miterlimit:10;stroke-dasharray:none;stroke-opacity:1"
             d="m 110,147 c -1e-5,0.39781 -0.0761,0.78049 -0.22838,1.14803 -0.15224,0.36753 -0.36901,0.69197 -0.65031,0.97328 -0.28131,0.28129 -0.60574,0.49807 -0.97328,0.65031 -0.36754,0.15224 -0.75022,0.22836 -1.14803,0.22838 -0.39783,-2e-5 -0.78052,-0.0761 -1.14806,-0.22838 -0.36755,-0.15224 -0.69197,-0.36902 -0.97327,-0.65031 -0.28131,-0.28131 -0.49809,-0.60575 -0.65032,-0.97328 C 104.0761,147.78049 103.99999,147.39781 104,147 c -1e-5,-0.39784 0.0761,-0.78053 0.22835,-1.14807 0.15223,-0.36754 0.36901,-0.69197 0.65032,-0.97327 0.2813,-0.28131 0.60572,-0.49809 0.97327,-0.65033 C 106.21948,144.07611 106.60217,144 107,144 c 0.39781,0 0.78049,0.0761 1.14803,0.22833 0.36754,0.15224 0.69197,0.36902 0.97328,0.65033 0.2813,0.2813 0.49807,0.60573 0.65032,0.97327 0.15224,0.36754 0.22836,0.75023 0.22837,1.14807 z" /><path
             id="path128"
             style="fill:#d5e8d4;fill-opacity:1;fill-rule:nonzero;stroke:none"
             d="m 121,142 c -1e-5,0.39781 -0.0761,0.78049 -0.22837,1.14804 -0.15225,0.36754 -0.36901,0.69197 -0.65032,0.97327 -0.28131,0.28131 -0.60573,0.49807 -0.97328,0.65031 -0.36753,0.15224 -0.75021,0.22836 -1.14803,0.22838 -0.39783,-2e-5 -0.78052,-0.0761 -1.14807,-0.22838 -0.36754,-0.15224 -0.69196,-0.369 -0.97326,-0.65031 -0.2813,-0.2813 -0.49809,-0.60573 -0.65033,-0.97327 C 115.0761,142.78049 114.99999,142.39781 115,142 c -1e-5,-0.39783 0.0761,-0.78052 0.22834,-1.14807 0.15224,-0.36754 0.36903,-0.69196 0.65033,-0.97325 0.2813,-0.28131 0.60572,-0.49808 0.97327,-0.65032 C 117.21948,139.07613 117.60217,139 118,139 c 0.39782,0 0.7805,0.0761 1.14803,0.22836 0.36755,0.15224 0.69197,0.36901 0.97328,0.65032 0.28131,0.28129 0.49807,0.60571 0.65032,0.97325 0.15224,0.36755 0.22836,0.75024 0.22837,1.14807 z" /><path
             id="path130"
             style="fill:none;stroke:#82b366;stroke-width:1;stroke-linecap:butt;stroke-linejoin:miter;stroke-miterlimit:10;stroke-dasharray:none;stroke-opacity:1"
             d="m 121,142 c -1e-5,0.39781 -0.0761,0.78049 -0.22837,1.14804 -0.15225,0.36754 -0.36901,0.69197 -0.65032,0.97327 -0.28131,0.28131 -0.60573,0.49807 -0.97328,0.65031 -0.36753,0.15224 -0.75021,0.22836 -1.14803,0.22838 -0.39783,-2e-5 -0.78052,-0.0761 -1.14807,-0.22838 -0.36754,-0.15224 -0.69196,-0.369 -0.97326,-0.65031 -0.2813,-0.2813 -0.49809,-0.60573 -0.65033,-0.97327 C 115.0761,142.78049 114.99999,142.39781 115,142 c -1e-5,-0.39783 0.0761,-0.78052 0.22834,-1.14807 0.15224,-0.36754 0.36903,-0.69196 0.65033,-0.97325 0.2813,-0.28131 0.60572,-0.49808 0.97327,-0.65032 C 117.21948,139.07613 117.60217,139 118,139 c 0.39782,0 0.7805,0.0761 1.14803,0.22836 0.36755,0.15224 0.69197,0.36901 0.97328,0.65032 0.28131,0.28129 0.49807,0.60571 0.65032,0.97325 0.15224,0.36755 0.22836,0.75024 0.22837,1.14807 z" /><path
             id="path132"
             style="fill:#d5e8d4;fill-opacity:1;fill-rule:nonzero;stroke:none"
             d="m 134,136 c 0,0.39781 -0.0761,0.7805 -0.22838,1.14804 -0.15225,0.36754 -0.36902,0.69196 -0.65031,0.97327 -0.28131,0.28129 -0.60575,0.49807 -0.97328,0.65031 -0.36754,0.15224 -0.75022,0.22836 -1.14803,0.22838 -0.39784,-2e-5 -0.78053,-0.0761 -1.14807,-0.22838 -0.36754,-0.15224 -0.69196,-0.36902 -0.97325,-0.65031 -0.28131,-0.28131 -0.4981,-0.60573 -0.65033,-0.97327 C 128.07611,136.7805 127.99999,136.39781 128,136 c -1e-5,-0.39783 0.0761,-0.78052 0.22835,-1.14806 0.15223,-0.36755 0.36902,-0.69198 0.65033,-0.97328 0.28129,-0.28131 0.60571,-0.49808 0.97325,-0.65031 C 130.21947,133.07611 130.60216,133 131,133 c 0.39781,0 0.7805,0.0761 1.14804,0.22835 0.36754,0.15223 0.69196,0.369 0.97327,0.65031 0.28129,0.2813 0.49806,0.60573 0.65031,0.97328 C 133.92387,135.21948 134,135.60217 134,136 Z" /><path
             id="path134"
             style="fill:none;stroke:#82b366;stroke-width:1;stroke-linecap:butt;stroke-linejoin:miter;stroke-miterlimit:10;stroke-dasharray:none;stroke-opacity:1"
             d="m 134,136 c 0,0.39781 -0.0761,0.7805 -0.22838,1.14804 -0.15225,0.36754 -0.36902,0.69196 -0.65031,0.97327 -0.28131,0.28129 -0.60575,0.49807 -0.97328,0.65031 -0.36754,0.15224 -0.75022,0.22836 -1.14803,0.22838 -0.39784,-2e-5 -0.78053,-0.0761 -1.14807,-0.22838 -0.36754,-0.15224 -0.69196,-0.36902 -0.97325,-0.65031 -0.28131,-0.28131 -0.4981,-0.60573 -0.65033,-0.97327 C 128.07611,136.7805 127.99999,136.39781 128,136 c -1e-5,-0.39783 0.0761,-0.78052 0.22835,-1.14806 0.15223,-0.36755 0.36902,-0.69198 0.65033,-0.97328 0.28129,-0.28131 0.60571,-0.49808 0.97325,-0.65031 C 130.21947,133.07611 130.60216,133 131,133 c 0.39781,0 0.7805,0.0761 1.14804,0.22835 0.36754,0.15223 0.69196,0.369 0.97327,0.65031 0.28129,0.2813 0.49806,0.60573 0.65031,0.97328 C 133.92387,135.21948 134,135.60217 134,136 Z" /><path
             id="path136"
             style="fill:#d5e8d4;fill-opacity:1;fill-rule:nonzero;stroke:none"
             d="m 148,127 c -2e-5,0.39782 -0.0761,0.7805 -0.22839,1.14804 -0.15224,0.36754 -0.36901,0.69197 -0.6503,0.97328 -0.28131,0.2813 -0.60573,0.49808 -0.97327,0.65032 -0.36754,0.15223 -0.75023,0.22834 -1.14804,0.22836 -0.39784,-2e-5 -0.78053,-0.0761 -1.14807,-0.22836 -0.36754,-0.15224 -0.69196,-0.36902 -0.97325,-0.65032 -0.28131,-0.28131 -0.4981,-0.60574 -0.65033,-0.97328 C 142.07611,127.7805 141.99998,127.39782 142,127 c -2e-5,-0.39783 0.0761,-0.78052 0.22835,-1.14806 0.15223,-0.36754 0.36902,-0.69197 0.65033,-0.97326 0.28129,-0.28131 0.60571,-0.49809 0.97325,-0.65033 C 144.21947,124.07612 144.60216,124 145,124 c 0.39781,0 0.7805,0.0761 1.14804,0.22835 0.36754,0.15224 0.69196,0.36902 0.97327,0.65033 0.28129,0.28129 0.49806,0.60572 0.6503,0.97326 0.15225,0.36754 0.22837,0.75023 0.22839,1.14806 z" /><path
             id="path138"
             style="fill:none;stroke:#82b366;stroke-width:1;stroke-linecap:butt;stroke-linejoin:miter;stroke-miterlimit:10;stroke-dasharray:none;stroke-opacity:1"
             d="m 148,127 c -2e-5,0.39782 -0.0761,0.7805 -0.22839,1.14804 -0.15224,0.36754 -0.36901,0.69197 -0.6503,0.97328 -0.28131,0.2813 -0.60573,0.49808 -0.97327,0.65032 -0.36754,0.15223 -0.75023,0.22834 -1.14804,0.22836 -0.39784,-2e-5 -0.78053,-0.0761 -1.14807,-0.22836 -0.36754,-0.15224 -0.69196,-0.36902 -0.97325,-0.65032 -0.28131,-0.28131 -0.4981,-0.60574 -0.65033,-0.97328 C 142.07611,127.7805 141.99998,127.39782 142,127 c -2e-5,-0.39783 0.0761,-0.78052 0.22835,-1.14806 0.15223,-0.36754 0.36902,-0.69197 0.65033,-0.97326 0.28129,-0.28131 0.60571,-0.49809 0.97325,-0.65033 C 144.21947,124.07612 144.60216,124 145,124 c 0.39781,0 0.7805,0.0761 1.14804,0.22835 0.36754,0.15224 0.69196,0.36902 0.97327,0.65033 0.28129,0.28129 0.49806,0.60572 0.6503,0.97326 0.15225,0.36754 0.22837,0.75023 0.22839,1.14806 z" /><path
             id="path140"
             style="fill:#d5e8d4;fill-opacity:1;fill-rule:nonzero;stroke:none"
             d="m 162,118.5 c -2e-5,0.46412 -0.0888,0.91058 -0.26643,1.33938 -0.17763,0.42879 -0.43053,0.8073 -0.7587,1.13549 -0.3282,0.32818 -0.70671,0.58108 -1.1355,0.7587 -0.42879,0.17762 -0.87524,0.26642 -1.33937,0.26643 -0.46413,-1e-5 -0.9106,-0.0888 -1.3394,-0.26643 -0.4288,-0.17762 -0.8073,-0.43052 -1.13548,-0.7587 -0.32821,-0.32819 -0.5811,-0.7067 -0.7587,-1.13549 C 155.08881,119.41058 155,118.96412 155,118.5 c 0,-0.46414 0.0888,-0.91061 0.26642,-1.33941 0.1776,-0.4288 0.43049,-0.8073 0.7587,-1.13547 0.32818,-0.3282 0.70668,-0.5811 1.13548,-0.75872 0.4288,-0.1776 0.87527,-0.2664 1.3394,-0.2664 0.46413,0 0.91058,0.0888 1.33937,0.26641 0.42879,0.17761 0.8073,0.43051 1.1355,0.75871 0.32817,0.32817 0.58107,0.70667 0.7587,1.13548 0.17759,0.42879 0.26641,0.87526 0.26643,1.3394 z" /><path
             id="path142"
             style="fill:none;stroke:#82b366;stroke-width:1;stroke-linecap:butt;stroke-linejoin:miter;stroke-miterlimit:10;stroke-dasharray:none;stroke-opacity:1"
             d="m 162,118.5 c -2e-5,0.46412 -0.0888,0.91058 -0.26643,1.33938 -0.17763,0.42879 -0.43053,0.8073 -0.7587,1.13549 -0.3282,0.32818 -0.70671,0.58108 -1.1355,0.7587 -0.42879,0.17762 -0.87524,0.26642 -1.33937,0.26643 -0.46413,-1e-5 -0.9106,-0.0888 -1.3394,-0.26643 -0.4288,-0.17762 -0.8073,-0.43052 -1.13548,-0.7587 -0.32821,-0.32819 -0.5811,-0.7067 -0.7587,-1.13549 C 155.08881,119.41058 155,118.96412 155,118.5 c 0,-0.46414 0.0888,-0.91061 0.26642,-1.33941 0.1776,-0.4288 0.43049,-0.8073 0.7587,-1.13547 0.32818,-0.3282 0.70668,-0.5811 1.13548,-0.75872 0.4288,-0.1776 0.87527,-0.2664 1.3394,-0.2664 0.46413,0 0.91058,0.0888 1.33937,0.26641 0.42879,0.17761 0.8073,0.43051 1.1355,0.75871 0.32817,0.32817 0.58107,0.70667 0.7587,1.13548 0.17759,0.42879 0.26641,0.87526 0.26643,1.3394 z" /><path
             id="path144"
             style="fill:#f8cecc;fill-opacity:1;fill-rule:nonzero;stroke:none"
             d="m 198,89 c -2e-5,0.39782 -0.0761,0.780495 -0.22836,1.148041 -0.15227,0.367546 -0.36904,0.691978 -0.65033,0.973282 -0.28133,0.281303 -0.60575,0.498069 -0.97328,0.650314 C 195.78049,91.923874 195.39781,91.999992 195,92 c -0.39784,-8e-6 -0.78053,-0.07613 -1.14807,-0.228363 -0.36754,-0.152245 -0.69197,-0.369011 -0.97327,-0.650314 -0.28131,-0.281304 -0.49809,-0.605736 -0.65033,-0.973282 C 192.0761,89.780495 191.99998,89.39782 192,89 c -2e-5,-0.397835 0.0761,-0.780518 0.22833,-1.148056 0.15224,-0.367546 0.36902,-0.691963 0.65033,-0.973267 0.2813,-0.281303 0.60573,-0.498085 0.97327,-0.650329 C 194.21947,86.076118 194.60216,86 195,86 c 0.39781,0 0.7805,0.07612 1.14804,0.228348 0.36752,0.152244 0.69194,0.369026 0.97327,0.650329 0.28129,0.281304 0.49806,0.605721 0.65031,0.973267 C 197.92386,88.219482 197.99998,88.602165 198,89 Z" /><path
             id="path146"
             style="fill:none;stroke:#b85450;stroke-width:1;stroke-linecap:butt;stroke-linejoin:miter;stroke-miterlimit:10;stroke-dasharray:none;stroke-opacity:1"
             d="m 198,89 c -2e-5,0.39782 -0.0761,0.780495 -0.22836,1.148041 -0.15227,0.367546 -0.36904,0.691978 -0.65033,0.973282 -0.28133,0.281303 -0.60575,0.498069 -0.97328,0.650314 C 195.78049,91.923874 195.39781,91.999992 195,92 c -0.39784,-8e-6 -0.78053,-0.07613 -1.14807,-0.228363 -0.36754,-0.152245 -0.69197,-0.369011 -0.97327,-0.650314 -0.28131,-0.281304 -0.49809,-0.605736 -0.65033,-0.973282 C 192.0761,89.780495 191.99998,89.39782 192,89 c -2e-5,-0.397835 0.0761,-0.780518 0.22833,-1.148056 0.15224,-0.367546 0.36902,-0.691963 0.65033,-0.973267 0.2813,-0.281303 0.60573,-0.498085 0.97327,-0.650329 C 194.21947,86.076118 194.60216,86 195,86 c 0.39781,0 0.7805,0.07612 1.14804,0.228348 0.36752,0.152244 0.69194,0.369026 0.97327,0.650329 0.28129,0.281304 0.49806,0.605721 0.65031,0.973267 C 197.92386,88.219482 197.99998,88.602165 198,89 Z" /><path
             id="path148"
             style="fill:#f8cecc;fill-opacity:1;fill-rule:nonzero;stroke:none"
             d="m 209,80 c -2e-5,0.39782 -0.0761,0.780495 -0.22838,1.148041 -0.15224,0.367538 -0.36902,0.691963 -0.65031,0.973274 -0.28131,0.281303 -0.60575,0.49807 -0.97328,0.650314 C 206.78049,82.923874 206.39781,82.999992 206,83 c -0.39784,-8e-6 -0.78053,-0.07613 -1.14807,-0.228371 -0.36754,-0.152244 -0.69197,-0.369011 -0.97327,-0.650314 -0.28131,-0.281311 -0.49809,-0.605736 -0.65033,-0.973274 C 203.0761,80.780495 202.99998,80.39782 203,80 c -2e-5,-0.397827 0.0761,-0.78051 0.22833,-1.148056 0.15224,-0.367546 0.36902,-0.691963 0.65033,-0.973267 0.2813,-0.281311 0.60573,-0.498085 0.97327,-0.650322 C 205.21947,77.076118 205.60216,77 206,77 c 0.39781,0 0.78049,0.07612 1.14803,0.228355 0.36753,0.152237 0.69197,0.369011 0.97328,0.650322 0.28129,0.281304 0.49807,0.605721 0.65031,0.973267 C 208.92386,79.21949 208.99998,79.602173 209,80 Z" /><path
             id="path150"
             style="fill:none;stroke:#b85450;stroke-width:1;stroke-linecap:butt;stroke-linejoin:miter;stroke-miterlimit:10;stroke-dasharray:none;stroke-opacity:1"
             d="m 209,80 c -2e-5,0.39782 -0.0761,0.780495 -0.22838,1.148041 -0.15224,0.367538 -0.36902,0.691963 -0.65031,0.973274 -0.28131,0.281303 -0.60575,0.49807 -0.97328,0.650314 C 206.78049,82.923874 206.39781,82.999992 206,83 c -0.39784,-8e-6 -0.78053,-0.07613 -1.14807,-0.228371 -0.36754,-0.152244 -0.69197,-0.369011 -0.97327,-0.650314 -0.28131,-0.281311 -0.49809,-0.605736 -0.65033,-0.973274 C 203.0761,80.780495 202.99998,80.39782 203,80 c -2e-5,-0.397827 0.0761,-0.78051 0.22833,-1.148056 0.15224,-0.367546 0.36902,-0.691963 0.65033,-0.973267 0.2813,-0.281311 0.60573,-0.498085 0.97327,-0.650322 C 205.21947,77.076118 205.60216,77 206,77 c 0.39781,0 0.78049,0.07612 1.14803,0.228355 0.36753,0.152237 0.69197,0.369011 0.97328,0.650322 0.28129,0.281304 0.49807,0.605721 0.65031,0.973267 C 208.92386,79.21949 208.99998,79.602173 209,80 Z" /><path
             id="path152"
             style="fill:#f8cecc;fill-opacity:1;fill-rule:nonzero;stroke:none"
             d="m 218,71 c 0,0.39782 -0.0761,0.780502 -0.22836,1.148041 -0.15226,0.367538 -0.36902,0.691963 -0.65032,0.973274 -0.28132,0.281303 -0.60576,0.49807 -0.97329,0.650314 C 215.78049,73.923874 215.39781,73.999992 215,74 c -0.39784,-8e-6 -0.78055,-0.07613 -1.14809,-0.228371 -0.36753,-0.152244 -0.69197,-0.369011 -0.97326,-0.650314 -0.28131,-0.281311 -0.4981,-0.605736 -0.65033,-0.973274 C 212.07608,71.780502 211.99998,71.39782 212,71 c -2e-5,-0.397835 0.0761,-0.780518 0.22832,-1.148056 0.15223,-0.367538 0.36902,-0.691963 0.65033,-0.973267 0.28129,-0.281303 0.60573,-0.498077 0.97326,-0.650322 C 214.21945,68.076118 214.60216,68 215,68 c 0.39781,0 0.7805,0.07612 1.14804,0.228355 0.36754,0.152245 0.69196,0.369019 0.97328,0.650322 0.2813,0.281304 0.49806,0.605729 0.6503,0.973267 C 217.92387,70.219482 218,70.602165 218,71 Z" /><path
             id="path154"
             style="fill:none;stroke:#b85450;stroke-width:1;stroke-linecap:butt;stroke-linejoin:miter;stroke-miterlimit:10;stroke-dasharray:none;stroke-opacity:1"
             d="m 218,71 c 0,0.39782 -0.0761,0.780502 -0.22836,1.148041 -0.15226,0.367538 -0.36902,0.691963 -0.65032,0.973274 -0.28132,0.281303 -0.60576,0.49807 -0.97329,0.650314 C 215.78049,73.923874 215.39781,73.999992 215,74 c -0.39784,-8e-6 -0.78055,-0.07613 -1.14809,-0.228371 -0.36753,-0.152244 -0.69197,-0.369011 -0.97326,-0.650314 -0.28131,-0.281311 -0.4981,-0.605736 -0.65033,-0.973274 C 212.07608,71.780502 211.99998,71.39782 212,71 c -2e-5,-0.397835 0.0761,-0.780518 0.22832,-1.148056 0.15223,-0.367538 0.36902,-0.691963 0.65033,-0.973267 0.28129,-0.281303 0.60573,-0.498077 0.97326,-0.650322 C 214.21945,68.076118 214.60216,68 215,68 c 0.39781,0 0.7805,0.07612 1.14804,0.228355 0.36754,0.152245 0.69196,0.369019 0.97328,0.650322 0.2813,0.281304 0.49806,0.605729 0.6503,0.973267 C 217.92387,70.219482 218,70.602165 218,71 Z" /><path
             id="path156"
             style="fill:#f8cecc;fill-opacity:1;fill-rule:nonzero;stroke:none"
             d="m 248,39.5 c -2e-5,0.464127 -0.0888,0.910587 -0.26645,1.339386 -0.17761,0.428802 -0.43051,0.807297 -0.75868,1.135487 -0.3282,0.328186 -0.7067,0.581085 -1.1355,0.758701 C 245.41057,42.91119 244.96411,42.999996 244.5,43 c -0.46416,-4e-6 -0.91063,-0.08881 -1.33943,-0.266426 -0.42879,-0.177616 -0.80728,-0.430515 -1.13547,-0.758701 -0.3282,-0.32819 -0.5811,-0.706685 -0.75871,-1.135487 C 241.08879,40.410587 240.99998,39.964127 241,39.5 c -2e-5,-0.46413 0.0888,-0.910595 0.26639,-1.339394 0.17761,-0.428802 0.43051,-0.807296 0.75871,-1.135482 0.32819,-0.32819 0.70668,-0.581089 1.13548,-0.758706 C 243.58937,36.088806 244.03584,36 244.5,36 c 0.46411,0 0.91057,0.08881 1.33937,0.266418 0.4288,0.177617 0.8073,0.430516 1.1355,0.758706 0.32817,0.328186 0.58107,0.70668 0.75868,1.135482 C 247.91118,38.589405 247.99998,39.03587 248,39.5 Z" /><path
             id="path158"
             style="fill:none;stroke:#b85450;stroke-width:1;stroke-linecap:butt;stroke-linejoin:miter;stroke-miterlimit:10;stroke-dasharray:none;stroke-opacity:1"
             d="m 248,39.5 c -2e-5,0.464127 -0.0888,0.910587 -0.26645,1.339386 -0.17761,0.428802 -0.43051,0.807297 -0.75868,1.135487 -0.3282,0.328186 -0.7067,0.581085 -1.1355,0.758701 C 245.41057,42.91119 244.96411,42.999996 244.5,43 c -0.46416,-4e-6 -0.91063,-0.08881 -1.33943,-0.266426 -0.42879,-0.177616 -0.80728,-0.430515 -1.13547,-0.758701 -0.3282,-0.32819 -0.5811,-0.706685 -0.75871,-1.135487 C 241.08879,40.410587 240.99998,39.964127 241,39.5 c -2e-5,-0.46413 0.0888,-0.910595 0.26639,-1.339394 0.17761,-0.428802 0.43051,-0.807296 0.75871,-1.135482 0.32819,-0.32819 0.70668,-0.581089 1.13548,-0.758706 C 243.58937,36.088806 244.03584,36 244.5,36 c 0.46411,0 0.91057,0.08881 1.33937,0.266418 0.4288,0.177617 0.8073,0.430516 1.1355,0.758706 0.32817,0.328186 0.58107,0.70668 0.75868,1.135482 C 247.91118,38.589405 247.99998,39.03587 248,39.5 Z" /><path
             id="path160"
             style="fill:#f8cecc;fill-opacity:1;fill-rule:nonzero;stroke:none"
             d="m 20,174 c -2e-6,0.39781 -0.07612,0.78049 -0.228365,1.14803 -0.152241,0.36755 -0.369013,0.69198 -0.650316,0.97328 -0.281305,0.28129 -0.60573,0.49807 -0.973271,0.65031 C 17.780508,176.92386 17.397825,176.99998 17,177 c -0.397825,-2e-5 -0.78051,-0.0761 -1.148053,-0.22838 -0.367542,-0.15224 -0.691965,-0.36902 -0.973269,-0.65031 -0.281304,-0.2813 -0.498077,-0.60573 -0.650319,-0.97328 C 14.076119,174.78049 13.999999,174.39781 14,174 c -10e-7,-0.39784 0.07612,-0.78053 0.228359,-1.14807 0.152242,-0.36754 0.369015,-0.69197 0.650319,-0.97327 0.281304,-0.28131 0.605727,-0.49808 0.97327,-0.65031 C 16.21949,171.07611 16.602175,171 17,171 c 0.397825,0 0.780508,0.0761 1.148048,0.22835 0.367541,0.15223 0.691966,0.369 0.973271,0.65031 0.281303,0.2813 0.498075,0.60573 0.650316,0.97327 C 19.923878,173.21947 19.999998,173.60216 20,174 Z" /><path
             id="path162"
             style="fill:none;stroke:#b85450;stroke-width:1;stroke-linecap:butt;stroke-linejoin:miter;stroke-miterlimit:10;stroke-dasharray:none;stroke-opacity:1"
             d="m 20,174 c -2e-6,0.39781 -0.07612,0.78049 -0.228365,1.14803 -0.152241,0.36755 -0.369013,0.69198 -0.650316,0.97328 -0.281305,0.28129 -0.60573,0.49807 -0.973271,0.65031 C 17.780508,176.92386 17.397825,176.99998 17,177 c -0.397825,-2e-5 -0.78051,-0.0761 -1.148053,-0.22838 -0.367542,-0.15224 -0.691965,-0.36902 -0.973269,-0.65031 -0.281304,-0.2813 -0.498077,-0.60573 -0.650319,-0.97328 C 14.076119,174.78049 13.999999,174.39781 14,174 c -10e-7,-0.39784 0.07612,-0.78053 0.228359,-1.14807 0.152242,-0.36754 0.369015,-0.69197 0.650319,-0.97327 0.281304,-0.28131 0.605727,-0.49808 0.97327,-0.65031 C 16.21949,171.07611 16.602175,171 17,171 c 0.397825,0 0.780508,0.0761 1.148048,0.22835 0.367541,0.15223 0.691966,0.369 0.973271,0.65031 0.281303,0.2813 0.498075,0.60573 0.650316,0.97327 C 19.923878,173.21947 19.999998,173.60216 20,174 Z" /><path
             id="path164"
             style="fill:none;stroke:#000000;stroke-width:1;stroke-linecap:butt;stroke-linejoin:miter;stroke-miterlimit:10;stroke-dasharray:none;stroke-opacity:1"
             d="M 31,186 263,53" /><path
             id="path166"
             style="fill:none;stroke:#666666;stroke-width:1;stroke-linecap:butt;stroke-linejoin:miter;stroke-miterlimit:10;stroke-dasharray:none;stroke-opacity:1"
             d="M 221.33,163 221.00999,99.870003" /><path
             id="path168"
             style="fill:#666666;fill-opacity:1;fill-rule:nonzero;stroke:none"
             d="m 221.00999,99.120003 0.5,0.999997 -0.5,-0.249997 -0.5,0.249997 z" /><path
             id="path170"
             style="fill:none;stroke:#666666;stroke-width:1;stroke-linecap:butt;stroke-linejoin:miter;stroke-miterlimit:10;stroke-dasharray:none;stroke-opacity:1"
             d="m 221.00999,99.120003 0.5,0.999997 -0.5,-0.249997 -0.5,0.249997 z" /><path
             id="path172"
             style="fill:none;stroke:#666666;stroke-width:1;stroke-linecap:butt;stroke-linejoin:miter;stroke-miterlimit:10;stroke-dasharray:none;stroke-opacity:1"
             d="m 134.33,169 -0.3,-20.13001" /><path
             id="path174"
             style="fill:#666666;fill-opacity:1;fill-rule:nonzero;stroke:none"
             d="m 134.02,148.11999 0.51,0.99001 -0.5,-0.24001 -0.5,0.26001 z" /><path
             id="path176"
             style="fill:none;stroke:#666666;stroke-width:1;stroke-linecap:butt;stroke-linejoin:miter;stroke-miterlimit:10;stroke-dasharray:none;stroke-opacity:1"
             d="m 134.02,148.11999 0.51,0.99001 -0.5,-0.24001 -0.5,0.26001 z" /><path
             id="path178"
             style="fill:none;stroke:#666666;stroke-width:1;stroke-linecap:butt;stroke-linejoin:miter;stroke-miterlimit:10;stroke-dasharray:none;stroke-opacity:1"
             d="m 179.33,167 -0.31,-37.13001" /><path
             id="path180"
             style="fill:#666666;fill-opacity:1;fill-rule:nonzero;stroke:none"
             d="m 179.00999,129.11999 0.51001,0.99001 -0.5,-0.24001 -0.5,0.25 z" /><path
             id="path182"
             style="fill:none;stroke:#666666;stroke-width:1;stroke-linecap:butt;stroke-linejoin:miter;stroke-miterlimit:10;stroke-dasharray:none;stroke-opacity:1"
             d="m 179.00999,129.11999 0.51001,0.99001 -0.5,-0.24001 -0.5,0.25 z" /><path
             id="path184"
             style="fill:none;stroke:#666666;stroke-width:1;stroke-linecap:butt;stroke-linejoin:miter;stroke-miterlimit:10;stroke-dasharray:none;stroke-opacity:1"
             d="m 95.330002,169.5 -0.270004,-8.63001" /><path
             id="path186"
             style="fill:#666666;fill-opacity:1;fill-rule:nonzero;stroke:none"
             d="M 95.040001,160.11999 95.57,161.10001 95.059998,160.86999 94.57,161.13 Z" /><path
             id="path188"
             style="fill:none;stroke:#666666;stroke-width:1;stroke-linecap:butt;stroke-linejoin:miter;stroke-miterlimit:10;stroke-dasharray:none;stroke-opacity:1"
             d="M 95.040001,160.11999 95.57,161.10001 95.059998,160.86999 94.57,161.13 Z" /></g></g></g></g></svg>