<?xml version="1.0" encoding="UTF-8" standalone="no"?>
<svg
   xmlns:dc="http://purl.org/dc/elements/1.1/"
   xmlns:cc="http://creativecommons.org/ns#"
   xmlns:rdf="http://www.w3.org/1999/02/22-rdf-syntax-ns#"
   xmlns:svg="http://www.w3.org/2000/svg"
   xmlns="http://www.w3.org/2000/svg"
   viewBox="0 0 538.56 481.28"
   height="481.28"
   width="538.56"
   xml:space="preserve"
   id="svg2"
   version="1.1"><metadata
     id="metadata8"><rdf:RDF><cc:Work
         rdf:about=""><dc:format>image/svg+xml</dc:format><dc:type
           rdf:resource="http://purl.org/dc/dcmitype/StillImage" /></cc:Work></rdf:RDF></metadata><defs
     id="defs6"><clipPath
       id="clipPath18"
       clipPathUnits="userSpaceOnUse"><path
         style="clip-rule:evenodd"
         id="path16"
         d="M 0,0 H 1683.3333 V 1503.618 H 0 Z" /></clipPath><clipPath
       id="clipPath30"
       clipPathUnits="userSpaceOnUse"><path
         style="clip-rule:evenodd"
         id="path28"
         d="M 0,0 H 1683.3333 V 1497.6274 H 0 Z" /></clipPath></defs><g
     transform="matrix(0.31999998,0,0,0.31999998,0,1.5365333e-5)"
     id="g10"><g
       id="g12"><g
         clip-path="url(#clipPath18)"
         id="g14"><g
           transform="scale(2.995255)"
           id="g20"><path
             id="path22"
             style="fill:#ffffff;fill-opacity:1;fill-rule:nonzero;stroke:none"
             d="M 0,0 H 562 V 502 H 0 Z" /></g></g></g><g
       id="g24"><g
         clip-path="url(#clipPath30)"
         id="g26"><g
           transform="matrix(2.995255,0,0,2.995255,1.4976275,1.4976275)"
           id="g32"><path
             id="path34"
             style="fill:none;stroke:#000000;stroke-width:1;stroke-linecap:butt;stroke-linejoin:miter;stroke-miterlimit:10;stroke-dasharray:none;stroke-opacity:1"
             d="m 226,138 h 90" /></g><g
           transform="scale(2.995255)"
           id="g36"><path
             id="path38"
             style="fill:#ffffff;fill-opacity:1;fill-rule:nonzero;stroke:none"
             d="m 229,117 h 9 v 18 h -9 z" /><text
             id="text42"
             style="font-variant:normal;font-weight:normal;font-size:15px;font-family:ArialMT;-inkscape-font-specification:ArialMT;writing-mode:lr-tb;fill:#000000;fill-opacity:1;fill-rule:nonzero;stroke:none"
             transform="translate(229.32813,131)"><tspan
               id="tspan40"
               y="0"
               x="0">1</tspan></text>
<path
             id="path44"
             style="fill:#ffffff;fill-opacity:1;fill-rule:nonzero;stroke:none"
             d="m 305,117 h 9 v 18 h -9 z" /><text
             id="text48"
             style="font-variant:normal;font-weight:normal;font-size:15px;font-family:ArialMT;-inkscape-font-specification:ArialMT;writing-mode:lr-tb;fill:#000000;fill-opacity:1;fill-rule:nonzero;stroke:none"
             transform="translate(305.32813,131)"><tspan
               id="tspan46"
               y="0"
               x="0">1</tspan></text>
<path
             id="path50"
             style="fill:#d5e8d4;fill-opacity:1;fill-rule:nonzero;stroke:none"
             d="M 226,101 V 80.650002 C 226,69.550003 220.45,64 209.35001,64 H 36.650002 C 25.549999,64 20,69.550003 20,80.650002 V 101" /><path
             id="path52"
             style="fill:none;stroke:#82b366;stroke-width:1;stroke-linecap:butt;stroke-linejoin:miter;stroke-miterlimit:10;stroke-dasharray:none;stroke-opacity:1"
             d="M 226,101 V 80.650002 C 226,69.550003 220.45,64 209.35001,64 H 36.650002 C 25.549999,64 20,69.550003 20,80.650002 V 101" /><path
             id="path54"
             style="fill:none;stroke:#82b366;stroke-width:1;stroke-linecap:butt;stroke-linejoin:miter;stroke-miterlimit:10;stroke-dasharray:none;stroke-opacity:1"
             d="m 20,101 v 94.35001 C 20,206.45 25.549999,212 36.650002,212 H 209.35001 C 220.45,212 226,206.45 226,195.35001 V 101" /><path
             id="path56"
             style="fill:none;stroke:#82b366;stroke-width:1;stroke-linecap:butt;stroke-linejoin:miter;stroke-miterlimit:10;stroke-dasharray:none;stroke-opacity:1"
             d="M 20,101 H 226" /><text
             id="text60"
             style="font-variant:normal;font-weight:bold;font-size:15px;font-family:Arial;-inkscape-font-specification:Arial-BoldMT;writing-mode:lr-tb;fill:#000000;fill-opacity:1;fill-rule:nonzero;stroke:none"
             transform="translate(84.643066,89)"><tspan
               id="tspan58"
               y="0"
               x="0 9.1625977 13.330078 17.497559 25.839844 30.007324 40.012207 48.354492 54.191895 62.53418 70.876465">File Server</tspan></text>
<path
             id="path62"
             style="fill:#000000;fill-opacity:1;fill-rule:nonzero;stroke:none"
             d="m 51,129 c -4e-6,0.26521 -0.05075,0.52033 -0.152245,0.76535 -0.101497,0.24503 -0.246009,0.4613 -0.433544,0.64885 -0.187538,0.18753 -0.40382,0.33205 -0.648849,0.43353 C 49.520332,130.94923 49.265213,130.99998 49,131 c -0.265217,-2e-5 -0.520344,-0.0508 -0.765373,-0.15227 -0.24503,-0.10148 -0.461312,-0.246 -0.648846,-0.43353 -0.187538,-0.18755 -0.332054,-0.40382 -0.433548,-0.64885 C 47.050739,129.52033 46.999996,129.26521 47,129 c -4e-6,-0.26523 0.05074,-0.52036 0.152233,-0.7654 0.101494,-0.24502 0.24601,-0.4613 0.433548,-0.64883 0.187534,-0.18754 0.403816,-0.33205 0.648846,-0.43355 C 48.479656,127.05074 48.734783,127 49,127 c 0.265213,0 0.520332,0.0507 0.765362,0.15222 0.245029,0.1015 0.461311,0.24601 0.648849,0.43355 0.187535,0.18753 0.332047,0.40381 0.433541,0.64883 C 50.949249,128.47964 50.999996,128.73477 51,129 Z" /><text
             id="text66"
             style="font-variant:normal;font-weight:normal;font-size:13px;font-family:ArialMT;-inkscape-font-specification:ArialMT;writing-mode:lr-tb;fill:#000000;fill-opacity:1;fill-rule:nonzero;stroke:none"
             transform="translate(62,133)"><tspan
               id="tspan64"
               y="0"
               x="0 7.2299805 10.118164 17.348145 20.959961 24.571777 33.959961 43.348145 46.959961">_id: UUID</tspan></text>
<path
             id="path68"
             style="fill:#000000;fill-opacity:1;fill-rule:nonzero;stroke:none"
             d="m 51,144 c -4e-6,0.26521 -0.05075,0.52033 -0.152245,0.76535 -0.101497,0.24501 -0.246009,0.4613 -0.433544,0.64885 -0.187538,0.18753 -0.40382,0.33205 -0.648849,0.43353 C 49.520332,145.94923 49.265213,145.99998 49,146 c -0.265217,-2e-5 -0.520344,-0.0508 -0.765373,-0.15227 -0.24503,-0.10148 -0.461312,-0.246 -0.648846,-0.43353 -0.187538,-0.18755 -0.332054,-0.40384 -0.433548,-0.64885 C 47.050739,144.52033 46.999996,144.26521 47,144 c -4e-6,-0.26523 0.05074,-0.52036 0.152233,-0.76538 0.101494,-0.24503 0.24601,-0.46131 0.433548,-0.64884 0.187534,-0.18754 0.403816,-0.33206 0.648846,-0.43354 C 48.479656,142.05075 48.734783,142 49,142 c 0.265213,0 0.520332,0.0507 0.765362,0.15224 0.245029,0.10148 0.461311,0.246 0.648849,0.43354 0.187535,0.18753 0.332047,0.40381 0.433541,0.64884 C 50.949249,143.47964 50.999996,143.73477 51,144 Z" /><text
             id="text72"
             style="font-variant:normal;font-weight:normal;font-size:13px;font-family:ArialMT;-inkscape-font-specification:ArialMT;writing-mode:lr-tb;fill:#000000;fill-opacity:1;fill-rule:nonzero;stroke:none"
             transform="translate(62,148)"><tspan
               id="tspan70"
               y="0"
               x="0 6.5 13.72998 20.959961 28.189941 35.419922 41.919922 45.531738 48.419922 55.649902 62.879883 70.109863 77.339844 84.569824 88.181641 95.411621 99.023438 102.63525 112.74707 119.97705 122.86523 130.09521 136.59521">connection_data: Object</tspan></text>
<path
             id="path74"
             style="fill:#000000;fill-opacity:1;fill-rule:nonzero;stroke:none"
             d="m 51,159 c -4e-6,0.26521 -0.05075,0.52033 -0.152245,0.76533 -0.101497,0.24505 -0.246009,0.46132 -0.433544,0.64887 -0.187538,0.18753 -0.40382,0.33205 -0.648849,0.43353 C 49.520332,160.94923 49.265213,160.99998 49,161 c -0.265217,-2e-5 -0.520344,-0.0508 -0.765373,-0.15227 -0.24503,-0.10148 -0.461312,-0.246 -0.648846,-0.43353 -0.187538,-0.18755 -0.332054,-0.40382 -0.433548,-0.64887 C 47.050739,159.52033 46.999996,159.26521 47,159 c -4e-6,-0.26523 0.05074,-0.52036 0.152233,-0.7654 0.101494,-0.24504 0.24601,-0.46132 0.433548,-0.64883 0.187534,-0.18755 0.403816,-0.33206 0.648846,-0.43355 C 48.479656,157.05073 48.734783,157 49,157 c 0.265213,0 0.520332,0.0507 0.765362,0.15222 0.245029,0.10149 0.461311,0.246 0.648849,0.43355 0.187535,0.18751 0.332047,0.40379 0.433541,0.64883 C 50.949249,158.47964 50.999996,158.73477 51,159 Z" /><text
             id="text78"
             style="font-variant:normal;font-weight:normal;font-size:13px;font-family:ArialMT;-inkscape-font-specification:ArialMT;writing-mode:lr-tb;fill:#000000;fill-opacity:1;fill-rule:nonzero;stroke:none"
             transform="translate(62,163)"><tspan
               id="tspan76"
               y="0"
               x="0 7.2299805 14.459961 20.959961 27.459961 34.689941 41.919922 49.149902 55.649902 62.149902 69.379883 76.609863 83.839844 91.069824 93.958008 101.18799 104.7998 108.41162 117.7998 125.02979 135.85889 143.08887 150.31885">backup_schedule: Number</tspan></text>
<path
             id="path80"
             style="fill:#000000;fill-opacity:1;fill-rule:nonzero;stroke:none"
             d="m 51,174 c -4e-6,0.26521 -0.05075,0.52032 -0.152245,0.76537 -0.101497,0.24502 -0.246009,0.4613 -0.433544,0.64885 -0.187538,0.18753 -0.40382,0.33204 -0.648849,0.43353 C 49.520332,175.94923 49.265213,175.99998 49,176 c -0.265217,-2e-5 -0.520344,-0.0508 -0.765373,-0.15225 -0.24503,-0.10149 -0.461312,-0.246 -0.648846,-0.43353 -0.187538,-0.18755 -0.332054,-0.40383 -0.433548,-0.64885 C 47.050739,174.52032 46.999996,174.26521 47,174 c -4e-6,-0.26521 0.05074,-0.52034 0.152233,-0.76538 0.101494,-0.24504 0.24601,-0.46132 0.433548,-0.64884 0.187534,-0.18754 0.403816,-0.33206 0.648846,-0.43354 C 48.479656,172.05075 48.734783,172 49,172 c 0.265213,0 0.520332,0.0507 0.765362,0.15224 0.245029,0.10148 0.461311,0.246 0.648849,0.43354 0.187535,0.18752 0.332047,0.4038 0.433541,0.64884 C 50.949249,173.47966 50.999996,173.73479 51,174 Z" /><text
             id="text84"
             style="font-variant:normal;font-weight:normal;font-size:13px;font-family:ArialMT;-inkscape-font-specification:ArialMT;writing-mode:lr-tb;fill:#000000;fill-opacity:1;fill-rule:nonzero;stroke:none"
             transform="translate(62,178)"><tspan
               id="tspan82"
               y="0"
               x="0 7.2299805 14.459961 25.289062 32.519043 36.130859 39.742676 48.413574 52.025391 56.354492 59.242676 66.472656">name: String</tspan></text>
<path
             id="path86"
             style="fill:#000000;fill-opacity:1;fill-rule:nonzero;stroke:none"
             d="m 51,189 c -4e-6,0.26521 -0.05075,0.52032 -0.152245,0.76535 -0.101497,0.24501 -0.246009,0.46129 -0.433544,0.64883 -0.187538,0.18754 -0.40382,0.33205 -0.648849,0.43354 C 49.520332,190.94922 49.265213,190.99998 49,191 c -0.265217,-2e-5 -0.520344,-0.0508 -0.765373,-0.15228 -0.24503,-0.10149 -0.461312,-0.246 -0.648846,-0.43354 -0.187538,-0.18754 -0.332054,-0.40382 -0.433548,-0.64883 C 47.050739,189.52032 46.999996,189.26521 47,189 c -4e-6,-0.26523 0.05074,-0.52036 0.152233,-0.7654 0.101494,-0.24501 0.24601,-0.46128 0.433548,-0.64882 0.187534,-0.18754 0.403816,-0.33207 0.648846,-0.43356 C 48.479656,187.05074 48.734783,187 49,187 c 0.265213,0 0.520332,0.0507 0.765362,0.15222 0.245029,0.10149 0.461311,0.24602 0.648849,0.43356 0.187535,0.18754 0.332047,0.40381 0.433541,0.64882 C 50.949249,188.47964 50.999996,188.73477 51,189 Z" /><text
             id="text90"
             style="font-variant:normal;font-weight:normal;font-size:13px;font-family:ArialMT;-inkscape-font-specification:ArialMT;writing-mode:lr-tb;fill:#000000;fill-opacity:1;fill-rule:nonzero;stroke:none"
             transform="translate(62,193)"><tspan
               id="tspan88"
               y="0"
               x="0 4.3291016 11.559082 18.059082 25.289062 32.519043 39.749023 46.249023 49.137207 56.367188 59.255371 66.485352 70.097168 73.708984 82.379883 86.708984 97.538086 104.76807 107.65625">responsible: E-Mail</tspan></text>
<path
             id="path92"
             style="fill:#ffe6cc;fill-opacity:1;fill-rule:nonzero;stroke:none"
             d="M 560,38.5 V 18.15 C 560,7.0499992 554.45001,1.5 543.34998,1.5 H 332.64999 C 321.54999,1.5 316,7.0499992 316,18.15 V 38.5" /><path
             id="path94"
             style="fill:none;stroke:#d79b00;stroke-width:1;stroke-linecap:butt;stroke-linejoin:miter;stroke-miterlimit:10;stroke-dasharray:none;stroke-opacity:1"
             d="M 560,38.5 V 18.15 C 560,7.0499992 554.45001,1.5 543.34998,1.5 H 332.64999 C 321.54999,1.5 316,7.0499992 316,18.15 V 38.5" /><path
             id="path96"
             style="fill:none;stroke:#d79b00;stroke-width:1;stroke-linecap:butt;stroke-linejoin:miter;stroke-miterlimit:10;stroke-dasharray:none;stroke-opacity:1"
             d="m 316,38.5 v 219.35001 c 0,11.1 5.54999,16.64999 16.64999,16.64999 H 543.34998 C 554.45001,274.5 560,268.95001 560,257.85001 V 38.5" /><path
             id="path98"
             style="fill:none;stroke:#d79b00;stroke-width:1;stroke-linecap:butt;stroke-linejoin:miter;stroke-miterlimit:10;stroke-dasharray:none;stroke-opacity:1"
             d="M 316,38.5 H 560" /><text
             id="text102"
             style="font-variant:normal;font-weight:bold;font-size:15px;font-family:Arial;-inkscape-font-specification:Arial-BoldMT;writing-mode:lr-tb;fill:#000000;fill-opacity:1;fill-rule:nonzero;stroke:none"
             transform="translate(375.89429,26.5)"><tspan
               id="tspan100"
               y="0"
               x="0 9.1625977 13.330078 17.497559 25.839844 30.007324 40.012207 48.354492 54.191895 62.53418 70.876465 76.713867 80.881348 93.376465 102.53906 111.70166 120.04395">File Server Model</tspan></text>
<path
             id="path104"
             style="fill:#000000;fill-opacity:1;fill-rule:nonzero;stroke:none"
             d="m 348,66 c -3e-5,0.265205 -0.0508,0.520325 -0.15228,0.765358 -0.10153,0.245033 -0.24604,0.461311 -0.43357,0.648849 -0.18756,0.187531 -0.40384,0.332047 -0.64886,0.433548 C 346.52026,67.949249 346.26517,67.999992 346,68 c -0.26523,-8e-6 -0.52036,-0.05075 -0.76538,-0.152245 -0.24503,-0.101501 -0.4613,-0.246017 -0.64884,-0.433548 -0.18753,-0.187538 -0.33206,-0.403816 -0.43356,-0.648849 C 344.05072,66.520325 343.99997,66.265205 344,66 c -3e-5,-0.265221 0.0507,-0.520348 0.15222,-0.765373 0.1015,-0.245033 0.24603,-0.461312 0.43356,-0.648842 0.18754,-0.187538 0.40381,-0.332054 0.64884,-0.433548 C 345.47964,64.050743 345.73477,64 346,64 c 0.26517,0 0.52026,0.05074 0.76529,0.152237 0.24502,0.101494 0.4613,0.24601 0.64886,0.433548 0.18753,0.18753 0.33204,0.403809 0.43357,0.648842 C 347.94922,65.479652 347.99997,65.734779 348,66 Z" /><text
             id="text108"
             style="font-variant:normal;font-weight:normal;font-size:12px;font-family:ArialMT;-inkscape-font-specification:ArialMT;writing-mode:lr-tb;fill:#000000;fill-opacity:1;fill-rule:nonzero;stroke:none"
             transform="translate(358,69)"><tspan
               id="tspan106"
               y="0"
               x="0 6.6738281 9.3398438 16.013672 19.347656 22.681641 31.347656 40.013672 43.347656">_id: UUID</tspan></text>
<path
             id="path110"
             style="fill:#000000;fill-opacity:1;fill-rule:nonzero;stroke:none"
             d="m 348,80 c -3e-5,0.265205 -0.0508,0.520325 -0.15228,0.765358 -0.10153,0.245026 -0.24604,0.461311 -0.43357,0.648849 -0.18756,0.187539 -0.40384,0.332047 -0.64886,0.433541 C 346.52026,81.949242 346.26517,81.999992 346,82 c -0.26523,-8e-6 -0.52036,-0.05076 -0.76538,-0.152252 -0.24503,-0.101494 -0.4613,-0.246002 -0.64884,-0.433541 -0.18753,-0.187538 -0.33206,-0.403823 -0.43356,-0.648849 C 344.05072,80.520325 343.99997,80.265205 344,80 c -3e-5,-0.265221 0.0507,-0.520348 0.15222,-0.765381 0.1015,-0.245025 0.24603,-0.461304 0.43356,-0.648842 0.18754,-0.187538 0.40381,-0.332054 0.64884,-0.43354 C 345.47964,78.050743 345.73477,78 346,78 c 0.26517,0 0.52026,0.05074 0.76529,0.152237 0.24502,0.101486 0.4613,0.246002 0.64886,0.43354 0.18753,0.187538 0.33204,0.403817 0.43357,0.648842 0.1015,0.245033 0.15225,0.50016 0.15228,0.765381 z" /><text
             id="text114"
             style="font-variant:normal;font-weight:normal;font-size:12px;font-family:ArialMT;-inkscape-font-specification:ArialMT;writing-mode:lr-tb;fill:#000000;fill-opacity:1;fill-rule:nonzero;stroke:none"
             transform="translate(358,83)"><tspan
               id="tspan112"
               y="0"
               x="0 3.3339844 6 8.6660156 15.339844 22.013672 28.013672 34.6875 38.683594 44.683594 51.357422 55.353516 62.027344 64.693359 71.367188 74.701172 78.035156 86.701172 95.367188 98.701172">file_server_id: UUID</tspan></text>
<path
             id="path116"
             style="fill:#000000;fill-opacity:1;fill-rule:nonzero;stroke:none"
             d="m 348,94 c -3e-5,0.265213 -0.0508,0.520332 -0.15228,0.765358 -0.10153,0.245026 -0.24604,0.461311 -0.43357,0.648849 -0.18756,0.187523 -0.40384,0.332039 -0.64886,0.433541 C 346.52026,95.949242 346.26517,95.999992 346,96 c -0.26523,-8e-6 -0.52036,-0.05076 -0.76538,-0.152252 -0.24503,-0.101502 -0.4613,-0.246018 -0.64884,-0.433541 -0.18753,-0.187538 -0.33206,-0.403823 -0.43356,-0.648857 C 344.05072,94.520332 343.99997,94.265213 344,94 c -3e-5,-0.265221 0.0507,-0.52034 0.15222,-0.765373 0.1015,-0.245026 0.24603,-0.461304 0.43356,-0.648842 0.18754,-0.187538 0.40381,-0.332062 0.64884,-0.433556 C 345.47964,92.050743 345.73477,92 346,92 c 0.26517,0 0.52026,0.05074 0.76529,0.152229 0.24502,0.101494 0.4613,0.246018 0.64886,0.433556 0.18753,0.187538 0.33204,0.403816 0.43357,0.648834 0.1015,0.245033 0.15225,0.50016 0.15228,0.765381 z" /><text
             id="text120"
             style="font-variant:normal;font-weight:normal;font-size:12px;font-family:ArialMT;-inkscape-font-specification:ArialMT;writing-mode:lr-tb;fill:#000000;fill-opacity:1;fill-rule:nonzero;stroke:none"
             transform="translate(358,97)"><tspan
               id="tspan118"
               y="0"
               x="0 6.6738281 13.347656 16.681641 23.355469 30.029297 36.703125 42.703125 48.703125 54.703125 64.699219">path_ocsvm:</tspan></text>
<path
             id="path122"
             style="fill:none;stroke:#000000;stroke-width:1;stroke-linecap:butt;stroke-linejoin:miter;stroke-miterlimit:10;stroke-dasharray:none;stroke-opacity:1"
             d="m 388,108 c -3e-5,0.26521 -0.0508,0.52032 -0.15231,0.76534 -0.1015,0.24504 -0.24601,0.46132 -0.43351,0.64886 -0.18756,0.18754 -0.40383,0.33205 -0.64886,0.43355 -0.24503,0.10149 -0.50015,0.15224 -0.76532,0.15225 -0.26523,-1e-5 -0.52039,-0.0508 -0.76541,-0.15226 -0.24503,-0.10149 -0.46131,-0.246 -0.64884,-0.43354 -0.18756,-0.18754 -0.33209,-0.40382 -0.43356,-0.64885 C 384.05069,108.52032 383.99997,108.26521 384,108 c -3e-5,-0.26523 0.0507,-0.52035 0.15219,-0.76538 0.10147,-0.24503 0.246,-0.46131 0.43356,-0.64884 0.18753,-0.18754 0.40381,-0.33206 0.64884,-0.43355 C 385.47961,106.05074 385.73477,106 386,106 c 0.26517,0 0.52026,0.0507 0.76529,0.15224 0.24502,0.10149 0.46133,0.246 0.64889,0.43354 0.1875,0.18753 0.33201,0.40381 0.43354,0.64884 0.10147,0.24503 0.15225,0.50015 0.15228,0.76538 z" /><text
             id="text126"
             style="font-variant:normal;font-weight:normal;font-size:12px;font-family:ArialMT;-inkscape-font-specification:ArialMT;writing-mode:lr-tb;fill:#000000;fill-opacity:1;fill-rule:nonzero;stroke:none"
             transform="translate(398,111)"><tspan
               id="tspan124"
               y="0"
               x="0 6 12 21.996094 25.330078 28.664062 36.667969 39.333984 46.007812 52.681641 56.677734">svm: Binary</tspan></text>
<path
             id="path128"
             style="fill:none;stroke:#000000;stroke-width:1;stroke-linecap:butt;stroke-linejoin:miter;stroke-miterlimit:10;stroke-dasharray:none;stroke-opacity:1"
             d="m 388,122 c -3e-5,0.26521 -0.0508,0.52033 -0.15231,0.76536 -0.1015,0.24502 -0.24601,0.46131 -0.43351,0.64885 -0.18756,0.18753 -0.40383,0.33204 -0.64886,0.43353 -0.24503,0.1015 -0.50015,0.15225 -0.76532,0.15226 -0.26523,-1e-5 -0.52039,-0.0508 -0.76541,-0.15225 -0.24503,-0.1015 -0.46131,-0.24601 -0.64884,-0.43354 -0.18756,-0.18754 -0.33209,-0.40383 -0.43356,-0.64885 C 384.05069,122.52033 383.99997,122.26521 384,122 c -3e-5,-0.26522 0.0507,-0.52035 0.15219,-0.76538 0.10147,-0.24503 0.246,-0.46131 0.43356,-0.64884 0.18753,-0.18754 0.40381,-0.33206 0.64884,-0.43355 C 385.47961,120.05074 385.73477,120 386,120 c 0.26517,0 0.52026,0.0507 0.76529,0.15223 0.24502,0.10149 0.46133,0.24601 0.64889,0.43355 0.1875,0.18753 0.33201,0.40381 0.43354,0.64883 0.10147,0.24504 0.15225,0.50017 0.15228,0.76539 z" /><text
             id="text132"
             style="font-variant:normal;font-weight:normal;font-size:12px;font-family:ArialMT;-inkscape-font-specification:ArialMT;writing-mode:lr-tb;fill:#000000;fill-opacity:1;fill-rule:nonzero;stroke:none"
             transform="translate(398,125)"><tspan
               id="tspan130"
               y="0"
               x="0 6 12 18.673828 21.339844 28.013672 32.009766 35.34375 38.677734 46.681641 49.347656 56.021484 62.695312 66.691406">scalar: Binary</tspan></text>
<path
             id="path134"
             style="fill:none;stroke:#000000;stroke-width:1;stroke-linecap:butt;stroke-linejoin:miter;stroke-miterlimit:10;stroke-dasharray:none;stroke-opacity:1"
             d="m 388,136 c -3e-5,0.2652 -0.0508,0.52031 -0.15231,0.76535 -0.1015,0.24503 -0.24601,0.4613 -0.43351,0.64885 -0.18756,0.18753 -0.40383,0.33205 -0.64886,0.43353 -0.24503,0.1015 -0.50015,0.15225 -0.76532,0.15227 -0.26523,-2e-5 -0.52039,-0.0508 -0.76541,-0.15227 -0.24503,-0.10148 -0.46131,-0.246 -0.64884,-0.43353 -0.18756,-0.18755 -0.33209,-0.40382 -0.43356,-0.64885 C 384.05069,136.52031 383.99997,136.2652 384,136 c -3e-5,-0.26523 0.0507,-0.52036 0.15219,-0.7654 0.10147,-0.24502 0.246,-0.4613 0.43356,-0.64883 0.18753,-0.18755 0.40381,-0.33206 0.64884,-0.43355 C 385.47961,134.05073 385.73477,134 386,134 c 0.26517,0 0.52026,0.0507 0.76529,0.15222 0.24502,0.10149 0.46133,0.246 0.64889,0.43355 0.1875,0.18753 0.33201,0.40381 0.43354,0.64883 0.10147,0.24504 0.15225,0.50017 0.15228,0.7654 z" /><text
             id="text138"
             style="font-variant:normal;font-weight:normal;font-size:12px;font-family:ArialMT;-inkscape-font-specification:ArialMT;writing-mode:lr-tb;fill:#000000;fill-opacity:1;fill-rule:nonzero;stroke:none"
             transform="translate(398,139)"><tspan
               id="tspan136"
               y="0"
               x="0 6.6738281 10.669922 17.34375 27.339844 34.013672 44.009766 50.683594 54.017578 58.013672 60.679688 66.679688 70.013672 73.347656 81.351562 84.017578 90.691406 97.365234 101.36133">gram_matrix: Binary</tspan></text>
<path
             id="path140"
             style="fill:none;stroke:#000000;stroke-width:1;stroke-linecap:butt;stroke-linejoin:miter;stroke-miterlimit:10;stroke-dasharray:none;stroke-opacity:1"
             d="m 388,150 c -3e-5,0.26521 -0.0508,0.52033 -0.15231,0.76535 -0.1015,0.24501 -0.24601,0.4613 -0.43351,0.64885 -0.18756,0.18753 -0.40383,0.33205 -0.64886,0.43353 -0.24503,0.1015 -0.50015,0.15225 -0.76532,0.15227 -0.26523,-2e-5 -0.52039,-0.0508 -0.76541,-0.15227 -0.24503,-0.10148 -0.46131,-0.246 -0.64884,-0.43353 -0.18756,-0.18755 -0.33209,-0.40384 -0.43356,-0.64885 C 384.05069,150.52033 383.99997,150.26521 384,150 c -3e-5,-0.26524 0.0507,-0.52037 0.15219,-0.7654 0.10147,-0.24502 0.246,-0.4613 0.43356,-0.64883 0.18753,-0.18755 0.40381,-0.33205 0.64884,-0.43353 C 385.47961,148.05075 385.73477,148 386,148 c 0.26517,0 0.52026,0.0507 0.76529,0.15224 0.24502,0.10148 0.46133,0.24598 0.64889,0.43353 0.1875,0.18753 0.33201,0.40381 0.43354,0.64883 0.10147,0.24503 0.15225,0.50016 0.15228,0.7654 z" /><text
             id="text144"
             style="font-variant:normal;font-weight:normal;font-size:12px;font-family:ArialMT;-inkscape-font-specification:ArialMT;writing-mode:lr-tb;fill:#000000;fill-opacity:1;fill-rule:nonzero;stroke:none"
             transform="translate(398,153)"><tspan
               id="tspan142"
               y="0"
               x="0 6 12.673828 18.673828 25.347656 32.021484 38.695312 41.361328 48.035156 52.03125 58.03125 61.365234 64.699219 71.373047 74.039062 80.039062 83.373047 86.707031 93.380859 96.714844 100.04883 106.04883 109.38281 113.37891 116.04492 122.71875 129.39258">vocabulary: List of strings</tspan></text>
<path
             id="path146"
             style="fill:none;stroke:#000000;stroke-width:1;stroke-linecap:butt;stroke-linejoin:miter;stroke-miterlimit:10;stroke-dasharray:none;stroke-opacity:1"
             d="m 388,164 c -3e-5,0.26521 -0.0508,0.52033 -0.15231,0.76535 -0.1015,0.24503 -0.24601,0.4613 -0.43351,0.64885 -0.18756,0.18753 -0.40383,0.33205 -0.64886,0.43355 -0.24503,0.10148 -0.50015,0.15223 -0.76532,0.15225 -0.26523,-2e-5 -0.52039,-0.0508 -0.76541,-0.15225 -0.24503,-0.1015 -0.46131,-0.24602 -0.64884,-0.43355 -0.18756,-0.18755 -0.33209,-0.40382 -0.43356,-0.64885 C 384.05069,164.52033 383.99997,164.26521 384,164 c -3e-5,-0.26521 0.0507,-0.52034 0.15219,-0.76538 0.10147,-0.24503 0.246,-0.46131 0.43356,-0.64884 0.18753,-0.18754 0.40381,-0.33206 0.64884,-0.43356 C 385.47961,162.05073 385.73477,162 386,162 c 0.26517,0 0.52026,0.0507 0.76529,0.15222 0.24502,0.1015 0.46133,0.24602 0.64889,0.43356 0.1875,0.18753 0.33201,0.40381 0.43354,0.64884 0.10147,0.24504 0.15225,0.50017 0.15228,0.76538 z" /><text
             id="text150"
             style="font-variant:normal;font-weight:normal;font-size:12px;font-family:ArialMT;-inkscape-font-specification:ArialMT;writing-mode:lr-tb;fill:#000000;fill-opacity:1;fill-rule:nonzero;stroke:none"
             transform="translate(398,167)"><tspan
               id="tspan148"
               y="0"
               x="0 6.6738281 13.347656 19.347656 22.013672 28.013672 30.679688 37.353516 44.027344 50.701172 56.701172 63.375 66.041016 72.714844 79.388672 85.388672 88.722656 92.056641 100.72266 103.38867 109.38867">decision_values: Dict</tspan></text>
<path
             id="path152"
             style="fill:#000000;fill-opacity:1;fill-rule:nonzero;stroke:none"
             d="m 348,178 c -3e-5,0.26521 -0.0508,0.52032 -0.15228,0.76535 -0.10153,0.24503 -0.24604,0.46132 -0.43357,0.64887 -0.18756,0.18751 -0.40384,0.33203 -0.64886,0.43353 C 346.52026,179.94925 346.26517,180 346,180 c -0.26523,0 -0.52036,-0.0507 -0.76538,-0.15225 -0.24503,-0.1015 -0.4613,-0.24602 -0.64884,-0.43353 -0.18753,-0.18755 -0.33206,-0.40384 -0.43356,-0.64887 C 344.05072,178.52032 343.99997,178.26521 344,178 c -3e-5,-0.26523 0.0507,-0.52036 0.15222,-0.76538 0.1015,-0.24503 0.24603,-0.4613 0.43356,-0.64884 0.18754,-0.18754 0.40381,-0.33206 0.64884,-0.43356 C 345.47964,176.05074 345.73477,176 346,176 c 0.26517,0 0.52026,0.0507 0.76529,0.15222 0.24502,0.1015 0.4613,0.24602 0.64886,0.43356 0.18753,0.18754 0.33204,0.40381 0.43357,0.64884 0.1015,0.24502 0.15225,0.50015 0.15228,0.76538 z" /><text
             id="text156"
             style="font-variant:normal;font-weight:normal;font-size:12px;font-family:ArialMT;-inkscape-font-specification:ArialMT;writing-mode:lr-tb;fill:#000000;fill-opacity:1;fill-rule:nonzero;stroke:none"
             transform="translate(358,181)"><tspan
               id="tspan154"
               y="0"
               x="0 9.9960938 16.669922 20.003906 26.677734 33.351562 40.025391 43.359375 50.033203 56.707031 66.703125 73.376953 80.050781 86.724609 89.390625">metadata_model:</tspan></text>
<path
             id="path158"
             style="fill:none;stroke:#000000;stroke-width:1;stroke-linecap:butt;stroke-linejoin:miter;stroke-miterlimit:10;stroke-dasharray:none;stroke-opacity:1"
             d="m 388,192 c -3e-5,0.26521 -0.0508,0.52032 -0.15231,0.76535 -0.1015,0.24503 -0.24601,0.4613 -0.43351,0.64885 -0.18756,0.18753 -0.40383,0.33205 -0.64886,0.43353 -0.24503,0.10149 -0.50015,0.15225 -0.76532,0.15227 -0.26523,-2e-5 -0.52039,-0.0508 -0.76541,-0.15228 -0.24503,-0.10149 -0.46131,-0.24599 -0.64884,-0.43352 -0.18756,-0.18755 -0.33209,-0.40382 -0.43356,-0.64885 C 384.05069,192.52032 383.99997,192.26521 384,192 c -3e-5,-0.26523 0.0507,-0.52036 0.15219,-0.7654 0.10147,-0.24502 0.246,-0.4613 0.43356,-0.64883 0.18753,-0.18755 0.40381,-0.33205 0.64884,-0.43353 C 385.47961,190.05075 385.73477,190 386,190 c 0.26517,0 0.52026,0.0507 0.76529,0.15222 0.24502,0.10149 0.46133,0.246 0.64889,0.43355 0.1875,0.18753 0.33201,0.40381 0.43354,0.64883 0.10147,0.24504 0.15225,0.50017 0.15228,0.7654 z" /><text
             id="text162"
             style="font-variant:normal;font-weight:normal;font-size:12px;font-family:ArialMT;-inkscape-font-specification:ArialMT;writing-mode:lr-tb;fill:#000000;fill-opacity:1;fill-rule:nonzero;stroke:none"
             transform="translate(398,195)"><tspan
               id="tspan160"
               y="0"
               x="0 9.9960938 16.669922 23.34375 30.017578 32.683594 36.017578 39.351562 47.355469 50.021484 56.695312 63.369141 67.365234">model: Binary</tspan></text>
<path
             id="path164"
             style="fill:none;stroke:#000000;stroke-width:1;stroke-linecap:butt;stroke-linejoin:miter;stroke-miterlimit:10;stroke-dasharray:none;stroke-opacity:1"
             d="m 388,206 c -3e-5,0.2652 -0.0508,0.52031 -0.15231,0.76534 -0.1015,0.24502 -0.24601,0.4613 -0.43351,0.64884 -0.18756,0.18754 -0.40383,0.33205 -0.64886,0.43355 -0.24503,0.10149 -0.50015,0.15225 -0.76532,0.15227 -0.26523,-2e-5 -0.52039,-0.0508 -0.76541,-0.15227 -0.24503,-0.1015 -0.46131,-0.24601 -0.64884,-0.43355 -0.18756,-0.18754 -0.33209,-0.40382 -0.43356,-0.64884 C 384.05069,206.52031 383.99997,206.2652 384,206 c -3e-5,-0.26521 0.0507,-0.52034 0.15219,-0.76538 0.10147,-0.24504 0.246,-0.46132 0.43356,-0.64885 0.18753,-0.18755 0.40381,-0.33206 0.64884,-0.43355 C 385.47961,204.05074 385.73477,204 386,204 c 0.26517,0 0.52026,0.0507 0.76529,0.15222 0.24502,0.10149 0.46133,0.246 0.64889,0.43355 0.1875,0.18753 0.33201,0.40381 0.43354,0.64885 0.10147,0.24504 0.15225,0.50017 0.15228,0.76538 z" /><text
             id="text168"
             style="font-variant:normal;font-weight:normal;font-size:12px;font-family:ArialMT;-inkscape-font-specification:ArialMT;writing-mode:lr-tb;fill:#000000;fill-opacity:1;fill-rule:nonzero;stroke:none"
             transform="translate(398,209)"><tspan
               id="tspan166"
               y="0"
               x="0 3.3339844 10.007812 16.681641 20.015625 26.689453 30.685547 37.359375 44.033203 50.033203 56.033203 62.707031 65.373047 72.046875 76.042969 82.042969 85.376953 88.710938 96.714844 99.380859 106.05469 112.72852 116.72461">feature_scalars: Binary</tspan></text>
<path
             id="path170"
             style="fill:none;stroke:#000000;stroke-width:1;stroke-linecap:butt;stroke-linejoin:miter;stroke-miterlimit:10;stroke-dasharray:none;stroke-opacity:1"
             d="m 388,220 c -3e-5,0.2652 -0.0508,0.52031 -0.15231,0.76534 -0.1015,0.24504 -0.24601,0.46133 -0.43351,0.64888 -0.18756,0.18751 -0.40383,0.33203 -0.64886,0.43351 -0.24503,0.1015 -0.50015,0.15225 -0.76532,0.15227 -0.26523,-2e-5 -0.52039,-0.0508 -0.76541,-0.15227 -0.24503,-0.10148 -0.46131,-0.246 -0.64884,-0.43351 -0.18756,-0.18755 -0.33209,-0.40383 -0.43356,-0.64887 C 384.05069,220.52031 383.99997,220.2652 384,220 c -3e-5,-0.26523 0.0507,-0.52036 0.15219,-0.7654 0.10147,-0.24502 0.246,-0.4613 0.43356,-0.64882 0.18753,-0.18754 0.40381,-0.33207 0.64884,-0.43356 C 385.47961,218.05074 385.73477,218 386,218 c 0.26517,0 0.52026,0.0507 0.76529,0.15224 0.24502,0.10148 0.46133,0.246 0.64889,0.43354 0.1875,0.18752 0.33201,0.4038 0.43354,0.64882 0.10147,0.24504 0.15225,0.50017 0.15228,0.7654 z" /><text
             id="text174"
             style="font-variant:normal;font-weight:normal;font-size:12px;font-family:ArialMT;-inkscape-font-specification:ArialMT;writing-mode:lr-tb;fill:#000000;fill-opacity:1;fill-rule:nonzero;stroke:none"
             transform="translate(398,223)"><tspan
               id="tspan172"
               y="0"
               x="0 3.3339844 7.3300781 14.003906 16.669922 23.34375 30.017578 36.691406 43.365234 46.699219 53.373047 60.046875 63.380859 70.054688 74.050781 80.724609 86.724609 90.058594 93.392578 100.06641 102.73242 108.73242 112.06641 115.40039 122.07422">trained_features: List of</tspan></text>
<text
             id="text178"
             style="font-variant:normal;font-weight:normal;font-size:12px;font-family:ArialMT;-inkscape-font-specification:ArialMT;writing-mode:lr-tb;fill:#000000;fill-opacity:1;fill-rule:nonzero;stroke:none"
             transform="translate(398,237)"><tspan
               id="tspan176"
               y="0"
               x="0 7.3300781 14.003906 20.677734 24.011719 30.685547 34.681641 41.355469">Features</tspan></text>
<path
             id="path180"
             style="fill:none;stroke:#000000;stroke-width:1;stroke-linecap:butt;stroke-linejoin:miter;stroke-miterlimit:10;stroke-dasharray:none;stroke-opacity:1"
             d="m 388,248 c -3e-5,0.26518 -0.0508,0.52029 -0.15231,0.76532 -0.1015,0.24503 -0.24601,0.46132 -0.43351,0.64886 -0.18756,0.18752 -0.40383,0.33204 -0.64886,0.43354 -0.24503,0.10148 -0.50015,0.15225 -0.76532,0.15228 -0.26523,-3e-5 -0.52039,-0.0508 -0.76541,-0.15228 -0.24503,-0.1015 -0.46131,-0.24602 -0.64884,-0.43354 -0.18756,-0.18754 -0.33209,-0.40383 -0.43356,-0.64886 C 384.05069,248.52029 383.99997,248.26518 384,248 c -3e-5,-0.26523 0.0507,-0.52036 0.15219,-0.7654 0.10147,-0.24504 0.246,-0.46132 0.43356,-0.64883 0.18753,-0.18755 0.40381,-0.33206 0.64884,-0.43355 C 385.47961,246.05074 385.73477,246 386,246 c 0.26517,0 0.52026,0.0507 0.76529,0.15221 0.24502,0.1015 0.46133,0.24601 0.64889,0.43356 0.1875,0.18751 0.33201,0.40379 0.43354,0.64883 0.10147,0.24504 0.15225,0.50017 0.15228,0.7654 z" /><text
             id="text184"
             style="font-variant:normal;font-weight:normal;font-size:12px;font-family:ArialMT;-inkscape-font-specification:ArialMT;writing-mode:lr-tb;fill:#000000;fill-opacity:1;fill-rule:nonzero;stroke:none"
             transform="translate(398,251)"><tspan
               id="tspan182"
               y="0"
               x="0 6.6738281 13.347656 19.347656 22.013672 28.013672 30.679688 37.353516 44.027344 50.701172 56.701172 63.375 66.041016 72.714844 79.388672 85.388672 88.722656 92.056641 100.72266 103.38867 109.38867">decision_values: Dict</tspan></text>
<path
             id="path186"
             style="fill:none;stroke:#000000;stroke-width:1;stroke-linecap:butt;stroke-linejoin:miter;stroke-miterlimit:10;stroke-dasharray:none;stroke-opacity:1"
             d="m 388,262 c -3e-5,0.2652 -0.0508,0.52032 -0.15231,0.76535 -0.1015,0.24503 -0.24601,0.46133 -0.43351,0.64887 -0.18756,0.18753 -0.40383,0.33203 -0.64886,0.43353 -0.24503,0.10147 -0.50015,0.15222 -0.76532,0.15225 -0.26523,-3e-5 -0.52039,-0.0508 -0.76541,-0.15225 -0.24503,-0.1015 -0.46131,-0.246 -0.64884,-0.43353 -0.18756,-0.18754 -0.33209,-0.40384 -0.43356,-0.64887 C 384.05069,262.52032 383.99997,262.2652 384,262 c -3e-5,-0.26523 0.0507,-0.52036 0.15219,-0.76538 0.10147,-0.24503 0.246,-0.4613 0.43356,-0.64884 0.18753,-0.18753 0.40381,-0.33206 0.64884,-0.43356 C 385.47961,260.05075 385.73477,260 386,260 c 0.26517,0 0.52026,0.0507 0.76529,0.15222 0.24502,0.1015 0.46133,0.24603 0.64889,0.43356 0.1875,0.18754 0.33201,0.40381 0.43354,0.64884 0.10147,0.24502 0.15225,0.50015 0.15228,0.76538 z" /><text
             id="text190"
             style="font-variant:normal;font-weight:normal;font-size:12px;font-family:ArialMT;-inkscape-font-specification:ArialMT;writing-mode:lr-tb;fill:#000000;fill-opacity:1;fill-rule:nonzero;stroke:none"
             transform="translate(398,265)"><tspan
               id="tspan188"
               y="0"
               x="0 3.3339844 6 8.6660156 15.339844 22.013672 28.6875 35.361328 38.695312 45.369141 52.042969 58.716797 64.716797 71.390625 74.724609 78.058594 86.0625 89.396484 93.392578 96.058594 102.73242">file_database: String</tspan></text>
<path
             id="path192"
             style="fill:#dae8fc;fill-opacity:1;fill-rule:nonzero;stroke:none"
             d="M 245,295 V 274.64999 C 245,263.54999 239.45,258 228.35001,258 H 17.65 C 6.5499992,258 1,263.54999 1,274.64999 V 295" /><path
             id="path194"
             style="fill:none;stroke:#6c8ebf;stroke-width:1;stroke-linecap:butt;stroke-linejoin:miter;stroke-miterlimit:10;stroke-dasharray:none;stroke-opacity:1"
             d="M 245,295 V 274.64999 C 245,263.54999 239.45,258 228.35001,258 H 17.65 C 6.5499992,258 1,263.54999 1,274.64999 V 295" /><path
             id="path196"
             style="fill:none;stroke:#6c8ebf;stroke-width:1;stroke-linecap:butt;stroke-linejoin:miter;stroke-miterlimit:10;stroke-dasharray:none;stroke-opacity:1"
             d="M 1,295 V 479.35001 C 1,490.45001 6.5499992,496 17.65,496 H 228.35001 C 239.45,496 245,490.45001 245,479.35001 V 295" /><path
             id="path198"
             style="fill:none;stroke:#6c8ebf;stroke-width:1;stroke-linecap:butt;stroke-linejoin:miter;stroke-miterlimit:10;stroke-dasharray:none;stroke-opacity:1"
             d="M 1,295 H 245" /><text
             id="text202"
             style="font-variant:normal;font-weight:bold;font-size:15px;font-family:Arial;-inkscape-font-specification:Arial-BoldMT;writing-mode:lr-tb;fill:#000000;fill-opacity:1;fill-rule:nonzero;stroke:none"
             transform="translate(61.31543,283)"><tspan
               id="tspan200"
               y="0"
               x="0 10.83252 19.174805 27.51709 35.859375 45.021973 54.18457 58.352051 70.847168 79.189453 84.18457 92.526855 101.68945 110.03174 115.02686">Backup Metadata</tspan></text>
<path
             id="path204"
             style="fill:#000000;fill-opacity:1;fill-rule:nonzero;stroke:none"
             d="m 33,322 c -4e-6,0.26517 -0.05075,0.52029 -0.152245,0.76532 -0.101493,0.24503 -0.246009,0.4613 -0.433544,0.64886 -0.187538,0.1875 -0.40382,0.33201 -0.648847,0.43354 C 31.520336,323.94919 31.265215,323.99997 31,324 c -0.265219,-3e-5 -0.520344,-0.0508 -0.765371,-0.15228 -0.245028,-0.10153 -0.46131,-0.24604 -0.648844,-0.43354 -0.187538,-0.18756 -0.332054,-0.40383 -0.433548,-0.64886 C 29.050743,322.52029 28.999998,322.26517 29,322 c -2e-6,-0.26523 0.05074,-0.52039 0.152237,-0.76541 0.101494,-0.24503 0.24601,-0.46131 0.433548,-0.64884 0.187534,-0.18756 0.403816,-0.33209 0.648844,-0.43356 C 30.479656,320.05072 30.734781,320 31,320 c 0.265215,0 0.520336,0.0507 0.765364,0.15219 0.245027,0.10147 0.461309,0.246 0.648847,0.43356 0.187535,0.18753 0.332051,0.40381 0.433544,0.64884 C 32.949249,321.47961 32.999996,321.73477 33,322 Z" /><text
             id="text208"
             style="font-variant:normal;font-weight:normal;font-size:12px;font-family:ArialMT;-inkscape-font-specification:ArialMT;writing-mode:lr-tb;fill:#000000;fill-opacity:1;fill-rule:nonzero;stroke:none"
             transform="translate(43,325)"><tspan
               id="tspan206"
               y="0"
               x="0 6.6738281 9.3398438 16.013672 19.347656 22.681641 31.347656 40.013672 43.347656">_id: UUID</tspan></text>
<path
             id="path210"
             style="fill:#000000;fill-opacity:1;fill-rule:nonzero;stroke:none"
             d="m 33,336 c -4e-6,0.26517 -0.05075,0.52029 -0.152245,0.76535 -0.101493,0.245 -0.246009,0.46127 -0.433544,0.64883 -0.187538,0.18754 -0.40382,0.33204 -0.648847,0.43354 C 31.520336,337.94919 31.265215,337.99997 31,338 c -0.265219,-3e-5 -0.520344,-0.0508 -0.765371,-0.15228 -0.245028,-0.1015 -0.46131,-0.246 -0.648844,-0.43354 -0.187538,-0.18756 -0.332054,-0.40383 -0.433548,-0.64883 C 29.050743,336.52029 28.999998,336.26517 29,336 c -2e-6,-0.26523 0.05074,-0.52036 0.152237,-0.76538 0.101494,-0.24506 0.24601,-0.46134 0.433548,-0.64887 0.187534,-0.18756 0.403816,-0.33206 0.648844,-0.43353 C 30.479656,334.05075 30.734781,334 31,334 c 0.265215,0 0.520336,0.0507 0.765364,0.15222 0.245027,0.10147 0.461309,0.24597 0.648847,0.43353 0.187535,0.18753 0.332051,0.40381 0.433544,0.64887 C 32.949249,335.47964 32.999996,335.73477 33,336 Z" /><text
             id="text214"
             style="font-variant:normal;font-weight:normal;font-size:12px;font-family:ArialMT;-inkscape-font-specification:ArialMT;writing-mode:lr-tb;fill:#000000;fill-opacity:1;fill-rule:nonzero;stroke:none"
             transform="translate(43,339)"><tspan
               id="tspan212"
               y="0"
               x="0 3.3339844 6 8.6660156 15.339844 22.013672 28.013672 34.6875 38.683594 44.683594 51.357422 55.353516 62.027344 64.693359 71.367188 74.701172 78.035156 86.701172 95.367188 98.701172">file_server_id: UUID</tspan></text>
<path
             id="path216"
             style="fill:#000000;fill-opacity:1;fill-rule:nonzero;stroke:none"
             d="m 33,350 c -4e-6,0.2652 -0.05075,0.52032 -0.152245,0.76535 -0.101493,0.24503 -0.246009,0.46133 -0.433544,0.64887 -0.187538,0.18753 -0.40382,0.33203 -0.648847,0.43353 C 31.520336,351.94922 31.265215,351.99997 31,352 c -0.265219,-3e-5 -0.520344,-0.0508 -0.765371,-0.15225 -0.245028,-0.1015 -0.46131,-0.246 -0.648844,-0.43353 -0.187538,-0.18754 -0.332054,-0.40384 -0.433548,-0.64887 C 29.050743,350.52032 28.999998,350.2652 29,350 c -2e-6,-0.26526 0.05074,-0.52039 0.152237,-0.76541 0.101494,-0.24503 0.24601,-0.46131 0.433548,-0.64884 0.187534,-0.18753 0.403816,-0.33206 0.648844,-0.43353 C 30.479656,348.05075 30.734781,348 31,348 c 0.265215,0 0.520336,0.0507 0.765364,0.15222 0.245027,0.10147 0.461309,0.246 0.648847,0.43353 0.187535,0.18753 0.332051,0.40381 0.433544,0.64884 C 32.949249,349.47961 32.999996,349.73474 33,350 Z" /><text
             id="text220"
             style="font-variant:normal;font-weight:normal;font-size:12px;font-family:ArialMT;-inkscape-font-specification:ArialMT;writing-mode:lr-tb;fill:#000000;fill-opacity:1;fill-rule:nonzero;stroke:none"
             transform="translate(43,353)"><tspan
               id="tspan218"
               y="0"
               x="0 6.6738281 13.347656 19.347656 25.347656 32.021484 38.695312 45.369141 52.042969 58.716797 62.050781 68.724609 72.058594 75.392578 84.058594 90.732422 100.72852 107.40234 114.07617">backup_date: Number</tspan></text>
<path
             id="path222"
             style="fill:#000000;fill-opacity:1;fill-rule:nonzero;stroke:none"
             d="m 33,364 c -4e-6,0.2652 -0.05075,0.52029 -0.152245,0.76532 -0.101493,0.24503 -0.246009,0.4613 -0.433544,0.64886 -0.187538,0.18754 -0.40382,0.33204 -0.648847,0.43354 C 31.520336,365.94922 31.265215,365.99997 31,366 c -0.265219,-3e-5 -0.520344,-0.0508 -0.765371,-0.15228 -0.245028,-0.1015 -0.46131,-0.246 -0.648844,-0.43354 -0.187538,-0.18756 -0.332054,-0.40383 -0.433548,-0.64886 C 29.050743,364.52029 28.999998,364.2652 29,364 c -2e-6,-0.26526 0.05074,-0.52042 0.152237,-0.76544 0.101494,-0.24503 0.24601,-0.46128 0.433548,-0.64881 0.187534,-0.18753 0.403816,-0.33206 0.648844,-0.43353 C 30.479656,362.05075 30.734781,362 31,362 c 0.265215,0 0.520336,0.0507 0.765364,0.15222 0.245027,0.10147 0.461309,0.246 0.648847,0.43353 0.187535,0.18753 0.332051,0.40381 0.433544,0.64884 C 32.949249,363.47961 32.999996,363.73474 33,364 Z" /><text
             id="text226"
             style="font-variant:normal;font-weight:normal;font-size:12px;font-family:ArialMT;-inkscape-font-specification:ArialMT;writing-mode:lr-tb;fill:#000000;fill-opacity:1;fill-rule:nonzero;stroke:none"
             transform="translate(43,367)"><tspan
               id="tspan224"
               y="0"
               x="0 6.6738281 10.669922 17.34375 24.017578 26.683594 32.683594 36.017578 38.683594 45.357422 52.03125 58.03125 61.365234">predictions: </tspan></text>
<path
             id="path228"
             style="fill:none;stroke:#000000;stroke-width:1;stroke-linecap:butt;stroke-linejoin:miter;stroke-miterlimit:10;stroke-dasharray:none;stroke-opacity:1"
             d="m 73,378 c -8e-6,0.2652 -0.05076,0.52029 -0.152252,0.76532 -0.101494,0.24503 -0.24601,0.4613 -0.433541,0.64886 -0.187538,0.18754 -0.403816,0.33204 -0.648849,0.43354 C 71.520332,379.94922 71.265213,379.99997 71,380 c -0.265221,-3e-5 -0.520348,-0.0508 -0.765373,-0.15228 -0.245033,-0.1015 -0.461312,-0.246 -0.648842,-0.43354 -0.187538,-0.18756 -0.332062,-0.40383 -0.433556,-0.64886 C 69.050735,378.52029 68.999992,378.2652 69,378 c -8e-6,-0.26526 0.05074,-0.52042 0.152229,-0.76544 0.101494,-0.245 0.246018,-0.46128 0.433556,-0.64881 0.18753,-0.18753 0.403809,-0.33206 0.648842,-0.43353 C 70.479652,376.05075 70.734779,376 71,376 c 0.265213,0 0.520332,0.0507 0.765358,0.15222 0.245033,0.10147 0.461311,0.246 0.648849,0.43353 0.187531,0.18753 0.332047,0.40381 0.433541,0.64884 C 72.949242,377.47961 72.999992,377.73474 73,378 Z" /><text
             id="text232"
             style="font-variant:normal;font-weight:normal;font-size:12px;font-family:ArialMT;-inkscape-font-specification:ArialMT;writing-mode:lr-tb;fill:#000000;fill-opacity:1;fill-rule:nonzero;stroke:none"
             transform="translate(83,381)"><tspan
               id="tspan230"
               y="0"
               x="0 9.9960938 16.669922 20.003906 26.677734 33.351562 40.025391 46.699219 50.033203 56.707031 63.380859 73.376953 80.050781 86.724609 93.398438 96.064453 99.398438 102.73242 111.39844 114.06445 120.06445 123.39844">meta_data_model: Dict,</tspan></text>
<path
             id="path234"
             style="fill:none;stroke:#000000;stroke-width:1;stroke-linecap:butt;stroke-linejoin:miter;stroke-miterlimit:10;stroke-dasharray:none;stroke-opacity:1"
             d="m 73,392 c -8e-6,0.2652 -0.05076,0.52029 -0.152252,0.76532 -0.101494,0.24503 -0.24601,0.46133 -0.433541,0.6489 -0.187538,0.1875 -0.403816,0.332 -0.648849,0.4335 C 71.520332,393.94922 71.265213,393.99997 71,394 c -0.265221,-3e-5 -0.520348,-0.0508 -0.765373,-0.15228 -0.245033,-0.1015 -0.461312,-0.246 -0.648842,-0.4335 -0.187538,-0.18757 -0.332062,-0.40387 -0.433556,-0.6489 C 69.050735,392.52029 68.999992,392.2652 69,392 c -8e-6,-0.26523 0.05074,-0.52039 0.152229,-0.76544 0.101494,-0.24503 0.246018,-0.46128 0.433556,-0.64881 0.18753,-0.18753 0.403809,-0.33206 0.648842,-0.43356 C 70.479652,390.05072 70.734779,390 71,390 c 0.265213,0 0.520332,0.0507 0.765358,0.15216 0.245033,0.10153 0.461311,0.24606 0.648849,0.43359 0.187531,0.18753 0.332047,0.40378 0.433541,0.64881 C 72.949242,391.47961 72.999992,391.73477 73,392 Z" /><text
             id="text238"
             style="font-variant:normal;font-weight:normal;font-size:12px;font-family:ArialMT;-inkscape-font-specification:ArialMT;writing-mode:lr-tb;fill:#000000;fill-opacity:1;fill-rule:nonzero;stroke:none"
             transform="translate(83,395)"><tspan
               id="tspan236"
               y="0"
               x="0 6.6738281 13.347656 16.681641 23.355469 30.029297 36.703125 42.703125 48.703125 54.703125 64.699219 68.033203 71.367188 80.033203 82.699219 88.699219">path_ocsvm: Dict</tspan></text>
<path
             id="path240"
             style="fill:#000000;fill-opacity:1;fill-rule:nonzero;stroke:none"
             d="m 33,406 c -4e-6,0.2652 -0.05075,0.52029 -0.152245,0.76532 -0.101493,0.24503 -0.246009,0.46133 -0.433544,0.64886 -0.187538,0.18754 -0.40382,0.33204 -0.648847,0.43351 C 31.520336,407.94922 31.265215,407.99997 31,408 c -0.265219,-3e-5 -0.520344,-0.0508 -0.765371,-0.15228 -0.245028,-0.1015 -0.46131,-0.246 -0.648844,-0.43354 -0.187538,-0.18753 -0.332054,-0.40383 -0.433548,-0.64889 C 29.050743,406.52029 28.999998,406.2652 29,406 c -2e-6,-0.26523 0.05074,-0.52039 0.152237,-0.76544 0.101494,-0.24503 0.24601,-0.46128 0.433548,-0.64881 0.187534,-0.18753 0.403816,-0.33206 0.648844,-0.43356 C 30.479656,404.05072 30.734781,404 31,404 c 0.265215,0 0.520336,0.0507 0.765364,0.15216 0.245027,0.10153 0.461309,0.24606 0.648847,0.43359 0.187535,0.18753 0.332051,0.40378 0.433544,0.64881 C 32.949249,405.47961 32.999996,405.73477 33,406 Z" /><text
             id="text244"
             style="font-variant:normal;font-weight:normal;font-size:12px;font-family:ArialMT;-inkscape-font-specification:ArialMT;writing-mode:lr-tb;fill:#000000;fill-opacity:1;fill-rule:nonzero;stroke:none"
             transform="translate(43,409)"><tspan
               id="tspan242"
               y="0"
               x="0 3.3339844 10.007812 16.681641 20.015625 26.689453 30.685547 37.359375 43.359375 46.693359 50.027344 59.361328 66.035156 68.701172 75.375 81.375">features: Object</tspan></text>
<path
             id="path246"
             style="fill:#000000;fill-opacity:1;fill-rule:nonzero;stroke:none"
             d="m 33,420 c -4e-6,0.2652 -0.05075,0.52032 -0.152245,0.76535 -0.101493,0.24503 -0.246009,0.4613 -0.433544,0.64883 -0.187538,0.18754 -0.40382,0.33204 -0.648847,0.43351 C 31.520336,421.94919 31.265215,421.99997 31,422 c -0.265219,-3e-5 -0.520344,-0.0508 -0.765371,-0.15231 -0.245028,-0.10147 -0.46131,-0.24597 -0.648844,-0.43351 -0.187538,-0.18753 -0.332054,-0.40383 -0.433548,-0.64886 C 29.050743,420.52029 28.999998,420.2652 29,420 c -2e-6,-0.26523 0.05074,-0.52039 0.152237,-0.76541 0.101494,-0.24506 0.24601,-0.46134 0.433548,-0.64884 0.187534,-0.18753 0.403816,-0.33203 0.648844,-0.43353 C 30.479656,418.05075 30.734781,418 31,418 c 0.265215,0 0.520336,0.0507 0.765364,0.15219 0.245027,0.10153 0.461309,0.24603 0.648847,0.43356 0.187535,0.1875 0.332051,0.40378 0.433544,0.64884 C 32.949249,419.47961 32.999996,419.73477 33,420 Z" /><text
             id="text250"
             style="font-variant:normal;font-weight:normal;font-size:12px;font-family:ArialMT;-inkscape-font-specification:ArialMT;writing-mode:lr-tb;fill:#000000;fill-opacity:1;fill-rule:nonzero;stroke:none"
             transform="translate(43,423)"><tspan
               id="tspan248"
               y="0"
               x="0 6.6738281 12.673828 16.007812 18.673828 25.347656 32.021484 38.695312 45.369141 52.042969 55.376953 62.050781 65.384766">action_data: </tspan></text>
<path
             id="path252"
             style="fill:none;stroke:#000000;stroke-width:1;stroke-linecap:butt;stroke-linejoin:miter;stroke-miterlimit:10;stroke-dasharray:none;stroke-opacity:1"
             d="m 73,434 c -8e-6,0.2652 -0.05076,0.52032 -0.152252,0.76535 -0.101494,0.24503 -0.24601,0.4613 -0.433541,0.64887 -0.187538,0.18753 -0.403816,0.33203 -0.648849,0.43353 C 71.520332,435.94925 71.265213,436 71,436 c -0.265221,0 -0.520348,-0.0507 -0.765373,-0.15225 -0.245033,-0.1015 -0.461312,-0.246 -0.648842,-0.43353 -0.187538,-0.18757 -0.332062,-0.40384 -0.433556,-0.64887 C 69.050735,434.52032 68.999992,434.2652 69,434 c -8e-6,-0.26523 0.05074,-0.52039 0.152229,-0.76541 0.101494,-0.24506 0.246018,-0.46134 0.433556,-0.64887 0.18753,-0.18753 0.403809,-0.33206 0.648842,-0.43353 C 70.479652,432.05072 70.734779,432 71,432 c 0.265213,0 0.520332,0.0507 0.765358,0.15219 0.245033,0.10147 0.461311,0.246 0.648849,0.43353 0.187531,0.18753 0.332047,0.40381 0.433541,0.64887 C 72.949242,433.47961 72.999992,433.73477 73,434 Z" /><text
             id="text256"
             style="font-variant:normal;font-weight:normal;font-size:12px;font-family:ArialMT;-inkscape-font-specification:ArialMT;writing-mode:lr-tb;fill:#000000;fill-opacity:1;fill-rule:nonzero;stroke:none"
             transform="translate(83,437)"><tspan
               id="tspan254"
               y="0"
               x="0 3.9960938 10.669922 17.34375 24.017578 27.351562 30.685547 39.351562 46.025391 56.021484 62.695312 69.369141">read: Number</tspan></text>
<path
             id="path258"
             style="fill:none;stroke:#000000;stroke-width:1;stroke-linecap:butt;stroke-linejoin:miter;stroke-miterlimit:10;stroke-dasharray:none;stroke-opacity:1"
             d="m 73,448 c -8e-6,0.2652 -0.05076,0.52029 -0.152252,0.76532 -0.101494,0.24503 -0.24601,0.4613 -0.433541,0.64886 -0.187538,0.18754 -0.403816,0.33204 -0.648849,0.43354 C 71.520332,449.94922 71.265213,449.99997 71,450 c -0.265221,-3e-5 -0.520348,-0.0508 -0.765373,-0.15228 -0.245033,-0.1015 -0.461312,-0.246 -0.648842,-0.43354 -0.187538,-0.18756 -0.332062,-0.40383 -0.433556,-0.64886 C 69.050735,448.52029 68.999992,448.2652 69,448 c -8e-6,-0.26523 0.05074,-0.52039 0.152229,-0.76541 0.101494,-0.24506 0.246018,-0.46134 0.433556,-0.64884 0.18753,-0.18753 0.403809,-0.33206 0.648842,-0.43356 C 70.479652,446.05072 70.734779,446 71,446 c 0.265213,0 0.520332,0.0507 0.765358,0.15219 0.245033,0.1015 0.461311,0.24603 0.648849,0.43356 0.187531,0.1875 0.332047,0.40378 0.433541,0.64884 C 72.949242,447.47961 72.999992,447.73477 73,448 Z" /><text
             id="text262"
             style="font-variant:normal;font-weight:normal;font-size:12px;font-family:ArialMT;-inkscape-font-specification:ArialMT;writing-mode:lr-tb;fill:#000000;fill-opacity:1;fill-rule:nonzero;stroke:none"
             transform="translate(83,451)"><tspan
               id="tspan260"
               y="0"
               x="0 6.6738281 13.347656 16.013672 22.6875 29.361328 32.695312 39.369141 46.042969 49.376953 52.710938 61.376953 68.050781 78.046875 84.720703 91.394531">deleated: Number</tspan></text>
<path
             id="path264"
             style="fill:none;stroke:#000000;stroke-width:1;stroke-linecap:butt;stroke-linejoin:miter;stroke-miterlimit:10;stroke-dasharray:none;stroke-opacity:1"
             d="m 73,462 c -8e-6,0.26517 -0.05076,0.52026 -0.152252,0.76529 -0.101494,0.24502 -0.24601,0.4613 -0.433541,0.64889 -0.187538,0.1875 -0.403816,0.33201 -0.648849,0.43354 C 71.520332,463.94919 71.265213,463.99997 71,464 c -0.265221,-3e-5 -0.520348,-0.0508 -0.765373,-0.15231 -0.245033,-0.1015 -0.461312,-0.24601 -0.648842,-0.43351 -0.187538,-0.18759 -0.332062,-0.40387 -0.433556,-0.64886 C 69.050735,462.52029 68.999992,462.26517 69,462 c -8e-6,-0.26526 0.05074,-0.52039 0.152229,-0.76541 0.101494,-0.24503 0.246018,-0.46131 0.433556,-0.64884 0.18753,-0.18756 0.403809,-0.33209 0.648842,-0.43356 C 70.479652,460.05072 70.734779,460 71,460 c 0.265213,0 0.520332,0.0507 0.765358,0.15219 0.245033,0.10147 0.461311,0.246 0.648849,0.43356 0.187531,0.18753 0.332047,0.40381 0.433541,0.64884 C 72.949242,461.47961 72.999992,461.73474 73,462 Z" /><text
             id="text268"
             style="font-variant:normal;font-weight:normal;font-size:12px;font-family:ArialMT;-inkscape-font-specification:ArialMT;writing-mode:lr-tb;fill:#000000;fill-opacity:1;fill-rule:nonzero;stroke:none"
             transform="translate(83,465)"><tspan
               id="tspan266"
               y="0"
               x="0 6.6738281 13.347656 20.021484 26.695312 33.369141 36.703125 40.037109 48.703125 55.376953 65.373047 72.046875 78.720703">added: Number</tspan></text>
<path
             id="path270"
             style="fill:none;stroke:#000000;stroke-width:1;stroke-linecap:butt;stroke-linejoin:miter;stroke-miterlimit:10;stroke-dasharray:none;stroke-opacity:1"
             d="m 73,476 c -8e-6,0.2652 -0.05076,0.52029 -0.152252,0.76532 -0.101494,0.24506 -0.24601,0.46136 -0.433541,0.6489 -0.187538,0.18753 -0.403816,0.33203 -0.648849,0.4335 C 71.520332,477.94922 71.265213,477.99997 71,478 c -0.265221,-3e-5 -0.520348,-0.0508 -0.765373,-0.15228 -0.245033,-0.10147 -0.461312,-0.24597 -0.648842,-0.4335 -0.187538,-0.18754 -0.332062,-0.40384 -0.433556,-0.6489 C 69.050735,476.52029 68.999992,476.2652 69,476 c -8e-6,-0.26526 0.05074,-0.52042 0.152229,-0.76547 0.101494,-0.24503 0.246018,-0.46128 0.433556,-0.64881 0.18753,-0.18753 0.403809,-0.33206 0.648842,-0.43353 C 70.479652,474.05072 70.734779,474 71,474 c 0.265213,0 0.520332,0.0507 0.765358,0.15219 0.245033,0.10147 0.461311,0.246 0.648849,0.43353 0.187531,0.18753 0.332047,0.40381 0.433541,0.64884 C 72.949242,475.47958 72.999992,475.73474 73,476 Z" /><text
             id="text274"
             style="font-variant:normal;font-weight:normal;font-size:12px;font-family:ArialMT;-inkscape-font-specification:ArialMT;writing-mode:lr-tb;fill:#000000;fill-opacity:1;fill-rule:nonzero;stroke:none"
             transform="translate(83,479)"><tspan
               id="tspan272"
               y="0"
               x="0 9.9960938 16.669922 23.34375 26.009766 29.34375 32.009766 38.683594 45.357422 48.691406 52.025391 60.691406 67.365234 77.361328 84.035156 90.708984">modified: Number</tspan></text>
</g><g
           transform="matrix(2.995255,0,0,2.995255,1.4976275,1.4976275)"
           id="g276"><path
             id="path278"
             style="fill:none;stroke:#000000;stroke-width:1;stroke-linecap:butt;stroke-linejoin:miter;stroke-miterlimit:10;stroke-dasharray:none;stroke-opacity:1"
             d="m 123,212 v 46" /></g><g
           transform="scale(2.995255)"
           id="g280"><path
             id="path282"
             style="fill:#ffffff;fill-opacity:1;fill-rule:nonzero;stroke:none"
             d="m 130,217 h 9 v 18 h -9 z" /><text
             id="text286"
             style="font-variant:normal;font-weight:normal;font-size:15px;font-family:ArialMT;-inkscape-font-specification:ArialMT;writing-mode:lr-tb;fill:#000000;fill-opacity:1;fill-rule:nonzero;stroke:none"
             transform="translate(130.32813,231)"><tspan
               id="tspan284"
               y="0"
               x="0">1</tspan></text>
<path
             id="path288"
             style="fill:#ffffff;fill-opacity:1;fill-rule:nonzero;stroke:none"
             d="m 131,238 h 9 v 18 h -9 z" /><text
             id="text292"
             style="font-variant:normal;font-weight:normal;font-size:15px;font-family:ArialMT;-inkscape-font-specification:ArialMT;writing-mode:lr-tb;fill:#000000;fill-opacity:1;fill-rule:nonzero;stroke:none"
             transform="translate(131.32813,252)"><tspan
               id="tspan290"
               y="0"
               x="0">n</tspan></text>
<path
             id="path294"
             style="fill:#dae8fc;fill-opacity:1;fill-rule:nonzero;stroke:none"
             d="M 537,379 V 358.64999 C 537,347.54999 531.45001,342 520.34998,342 H 355.64999 C 344.54999,342 339,347.54999 339,358.64999 V 379" /><path
             id="path296"
             style="fill:none;stroke:#6c8ebf;stroke-width:1;stroke-linecap:butt;stroke-linejoin:miter;stroke-miterlimit:10;stroke-dasharray:none;stroke-opacity:1"
             d="M 537,379 V 358.64999 C 537,347.54999 531.45001,342 520.34998,342 H 355.64999 C 344.54999,342 339,347.54999 339,358.64999 V 379" /><path
             id="path298"
             style="fill:none;stroke:#6c8ebf;stroke-width:1;stroke-linecap:butt;stroke-linejoin:miter;stroke-miterlimit:10;stroke-dasharray:none;stroke-opacity:1"
             d="m 339,379 v 53.35001 C 339,443.45001 344.54999,449 355.64999,449 H 520.34998 C 531.45001,449 537,443.45001 537,432.35001 V 379" /><path
             id="path300"
             style="fill:none;stroke:#6c8ebf;stroke-width:1;stroke-linecap:butt;stroke-linejoin:miter;stroke-miterlimit:10;stroke-dasharray:none;stroke-opacity:1"
             d="M 339,379 H 537" /><text
             id="text304"
             style="font-variant:normal;font-weight:bold;font-size:15px;font-family:Arial;-inkscape-font-specification:Arial-BoldMT;writing-mode:lr-tb;fill:#000000;fill-opacity:1;fill-rule:nonzero;stroke:none"
             transform="translate(347.55322,367)"><tspan
               id="tspan302"
               y="0"
               x="0 10.83252 19.174805 27.51709 35.859375 45.021973 54.18457 58.352051 70.847168 79.189453 84.18457 92.526855 101.68945 110.03174 115.02686 123.36914 127.53662 136.69922 140.8667 145.03418 153.37646 158.37158 164.20898 172.55127">Backup Metadata Filetree</tspan></text>
<path
             id="path306"
             style="fill:#000000;fill-opacity:1;fill-rule:nonzero;stroke:none"
             d="m 371,406 c -3e-5,0.2652 -0.0508,0.52029 -0.15228,0.76532 -0.1015,0.24503 -0.246,0.46133 -0.43354,0.64886 -0.18756,0.18754 -0.40383,0.33204 -0.64883,0.43351 -0.24506,0.10153 -0.50018,0.15228 -0.76535,0.15231 -0.26526,-3e-5 -0.52042,-0.0508 -0.76544,-0.15228 -0.24503,-0.1015 -0.46128,-0.246 -0.64881,-0.43354 -0.18753,-0.18753 -0.33206,-0.40383 -0.43353,-0.64889 -0.1015,-0.245 -0.15225,-0.50009 -0.15222,-0.76529 -3e-5,-0.26523 0.0507,-0.52039 0.15222,-0.76544 0.10147,-0.24503 0.246,-0.46128 0.43353,-0.64881 0.18753,-0.18753 0.40381,-0.33206 0.64884,-0.43356 C 368.47961,404.05072 368.73474,404 369,404 c 0.26517,0 0.52029,0.0507 0.76532,0.15216 0.24503,0.10153 0.4613,0.24606 0.64886,0.43359 0.18754,0.18753 0.33204,0.40378 0.43354,0.64881 0.10147,0.24505 0.15225,0.50021 0.15228,0.76544 z" /><text
             id="text310"
             style="font-variant:normal;font-weight:normal;font-size:12px;font-family:ArialMT;-inkscape-font-specification:ArialMT;writing-mode:lr-tb;fill:#000000;fill-opacity:1;fill-rule:nonzero;stroke:none"
             transform="translate(381,409)"><tspan
               id="tspan308"
               y="0"
               x="0 6.6738281 9.3398438 16.013672 19.347656 22.681641 31.347656 40.013672 43.347656">_id: UUID</tspan></text>
<path
             id="path312"
             style="fill:#000000;fill-opacity:1;fill-rule:nonzero;stroke:none"
             d="m 371,420 c -3e-5,0.2652 -0.0508,0.52032 -0.15228,0.76535 -0.1015,0.24503 -0.246,0.4613 -0.43354,0.64883 -0.18756,0.18754 -0.40383,0.33204 -0.64883,0.43351 -0.24506,0.1015 -0.50018,0.15228 -0.76535,0.15231 -0.26526,-3e-5 -0.52042,-0.0508 -0.76544,-0.15231 -0.24503,-0.10147 -0.46128,-0.24597 -0.64881,-0.43351 -0.18753,-0.18753 -0.33206,-0.40383 -0.43353,-0.64886 C 367.05072,420.52029 366.99997,420.2652 367,420 c -3e-5,-0.26523 0.0507,-0.52039 0.15222,-0.76541 0.10147,-0.24506 0.246,-0.46134 0.43353,-0.64884 0.18753,-0.18753 0.40381,-0.33203 0.64884,-0.43353 C 368.47961,418.05075 368.73474,418 369,418 c 0.26517,0 0.52029,0.0507 0.76532,0.15219 0.24503,0.10153 0.4613,0.24603 0.64886,0.43356 0.18754,0.1875 0.33204,0.40378 0.43354,0.64884 0.10147,0.24502 0.15225,0.50018 0.15228,0.76541 z" /><text
             id="text316"
             style="font-variant:normal;font-weight:normal;font-size:12px;font-family:ArialMT;-inkscape-font-specification:ArialMT;writing-mode:lr-tb;fill:#000000;fill-opacity:1;fill-rule:nonzero;stroke:none"
             transform="translate(381,423)"><tspan
               id="tspan314"
               y="0"
               x="0 6.6738281 13.347656 19.347656 25.347656 32.021484 38.695312 45.369141 55.365234 62.039062 65.373047 72.046875 78.720703 85.394531 88.728516 95.402344 102.07617 104.74219">backup_metadata_id</tspan></text>
<path
             id="path318"
             style="fill:#000000;fill-opacity:1;fill-rule:nonzero;stroke:none"
             d="m 371,434 c -3e-5,0.2652 -0.0508,0.52032 -0.15228,0.76535 -0.1015,0.24503 -0.246,0.4613 -0.43354,0.64887 -0.18756,0.18753 -0.40383,0.33203 -0.64883,0.43353 C 369.52029,435.94925 369.26517,436 369,436 c -0.26526,0 -0.52042,-0.0507 -0.76544,-0.15225 -0.24503,-0.1015 -0.46128,-0.246 -0.64881,-0.43353 -0.18753,-0.18757 -0.33206,-0.40384 -0.43353,-0.64887 C 367.05072,434.52032 366.99997,434.2652 367,434 c -3e-5,-0.26523 0.0507,-0.52039 0.15222,-0.76541 0.10147,-0.24506 0.246,-0.46134 0.43353,-0.64887 0.18753,-0.18753 0.40381,-0.33206 0.64884,-0.43353 C 368.47961,432.05072 368.73474,432 369,432 c 0.26517,0 0.52029,0.0507 0.76532,0.15219 0.24503,0.10147 0.4613,0.246 0.64886,0.43353 0.18754,0.18753 0.33204,0.40381 0.43354,0.64887 0.10147,0.24502 0.15225,0.50018 0.15228,0.76541 z" /><text
             id="text322"
             style="font-variant:normal;font-weight:normal;font-size:12px;font-family:ArialMT;-inkscape-font-specification:ArialMT;writing-mode:lr-tb;fill:#000000;fill-opacity:1;fill-rule:nonzero;stroke:none"
             transform="translate(381,437)"><tspan
               id="tspan320"
               y="0"
               x="0 3.3339844 6 8.6660156 15.339844 18.673828 22.669922 29.34375 36.017578 39.351562 42.685547 49.359375 56.033203 66.029297">filetree: name</tspan></text>
</g><g
           transform="matrix(2.995255,0,0,2.995255,1.4976275,1.4976275)"
           id="g324"><path
             id="path326"
             style="fill:none;stroke:#000000;stroke-width:1;stroke-linecap:butt;stroke-linejoin:miter;stroke-miterlimit:10;stroke-dasharray:none;stroke-opacity:1"
             d="m 245,395.5 h 94" /></g><g
           transform="scale(2.995255)"
           id="g328"><path
             id="path330"
             style="fill:#ffffff;fill-opacity:1;fill-rule:nonzero;stroke:none"
             d="m 253,376 h 9 v 18 h -9 z" /><text
             id="text334"
             style="font-variant:normal;font-weight:normal;font-size:15px;font-family:ArialMT;-inkscape-font-specification:ArialMT;writing-mode:lr-tb;fill:#000000;fill-opacity:1;fill-rule:nonzero;stroke:none"
             transform="translate(253.32813,390)"><tspan
               id="tspan332"
               y="0"
               x="0">1</tspan></text>
<path
             id="path336"
             style="fill:#ffffff;fill-opacity:1;fill-rule:nonzero;stroke:none"
             d="m 325,376 h 9 v 18 h -9 z" /><text
             id="text340"
             style="font-variant:normal;font-weight:normal;font-size:15px;font-family:ArialMT;-inkscape-font-specification:ArialMT;writing-mode:lr-tb;fill:#000000;fill-opacity:1;fill-rule:nonzero;stroke:none"
             transform="translate(325.32813,390)"><tspan
               id="tspan338"
               y="0"
               x="0">1</tspan></text>
</g></g></g></g></svg>