<?xml version="1.0" encoding="UTF-8" standalone="no"?>
<svg
   xmlns:dc="http://purl.org/dc/elements/1.1/"
   xmlns:cc="http://creativecommons.org/ns#"
   xmlns:rdf="http://www.w3.org/1999/02/22-rdf-syntax-ns#"
   xmlns:svg="http://www.w3.org/2000/svg"
   xmlns="http://www.w3.org/2000/svg"
   viewBox="0 0 589.44 361.28"
   height="361.28"
   width="589.44"
   xml:space="preserve"
   id="svg2"
   version="1.1"><metadata
     id="metadata8"><rdf:RDF><cc:Work
         rdf:about=""><dc:format>image/svg+xml</dc:format><dc:type
           rdf:resource="http://purl.org/dc/dcmitype/StillImage" /></cc:Work></rdf:RDF></metadata><defs
     id="defs6"><clipPath
       id="clipPath18"
       clipPathUnits="userSpaceOnUse"><path
         style="clip-rule:evenodd"
         id="path16"
         d="M 0,0 H 1841.6665 V 1127.1239 H 0 Z" /></clipPath><clipPath
       id="clipPath30"
       clipPathUnits="userSpaceOnUse"><path
         style="clip-rule:evenodd"
         id="path28"
         d="M 0,0 H 1841.6665 V 1124.1342 H 0 Z" /></clipPath></defs><g
     transform="matrix(0.31999998,0,0,0.31999998,0,1.2365333e-5)"
     id="g10"><g
       id="g12"><g
         clip-path="url(#clipPath18)"
         id="g14"><g
           transform="scale(2.9897184)"
           id="g20"><path
             id="path22"
             style="fill:#ffffff;fill-opacity:1;fill-rule:nonzero;stroke:none"
             d="M 0,0 H 616 V 377 H 0 Z" /></g></g></g><g
       id="g24"><g
         clip-path="url(#clipPath30)"
         id="g26"><g
           transform="matrix(2.9897184,0,0,2.9897184,1.4948592,1.4948592)"
           id="g32"><path
             id="path34"
             style="fill:#dae8fc;fill-opacity:1;fill-rule:nonzero;stroke:none"
             d="m 34,1 h 221 c 1.08078,0 2.15897,0.052968 3.23456,0.1589041 1.07559,0.105936 2.14337,0.2643299 3.20337,0.4751817 1.06003,0.2108518 2.10717,0.4731461 3.14142,0.7868827 1.03427,0.3137372 2.05065,0.6774059 3.04916,1.0910065 0.99853,0.4136007 1.9744,0.8751419 2.92755,1.3846229 0.95316,0.5094809 1.87906,1.0644493 2.77771,1.6649041 0.89865,0.6004557 1.76572,1.2435064 2.6012,1.9291529 0.83548,0.6856471 1.63531,1.4105874 2.39953,2.1748211 0.76425,0.764234 1.4892,1.564083 2.17484,2.399547 0.68564,0.835461 1.3287,1.702514 1.92914,2.601159 0.60046,0.898643 1.15542,1.824552 1.66491,2.777725 0.50949,0.953172 0.97104,1.929018 1.38462,2.927538 0.4136,0.99852 0.77728,2.014906 1.09103,3.049158 0.31372,1.034252 0.57602,2.08139 0.78687,3.141413 0.21084,1.060024 0.36926,2.12783 0.47518,3.203418 C 287.94702,31.841021 288,32.919209 288,34 v 154 c 0,1.0808 -0.053,2.159 -0.15891,3.23457 -0.10592,1.07558 -0.26434,2.14337 -0.47518,3.20339 -0.21085,1.06003 -0.47315,2.10716 -0.7869,3.14142 -0.31372,1.03425 -0.6774,2.05064 -1.091,3.04916 -0.41358,0.99854 -0.87513,1.97438 -1.38462,2.92755 -0.50949,0.95317 -1.06445,1.87908 -1.66494,2.77771 -0.60044,0.89865 -1.24347,1.76572 -1.92911,2.60118 -0.68564,0.83547 -1.41059,1.6353 -2.17484,2.39954 -0.76422,0.76425 -1.56405,1.4892 -2.3995,2.17483 -0.83548,0.68564 -1.70255,1.32868 -2.6012,1.92913 -0.89865,0.60046 -1.82455,1.15544 -2.77771,1.66493 -0.95318,0.50947 -1.92905,0.97101 -2.92758,1.3846 -0.99851,0.4136 -2.01489,0.77728 -3.04916,1.09102 -1.03425,0.31373 -2.08139,0.57601 -3.14142,0.78686 -1.06,0.21086 -2.12778,0.36926 -3.20337,0.4752 C 257.15897,220.94704 256.08078,221 255,221 H 34 c -1.080791,0 -2.158979,-0.053 -3.234566,-0.15891 -1.075588,-0.10594 -2.143394,-0.26432 -3.203418,-0.47518 -1.060023,-0.21087 -2.107161,-0.47315 -3.141413,-0.78687 -1.034252,-0.31375 -2.050638,-0.67743 -3.04916,-1.09103 -0.99852,-0.41359 -1.974365,-0.87514 -2.927538,-1.38462 -0.953173,-0.50947 -1.87908,-1.06445 -2.777725,-1.6649 -0.898643,-0.60045 -1.765696,-1.2435 -2.601159,-1.92914 -0.835462,-0.68563 -1.635311,-1.41058 -2.399545,-2.17483 C 9.9012423,210.57028 9.176302,209.77045 8.4906549,208.93498 7.8050084,208.0995 7.1619577,207.23244 6.561502,206.33379 5.9610472,205.43515 5.4060788,204.50925 4.8965974,203.55608 4.3871164,202.60292 3.9255757,201.62708 3.511975,200.62854 3.0983744,199.63002 2.7347057,198.61363 2.4209685,197.57938 2.1072316,196.54512 1.8449374,195.49799 1.6340857,194.43796 1.4232339,193.37794 1.26484,192.31013 1.1589041,191.23456 1.052968,190.15898 1,189.0808 1,188 V 34 C 1,32.919209 1.052968,31.841021 1.1589041,30.765434 1.26484,29.689846 1.4232337,28.62204 1.6340855,27.562016 1.8449373,26.501993 2.1072316,25.454855 2.4209685,24.420603 2.7347057,23.386351 3.0983744,22.369965 3.511975,21.371443 3.9255757,20.372923 4.3871169,19.397078 4.8965979,18.443905 5.4060788,17.490732 5.9610472,16.564825 6.561502,15.66618 7.1619577,14.767537 7.8050084,13.900484 8.4906549,13.065021 9.176302,12.229559 9.9012423,11.42971 10.665476,10.665476 11.42971,9.9012423 12.229559,9.176302 13.065023,8.4906549 13.900484,7.8050084 14.767537,7.1619577 15.666182,6.561502 16.564825,5.9610472 17.490734,5.4060788 18.443907,4.8965974 19.397079,4.3871164 20.372925,3.9255757 21.371445,3.511975 22.369965,3.0983744 23.386351,2.7347057 24.420603,2.4209685 25.454855,2.1072316 26.501993,1.8449374 27.562016,1.6340857 28.62204,1.4232339 29.689846,1.26484 30.765434,1.1589041 31.841021,1.052968 32.919209,1 34,1 Z" /><path
             id="path36"
             style="fill:none;stroke:#6c8ebf;stroke-width:1;stroke-linecap:butt;stroke-linejoin:miter;stroke-miterlimit:10;stroke-dasharray:none;stroke-opacity:1"
             d="m 34,1 h 221 c 1.08078,0 2.15897,0.052968 3.23456,0.1589041 1.07559,0.105936 2.14337,0.2643299 3.20337,0.4751817 1.06003,0.2108518 2.10717,0.4731461 3.14142,0.7868827 1.03427,0.3137372 2.05065,0.6774059 3.04916,1.0910065 0.99853,0.4136007 1.9744,0.8751419 2.92755,1.3846229 0.95316,0.5094809 1.87906,1.0644493 2.77771,1.6649041 0.89865,0.6004557 1.76572,1.2435064 2.6012,1.9291529 0.83548,0.6856471 1.63531,1.4105874 2.39953,2.1748211 0.76425,0.764234 1.4892,1.564083 2.17484,2.399547 0.68564,0.835461 1.3287,1.702514 1.92914,2.601159 0.60046,0.898643 1.15542,1.824552 1.66491,2.777725 0.50949,0.953172 0.97104,1.929018 1.38462,2.927538 0.4136,0.99852 0.77728,2.014906 1.09103,3.049158 0.31372,1.034252 0.57602,2.08139 0.78687,3.141413 0.21084,1.060024 0.36926,2.12783 0.47518,3.203418 C 287.94702,31.841021 288,32.919209 288,34 v 154 c 0,1.0808 -0.053,2.159 -0.15891,3.23457 -0.10592,1.07558 -0.26434,2.14337 -0.47518,3.20339 -0.21085,1.06003 -0.47315,2.10716 -0.7869,3.14142 -0.31372,1.03425 -0.6774,2.05064 -1.091,3.04916 -0.41358,0.99854 -0.87513,1.97438 -1.38462,2.92755 -0.50949,0.95317 -1.06445,1.87908 -1.66494,2.77771 -0.60044,0.89865 -1.24347,1.76572 -1.92911,2.60118 -0.68564,0.83547 -1.41059,1.6353 -2.17484,2.39954 -0.76422,0.76425 -1.56405,1.4892 -2.3995,2.17483 -0.83548,0.68564 -1.70255,1.32868 -2.6012,1.92913 -0.89865,0.60046 -1.82455,1.15544 -2.77771,1.66493 -0.95318,0.50947 -1.92905,0.97101 -2.92758,1.3846 -0.99851,0.4136 -2.01489,0.77728 -3.04916,1.09102 -1.03425,0.31373 -2.08139,0.57601 -3.14142,0.78686 -1.06,0.21086 -2.12778,0.36926 -3.20337,0.4752 C 257.15897,220.94704 256.08078,221 255,221 H 34 c -1.080791,0 -2.158979,-0.053 -3.234566,-0.15891 -1.075588,-0.10594 -2.143394,-0.26432 -3.203418,-0.47518 -1.060023,-0.21087 -2.107161,-0.47315 -3.141413,-0.78687 -1.034252,-0.31375 -2.050638,-0.67743 -3.04916,-1.09103 -0.99852,-0.41359 -1.974365,-0.87514 -2.927538,-1.38462 -0.953173,-0.50947 -1.87908,-1.06445 -2.777725,-1.6649 -0.898643,-0.60045 -1.765696,-1.2435 -2.601159,-1.92914 -0.835462,-0.68563 -1.635311,-1.41058 -2.399545,-2.17483 C 9.9012423,210.57028 9.176302,209.77045 8.4906549,208.93498 7.8050084,208.0995 7.1619577,207.23244 6.561502,206.33379 5.9610472,205.43515 5.4060788,204.50925 4.8965974,203.55608 4.3871164,202.60292 3.9255757,201.62708 3.511975,200.62854 3.0983744,199.63002 2.7347057,198.61363 2.4209685,197.57938 2.1072316,196.54512 1.8449374,195.49799 1.6340857,194.43796 1.4232339,193.37794 1.26484,192.31013 1.1589041,191.23456 1.052968,190.15898 1,189.0808 1,188 V 34 C 1,32.919209 1.052968,31.841021 1.1589041,30.765434 1.26484,29.689846 1.4232337,28.62204 1.6340855,27.562016 1.8449373,26.501993 2.1072316,25.454855 2.4209685,24.420603 2.7347057,23.386351 3.0983744,22.369965 3.511975,21.371443 3.9255757,20.372923 4.3871169,19.397078 4.8965979,18.443905 5.4060788,17.490732 5.9610472,16.564825 6.561502,15.66618 7.1619577,14.767537 7.8050084,13.900484 8.4906549,13.065021 9.176302,12.229559 9.9012423,11.42971 10.665476,10.665476 11.42971,9.9012423 12.229559,9.176302 13.065023,8.4906549 13.900484,7.8050084 14.767537,7.1619577 15.666182,6.561502 16.564825,5.9610472 17.490734,5.4060788 18.443907,4.8965974 19.397079,4.3871164 20.372925,3.9255757 21.371445,3.511975 22.369965,3.0983744 23.386351,2.7347057 24.420603,2.4209685 25.454855,2.1072316 26.501993,1.8449374 27.562016,1.6340857 28.62204,1.4232339 29.689846,1.26484 30.765434,1.1589041 31.841021,1.052968 32.919209,1 34,1 Z" /></g><g
           transform="scale(2.9897184)"
           id="g38"><text
             id="text42"
             style="font-variant:normal;font-weight:normal;font-size:15px;font-family:ArialMT;-inkscape-font-specification:ArialMT;writing-mode:lr-tb;fill:#000000;fill-opacity:1;fill-rule:nonzero;stroke:none"
             transform="translate(17,25)"><tspan
               id="tspan40"
               y="0"
               x="0 12.495117 20.837402 29.179688 37.521973 40.854492 45.021973 49.189453 57.531738 60.864258 65.031738 68.364258 76.706543 80.039062 83.371582 90.871582 99.213867 103.38135 106.71387 115.05615">Model Initialization</tspan></text>
</g><g
           transform="matrix(2.9897184,0,0,2.9897184,1.4948592,1.4948592)"
           id="g44"><path
             id="path46"
             style="fill:#b1ddf0;fill-opacity:1;fill-rule:nonzero;stroke:none"
             d="m 23,39 h 90 c 0.59094,0 1.17621,0.05764 1.75581,0.172932 0.57959,0.115287 1.14236,0.286003 1.68833,0.512149 0.54596,0.226147 1.06462,0.503376 1.55597,0.831692 0.49136,0.328312 0.94597,0.701397 1.36384,1.119263 0.41787,0.417862 0.79095,0.872471 1.11927,1.363827 0.32831,0.491356 0.60554,1.010017 0.83168,1.55598 0.22615,0.545967 0.39687,1.108746 0.51216,1.68834 C 121.94235,46.82378 121.99999,47.409054 122,48 v 42 c -1e-5,0.590942 -0.0576,1.176208 -0.17294,1.755798 -0.11529,0.579598 -0.28601,1.142372 -0.51216,1.688332 -0.22614,0.545967 -0.50337,1.064629 -0.83168,1.555984 -0.32832,0.491356 -0.7014,0.945969 -1.11927,1.363839 -0.41787,0.417869 -0.87247,0.790954 -1.36383,1.11927 -0.49136,0.328316 -1.01002,0.605545 -1.55598,0.831688 -0.54597,0.22615 -1.10874,0.396866 -1.68833,0.512146 C 114.17621,98.942352 113.59094,99 113,99 H 23 c -0.59095,0 -1.176222,-0.05765 -1.755816,-0.172935 -0.579593,-0.115288 -1.142372,-0.286004 -1.688337,-0.512154 -0.545965,-0.226143 -1.064625,-0.50338 -1.555981,-0.831696 -0.491355,-0.328308 -0.945964,-0.701393 -1.363828,-1.119262 -0.417864,-0.41787 -0.790954,-0.87249 -1.119267,-1.363846 C 15.188458,94.508751 14.911227,93.990097 14.685082,93.44413 14.458936,92.89817 14.288218,92.335396 14.17293,91.755798 14.057642,91.176208 13.999999,90.590942 14,90 V 48 c -10e-7,-0.590946 0.05764,-1.17622 0.17293,-1.755814 0.115288,-0.579593 0.286006,-1.142376 0.512152,-1.688343 0.226145,-0.545963 0.503376,-1.064624 0.831689,-1.555984 0.328313,-0.491352 0.701403,-0.945961 1.119267,-1.363823 0.417864,-0.417866 0.872473,-0.790955 1.363828,-1.119267 0.491356,-0.328312 1.010016,-0.605541 1.555981,-0.831688 0.545965,-0.226146 1.108744,-0.396862 1.688337,-0.512149 C 21.823778,39.057644 22.40905,39 23,39 Z" /><path
             id="path48"
             style="fill:none;stroke:#10739e;stroke-width:1;stroke-linecap:butt;stroke-linejoin:miter;stroke-miterlimit:10;stroke-dasharray:none;stroke-opacity:1"
             d="m 23,39 h 90 c 0.59094,0 1.17621,0.05764 1.75581,0.172932 0.57959,0.115287 1.14236,0.286003 1.68833,0.512149 0.54596,0.226147 1.06462,0.503376 1.55597,0.831692 0.49136,0.328312 0.94597,0.701397 1.36384,1.119263 0.41787,0.417862 0.79095,0.872471 1.11927,1.363827 0.32831,0.491356 0.60554,1.010017 0.83168,1.55598 0.22615,0.545967 0.39687,1.108746 0.51216,1.68834 C 121.94235,46.82378 121.99999,47.409054 122,48 v 42 c -1e-5,0.590942 -0.0576,1.176208 -0.17294,1.755798 -0.11529,0.579598 -0.28601,1.142372 -0.51216,1.688332 -0.22614,0.545967 -0.50337,1.064629 -0.83168,1.555984 -0.32832,0.491356 -0.7014,0.945969 -1.11927,1.363839 -0.41787,0.417869 -0.87247,0.790954 -1.36383,1.11927 -0.49136,0.328316 -1.01002,0.605545 -1.55598,0.831688 -0.54597,0.22615 -1.10874,0.396866 -1.68833,0.512146 C 114.17621,98.942352 113.59094,99 113,99 H 23 c -0.59095,0 -1.176222,-0.05765 -1.755816,-0.172935 -0.579593,-0.115288 -1.142372,-0.286004 -1.688337,-0.512154 -0.545965,-0.226143 -1.064625,-0.50338 -1.555981,-0.831696 -0.491355,-0.328308 -0.945964,-0.701393 -1.363828,-1.119262 -0.417864,-0.41787 -0.790954,-0.87249 -1.119267,-1.363846 C 15.188458,94.508751 14.911227,93.990097 14.685082,93.44413 14.458936,92.89817 14.288218,92.335396 14.17293,91.755798 14.057642,91.176208 13.999999,90.590942 14,90 V 48 c -10e-7,-0.590946 0.05764,-1.17622 0.17293,-1.755814 0.115288,-0.579593 0.286006,-1.142376 0.512152,-1.688343 0.226145,-0.545963 0.503376,-1.064624 0.831689,-1.555984 0.328313,-0.491352 0.701403,-0.945961 1.119267,-1.363823 0.417864,-0.417866 0.872473,-0.790955 1.363828,-1.119267 0.491356,-0.328312 1.010016,-0.605541 1.555981,-0.831688 0.545965,-0.226146 1.108744,-0.396862 1.688337,-0.512149 C 21.823778,39.057644 22.40905,39 23,39 Z" /></g><g
           transform="scale(2.9897184)"
           id="g50"><text
             id="text54"
             style="font-variant:normal;font-weight:normal;font-size:12px;font-family:ArialMT;-inkscape-font-specification:ArialMT;writing-mode:lr-tb;fill:#000000;fill-opacity:1;fill-rule:nonzero;stroke:none"
             transform="translate(31.296875,67)"><tspan
               id="tspan52"
               y="0"
               x="0 3.3339844 10.007812 12.673828 16.007812 18.673828 25.347656 28.013672 31.347656 38.021484 44.695312 50.695312 56.695312 63.369141 70.042969">Initial backup </tspan></text>
<text
             id="text58"
             style="font-variant:normal;font-weight:normal;font-size:12px;font-family:ArialMT;-inkscape-font-specification:ArialMT;writing-mode:lr-tb;fill:#000000;fill-opacity:1;fill-rule:nonzero;stroke:none"
             transform="translate(59.984375,81)"><tspan
               id="tspan56"
               y="0"
               x="0 6 12.673828">set</tspan></text>
</g><g
           transform="matrix(2.9897184,0,0,2.9897184,1.4948592,1.4948592)"
           id="g60"><path
             id="path62"
             style="fill:#b1ddf0;fill-opacity:1;fill-rule:nonzero;stroke:none"
             d="m 166,39 h 90 c 0.59094,0 1.17621,0.05764 1.7558,0.172932 0.57959,0.115287 1.14236,0.286003 1.68832,0.512149 0.54596,0.226147 1.06464,0.503376 1.556,0.831692 0.49134,0.328312 0.94596,0.701397 1.36383,1.119263 0.41788,0.417862 0.79096,0.872471 1.11927,1.363827 0.3283,0.491356 0.60553,1.010017 0.83169,1.55598 0.22617,0.545967 0.39688,1.108746 0.51215,1.68834 C 264.94235,46.82378 265,47.409054 265,48 v 42 c 0,0.590942 -0.0577,1.176208 -0.17294,1.755798 -0.1153,0.579598 -0.28601,1.142372 -0.51218,1.688332 -0.22613,0.545967 -0.50336,1.064629 -0.83166,1.555984 -0.32831,0.491356 -0.70139,0.945969 -1.11927,1.363839 -0.41787,0.417869 -0.87249,0.790954 -1.36386,1.11927 -0.49136,0.328316 -1.01001,0.605545 -1.55597,0.831688 -0.54596,0.22615 -1.10873,0.396866 -1.68832,0.512146 C 257.17621,98.942352 256.59094,99 256,99 h -90 c -0.59096,0 -1.17622,-0.05765 -1.75581,-0.172935 -0.57961,-0.115288 -1.1424,-0.286004 -1.68836,-0.512154 -0.54597,-0.226143 -1.06463,-0.50338 -1.55598,-0.831696 -0.49135,-0.328308 -0.94597,-0.701393 -1.36383,-1.119262 -0.41787,-0.41787 -0.79096,-0.87249 -1.11928,-1.363846 -0.32832,-0.491356 -0.60555,-1.01001 -0.8317,-1.555977 -0.22613,-0.54596 -0.39685,-1.108734 -0.51213,-1.688332 C 157.05763,91.176208 156.99998,90.590942 157,90 V 48 c -2e-5,-0.590946 0.0576,-1.17622 0.17291,-1.755814 0.11528,-0.579593 0.286,-1.142376 0.51213,-1.688343 0.22615,-0.545963 0.50338,-1.064624 0.83168,-1.555984 0.32833,-0.491352 0.70143,-0.945961 1.1193,-1.363823 0.41786,-0.417866 0.87248,-0.790955 1.36383,-1.119267 0.49135,-0.328312 1.01001,-0.605541 1.55598,-0.831688 0.54596,-0.226146 1.10875,-0.396862 1.68836,-0.512149 C 164.82378,39.057644 165.40904,39 166,39 Z" /><path
             id="path64"
             style="fill:none;stroke:#10739e;stroke-width:1;stroke-linecap:butt;stroke-linejoin:miter;stroke-miterlimit:10;stroke-dasharray:none;stroke-opacity:1"
             d="m 166,39 h 90 c 0.59094,0 1.17621,0.05764 1.7558,0.172932 0.57959,0.115287 1.14236,0.286003 1.68832,0.512149 0.54596,0.226147 1.06464,0.503376 1.556,0.831692 0.49134,0.328312 0.94596,0.701397 1.36383,1.119263 0.41788,0.417862 0.79096,0.872471 1.11927,1.363827 0.3283,0.491356 0.60553,1.010017 0.83169,1.55598 0.22617,0.545967 0.39688,1.108746 0.51215,1.68834 C 264.94235,46.82378 265,47.409054 265,48 v 42 c 0,0.590942 -0.0577,1.176208 -0.17294,1.755798 -0.1153,0.579598 -0.28601,1.142372 -0.51218,1.688332 -0.22613,0.545967 -0.50336,1.064629 -0.83166,1.555984 -0.32831,0.491356 -0.70139,0.945969 -1.11927,1.363839 -0.41787,0.417869 -0.87249,0.790954 -1.36386,1.11927 -0.49136,0.328316 -1.01001,0.605545 -1.55597,0.831688 -0.54596,0.22615 -1.10873,0.396866 -1.68832,0.512146 C 257.17621,98.942352 256.59094,99 256,99 h -90 c -0.59096,0 -1.17622,-0.05765 -1.75581,-0.172935 -0.57961,-0.115288 -1.1424,-0.286004 -1.68836,-0.512154 -0.54597,-0.226143 -1.06463,-0.50338 -1.55598,-0.831696 -0.49135,-0.328308 -0.94597,-0.701393 -1.36383,-1.119262 -0.41787,-0.41787 -0.79096,-0.87249 -1.11928,-1.363846 -0.32832,-0.491356 -0.60555,-1.01001 -0.8317,-1.555977 -0.22613,-0.54596 -0.39685,-1.108734 -0.51213,-1.688332 C 157.05763,91.176208 156.99998,90.590942 157,90 V 48 c -2e-5,-0.590946 0.0576,-1.17622 0.17291,-1.755814 0.11528,-0.579593 0.286,-1.142376 0.51213,-1.688343 0.22615,-0.545963 0.50338,-1.064624 0.83168,-1.555984 0.32833,-0.491352 0.70143,-0.945961 1.1193,-1.363823 0.41786,-0.417866 0.87248,-0.790955 1.36383,-1.119267 0.49135,-0.328312 1.01001,-0.605541 1.55598,-0.831688 0.54596,-0.226146 1.10875,-0.396862 1.68836,-0.512149 C 164.82378,39.057644 165.40904,39 166,39 Z" /></g><g
           transform="scale(2.9897184)"
           id="g66"><text
             id="text70"
             style="font-variant:normal;font-weight:normal;font-size:12px;font-family:ArialMT;-inkscape-font-specification:ArialMT;writing-mode:lr-tb;fill:#000000;fill-opacity:1;fill-rule:nonzero;stroke:none"
             transform="translate(168.98438,60)"><tspan
               id="tspan68"
               y="0"
               x="0 8.0039062 14.003906 17.337891 21.333984 28.007812 34.007812 37.341797 40.675781 44.009766 50.683594 57.357422 60.691406 67.365234 71.361328 78.035156">Extract features</tspan></text>
<text
             id="text74"
             style="font-variant:normal;font-weight:normal;font-size:12px;font-family:ArialMT;-inkscape-font-specification:ArialMT;writing-mode:lr-tb;fill:#000000;fill-opacity:1;fill-rule:nonzero;stroke:none"
             transform="translate(181.65625,74)"><tspan
               id="tspan72"
               y="0"
               x="0 6.6738281 12.673828 19.347656 23.34375 26.677734 33.351562 36.017578 42.017578 48.691406 55.365234">over given </tspan></text>
<text
             id="text78"
             style="font-variant:normal;font-weight:normal;font-size:12px;font-family:ArialMT;-inkscape-font-specification:ArialMT;writing-mode:lr-tb;fill:#000000;fill-opacity:1;fill-rule:nonzero;stroke:none"
             transform="translate(181.98438,88)"><tspan
               id="tspan76"
               y="0"
               x="0 6.6738281 13.347656 19.347656 25.347656 32.021484 38.695312 42.029297 48.029297 54.703125">backup set</tspan></text>
</g><g
           transform="matrix(2.9897184,0,0,2.9897184,1.4948592,1.4948592)"
           id="g80"><path
             id="path82"
             style="fill:none;stroke:#000000;stroke-width:1;stroke-linecap:butt;stroke-linejoin:miter;stroke-miterlimit:10;stroke-dasharray:none;stroke-opacity:1"
             d="m 122,69 h 20 -5 13.63" /><path
             id="path84"
             style="fill:#000000;fill-opacity:1;fill-rule:nonzero;stroke:none"
             d="m 155.88,69 -7,3.5 1.75,-3.5 -1.75,-3.5 z" /><path
             id="path86"
             style="fill:none;stroke:#000000;stroke-width:1;stroke-linecap:butt;stroke-linejoin:miter;stroke-miterlimit:10;stroke-dasharray:none;stroke-opacity:1"
             d="m 155.88,69 -7,3.5 1.75,-3.5 -1.75,-3.5 z" /><path
             id="path88"
             style="fill:#b1ddf0;fill-opacity:1;fill-rule:nonzero;stroke:none"
             d="m 166,135 h 90 c 0.59094,0 1.17621,0.0576 1.7558,0.17293 0.57959,0.11528 1.14236,0.28599 1.68832,0.51214 0.54596,0.22615 1.06464,0.50338 1.556,0.8317 0.49134,0.32831 0.94596,0.7014 1.36383,1.11926 0.41788,0.41786 0.79096,0.87247 1.11927,1.36382 0.3283,0.49135 0.60553,1.01001 0.83169,1.55598 0.22617,0.54596 0.39688,1.10874 0.51215,1.68834 C 264.94235,142.82376 265,143.40904 265,144 v 42 c 0,0.59094 -0.0577,1.17621 -0.17294,1.7558 -0.1153,0.57957 -0.28601,1.14235 -0.51218,1.68832 -0.22613,0.54598 -0.50336,1.06464 -0.83166,1.55599 -0.32831,0.49135 -0.70139,0.94597 -1.11927,1.36383 -0.41787,0.41786 -0.87249,0.79094 -1.36386,1.11926 -0.49136,0.32832 -1.01001,0.60555 -1.55597,0.8317 -0.54596,0.22613 -1.10873,0.39685 -1.68832,0.51214 -0.57959,0.1153 -1.16486,0.17294 -1.7558,0.17296 h -90 c -0.59096,-2e-5 -1.17622,-0.0577 -1.75581,-0.17296 -0.57961,-0.11529 -1.1424,-0.28601 -1.68836,-0.51214 -0.54597,-0.22615 -1.06463,-0.50338 -1.55598,-0.8317 -0.49135,-0.32832 -0.94597,-0.7014 -1.36383,-1.11926 -0.41787,-0.41786 -0.79096,-0.87248 -1.11928,-1.36383 -0.32832,-0.49135 -0.60555,-1.01001 -0.8317,-1.55599 -0.22613,-0.54597 -0.39685,-1.10875 -0.51213,-1.68832 C 157.05763,187.17621 156.99998,186.59094 157,186 v -42 c -2e-5,-0.59096 0.0576,-1.17624 0.17291,-1.75583 0.11528,-0.5796 0.286,-1.14238 0.51213,-1.68834 0.22615,-0.54597 0.50338,-1.06463 0.83168,-1.55598 0.32833,-0.49135 0.70143,-0.94596 1.1193,-1.36382 0.41786,-0.41786 0.87248,-0.79095 1.36383,-1.11928 0.49135,-0.3283 1.01001,-0.60553 1.55598,-0.83168 0.54596,-0.22615 1.10875,-0.39686 1.68836,-0.51214 C 164.82378,135.05765 165.40904,135 166,135 Z" /><path
             id="path90"
             style="fill:none;stroke:#10739e;stroke-width:1;stroke-linecap:butt;stroke-linejoin:miter;stroke-miterlimit:10;stroke-dasharray:none;stroke-opacity:1"
             d="m 166,135 h 90 c 0.59094,0 1.17621,0.0576 1.7558,0.17293 0.57959,0.11528 1.14236,0.28599 1.68832,0.51214 0.54596,0.22615 1.06464,0.50338 1.556,0.8317 0.49134,0.32831 0.94596,0.7014 1.36383,1.11926 0.41788,0.41786 0.79096,0.87247 1.11927,1.36382 0.3283,0.49135 0.60553,1.01001 0.83169,1.55598 0.22617,0.54596 0.39688,1.10874 0.51215,1.68834 C 264.94235,142.82376 265,143.40904 265,144 v 42 c 0,0.59094 -0.0577,1.17621 -0.17294,1.7558 -0.1153,0.57957 -0.28601,1.14235 -0.51218,1.68832 -0.22613,0.54598 -0.50336,1.06464 -0.83166,1.55599 -0.32831,0.49135 -0.70139,0.94597 -1.11927,1.36383 -0.41787,0.41786 -0.87249,0.79094 -1.36386,1.11926 -0.49136,0.32832 -1.01001,0.60555 -1.55597,0.8317 -0.54596,0.22613 -1.10873,0.39685 -1.68832,0.51214 -0.57959,0.1153 -1.16486,0.17294 -1.7558,0.17296 h -90 c -0.59096,-2e-5 -1.17622,-0.0577 -1.75581,-0.17296 -0.57961,-0.11529 -1.1424,-0.28601 -1.68836,-0.51214 -0.54597,-0.22615 -1.06463,-0.50338 -1.55598,-0.8317 -0.49135,-0.32832 -0.94597,-0.7014 -1.36383,-1.11926 -0.41787,-0.41786 -0.79096,-0.87248 -1.11928,-1.36383 -0.32832,-0.49135 -0.60555,-1.01001 -0.8317,-1.55599 -0.22613,-0.54597 -0.39685,-1.10875 -0.51213,-1.68832 C 157.05763,187.17621 156.99998,186.59094 157,186 v -42 c -2e-5,-0.59096 0.0576,-1.17624 0.17291,-1.75583 0.11528,-0.5796 0.286,-1.14238 0.51213,-1.68834 0.22615,-0.54597 0.50338,-1.06463 0.83168,-1.55598 0.32833,-0.49135 0.70143,-0.94596 1.1193,-1.36382 0.41786,-0.41786 0.87248,-0.79095 1.36383,-1.11928 0.49135,-0.3283 1.01001,-0.60553 1.55598,-0.83168 0.54596,-0.22615 1.10875,-0.39686 1.68836,-0.51214 C 164.82378,135.05765 165.40904,135 166,135 Z" /></g><g
           transform="scale(2.9897184)"
           id="g92"><text
             id="text96"
             style="font-variant:normal;font-weight:normal;font-size:12px;font-family:ArialMT;-inkscape-font-specification:ArialMT;writing-mode:lr-tb;fill:#000000;fill-opacity:1;fill-rule:nonzero;stroke:none"
             transform="translate(171.98438,163)"><tspan
               id="tspan94"
               y="0"
               x="0 7.3300781 9.9960938 13.330078 16.664062 22.664062 28.664062 35.337891 38.003906 44.677734 48.673828 54.673828 58.007812 64.681641 71.355469">Fit scalers and</tspan></text>
<text
             id="text100"
             style="font-variant:normal;font-weight:normal;font-size:12px;font-family:ArialMT;-inkscape-font-specification:ArialMT;writing-mode:lr-tb;fill:#000000;fill-opacity:1;fill-rule:nonzero;stroke:none"
             transform="translate(170.98438,177)"><tspan
               id="tspan98"
               y="0"
               x="0 6.6738281 13.347656 17.34375 23.34375 30.017578 33.351562 36.685547 43.359375 50.033203 53.367188 60.041016 64.037109 70.710938 76.710938">parse features </tspan></text>
</g><g
           transform="matrix(2.9897184,0,0,2.9897184,1.4948592,1.4948592)"
           id="g102"><path
             id="path104"
             style="fill:none;stroke:#000000;stroke-width:1;stroke-linecap:butt;stroke-linejoin:miter;stroke-miterlimit:10;stroke-dasharray:none;stroke-opacity:1"
             d="m 211,99 v 20 -4 13.63" /><path
             id="path106"
             style="fill:#000000;fill-opacity:1;fill-rule:nonzero;stroke:none"
             d="m 211,133.88 -3.5,-7 3.5,1.75 3.5,-1.75 z" /><path
             id="path108"
             style="fill:none;stroke:#000000;stroke-width:1;stroke-linecap:butt;stroke-linejoin:miter;stroke-miterlimit:10;stroke-dasharray:none;stroke-opacity:1"
             d="m 211,133.88 -3.5,-7 3.5,1.75 3.5,-1.75 z" /><path
             id="path110"
             style="fill:#b1ddf0;fill-opacity:1;fill-rule:nonzero;stroke:none"
             d="m 23,135 h 90 c 0.59094,0 1.17621,0.0576 1.75581,0.17293 0.57959,0.11528 1.14236,0.28599 1.68833,0.51214 0.54596,0.22615 1.06462,0.50338 1.55597,0.8317 0.49136,0.32831 0.94597,0.7014 1.36384,1.11926 0.41787,0.41786 0.79095,0.87247 1.11927,1.36382 0.32831,0.49135 0.60554,1.01001 0.83168,1.55598 0.22615,0.54596 0.39687,1.10874 0.51216,1.68834 0.11529,0.57959 0.17293,1.16487 0.17294,1.75583 v 42 c -1e-5,0.59094 -0.0576,1.17621 -0.17294,1.7558 -0.11529,0.57957 -0.28601,1.14235 -0.51216,1.68832 -0.22614,0.54598 -0.50337,1.06464 -0.83168,1.55599 -0.32832,0.49135 -0.7014,0.94597 -1.11927,1.36383 -0.41787,0.41786 -0.87247,0.79094 -1.36383,1.11926 -0.49136,0.32832 -1.01002,0.60555 -1.55598,0.8317 -0.54597,0.22613 -1.10874,0.39685 -1.68833,0.51214 -0.5796,0.1153 -1.16487,0.17294 -1.75581,0.17296 H 23 c -0.59095,-2e-5 -1.176222,-0.0577 -1.755816,-0.17296 -0.579593,-0.11529 -1.142372,-0.28601 -1.688337,-0.51214 -0.545965,-0.22615 -1.064625,-0.50338 -1.555981,-0.8317 -0.491355,-0.32832 -0.945964,-0.7014 -1.363828,-1.11926 -0.417864,-0.41786 -0.790954,-0.87248 -1.119267,-1.36383 -0.328313,-0.49135 -0.605544,-1.01001 -0.831689,-1.55599 -0.226146,-0.54597 -0.396864,-1.10875 -0.512152,-1.68832 C 14.057642,187.17621 13.999999,186.59094 14,186 v -42 c -10e-7,-0.59096 0.05764,-1.17624 0.17293,-1.75583 0.115288,-0.5796 0.286006,-1.14238 0.512152,-1.68834 0.226145,-0.54597 0.503376,-1.06463 0.831689,-1.55598 0.328313,-0.49135 0.701403,-0.94596 1.119267,-1.36382 0.417864,-0.41786 0.872473,-0.79095 1.363828,-1.11928 0.491356,-0.3283 1.010016,-0.60553 1.555981,-0.83168 0.545965,-0.22615 1.108744,-0.39686 1.688337,-0.51214 C 21.823778,135.05765 22.40905,135 23,135 Z" /><path
             id="path112"
             style="fill:none;stroke:#10739e;stroke-width:1;stroke-linecap:butt;stroke-linejoin:miter;stroke-miterlimit:10;stroke-dasharray:none;stroke-opacity:1"
             d="m 23,135 h 90 c 0.59094,0 1.17621,0.0576 1.75581,0.17293 0.57959,0.11528 1.14236,0.28599 1.68833,0.51214 0.54596,0.22615 1.06462,0.50338 1.55597,0.8317 0.49136,0.32831 0.94597,0.7014 1.36384,1.11926 0.41787,0.41786 0.79095,0.87247 1.11927,1.36382 0.32831,0.49135 0.60554,1.01001 0.83168,1.55598 0.22615,0.54596 0.39687,1.10874 0.51216,1.68834 0.11529,0.57959 0.17293,1.16487 0.17294,1.75583 v 42 c -1e-5,0.59094 -0.0576,1.17621 -0.17294,1.7558 -0.11529,0.57957 -0.28601,1.14235 -0.51216,1.68832 -0.22614,0.54598 -0.50337,1.06464 -0.83168,1.55599 -0.32832,0.49135 -0.7014,0.94597 -1.11927,1.36383 -0.41787,0.41786 -0.87247,0.79094 -1.36383,1.11926 -0.49136,0.32832 -1.01002,0.60555 -1.55598,0.8317 -0.54597,0.22613 -1.10874,0.39685 -1.68833,0.51214 -0.5796,0.1153 -1.16487,0.17294 -1.75581,0.17296 H 23 c -0.59095,-2e-5 -1.176222,-0.0577 -1.755816,-0.17296 -0.579593,-0.11529 -1.142372,-0.28601 -1.688337,-0.51214 -0.545965,-0.22615 -1.064625,-0.50338 -1.555981,-0.8317 -0.491355,-0.32832 -0.945964,-0.7014 -1.363828,-1.11926 -0.417864,-0.41786 -0.790954,-0.87248 -1.119267,-1.36383 -0.328313,-0.49135 -0.605544,-1.01001 -0.831689,-1.55599 -0.226146,-0.54597 -0.396864,-1.10875 -0.512152,-1.68832 C 14.057642,187.17621 13.999999,186.59094 14,186 v -42 c -10e-7,-0.59096 0.05764,-1.17624 0.17293,-1.75583 0.115288,-0.5796 0.286006,-1.14238 0.512152,-1.68834 0.226145,-0.54597 0.503376,-1.06463 0.831689,-1.55598 0.328313,-0.49135 0.701403,-0.94596 1.119267,-1.36382 0.417864,-0.41786 0.872473,-0.79095 1.363828,-1.11928 0.491356,-0.3283 1.010016,-0.60553 1.555981,-0.83168 0.545965,-0.22615 1.108744,-0.39686 1.688337,-0.51214 C 21.823778,135.05765 22.40905,135 23,135 Z" /></g><g
           transform="scale(2.9897184)"
           id="g114"><text
             id="text118"
             style="font-variant:normal;font-weight:normal;font-size:12px;font-family:ArialMT;-inkscape-font-specification:ArialMT;writing-mode:lr-tb;fill:#000000;fill-opacity:1;fill-rule:nonzero;stroke:none"
             transform="translate(36.53125,170)"><tspan
               id="tspan116"
               y="0"
               x="0 6.8847656 10.880859 17.554688 20.220703 26.894531 30.228516 40.224609 46.898438 53.572266 60.246094">Train model</tspan></text>
</g><g
           transform="matrix(2.9897184,0,0,2.9897184,1.4948592,1.4948592)"
           id="g120"><path
             id="path122"
             style="fill:none;stroke:#000000;stroke-width:1;stroke-linecap:butt;stroke-linejoin:miter;stroke-miterlimit:10;stroke-dasharray:none;stroke-opacity:1"
             d="m 157,165 h -20 5 -13.63001" /><path
             id="path124"
             style="fill:#000000;fill-opacity:1;fill-rule:nonzero;stroke:none"
             d="m 123.12,165 6.99999,-3.5 -1.75,3.5 1.75,3.5 z" /><path
             id="path126"
             style="fill:none;stroke:#000000;stroke-width:1;stroke-linecap:butt;stroke-linejoin:miter;stroke-miterlimit:10;stroke-dasharray:none;stroke-opacity:1"
             d="m 123.12,165 6.99999,-3.5 -1.75,3.5 1.75,3.5 z" /><path
             id="path128"
             style="fill:none;stroke:#000000;stroke-width:1;stroke-linecap:butt;stroke-linejoin:miter;stroke-miterlimit:10;stroke-dasharray:none;stroke-opacity:1"
             d="m 470.5,221 v 58.13" /><path
             id="path130"
             style="fill:#000000;fill-opacity:1;fill-rule:nonzero;stroke:none"
             d="m 470.5,284.38 -3.5,-7 3.5,1.75 3.5,-1.75 z" /><path
             id="path132"
             style="fill:none;stroke:#000000;stroke-width:1;stroke-linecap:butt;stroke-linejoin:miter;stroke-miterlimit:10;stroke-dasharray:none;stroke-opacity:1"
             d="m 470.5,284.38 -3.5,-7 3.5,1.75 3.5,-1.75 z" /><path
             id="path134"
             style="fill:#d5e8d4;fill-opacity:1;fill-rule:nonzero;stroke:none"
             d="m 360,1 h 221 c 1.08075,0 2.15894,0.052968 3.23456,0.1589041 1.07556,0.105936 2.14337,0.2643299 3.20343,0.4751817 1.06,0.2108518 2.10711,0.4731461 3.14136,0.7868827 1.03424,0.3137372 2.05065,0.6774059 3.04913,1.0910065 0.9986,0.4136007 1.97443,0.8751419 2.92761,1.3846229 0.95319,0.5094809 1.87903,1.0644493 2.77765,1.6649041 0.89868,0.6004557 1.76575,1.2435064 2.60126,1.9291529 0.83539,0.6856471 1.63525,1.4105874 2.39947,2.1748211 0.76428,0.764234 1.4892,1.564083 2.17481,2.399547 0.68561,0.835461 1.32867,1.702514 1.92907,2.601159 0.60047,0.898643 1.15546,1.824552 1.66498,2.777725 0.50946,0.953172 0.97095,1.929018 1.38459,2.927538 0.41363,0.99852 0.77728,2.014906 1.09106,3.049158 0.31372,1.034252 0.57599,2.08139 0.78686,3.141413 0.21088,1.060024 0.36927,2.12783 0.47529,3.203418 C 613.94708,31.841021 614.00006,32.919209 614,34 v 154 c 6e-5,1.0808 -0.0529,2.159 -0.15887,3.23457 -0.10602,1.07558 -0.26441,2.14337 -0.47529,3.20339 -0.21087,1.06003 -0.47314,2.10716 -0.78686,3.14142 -0.31378,1.03425 -0.67743,2.05064 -1.09106,3.04916 -0.41364,0.99854 -0.87513,1.97438 -1.38459,2.92755 -0.50952,0.95317 -1.06451,1.87908 -1.66498,2.77771 -0.6004,0.89865 -1.24346,1.76572 -1.92907,2.60118 -0.68561,0.83547 -1.41053,1.6353 -2.17481,2.39954 -0.76422,0.76425 -1.56408,1.4892 -2.39947,2.17483 -0.83551,0.68564 -1.70258,1.32868 -2.60126,1.92913 -0.89862,0.60046 -1.82446,1.15544 -2.77765,1.66493 -0.95318,0.50947 -1.92901,0.97101 -2.92761,1.3846 -0.99848,0.4136 -2.01489,0.77728 -3.04913,1.09102 -1.03425,0.31373 -2.08136,0.57601 -3.14136,0.78686 -1.06006,0.21086 -2.12787,0.36926 -3.20343,0.4752 C 583.15894,220.94704 582.08075,221 581,221 H 360 c -1.08081,0 -2.159,-0.053 -3.23459,-0.15891 -1.07559,-0.10594 -2.1434,-0.26432 -3.20346,-0.47518 -1.06003,-0.21087 -2.10715,-0.47315 -3.14139,-0.78687 -1.03427,-0.31375 -2.05066,-0.67743 -3.04916,-1.09103 -0.99851,-0.41359 -1.97434,-0.87514 -2.92752,-1.38462 -0.95319,-0.50947 -1.87909,-1.06445 -2.77774,-1.6649 -0.89862,-0.60045 -1.76566,-1.2435 -2.60114,-1.92914 -0.83545,-0.68563 -1.63531,-1.41058 -2.39956,-2.17483 -0.76426,-0.76424 -1.4892,-1.56407 -2.17484,-2.39954 -0.68564,-0.83548 -1.3287,-1.70254 -1.92917,-2.60119 -0.60043,-0.89864 -1.15539,-1.82454 -1.66488,-2.77771 -0.5095,-0.95316 -0.97104,-1.929 -1.38465,-2.92754 -0.41357,-0.99852 -0.77722,-2.01491 -1.09097,-3.04916 -0.31372,-1.03426 -0.57602,-2.08139 -0.78687,-3.14142 -0.21084,-1.06002 -0.36923,-2.12783 -0.47515,-3.2034 C 327.05298,190.15898 327.00003,189.0808 327,188 V 34 c 3e-5,-1.080791 0.053,-2.158979 0.15891,-3.234566 0.10592,-1.075588 0.26431,-2.143394 0.47515,-3.203418 0.21085,-1.060023 0.47315,-2.107161 0.78687,-3.141413 0.31375,-1.034252 0.6774,-2.050638 1.09097,-3.04916 0.41361,-0.99852 0.87515,-1.974365 1.38465,-2.927538 0.50949,-0.953173 1.06448,-1.87908 1.66491,-2.777725 0.60047,-0.898643 1.24353,-1.765696 1.92917,-2.601159 0.68564,-0.835462 1.41055,-1.635311 2.17481,-2.399545 0.76425,-0.7642337 1.56411,-1.489174 2.39956,-2.1748211 0.83545,-0.6856465 1.70249,-1.3286972 2.60111,-1.9291529 0.89865,-0.6004548 1.82458,-1.1554232 2.77777,-1.6649046 0.95318,-0.509481 1.92901,-0.9710217 2.92752,-1.3846224 0.9985,-0.4136006 2.01489,-0.7772693 3.04916,-1.0910065 1.03424,-0.3137369 2.08136,-0.5760311 3.14139,-0.7868828 1.06006,-0.2108518 2.12787,-0.3692457 3.20346,-0.4751816 C 357.841,1.052968 358.91919,1 360,1 Z" /><path
             id="path136"
             style="fill:none;stroke:#82b366;stroke-width:1;stroke-linecap:butt;stroke-linejoin:miter;stroke-miterlimit:10;stroke-dasharray:none;stroke-opacity:1"
             d="m 360,1 h 221 c 1.08075,0 2.15894,0.052968 3.23456,0.1589041 1.07556,0.105936 2.14337,0.2643299 3.20343,0.4751817 1.06,0.2108518 2.10711,0.4731461 3.14136,0.7868827 1.03424,0.3137372 2.05065,0.6774059 3.04913,1.0910065 0.9986,0.4136007 1.97443,0.8751419 2.92761,1.3846229 0.95319,0.5094809 1.87903,1.0644493 2.77765,1.6649041 0.89868,0.6004557 1.76575,1.2435064 2.60126,1.9291529 0.83539,0.6856471 1.63525,1.4105874 2.39947,2.1748211 0.76428,0.764234 1.4892,1.564083 2.17481,2.399547 0.68561,0.835461 1.32867,1.702514 1.92907,2.601159 0.60047,0.898643 1.15546,1.824552 1.66498,2.777725 0.50946,0.953172 0.97095,1.929018 1.38459,2.927538 0.41363,0.99852 0.77728,2.014906 1.09106,3.049158 0.31372,1.034252 0.57599,2.08139 0.78686,3.141413 0.21088,1.060024 0.36927,2.12783 0.47529,3.203418 C 613.94708,31.841021 614.00006,32.919209 614,34 v 154 c 6e-5,1.0808 -0.0529,2.159 -0.15887,3.23457 -0.10602,1.07558 -0.26441,2.14337 -0.47529,3.20339 -0.21087,1.06003 -0.47314,2.10716 -0.78686,3.14142 -0.31378,1.03425 -0.67743,2.05064 -1.09106,3.04916 -0.41364,0.99854 -0.87513,1.97438 -1.38459,2.92755 -0.50952,0.95317 -1.06451,1.87908 -1.66498,2.77771 -0.6004,0.89865 -1.24346,1.76572 -1.92907,2.60118 -0.68561,0.83547 -1.41053,1.6353 -2.17481,2.39954 -0.76422,0.76425 -1.56408,1.4892 -2.39947,2.17483 -0.83551,0.68564 -1.70258,1.32868 -2.60126,1.92913 -0.89862,0.60046 -1.82446,1.15544 -2.77765,1.66493 -0.95318,0.50947 -1.92901,0.97101 -2.92761,1.3846 -0.99848,0.4136 -2.01489,0.77728 -3.04913,1.09102 -1.03425,0.31373 -2.08136,0.57601 -3.14136,0.78686 -1.06006,0.21086 -2.12787,0.36926 -3.20343,0.4752 C 583.15894,220.94704 582.08075,221 581,221 H 360 c -1.08081,0 -2.159,-0.053 -3.23459,-0.15891 -1.07559,-0.10594 -2.1434,-0.26432 -3.20346,-0.47518 -1.06003,-0.21087 -2.10715,-0.47315 -3.14139,-0.78687 -1.03427,-0.31375 -2.05066,-0.67743 -3.04916,-1.09103 -0.99851,-0.41359 -1.97434,-0.87514 -2.92752,-1.38462 -0.95319,-0.50947 -1.87909,-1.06445 -2.77774,-1.6649 -0.89862,-0.60045 -1.76566,-1.2435 -2.60114,-1.92914 -0.83545,-0.68563 -1.63531,-1.41058 -2.39956,-2.17483 -0.76426,-0.76424 -1.4892,-1.56407 -2.17484,-2.39954 -0.68564,-0.83548 -1.3287,-1.70254 -1.92917,-2.60119 -0.60043,-0.89864 -1.15539,-1.82454 -1.66488,-2.77771 -0.5095,-0.95316 -0.97104,-1.929 -1.38465,-2.92754 -0.41357,-0.99852 -0.77722,-2.01491 -1.09097,-3.04916 -0.31372,-1.03426 -0.57602,-2.08139 -0.78687,-3.14142 -0.21084,-1.06002 -0.36923,-2.12783 -0.47515,-3.2034 C 327.05298,190.15898 327.00003,189.0808 327,188 V 34 c 3e-5,-1.080791 0.053,-2.158979 0.15891,-3.234566 0.10592,-1.075588 0.26431,-2.143394 0.47515,-3.203418 0.21085,-1.060023 0.47315,-2.107161 0.78687,-3.141413 0.31375,-1.034252 0.6774,-2.050638 1.09097,-3.04916 0.41361,-0.99852 0.87515,-1.974365 1.38465,-2.927538 0.50949,-0.953173 1.06448,-1.87908 1.66491,-2.777725 0.60047,-0.898643 1.24353,-1.765696 1.92917,-2.601159 0.68564,-0.835462 1.41055,-1.635311 2.17481,-2.399545 0.76425,-0.7642337 1.56411,-1.489174 2.39956,-2.1748211 0.83545,-0.6856465 1.70249,-1.3286972 2.60111,-1.9291529 0.89865,-0.6004548 1.82458,-1.1554232 2.77777,-1.6649046 0.95318,-0.509481 1.92901,-0.9710217 2.92752,-1.3846224 0.9985,-0.4136006 2.01489,-0.7772693 3.04916,-1.0910065 1.03424,-0.3137369 2.08136,-0.5760311 3.14139,-0.7868828 1.06006,-0.2108518 2.12787,-0.3692457 3.20346,-0.4751816 C 357.841,1.052968 358.91919,1 360,1 Z" /></g><g
           transform="scale(2.9897184)"
           id="g138"><text
             id="text142"
             style="font-variant:normal;font-weight:normal;font-size:15px;font-family:ArialMT;-inkscape-font-specification:ArialMT;writing-mode:lr-tb;fill:#000000;fill-opacity:1;fill-rule:nonzero;stroke:none"
             transform="translate(343,25)"><tspan
               id="tspan140"
               y="0"
               x="0 10.83252 19.174805 24.169922 36.665039 45.007324 48.339844 52.507324 65.002441 73.344727 81.687012">Normal Mode</tspan></text>
</g><g
           transform="matrix(2.9897184,0,0,2.9897184,1.4948592,1.4948592)"
           id="g144"><path
             id="path146"
             style="fill:none;stroke:#000000;stroke-width:1;stroke-linecap:butt;stroke-linejoin:miter;stroke-miterlimit:10;stroke-dasharray:none;stroke-opacity:1"
             d="m 288,111 h 20 -1 13.63" /><path
             id="path148"
             style="fill:#000000;fill-opacity:1;fill-rule:nonzero;stroke:none"
             d="m 325.88,111 -7,3.5 1.75,-3.5 -1.75,-3.5 z" /><path
             id="path150"
             style="fill:none;stroke:#000000;stroke-width:1;stroke-linecap:butt;stroke-linejoin:miter;stroke-miterlimit:10;stroke-dasharray:none;stroke-opacity:1"
             d="m 325.88,111 -7,3.5 1.75,-3.5 -1.75,-3.5 z" /><path
             id="path152"
             style="fill:none;stroke:#000000;stroke-width:1;stroke-linecap:butt;stroke-linejoin:miter;stroke-miterlimit:10;stroke-dasharray:none;stroke-opacity:1"
             d="m 448,69 h 20 -14 13.63" /><path
             id="path154"
             style="fill:#000000;fill-opacity:1;fill-rule:nonzero;stroke:none"
             d="m 472.88,69 -7,3.5 1.75,-3.5 -1.75,-3.5 z" /><path
             id="path156"
             style="fill:none;stroke:#000000;stroke-width:1;stroke-linecap:butt;stroke-linejoin:miter;stroke-miterlimit:10;stroke-dasharray:none;stroke-opacity:1"
             d="m 472.88,69 -7,3.5 1.75,-3.5 -1.75,-3.5 z" /><path
             id="path158"
             style="fill:#cdeb8b;fill-opacity:1;fill-rule:nonzero;stroke:none"
             d="m 349,39 h 90 c 0.59094,0 1.17621,0.05764 1.7558,0.172932 0.57956,0.115287 1.1423,0.286003 1.68826,0.512149 0.54596,0.226147 1.06461,0.503376 1.55597,0.831692 0.49136,0.328312 0.94601,0.701397 1.36389,1.119263 0.41788,0.417862 0.79096,0.872471 1.11926,1.363827 0.32831,0.491356 0.60553,1.010017 0.83167,1.55598 0.22614,0.545967 0.39685,1.108746 0.51218,1.68834 C 447.94229,46.82378 447.99997,47.409054 448,48 v 42 c -3e-5,0.590942 -0.0577,1.176208 -0.173,1.755798 -0.1153,0.579598 -0.28601,1.142372 -0.51215,1.688332 -0.22614,0.545967 -0.50336,1.064629 -0.83167,1.555984 -0.3283,0.491356 -0.70138,0.945969 -1.11926,1.363839 -0.41788,0.417869 -0.8725,0.790954 -1.36386,1.11927 -0.49136,0.328316 -1.01004,0.605545 -1.556,0.831688 -0.54596,0.22615 -1.10873,0.396866 -1.68829,0.512146 C 440.17621,98.942352 439.59094,99 439,99 h -90 c -0.59097,0 -1.17624,-0.05765 -1.75586,-0.172935 -0.57962,-0.115288 -1.14239,-0.286004 -1.68832,-0.512154 -0.54596,-0.226143 -1.06461,-0.50338 -1.55597,-0.831696 -0.49137,-0.328308 -0.94596,-0.701393 -1.36383,-1.119262 -0.41788,-0.41787 -0.79099,-0.87249 -1.1193,-1.363846 -0.3283,-0.491356 -0.60553,-1.01001 -0.83166,-1.555977 -0.22617,-0.54596 -0.39688,-1.108734 -0.51215,-1.688332 C 340.05765,91.176208 340,90.590942 340,90 V 48 c 0,-0.590946 0.0577,-1.17622 0.17291,-1.755814 0.11527,-0.579593 0.28598,-1.142376 0.51215,-1.688343 0.22613,-0.545963 0.50336,-1.064624 0.83166,-1.555984 0.32831,-0.491352 0.70142,-0.945961 1.1193,-1.363823 0.41787,-0.417866 0.87246,-0.790955 1.36383,-1.119267 0.49136,-0.328312 1.01001,-0.605541 1.55597,-0.831688 0.54593,-0.226146 1.1087,-0.396862 1.68832,-0.512149 C 347.82376,39.057644 348.40903,39 349,39 Z" /><path
             id="path160"
             style="fill:none;stroke:#36393d;stroke-width:1;stroke-linecap:butt;stroke-linejoin:miter;stroke-miterlimit:10;stroke-dasharray:none;stroke-opacity:1"
             d="m 349,39 h 90 c 0.59094,0 1.17621,0.05764 1.7558,0.172932 0.57956,0.115287 1.1423,0.286003 1.68826,0.512149 0.54596,0.226147 1.06461,0.503376 1.55597,0.831692 0.49136,0.328312 0.94601,0.701397 1.36389,1.119263 0.41788,0.417862 0.79096,0.872471 1.11926,1.363827 0.32831,0.491356 0.60553,1.010017 0.83167,1.55598 0.22614,0.545967 0.39685,1.108746 0.51218,1.68834 C 447.94229,46.82378 447.99997,47.409054 448,48 v 42 c -3e-5,0.590942 -0.0577,1.176208 -0.173,1.755798 -0.1153,0.579598 -0.28601,1.142372 -0.51215,1.688332 -0.22614,0.545967 -0.50336,1.064629 -0.83167,1.555984 -0.3283,0.491356 -0.70138,0.945969 -1.11926,1.363839 -0.41788,0.417869 -0.8725,0.790954 -1.36386,1.11927 -0.49136,0.328316 -1.01004,0.605545 -1.556,0.831688 -0.54596,0.22615 -1.10873,0.396866 -1.68829,0.512146 C 440.17621,98.942352 439.59094,99 439,99 h -90 c -0.59097,0 -1.17624,-0.05765 -1.75586,-0.172935 -0.57962,-0.115288 -1.14239,-0.286004 -1.68832,-0.512154 -0.54596,-0.226143 -1.06461,-0.50338 -1.55597,-0.831696 -0.49137,-0.328308 -0.94596,-0.701393 -1.36383,-1.119262 -0.41788,-0.41787 -0.79099,-0.87249 -1.1193,-1.363846 -0.3283,-0.491356 -0.60553,-1.01001 -0.83166,-1.555977 -0.22617,-0.54596 -0.39688,-1.108734 -0.51215,-1.688332 C 340.05765,91.176208 340,90.590942 340,90 V 48 c 0,-0.590946 0.0577,-1.17622 0.17291,-1.755814 0.11527,-0.579593 0.28598,-1.142376 0.51215,-1.688343 0.22613,-0.545963 0.50336,-1.064624 0.83166,-1.555984 0.32831,-0.491352 0.70142,-0.945961 1.1193,-1.363823 0.41787,-0.417866 0.87246,-0.790955 1.36383,-1.119267 0.49136,-0.328312 1.01001,-0.605541 1.55597,-0.831688 0.54593,-0.226146 1.1087,-0.396862 1.68832,-0.512149 C 347.82376,39.057644 348.40903,39 349,39 Z" /></g><g
           transform="scale(2.9897184)"
           id="g162"><text
             id="text166"
             style="font-variant:normal;font-weight:normal;font-size:12px;font-family:ArialMT;-inkscape-font-specification:ArialMT;writing-mode:lr-tb;fill:#000000;fill-opacity:1;fill-rule:nonzero;stroke:none"
             transform="translate(360.98438,67)"><tspan
               id="tspan164"
               y="0"
               x="0 8.6660156 15.339844 24.005859 27.339844 34.013672 40.6875 46.6875 52.6875 59.361328">New backup</tspan></text>
<text
             id="text170"
             style="font-variant:normal;font-weight:normal;font-size:12px;font-family:ArialMT;-inkscape-font-specification:ArialMT;writing-mode:lr-tb;fill:#000000;fill-opacity:1;fill-rule:nonzero;stroke:none"
             transform="translate(372.65625,81)"><tspan
               id="tspan168"
               y="0"
               x="0 6.6738281 9.3398438 16.013672 26.009766 32.683594 39.357422">element</tspan></text>
</g><g
           transform="matrix(2.9897184,0,0,2.9897184,1.4948592,1.4948592)"
           id="g172"><path
             id="path174"
             style="fill:none;stroke:#000000;stroke-width:1;stroke-linecap:butt;stroke-linejoin:miter;stroke-miterlimit:10;stroke-dasharray:none;stroke-opacity:1"
             d="m 528,99 v 20 -4 13.63" /><path
             id="path176"
             style="fill:#000000;fill-opacity:1;fill-rule:nonzero;stroke:none"
             d="m 528,133.88 -3.5,-7 3.5,1.75 3.5,-1.75 z" /><path
             id="path178"
             style="fill:none;stroke:#000000;stroke-width:1;stroke-linecap:butt;stroke-linejoin:miter;stroke-miterlimit:10;stroke-dasharray:none;stroke-opacity:1"
             d="m 528,133.88 -3.5,-7 3.5,1.75 3.5,-1.75 z" /><path
             id="path180"
             style="fill:#cdeb8b;fill-opacity:1;fill-rule:nonzero;stroke:none"
             d="m 483,39 h 90 c 0.59094,0 1.17621,0.05764 1.75574,0.172932 0.57959,0.115287 1.14239,0.286003 1.68835,0.512149 0.54596,0.226147 1.06458,0.503376 1.55597,0.831692 0.4914,0.328312 0.94598,0.701397 1.36383,1.119263 0.41785,0.417862 0.79096,0.872471 1.11926,1.363827 0.32831,0.491356 0.6056,1.010017 0.83173,1.55598 0.22614,0.545967 0.39685,1.108746 0.51215,1.68834 C 581.94232,46.82378 582,47.409054 582,48 v 42 c 0,0.590942 -0.0577,1.176208 -0.17297,1.755798 -0.1153,0.579598 -0.28601,1.142372 -0.51215,1.688332 -0.22613,0.545967 -0.50342,1.064629 -0.83173,1.555984 -0.3283,0.491356 -0.70141,0.945969 -1.11926,1.363839 -0.41785,0.417869 -0.87243,0.790954 -1.36383,1.11927 -0.49139,0.328316 -1.01001,0.605545 -1.55597,0.831688 -0.54596,0.22615 -1.10876,0.396866 -1.68835,0.512146 C 574.17621,98.942352 573.59094,99 573,99 h -90 c -0.59097,0 -1.17624,-0.05765 -1.75586,-0.172935 -0.57962,-0.115288 -1.14239,-0.286004 -1.68835,-0.512154 -0.54596,-0.226143 -1.06461,-0.50338 -1.55597,-0.831696 -0.49137,-0.328308 -0.94596,-0.701393 -1.36383,-1.119262 -0.41788,-0.41787 -0.79099,-0.87249 -1.1193,-1.363846 -0.32834,-0.491356 -0.60556,-1.01001 -0.83169,-1.555977 -0.22617,-0.54596 -0.39688,-1.108734 -0.51215,-1.688332 C 474.05759,91.176208 473.99997,90.590942 474,90 V 48 c -3e-5,-0.590946 0.0576,-1.17622 0.17285,-1.755814 0.11527,-0.579593 0.28598,-1.142376 0.51215,-1.688343 0.22613,-0.545963 0.50335,-1.064624 0.83169,-1.555984 0.32831,-0.491352 0.70142,-0.945961 1.1193,-1.363823 0.41787,-0.417866 0.87246,-0.790955 1.36383,-1.119267 0.49136,-0.328312 1.01001,-0.605541 1.55597,-0.831688 0.54596,-0.226146 1.10873,-0.396862 1.68835,-0.512149 C 481.82376,39.057644 482.40903,39 483,39 Z" /><path
             id="path182"
             style="fill:none;stroke:#36393d;stroke-width:1;stroke-linecap:butt;stroke-linejoin:miter;stroke-miterlimit:10;stroke-dasharray:none;stroke-opacity:1"
             d="m 483,39 h 90 c 0.59094,0 1.17621,0.05764 1.75574,0.172932 0.57959,0.115287 1.14239,0.286003 1.68835,0.512149 0.54596,0.226147 1.06458,0.503376 1.55597,0.831692 0.4914,0.328312 0.94598,0.701397 1.36383,1.119263 0.41785,0.417862 0.79096,0.872471 1.11926,1.363827 0.32831,0.491356 0.6056,1.010017 0.83173,1.55598 0.22614,0.545967 0.39685,1.108746 0.51215,1.68834 C 581.94232,46.82378 582,47.409054 582,48 v 42 c 0,0.590942 -0.0577,1.176208 -0.17297,1.755798 -0.1153,0.579598 -0.28601,1.142372 -0.51215,1.688332 -0.22613,0.545967 -0.50342,1.064629 -0.83173,1.555984 -0.3283,0.491356 -0.70141,0.945969 -1.11926,1.363839 -0.41785,0.417869 -0.87243,0.790954 -1.36383,1.11927 -0.49139,0.328316 -1.01001,0.605545 -1.55597,0.831688 -0.54596,0.22615 -1.10876,0.396866 -1.68835,0.512146 C 574.17621,98.942352 573.59094,99 573,99 h -90 c -0.59097,0 -1.17624,-0.05765 -1.75586,-0.172935 -0.57962,-0.115288 -1.14239,-0.286004 -1.68835,-0.512154 -0.54596,-0.226143 -1.06461,-0.50338 -1.55597,-0.831696 -0.49137,-0.328308 -0.94596,-0.701393 -1.36383,-1.119262 -0.41788,-0.41787 -0.79099,-0.87249 -1.1193,-1.363846 -0.32834,-0.491356 -0.60556,-1.01001 -0.83169,-1.555977 -0.22617,-0.54596 -0.39688,-1.108734 -0.51215,-1.688332 C 474.05759,91.176208 473.99997,90.590942 474,90 V 48 c -3e-5,-0.590946 0.0576,-1.17622 0.17285,-1.755814 0.11527,-0.579593 0.28598,-1.142376 0.51215,-1.688343 0.22613,-0.545963 0.50335,-1.064624 0.83169,-1.555984 0.32831,-0.491352 0.70142,-0.945961 1.1193,-1.363823 0.41787,-0.417866 0.87246,-0.790955 1.36383,-1.119267 0.49136,-0.328312 1.01001,-0.605541 1.55597,-0.831688 0.54596,-0.226146 1.10873,-0.396862 1.68835,-0.512149 C 481.82376,39.057644 482.40903,39 483,39 Z" /></g><g
           transform="scale(2.9897184)"
           id="g184"><text
             id="text188"
             style="font-variant:normal;font-weight:normal;font-size:12px;font-family:ArialMT;-inkscape-font-specification:ArialMT;writing-mode:lr-tb;fill:#000000;fill-opacity:1;fill-rule:nonzero;stroke:none"
             transform="translate(485.98438,60)"><tspan
               id="tspan186"
               y="0"
               x="0 8.0039062 14.003906 17.337891 21.333984 28.007812 34.007812 37.341797 40.675781 44.009766 50.683594 57.357422 60.691406 67.365234 71.361328 78.035156">Extract features</tspan></text>
<text
             id="text192"
             style="font-variant:normal;font-weight:normal;font-size:12px;font-family:ArialMT;-inkscape-font-specification:ArialMT;writing-mode:lr-tb;fill:#000000;fill-opacity:1;fill-rule:nonzero;stroke:none"
             transform="translate(492.64063,74)"><tspan
               id="tspan190"
               y="0"
               x="0 6.6738281 9.3398438 15.339844 22.013672 28.6875 32.021484 35.355469 42.029297 48.703125 52.037109 54.703125 61.376953 67.376953">given the last</tspan></text>
<text
             id="text196"
             style="font-variant:normal;font-weight:normal;font-size:12px;font-family:ArialMT;-inkscape-font-specification:ArialMT;writing-mode:lr-tb;fill:#000000;fill-opacity:1;fill-rule:nonzero;stroke:none"
             transform="translate(508.65625,88)"><tspan
               id="tspan194"
               y="0"
               x="0 6.6738281 13.347656 19.347656 25.347656 32.021484">backup</tspan></text>
</g><g
           transform="matrix(2.9897184,0,0,2.9897184,1.4948592,1.4948592)"
           id="g198"><path
             id="path200"
             style="fill:none;stroke:#000000;stroke-width:1;stroke-linecap:butt;stroke-linejoin:miter;stroke-miterlimit:10;stroke-dasharray:none;stroke-opacity:1"
             d="m 474,165 h -20 14 -13.63" /><path
             id="path202"
             style="fill:#000000;fill-opacity:1;fill-rule:nonzero;stroke:none"
             d="m 449.12,165 7,-3.5 -1.75,3.5 1.75,3.5 z" /><path
             id="path204"
             style="fill:none;stroke:#000000;stroke-width:1;stroke-linecap:butt;stroke-linejoin:miter;stroke-miterlimit:10;stroke-dasharray:none;stroke-opacity:1"
             d="m 449.12,165 7,-3.5 -1.75,3.5 1.75,3.5 z" /><path
             id="path206"
             style="fill:#cdeb8b;fill-opacity:1;fill-rule:nonzero;stroke:none"
             d="m 483,135 h 90 c 0.59094,0 1.17621,0.0576 1.75574,0.17293 0.57959,0.11528 1.14239,0.28599 1.68835,0.51214 0.54596,0.22615 1.06458,0.50338 1.55597,0.8317 0.4914,0.32831 0.94598,0.7014 1.36383,1.11926 0.41785,0.41786 0.79096,0.87247 1.11926,1.36382 0.32831,0.49135 0.6056,1.01001 0.83173,1.55598 0.22614,0.54596 0.39685,1.10874 0.51215,1.68834 C 581.94232,142.82376 582,143.40904 582,144 v 42 c 0,0.59094 -0.0577,1.17621 -0.17297,1.7558 -0.1153,0.57957 -0.28601,1.14235 -0.51215,1.68832 -0.22613,0.54598 -0.50342,1.06464 -0.83173,1.55599 -0.3283,0.49135 -0.70141,0.94597 -1.11926,1.36383 -0.41785,0.41786 -0.87243,0.79094 -1.36383,1.11926 -0.49139,0.32832 -1.01001,0.60555 -1.55597,0.8317 -0.54596,0.22613 -1.10876,0.39685 -1.68835,0.51214 -0.57953,0.1153 -1.1648,0.17294 -1.75574,0.17296 h -90 c -0.59097,-2e-5 -1.17624,-0.0577 -1.75586,-0.17296 -0.57962,-0.11529 -1.14239,-0.28601 -1.68835,-0.51214 -0.54596,-0.22615 -1.06461,-0.50338 -1.55597,-0.8317 -0.49137,-0.32832 -0.94596,-0.7014 -1.36383,-1.11926 -0.41788,-0.41786 -0.79099,-0.87248 -1.1193,-1.36383 -0.32834,-0.49135 -0.60556,-1.01001 -0.83169,-1.55599 -0.22617,-0.54597 -0.39688,-1.10875 -0.51215,-1.68832 C 474.05759,187.17621 473.99997,186.59094 474,186 v -42 c -3e-5,-0.59096 0.0576,-1.17624 0.17285,-1.75583 0.11527,-0.5796 0.28598,-1.14238 0.51215,-1.68834 0.22613,-0.54597 0.50335,-1.06463 0.83169,-1.55598 0.32831,-0.49135 0.70142,-0.94596 1.1193,-1.36382 0.41787,-0.41786 0.87246,-0.79095 1.36383,-1.11928 0.49136,-0.3283 1.01001,-0.60553 1.55597,-0.83168 0.54596,-0.22615 1.10873,-0.39686 1.68835,-0.51214 C 481.82376,135.05765 482.40903,135 483,135 Z" /><path
             id="path208"
             style="fill:none;stroke:#36393d;stroke-width:1;stroke-linecap:butt;stroke-linejoin:miter;stroke-miterlimit:10;stroke-dasharray:none;stroke-opacity:1"
             d="m 483,135 h 90 c 0.59094,0 1.17621,0.0576 1.75574,0.17293 0.57959,0.11528 1.14239,0.28599 1.68835,0.51214 0.54596,0.22615 1.06458,0.50338 1.55597,0.8317 0.4914,0.32831 0.94598,0.7014 1.36383,1.11926 0.41785,0.41786 0.79096,0.87247 1.11926,1.36382 0.32831,0.49135 0.6056,1.01001 0.83173,1.55598 0.22614,0.54596 0.39685,1.10874 0.51215,1.68834 C 581.94232,142.82376 582,143.40904 582,144 v 42 c 0,0.59094 -0.0577,1.17621 -0.17297,1.7558 -0.1153,0.57957 -0.28601,1.14235 -0.51215,1.68832 -0.22613,0.54598 -0.50342,1.06464 -0.83173,1.55599 -0.3283,0.49135 -0.70141,0.94597 -1.11926,1.36383 -0.41785,0.41786 -0.87243,0.79094 -1.36383,1.11926 -0.49139,0.32832 -1.01001,0.60555 -1.55597,0.8317 -0.54596,0.22613 -1.10876,0.39685 -1.68835,0.51214 -0.57953,0.1153 -1.1648,0.17294 -1.75574,0.17296 h -90 c -0.59097,-2e-5 -1.17624,-0.0577 -1.75586,-0.17296 -0.57962,-0.11529 -1.14239,-0.28601 -1.68835,-0.51214 -0.54596,-0.22615 -1.06461,-0.50338 -1.55597,-0.8317 -0.49137,-0.32832 -0.94596,-0.7014 -1.36383,-1.11926 -0.41788,-0.41786 -0.79099,-0.87248 -1.1193,-1.36383 -0.32834,-0.49135 -0.60556,-1.01001 -0.83169,-1.55599 -0.22617,-0.54597 -0.39688,-1.10875 -0.51215,-1.68832 C 474.05759,187.17621 473.99997,186.59094 474,186 v -42 c -3e-5,-0.59096 0.0576,-1.17624 0.17285,-1.75583 0.11527,-0.5796 0.28598,-1.14238 0.51215,-1.68834 0.22613,-0.54597 0.50335,-1.06463 0.83169,-1.55598 0.32831,-0.49135 0.70142,-0.94596 1.1193,-1.36382 0.41787,-0.41786 0.87246,-0.79095 1.36383,-1.11928 0.49136,-0.3283 1.01001,-0.60553 1.55597,-0.83168 0.54596,-0.22615 1.10873,-0.39686 1.68835,-0.51214 C 481.82376,135.05765 482.40903,135 483,135 Z" /></g><g
           transform="scale(2.9897184)"
           id="g210"><text
             id="text214"
             style="font-variant:normal;font-weight:normal;font-size:12px;font-family:ArialMT;-inkscape-font-specification:ArialMT;writing-mode:lr-tb;fill:#000000;fill-opacity:1;fill-rule:nonzero;stroke:none"
             transform="translate(489.64063,156)"><tspan
               id="tspan212"
               y="0"
               x="0 8.0039062 14.003906 20.677734 23.34375 30.017578 33.351562 36.685547 43.359375 50.033203 53.367188 60.041016 64.037109 70.710938">Scale features</tspan></text>
<text
             id="text218"
             style="font-variant:normal;font-weight:normal;font-size:12px;font-family:ArialMT;-inkscape-font-specification:ArialMT;writing-mode:lr-tb;fill:#000000;fill-opacity:1;fill-rule:nonzero;stroke:none"
             transform="translate(484.98438,170)"><tspan
               id="tspan216"
               y="0"
               x="0 6.6738281 9.3398438 15.339844 22.013672 28.6875 32.021484 38.695312 42.691406 49.365234 55.365234 58.03125 64.705078 71.378906 77.378906 80.044922">given previously</tspan></text>
<text
             id="text222"
             style="font-variant:normal;font-weight:normal;font-size:12px;font-family:ArialMT;-inkscape-font-specification:ArialMT;writing-mode:lr-tb;fill:#000000;fill-opacity:1;fill-rule:nonzero;stroke:none"
             transform="translate(490.65625,184)"><tspan
               id="tspan220"
               y="0"
               x="0 6 9.3339844 16.007812 20.003906 26.677734 33.351562 36.685547 42.685547 48.685547 55.359375 58.025391 64.699219 68.695312">stored scalars</tspan></text>
</g><g
           transform="matrix(2.9897184,0,0,2.9897184,1.4948592,1.4948592)"
           id="g224"><path
             id="path226"
             style="fill:#cdeb8b;fill-opacity:1;fill-rule:nonzero;stroke:none"
             d="m 349,135 h 90 c 0.59094,0 1.17621,0.0576 1.7558,0.17293 0.57956,0.11528 1.1423,0.28599 1.68826,0.51214 0.54596,0.22615 1.06461,0.50338 1.55597,0.8317 0.49136,0.32831 0.94601,0.7014 1.36389,1.11926 0.41788,0.41786 0.79096,0.87247 1.11926,1.36382 0.32831,0.49135 0.60553,1.01001 0.83167,1.55598 0.22614,0.54596 0.39685,1.10874 0.51218,1.68834 0.11526,0.57959 0.17294,1.16487 0.17297,1.75583 v 42 c -3e-5,0.59094 -0.0577,1.17621 -0.173,1.7558 -0.1153,0.57957 -0.28601,1.14235 -0.51215,1.68832 -0.22614,0.54598 -0.50336,1.06464 -0.83167,1.55599 -0.3283,0.49135 -0.70138,0.94597 -1.11926,1.36383 -0.41788,0.41786 -0.8725,0.79094 -1.36386,1.11926 -0.49136,0.32832 -1.01004,0.60555 -1.556,0.8317 -0.54596,0.22613 -1.10873,0.39685 -1.68829,0.51214 -0.57956,0.1153 -1.16483,0.17294 -1.75577,0.17296 h -90 c -0.59097,-2e-5 -1.17624,-0.0577 -1.75586,-0.17296 -0.57962,-0.11529 -1.14239,-0.28601 -1.68832,-0.51214 -0.54596,-0.22615 -1.06461,-0.50338 -1.55597,-0.8317 -0.49137,-0.32832 -0.94596,-0.7014 -1.36383,-1.11926 -0.41788,-0.41786 -0.79099,-0.87248 -1.1193,-1.36383 -0.3283,-0.49135 -0.60553,-1.01001 -0.83166,-1.55599 -0.22617,-0.54597 -0.39688,-1.10875 -0.51215,-1.68832 C 340.05765,187.17621 340,186.59094 340,186 v -42 c 0,-0.59096 0.0577,-1.17624 0.17291,-1.75583 0.11527,-0.5796 0.28598,-1.14238 0.51215,-1.68834 0.22613,-0.54597 0.50336,-1.06463 0.83166,-1.55598 0.32831,-0.49135 0.70142,-0.94596 1.1193,-1.36382 0.41787,-0.41786 0.87246,-0.79095 1.36383,-1.11928 0.49136,-0.3283 1.01001,-0.60553 1.55597,-0.83168 0.54593,-0.22615 1.1087,-0.39686 1.68832,-0.51214 C 347.82376,135.05765 348.40903,135 349,135 Z" /><path
             id="path228"
             style="fill:none;stroke:#36393d;stroke-width:1;stroke-linecap:butt;stroke-linejoin:miter;stroke-miterlimit:10;stroke-dasharray:none;stroke-opacity:1"
             d="m 349,135 h 90 c 0.59094,0 1.17621,0.0576 1.7558,0.17293 0.57956,0.11528 1.1423,0.28599 1.68826,0.51214 0.54596,0.22615 1.06461,0.50338 1.55597,0.8317 0.49136,0.32831 0.94601,0.7014 1.36389,1.11926 0.41788,0.41786 0.79096,0.87247 1.11926,1.36382 0.32831,0.49135 0.60553,1.01001 0.83167,1.55598 0.22614,0.54596 0.39685,1.10874 0.51218,1.68834 0.11526,0.57959 0.17294,1.16487 0.17297,1.75583 v 42 c -3e-5,0.59094 -0.0577,1.17621 -0.173,1.7558 -0.1153,0.57957 -0.28601,1.14235 -0.51215,1.68832 -0.22614,0.54598 -0.50336,1.06464 -0.83167,1.55599 -0.3283,0.49135 -0.70138,0.94597 -1.11926,1.36383 -0.41788,0.41786 -0.8725,0.79094 -1.36386,1.11926 -0.49136,0.32832 -1.01004,0.60555 -1.556,0.8317 -0.54596,0.22613 -1.10873,0.39685 -1.68829,0.51214 -0.57956,0.1153 -1.16483,0.17294 -1.75577,0.17296 h -90 c -0.59097,-2e-5 -1.17624,-0.0577 -1.75586,-0.17296 -0.57962,-0.11529 -1.14239,-0.28601 -1.68832,-0.51214 -0.54596,-0.22615 -1.06461,-0.50338 -1.55597,-0.8317 -0.49137,-0.32832 -0.94596,-0.7014 -1.36383,-1.11926 -0.41788,-0.41786 -0.79099,-0.87248 -1.1193,-1.36383 -0.3283,-0.49135 -0.60553,-1.01001 -0.83166,-1.55599 -0.22617,-0.54597 -0.39688,-1.10875 -0.51215,-1.68832 C 340.05765,187.17621 340,186.59094 340,186 v -42 c 0,-0.59096 0.0577,-1.17624 0.17291,-1.75583 0.11527,-0.5796 0.28598,-1.14238 0.51215,-1.68834 0.22613,-0.54597 0.50336,-1.06463 0.83166,-1.55598 0.32831,-0.49135 0.70142,-0.94596 1.1193,-1.36382 0.41787,-0.41786 0.87246,-0.79095 1.36383,-1.11928 0.49136,-0.3283 1.01001,-0.60553 1.55597,-0.83168 0.54593,-0.22615 1.1087,-0.39686 1.68832,-0.51214 C 347.82376,135.05765 348.40903,135 349,135 Z" /></g><g
           transform="scale(2.9897184)"
           id="g230"><text
             id="text234"
             style="font-variant:normal;font-weight:normal;font-size:12px;font-family:ArialMT;-inkscape-font-specification:ArialMT;writing-mode:lr-tb;fill:#000000;fill-opacity:1;fill-rule:nonzero;stroke:none"
             transform="translate(366.3125,156)"><tspan
               id="tspan232"
               y="0"
               x="0 9.3339844 16.007812 19.341797 22.675781 29.349609 36.023438 39.357422 42.023438 44.689453 51.363281">Get outlier</tspan></text>
<text
             id="text238"
             style="font-variant:normal;font-weight:normal;font-size:12px;font-family:ArialMT;-inkscape-font-specification:ArialMT;writing-mode:lr-tb;fill:#000000;fill-opacity:1;fill-rule:nonzero;stroke:none"
             transform="translate(366.3125,170)"><tspan
               id="tspan236"
               y="0"
               x="0 6.6738281 10.669922 17.34375 24.017578 26.683594 32.683594 36.017578 38.683594 45.357422 52.03125">prediction,</tspan></text>
<text
             id="text242"
             style="font-variant:normal;font-weight:normal;font-size:12px;font-family:ArialMT;-inkscape-font-specification:ArialMT;writing-mode:lr-tb;fill:#000000;fill-opacity:1;fill-rule:nonzero;stroke:none"
             transform="translate(350.96875,184)"><tspan
               id="tspan240"
               y="0"
               x="0 6 12.673828 19.347656 22.681641 25.347656 32.021484 38.695312 45.369141 51.369141 58.042969 61.376953 64.042969 70.716797 76.716797 83.390625">confidence level</tspan></text>
</g><g
           transform="matrix(2.9897184,0,0,2.9897184,1.4948592,1.4948592)"
           id="g244"><path
             id="path246"
             style="fill:none;stroke:#000000;stroke-width:1;stroke-linecap:butt;stroke-linejoin:miter;stroke-miterlimit:10;stroke-dasharray:none;stroke-opacity:1"
             d="m 490.5,305.5 h 37.13" /><path
             id="path248"
             style="fill:#000000;fill-opacity:1;fill-rule:nonzero;stroke:none"
             d="m 532.88,305.5 -7,3.5 1.75,-3.5 -1.75,-3.5 z" /><path
             id="path250"
             style="fill:none;stroke:#000000;stroke-width:1;stroke-linecap:butt;stroke-linejoin:miter;stroke-miterlimit:10;stroke-dasharray:none;stroke-opacity:1"
             d="m 532.88,305.5 -7,3.5 1.75,-3.5 -1.75,-3.5 z" /><path
             id="path252"
             style="fill:none;stroke:#000000;stroke-width:1;stroke-linecap:butt;stroke-linejoin:miter;stroke-miterlimit:10;stroke-dasharray:none;stroke-opacity:1"
             d="M 450.5,305.5 H 409.37" /><path
             id="path254"
             style="fill:#000000;fill-opacity:1;fill-rule:nonzero;stroke:none"
             d="m 404.12,305.5 7,-3.5 -1.75,3.5 1.75,3.5 z" /><path
             id="path256"
             style="fill:none;stroke:#000000;stroke-width:1;stroke-linecap:butt;stroke-linejoin:miter;stroke-miterlimit:10;stroke-dasharray:none;stroke-opacity:1"
             d="m 404.12,305.5 7,-3.5 -1.75,3.5 1.75,3.5 z" /><path
             id="path258"
             style="fill:#ffcccc;fill-opacity:1;fill-rule:nonzero;stroke:none"
             d="m 460.5,295.5 5,-5 c 3.33334,-3.33334 7.35666,-2.64334 12.07001,2.07001 l 6.47,6.47 c 4.30667,4.30667 4.10333,8.81665 -0.61002,13.53 l -6.47,6.47 c -4.30667,4.30667 -8.81665,4.10333 -13.53,-0.61002 l -6.47,-6.47 C 452.65332,307.65332 452.16666,303.83334 455.5,300.5 Z" /><path
             id="path260"
             style="fill:none;stroke:#36393d;stroke-width:1;stroke-linecap:butt;stroke-linejoin:miter;stroke-miterlimit:10;stroke-dasharray:none;stroke-opacity:1"
             d="m 460.5,295.5 5,-5 c 3.33334,-3.33334 7.35666,-2.64334 12.07001,2.07001 l 6.47,6.47 c 4.30667,4.30667 4.10333,8.81665 -0.61002,13.53 l -6.47,6.47 c -4.30667,4.30667 -8.81665,4.10333 -13.53,-0.61002 l -6.47,-6.47 C 452.65332,307.65332 452.16666,303.83334 455.5,300.5 Z" /></g><g
           transform="scale(2.9897184)"
           id="g262"><text
             id="text266"
             style="font-variant:normal;font-weight:normal;font-size:15px;font-family:ArialMT;-inkscape-font-specification:ArialMT;writing-mode:lr-tb;fill:#000000;fill-opacity:1;fill-rule:nonzero;stroke:none"
             transform="translate(425.54688,344)"><tspan
               id="tspan264"
               y="0"
               x="0 10.83252 19.174805 27.51709 31.68457 35.01709 43.359375 51.70166 60.043945 68.38623 75.88623 79.21875 86.71875">Continuously </tspan></text>
<text
             id="text270"
             style="font-variant:normal;font-weight:normal;font-size:15px;font-family:ArialMT;-inkscape-font-specification:ArialMT;writing-mode:lr-tb;fill:#000000;fill-opacity:1;fill-rule:nonzero;stroke:none"
             transform="translate(433.89063,362)"><tspan
               id="tspan268"
               y="0"
               x="0 4.1674805 9.1625977 17.504883 20.837402 29.179688 33.347168 45.842285 54.18457 62.526855 70.869141">train model</tspan></text>
</g><g
           transform="matrix(2.9897184,0,0,2.9897184,1.4948592,1.4948592)"
           id="g272"><path
             id="path274"
             style="fill:#ffcccc;fill-opacity:1;fill-rule:nonzero;stroke:none"
             d="m 582,305.5 c 6e-5,0.8024 -0.0385,1.60287 -0.11554,2.40143 -0.0771,0.79855 -0.19226,1.59131 -0.34564,2.37826 -0.15338,0.78699 -0.34412,1.56443 -0.57227,2.33228 -0.22821,0.76785 -0.49267,1.52243 -0.79352,2.26373 -0.30078,0.74137 -0.63641,1.46585 -1.00695,2.17352 -0.37055,0.70768 -0.77417,1.39509 -1.21088,2.06223 -0.43665,0.66718 -0.9043,1.31091 -1.40295,1.93118 -0.49866,0.62027 -1.02588,1.21408 -1.58173,1.78147 -0.55585,0.56741 -1.13757,1.10562 -1.74518,1.61465 -0.60754,0.50903 -1.2381,0.98645 -1.89172,1.43222 -0.65351,0.44583 -1.32691,0.85785 -2.02014,1.23606 -0.69324,0.37826 -1.40296,0.72091 -2.12915,1.02795 -0.7262,0.3071 -1.46534,0.57709 -2.21747,0.81 -0.75226,0.23294 -1.5138,0.4277 -2.28473,0.58423 -0.77088,0.15655 -1.54743,0.27417 -2.32965,0.35281 C 559.57019,329.96066 558.78607,330 558,330 c -0.78601,0 -1.57013,-0.0393 -2.35242,-0.11798 -0.78228,-0.0786 -1.5589,-0.19626 -2.32983,-0.35281 -0.77094,-0.15653 -1.53247,-0.35126 -2.28467,-0.5842 -0.75214,-0.23294 -1.49133,-0.50293 -2.21759,-0.81003 -0.72613,-0.30704 -1.43585,-0.64969 -2.12903,-1.02795 -0.69323,-0.37821 -1.36664,-0.79023 -2.02026,-1.23606 -0.6535,-0.44577 -1.28412,-0.92319 -1.89172,-1.43222 -0.60761,-0.50903 -1.18927,-1.04724 -1.74512,-1.61465 -0.55579,-0.56739 -1.08301,-1.1612 -1.58167,-1.78147 -0.49865,-0.62027 -0.96631,-1.264 -1.40301,-1.93118 -0.43671,-0.66714 -0.84027,-1.35455 -1.21082,-2.06223 -0.37054,-0.70767 -0.70624,-1.43215 -1.00702,-2.17352 -0.30078,-0.7413 -0.56524,-1.49591 -0.79339,-2.26376 -0.22821,-0.76785 -0.41895,-1.54526 -0.57233,-2.33225 -0.15338,-0.78695 -0.26855,-1.57971 -0.34552,-2.37826 C 534.03851,307.10287 534,306.3024 534,305.5 c 0,-0.8024 0.0385,-1.60284 0.1156,-2.4014 0.077,-0.79855 0.19214,-1.59131 0.34552,-2.37832 0.15338,-0.78699 0.34412,-1.56443 0.57233,-2.33228 0.22815,-0.76785 0.49261,-1.52243 0.79339,-2.26376 0.30078,-0.74134 0.63648,-1.46582 1.00702,-2.17346 0.37049,-0.70768 0.77405,-1.39509 1.21076,-2.06229 0.4367,-0.66715 0.90442,-1.31088 1.40307,-1.93115 0.49866,-0.62027 1.02588,-1.21408 1.58167,-1.78147 0.55585,-0.56738 1.13757,-1.10559 1.74518,-1.61465 0.6076,-0.50903 1.23816,-0.98645 1.89166,-1.43225 0.65362,-0.44577 1.32703,-0.85779 2.0202,-1.23606 0.69324,-0.37826 1.40296,-0.72091 2.12909,-1.02798 0.72626,-0.30707 1.46545,-0.57706 2.21765,-0.80997 0.75214,-0.23294 1.51367,-0.42767 2.28461,-0.5842 0.77093,-0.15652 1.54755,-0.2741 2.32983,-0.35275 0.78229,-0.0786 1.56641,-0.11798 2.35242,-0.11801 0.78607,3e-5 1.57019,0.0394 2.35248,0.11801 0.78222,0.0786 1.55877,0.19623 2.32965,0.35275 0.77093,0.15653 1.53247,0.35126 2.28473,0.5842 0.75213,0.23291 1.49127,0.5029 2.21747,0.80997 0.72619,0.30707 1.43591,0.64972 2.12915,1.02798 0.69323,0.37827 1.36663,0.79026 2.02014,1.23603 0.65362,0.4458 1.28418,0.92321 1.89172,1.43228 0.60761,0.50906 1.18933,1.04727 1.74518,1.61465 0.55585,0.56739 1.08307,1.1612 1.58179,1.78147 0.49859,0.62027 0.96624,1.264 1.40295,1.93115 0.43671,0.6672 0.84033,1.35461 1.21088,2.06225 0.37048,0.70768 0.70611,1.43216 1.00689,2.1735 0.30085,0.74133 0.56531,1.49594 0.79352,2.26379 0.22815,0.76785 0.41889,1.54526 0.57227,2.33225 0.15338,0.78701 0.26855,1.57977 0.34564,2.37832 0.0771,0.79856 0.1156,1.599 0.11554,2.4014 z" /><path
             id="path276"
             style="fill:none;stroke:#36393d;stroke-width:1;stroke-linecap:butt;stroke-linejoin:miter;stroke-miterlimit:10;stroke-dasharray:none;stroke-opacity:1"
             d="m 582,305.5 c 6e-5,0.8024 -0.0385,1.60287 -0.11554,2.40143 -0.0771,0.79855 -0.19226,1.59131 -0.34564,2.37826 -0.15338,0.78699 -0.34412,1.56443 -0.57227,2.33228 -0.22821,0.76785 -0.49267,1.52243 -0.79352,2.26373 -0.30078,0.74137 -0.63641,1.46585 -1.00695,2.17352 -0.37055,0.70768 -0.77417,1.39509 -1.21088,2.06223 -0.43665,0.66718 -0.9043,1.31091 -1.40295,1.93118 -0.49866,0.62027 -1.02588,1.21408 -1.58173,1.78147 -0.55585,0.56741 -1.13757,1.10562 -1.74518,1.61465 -0.60754,0.50903 -1.2381,0.98645 -1.89172,1.43222 -0.65351,0.44583 -1.32691,0.85785 -2.02014,1.23606 -0.69324,0.37826 -1.40296,0.72091 -2.12915,1.02795 -0.7262,0.3071 -1.46534,0.57709 -2.21747,0.81 -0.75226,0.23294 -1.5138,0.4277 -2.28473,0.58423 -0.77088,0.15655 -1.54743,0.27417 -2.32965,0.35281 C 559.57019,329.96066 558.78607,330 558,330 c -0.78601,0 -1.57013,-0.0393 -2.35242,-0.11798 -0.78228,-0.0786 -1.5589,-0.19626 -2.32983,-0.35281 -0.77094,-0.15653 -1.53247,-0.35126 -2.28467,-0.5842 -0.75214,-0.23294 -1.49133,-0.50293 -2.21759,-0.81003 -0.72613,-0.30704 -1.43585,-0.64969 -2.12903,-1.02795 -0.69323,-0.37821 -1.36664,-0.79023 -2.02026,-1.23606 -0.6535,-0.44577 -1.28412,-0.92319 -1.89172,-1.43222 -0.60761,-0.50903 -1.18927,-1.04724 -1.74512,-1.61465 -0.55579,-0.56739 -1.08301,-1.1612 -1.58167,-1.78147 -0.49865,-0.62027 -0.96631,-1.264 -1.40301,-1.93118 -0.43671,-0.66714 -0.84027,-1.35455 -1.21082,-2.06223 -0.37054,-0.70767 -0.70624,-1.43215 -1.00702,-2.17352 -0.30078,-0.7413 -0.56524,-1.49591 -0.79339,-2.26376 -0.22821,-0.76785 -0.41895,-1.54526 -0.57233,-2.33225 -0.15338,-0.78695 -0.26855,-1.57971 -0.34552,-2.37826 C 534.03851,307.10287 534,306.3024 534,305.5 c 0,-0.8024 0.0385,-1.60284 0.1156,-2.4014 0.077,-0.79855 0.19214,-1.59131 0.34552,-2.37832 0.15338,-0.78699 0.34412,-1.56443 0.57233,-2.33228 0.22815,-0.76785 0.49261,-1.52243 0.79339,-2.26376 0.30078,-0.74134 0.63648,-1.46582 1.00702,-2.17346 0.37049,-0.70768 0.77405,-1.39509 1.21076,-2.06229 0.4367,-0.66715 0.90442,-1.31088 1.40307,-1.93115 0.49866,-0.62027 1.02588,-1.21408 1.58167,-1.78147 0.55585,-0.56738 1.13757,-1.10559 1.74518,-1.61465 0.6076,-0.50903 1.23816,-0.98645 1.89166,-1.43225 0.65362,-0.44577 1.32703,-0.85779 2.0202,-1.23606 0.69324,-0.37826 1.40296,-0.72091 2.12909,-1.02798 0.72626,-0.30707 1.46545,-0.57706 2.21765,-0.80997 0.75214,-0.23294 1.51367,-0.42767 2.28461,-0.5842 0.77093,-0.15652 1.54755,-0.2741 2.32983,-0.35275 0.78229,-0.0786 1.56641,-0.11798 2.35242,-0.11801 0.78607,3e-5 1.57019,0.0394 2.35248,0.11801 0.78222,0.0786 1.55877,0.19623 2.32965,0.35275 0.77093,0.15653 1.53247,0.35126 2.28473,0.5842 0.75213,0.23291 1.49127,0.5029 2.21747,0.80997 0.72619,0.30707 1.43591,0.64972 2.12915,1.02798 0.69323,0.37827 1.36663,0.79026 2.02014,1.23603 0.65362,0.4458 1.28418,0.92321 1.89172,1.43228 0.60761,0.50906 1.18933,1.04727 1.74518,1.61465 0.55585,0.56739 1.08307,1.1612 1.58179,1.78147 0.49859,0.62027 0.96624,1.264 1.40295,1.93115 0.43671,0.6672 0.84033,1.35461 1.21088,2.06225 0.37048,0.70768 0.70611,1.43216 1.00689,2.1735 0.30085,0.74133 0.56531,1.49594 0.79352,2.26379 0.22815,0.76785 0.41889,1.54526 0.57227,2.33225 0.15338,0.78701 0.26855,1.57977 0.34564,2.37832 0.0771,0.79856 0.1156,1.599 0.11554,2.4014 z" /></g><g
           transform="scale(2.9897184)"
           id="g278"><text
             id="text282"
             style="font-variant:normal;font-weight:normal;font-size:15px;font-family:ArialMT;-inkscape-font-specification:ArialMT;writing-mode:lr-tb;fill:#000000;fill-opacity:1;fill-rule:nonzero;stroke:none"
             transform="translate(538.40625,312)"><tspan
               id="tspan280"
               y="0"
               x="0 4.9951172 13.337402 17.504883 25.847168 30.842285">return</tspan></text>
</g><g
           transform="matrix(2.9897184,0,0,2.9897184,1.4948592,1.4948592)"
           id="g284"><path
             id="path286"
             style="fill:#ffe6cc;fill-opacity:1;fill-rule:nonzero;stroke:none"
             d="M 18.549999,247 H 385.45001 c 1.15235,0 2.29361,0.1124 3.4238,0.3372 1.13022,0.22481 2.22763,0.5577 3.29227,0.99869 1.0646,0.44098 2.07599,0.98158 3.03415,1.6218 0.95816,0.64021 1.84463,1.36773 2.65948,2.18257 0.81479,0.81483 1.54233,1.70131 2.18256,2.65945 0.64016,0.95813 1.18075,1.96952 1.62173,3.03415 0.44098,1.06461 0.7739,2.16205 0.99872,3.29227 0.22482,1.13022 0.33725,2.27151 0.33728,3.42386 v 81.90002 c -3e-5,1.15232 -0.11246,2.29358 -0.33728,3.4238 -0.22482,1.13022 -0.55774,2.22763 -0.99872,3.29227 -0.44098,1.0646 -0.98157,2.07602 -1.62176,3.03418 -0.64023,0.9581 -1.36774,1.8446 -2.18253,2.65945 -0.81485,0.81482 -1.70135,1.54233 -2.65951,2.18256 -0.95813,0.64016 -1.96952,1.18075 -3.03412,1.62176 -1.06464,0.44098 -2.16205,0.7739 -3.29227,0.99872 -1.13019,0.22482 -2.27145,0.33722 -3.4238,0.33725 H 18.549999 c -1.152349,-3e-5 -2.293629,-0.11243 -3.423836,-0.33725 -1.130207,-0.22482 -2.227627,-0.55774 -3.29226,-0.99872 -1.064632,-0.44101 -2.0760199,-0.9816 -3.0341622,-1.62176 C 7.841598,360.40204 6.9551096,359.67453 6.1402755,358.85971 5.3254414,358.04486 4.597919,357.15836 3.9577076,356.20023 3.3174968,355.24207 2.7768989,354.23068 2.3359139,353.16605 1.8949289,352.10144 1.5620303,351.00403 1.3372182,349.87381 1.112406,348.74359 0.99999994,347.60233 1,346.45001 v -81.90002 c -6e-8,-1.15235 0.112406,-2.29364 0.3372182,-3.42386 0.2248121,-1.13022 0.5577107,-2.22766 0.9986957,-3.29227 0.440985,-1.06463 0.9815829,-2.07602 1.621794,-3.03415 0.6402111,-0.95814 1.3677335,-1.84462 2.1825676,-2.65945 0.8148341,-0.81484 1.7013225,-1.54236 2.6594653,-2.18257 0.9581432,-0.64022 1.9695312,-1.18082 3.0341632,-1.6218 1.064632,-0.44099 2.162052,-0.77388 3.292259,-0.99869 C 16.25637,247.1124 17.39765,247 18.549999,247 Z" /><path
             id="path288"
             style="fill:none;stroke:#d79b00;stroke-width:1;stroke-linecap:butt;stroke-linejoin:miter;stroke-miterlimit:10;stroke-dasharray:none;stroke-opacity:1"
             d="M 18.549999,247 H 385.45001 c 1.15235,0 2.29361,0.1124 3.4238,0.3372 1.13022,0.22481 2.22763,0.5577 3.29227,0.99869 1.0646,0.44098 2.07599,0.98158 3.03415,1.6218 0.95816,0.64021 1.84463,1.36773 2.65948,2.18257 0.81479,0.81483 1.54233,1.70131 2.18256,2.65945 0.64016,0.95813 1.18075,1.96952 1.62173,3.03415 0.44098,1.06461 0.7739,2.16205 0.99872,3.29227 0.22482,1.13022 0.33725,2.27151 0.33728,3.42386 v 81.90002 c -3e-5,1.15232 -0.11246,2.29358 -0.33728,3.4238 -0.22482,1.13022 -0.55774,2.22763 -0.99872,3.29227 -0.44098,1.0646 -0.98157,2.07602 -1.62176,3.03418 -0.64023,0.9581 -1.36774,1.8446 -2.18253,2.65945 -0.81485,0.81482 -1.70135,1.54233 -2.65951,2.18256 -0.95813,0.64016 -1.96952,1.18075 -3.03412,1.62176 -1.06464,0.44098 -2.16205,0.7739 -3.29227,0.99872 -1.13019,0.22482 -2.27145,0.33722 -3.4238,0.33725 H 18.549999 c -1.152349,-3e-5 -2.293629,-0.11243 -3.423836,-0.33725 -1.130207,-0.22482 -2.227627,-0.55774 -3.29226,-0.99872 -1.064632,-0.44101 -2.0760199,-0.9816 -3.0341622,-1.62176 C 7.841598,360.40204 6.9551096,359.67453 6.1402755,358.85971 5.3254414,358.04486 4.597919,357.15836 3.9577076,356.20023 3.3174968,355.24207 2.7768989,354.23068 2.3359139,353.16605 1.8949289,352.10144 1.5620303,351.00403 1.3372182,349.87381 1.112406,348.74359 0.99999994,347.60233 1,346.45001 v -81.90002 c -6e-8,-1.15235 0.112406,-2.29364 0.3372182,-3.42386 0.2248121,-1.13022 0.5577107,-2.22766 0.9986957,-3.29227 0.440985,-1.06463 0.9815829,-2.07602 1.621794,-3.03415 0.6402111,-0.95814 1.3677335,-1.84462 2.1825676,-2.65945 0.8148341,-0.81484 1.7013225,-1.54236 2.6594653,-2.18257 0.9581432,-0.64022 1.9695312,-1.18082 3.0341632,-1.6218 1.064632,-0.44099 2.162052,-0.77388 3.292259,-0.99869 C 16.25637,247.1124 17.39765,247 18.549999,247 Z" /></g><g
           transform="scale(2.9897184)"
           id="g290"><text
             id="text294"
             style="font-variant:normal;font-weight:normal;font-size:15px;font-family:ArialMT;-inkscape-font-specification:ArialMT;writing-mode:lr-tb;fill:#000000;fill-opacity:1;fill-rule:nonzero;stroke:none"
             transform="translate(17,271)"><tspan
               id="tspan292"
               y="0"
               x="0 10.83252 19.174805 27.51709 31.68457 35.01709 43.359375 51.70166 60.043945 67.543945 71.711426 80.317383 85.3125 93.654785 96.987305 105.32959 108.66211 117.00439">Continous Training</tspan></text>
</g><g
           transform="matrix(2.9897184,0,0,2.9897184,1.4948592,1.4948592)"
           id="g296"><path
             id="path298"
             style="fill:none;stroke:#000000;stroke-width:1;stroke-linecap:butt;stroke-linejoin:miter;stroke-miterlimit:10;stroke-dasharray:none;stroke-opacity:1"
             d="m 121,317 h 20 -13 13.63" /><path
             id="path300"
             style="fill:#000000;fill-opacity:1;fill-rule:nonzero;stroke:none"
             d="m 146.88,317 -7,3.5 1.75,-3.5 -1.75,-3.5 z" /><path
             id="path302"
             style="fill:none;stroke:#000000;stroke-width:1;stroke-linecap:butt;stroke-linejoin:miter;stroke-miterlimit:10;stroke-dasharray:none;stroke-opacity:1"
             d="m 146.88,317 -7,3.5 1.75,-3.5 -1.75,-3.5 z" /><path
             id="path304"
             style="fill:#ffcc99;fill-opacity:1;fill-rule:nonzero;stroke:none"
             d="m 22,287 h 90 c 0.59095,0 1.17622,0.0577 1.75581,0.17291 0.57958,0.11527 1.14236,0.28598 1.68833,0.51215 0.54597,0.22613 1.06463,0.50336 1.55598,0.83166 0.49136,0.32834 0.94597,0.70142 1.36383,1.1193 0.41787,0.41787 0.79096,0.87246 1.11927,1.36383 0.32831,0.49136 0.60554,1.01001 0.83168,1.55597 0.22615,0.54596 0.39688,1.10873 0.51217,1.68835 C 120.94235,294.82379 121,295.40906 121,296 v 42 c 0,0.59094 -0.0576,1.17621 -0.17293,1.7558 -0.11529,0.57956 -0.28602,1.14233 -0.51217,1.68829 -0.22614,0.54596 -0.50337,1.06461 -0.83168,1.55597 -0.32832,0.49136 -0.7014,0.94598 -1.11927,1.36386 -0.41786,0.41788 -0.87246,0.79096 -1.36382,1.11923 -0.49136,0.32834 -1.01002,0.60556 -1.55599,0.8317 -0.54597,0.22617 -1.10875,0.39688 -1.68834,0.51218 C 113.17622,346.94232 112.59095,346.99997 112,347 H 22 c -0.59095,-3e-5 -1.176222,-0.0577 -1.755816,-0.17297 -0.579595,-0.1153 -1.142374,-0.28601 -1.688339,-0.51218 -0.545965,-0.22614 -1.064625,-0.50336 -1.555979,-0.8317 -0.491355,-0.32827 -0.945964,-0.70135 -1.363829,-1.11923 -0.417865,-0.41788 -0.790954,-0.8725 -1.119267,-1.36386 -0.328312,-0.49136 -0.605543,-1.01001 -0.831688,-1.55597 -0.226146,-0.54596 -0.396864,-1.10873 -0.512152,-1.68829 C 13.057642,339.17621 12.999999,338.59094 13,338 v -42 c -10e-7,-0.59094 0.05764,-1.17621 0.17293,-1.75583 0.115288,-0.57962 0.286006,-1.14239 0.512152,-1.68835 0.226145,-0.54596 0.503376,-1.06461 0.831688,-1.55597 0.328313,-0.49137 0.701402,-0.94596 1.119267,-1.36383 0.417865,-0.41788 0.872474,-0.79096 1.363829,-1.1193 0.491354,-0.3283 1.010014,-0.60553 1.555979,-0.83166 0.545965,-0.22617 1.108744,-0.39688 1.688339,-0.51215 C 20.823778,287.05765 21.40905,287 22,287 Z" /><path
             id="path306"
             style="fill:none;stroke:#36393d;stroke-width:1;stroke-linecap:butt;stroke-linejoin:miter;stroke-miterlimit:10;stroke-dasharray:none;stroke-opacity:1"
             d="m 22,287 h 90 c 0.59095,0 1.17622,0.0577 1.75581,0.17291 0.57958,0.11527 1.14236,0.28598 1.68833,0.51215 0.54597,0.22613 1.06463,0.50336 1.55598,0.83166 0.49136,0.32834 0.94597,0.70142 1.36383,1.1193 0.41787,0.41787 0.79096,0.87246 1.11927,1.36383 0.32831,0.49136 0.60554,1.01001 0.83168,1.55597 0.22615,0.54596 0.39688,1.10873 0.51217,1.68835 C 120.94235,294.82379 121,295.40906 121,296 v 42 c 0,0.59094 -0.0576,1.17621 -0.17293,1.7558 -0.11529,0.57956 -0.28602,1.14233 -0.51217,1.68829 -0.22614,0.54596 -0.50337,1.06461 -0.83168,1.55597 -0.32832,0.49136 -0.7014,0.94598 -1.11927,1.36386 -0.41786,0.41788 -0.87246,0.79096 -1.36382,1.11923 -0.49136,0.32834 -1.01002,0.60556 -1.55599,0.8317 -0.54597,0.22617 -1.10875,0.39688 -1.68834,0.51218 C 113.17622,346.94232 112.59095,346.99997 112,347 H 22 c -0.59095,-3e-5 -1.176222,-0.0577 -1.755816,-0.17297 -0.579595,-0.1153 -1.142374,-0.28601 -1.688339,-0.51218 -0.545965,-0.22614 -1.064625,-0.50336 -1.555979,-0.8317 -0.491355,-0.32827 -0.945964,-0.70135 -1.363829,-1.11923 -0.417865,-0.41788 -0.790954,-0.8725 -1.119267,-1.36386 -0.328312,-0.49136 -0.605543,-1.01001 -0.831688,-1.55597 -0.226146,-0.54596 -0.396864,-1.10873 -0.512152,-1.68829 C 13.057642,339.17621 12.999999,338.59094 13,338 v -42 c -10e-7,-0.59094 0.05764,-1.17621 0.17293,-1.75583 0.115288,-0.57962 0.286006,-1.14239 0.512152,-1.68835 0.226145,-0.54596 0.503376,-1.06461 0.831688,-1.55597 0.328313,-0.49137 0.701402,-0.94596 1.119267,-1.36383 0.417865,-0.41788 0.872474,-0.79096 1.363829,-1.1193 0.491354,-0.3283 1.010014,-0.60553 1.555979,-0.83166 0.545965,-0.22617 1.108744,-0.39688 1.688339,-0.51215 C 20.823778,287.05765 21.40905,287 22,287 Z" /></g><g
           transform="scale(2.9897184)"
           id="g308"><text
             id="text312"
             style="font-variant:normal;font-weight:normal;font-size:12px;font-family:ArialMT;-inkscape-font-specification:ArialMT;writing-mode:lr-tb;fill:#000000;fill-opacity:1;fill-rule:nonzero;stroke:none"
             transform="translate(16.96875,308)"><tspan
               id="tspan310"
               y="0"
               x="0 9.3339844 12 18 24.673828 31.347656 34.681641 38.015625 44.689453 51.363281 54.697266 61.371094 65.367188 72.041016 78.041016 80.707031 87.380859 94.054688">Given the previous</tspan></text>
<text
             id="text316"
             style="font-variant:normal;font-weight:normal;font-size:12px;font-family:ArialMT;-inkscape-font-specification:ArialMT;writing-mode:lr-tb;fill:#000000;fill-opacity:1;fill-rule:nonzero;stroke:none"
             transform="translate(21.96875,322)"><tspan
               id="tspan314"
               y="0"
               x="0 3.3339844 10.007812 16.681641 20.015625 26.689453 30.685547 37.359375 43.359375 46.693359 50.027344 54.023438 60.697266 64.03125 66.697266 70.03125 73.365234 76.699219 83.373047">features, refit the</tspan></text>
<text
             id="text320"
             style="font-variant:normal;font-weight:normal;font-size:12px;font-family:ArialMT;-inkscape-font-specification:ArialMT;writing-mode:lr-tb;fill:#000000;fill-opacity:1;fill-rule:nonzero;stroke:none"
             transform="translate(48,336)"><tspan
               id="tspan318"
               y="0"
               x="0 6 12 18.673828 21.339844 28.013672 32.009766">scalars</tspan></text>
</g><g
           transform="matrix(2.9897184,0,0,2.9897184,1.4948592,1.4948592)"
           id="g322"><path
             id="path324"
             style="fill:none;stroke:#000000;stroke-width:1;stroke-linecap:butt;stroke-linejoin:miter;stroke-miterlimit:10;stroke-dasharray:none;stroke-opacity:1"
             d="m 256,317 h 20 -16 13.63" /><path
             id="path326"
             style="fill:#000000;fill-opacity:1;fill-rule:nonzero;stroke:none"
             d="m 278.88,317 -7,3.5 1.75,-3.5 -1.75,-3.5 z" /><path
             id="path328"
             style="fill:none;stroke:#000000;stroke-width:1;stroke-linecap:butt;stroke-linejoin:miter;stroke-miterlimit:10;stroke-dasharray:none;stroke-opacity:1"
             d="m 278.88,317 -7,3.5 1.75,-3.5 -1.75,-3.5 z" /><path
             id="path330"
             style="fill:#ffcc99;fill-opacity:1;fill-rule:nonzero;stroke:none"
             d="m 157,287 h 90 c 0.59094,0 1.17621,0.0577 1.75578,0.17291 0.57961,0.11527 1.14238,0.28598 1.68834,0.51215 0.54598,0.22613 1.06464,0.50336 1.55599,0.83166 0.49136,0.32834 0.94598,0.70142 1.36384,1.1193 0.41786,0.41787 0.79094,0.87246 1.11923,1.36383 0.32833,0.49136 0.60555,1.01001 0.8317,1.55597 0.22615,0.54596 0.39687,1.10873 0.51218,1.68835 0.11528,0.57962 0.17292,1.16489 0.17294,1.75583 v 42 c -2e-5,0.59094 -0.0577,1.17621 -0.17296,1.7558 -0.11529,0.57956 -0.28601,1.14233 -0.51216,1.68829 -0.22615,0.54596 -0.50337,1.06461 -0.8317,1.55597 -0.32829,0.49136 -0.70137,0.94598 -1.11923,1.36386 -0.41786,0.41788 -0.87248,0.79096 -1.36383,1.11923 -0.49136,0.32834 -1.01002,0.60556 -1.556,0.8317 -0.54596,0.22617 -1.10873,0.39688 -1.68834,0.51218 C 248.17621,346.94232 247.59094,346.99997 247,347 h -90 c -0.59096,-3e-5 -1.17622,-0.0577 -1.75583,-0.17297 -0.5796,-0.1153 -1.14238,-0.28601 -1.68834,-0.51218 -0.54597,-0.22614 -1.06463,-0.50336 -1.55598,-0.8317 -0.49135,-0.32827 -0.94596,-0.70135 -1.36382,-1.11923 -0.41788,-0.41788 -0.79097,-0.8725 -1.11928,-1.36386 -0.3283,-0.49136 -0.60553,-1.01001 -0.83168,-1.55597 -0.22615,-0.54596 -0.39686,-1.10873 -0.51214,-1.68829 C 148.05763,339.17621 147.99998,338.59094 148,338 v -42 c -2e-5,-0.59094 0.0576,-1.17621 0.17293,-1.75583 0.11528,-0.57962 0.28599,-1.14239 0.51214,-1.68835 0.22615,-0.54596 0.50338,-1.06461 0.83168,-1.55597 0.32831,-0.49137 0.7014,-0.94596 1.11928,-1.36383 0.41786,-0.41788 0.87247,-0.79096 1.36382,-1.1193 0.49135,-0.3283 1.01001,-0.60553 1.55598,-0.83166 0.54596,-0.22617 1.10874,-0.39688 1.68834,-0.51215 C 155.82378,287.05765 156.40904,287 157,287 Z" /><path
             id="path332"
             style="fill:none;stroke:#36393d;stroke-width:1;stroke-linecap:butt;stroke-linejoin:miter;stroke-miterlimit:10;stroke-dasharray:none;stroke-opacity:1"
             d="m 157,287 h 90 c 0.59094,0 1.17621,0.0577 1.75578,0.17291 0.57961,0.11527 1.14238,0.28598 1.68834,0.51215 0.54598,0.22613 1.06464,0.50336 1.55599,0.83166 0.49136,0.32834 0.94598,0.70142 1.36384,1.1193 0.41786,0.41787 0.79094,0.87246 1.11923,1.36383 0.32833,0.49136 0.60555,1.01001 0.8317,1.55597 0.22615,0.54596 0.39687,1.10873 0.51218,1.68835 0.11528,0.57962 0.17292,1.16489 0.17294,1.75583 v 42 c -2e-5,0.59094 -0.0577,1.17621 -0.17296,1.7558 -0.11529,0.57956 -0.28601,1.14233 -0.51216,1.68829 -0.22615,0.54596 -0.50337,1.06461 -0.8317,1.55597 -0.32829,0.49136 -0.70137,0.94598 -1.11923,1.36386 -0.41786,0.41788 -0.87248,0.79096 -1.36383,1.11923 -0.49136,0.32834 -1.01002,0.60556 -1.556,0.8317 -0.54596,0.22617 -1.10873,0.39688 -1.68834,0.51218 C 248.17621,346.94232 247.59094,346.99997 247,347 h -90 c -0.59096,-3e-5 -1.17622,-0.0577 -1.75583,-0.17297 -0.5796,-0.1153 -1.14238,-0.28601 -1.68834,-0.51218 -0.54597,-0.22614 -1.06463,-0.50336 -1.55598,-0.8317 -0.49135,-0.32827 -0.94596,-0.70135 -1.36382,-1.11923 -0.41788,-0.41788 -0.79097,-0.8725 -1.11928,-1.36386 -0.3283,-0.49136 -0.60553,-1.01001 -0.83168,-1.55597 -0.22615,-0.54596 -0.39686,-1.10873 -0.51214,-1.68829 C 148.05763,339.17621 147.99998,338.59094 148,338 v -42 c -2e-5,-0.59094 0.0576,-1.17621 0.17293,-1.75583 0.11528,-0.57962 0.28599,-1.14239 0.51214,-1.68835 0.22615,-0.54596 0.50338,-1.06461 0.83168,-1.55597 0.32831,-0.49137 0.7014,-0.94596 1.11928,-1.36383 0.41786,-0.41788 0.87247,-0.79096 1.36382,-1.1193 0.49135,-0.3283 1.01001,-0.60553 1.55598,-0.83166 0.54596,-0.22617 1.10874,-0.39688 1.68834,-0.51215 C 155.82378,287.05765 156.40904,287 157,287 Z" /></g><g
           transform="scale(2.9897184)"
           id="g334"><text
             id="text338"
             style="font-variant:normal;font-weight:normal;font-size:12px;font-family:ArialMT;-inkscape-font-specification:ArialMT;writing-mode:lr-tb;fill:#000000;fill-opacity:1;fill-rule:nonzero;stroke:none"
             transform="translate(156.96875,308)"><tspan
               id="tspan336"
               y="0"
               x="0 8.6660156 15.339844 21.339844 27.339844 34.013672 36.679688 43.353516 46.6875 50.021484 56.695312 63.369141 66.703125 73.376953 80.050781 83.384766">Rescale the data</tspan></text>
<text
             id="text342"
             style="font-variant:normal;font-weight:normal;font-size:12px;font-family:ArialMT;-inkscape-font-specification:ArialMT;writing-mode:lr-tb;fill:#000000;fill-opacity:1;fill-rule:nonzero;stroke:none"
             transform="translate(162.64062,322)"><tspan
               id="tspan340"
               y="0"
               x="0 6.6738281 13.347656 20.021484 26.695312 33.369141 36.703125 40.037109 46.710938 53.384766 56.71875 63.392578 70.066406">added the new</tspan></text>
<text
             id="text346"
             style="font-variant:normal;font-weight:normal;font-size:12px;font-family:ArialMT;-inkscape-font-specification:ArialMT;writing-mode:lr-tb;fill:#000000;fill-opacity:1;fill-rule:nonzero;stroke:none"
             transform="translate(179.32813,336)"><tspan
               id="tspan344"
               y="0"
               x="0 6.6738281 12.673828 19.347656 29.34375 36.017578 38.683594">example</tspan></text>
</g><g
           transform="matrix(2.9897184,0,0,2.9897184,1.4948592,1.4948592)"
           id="g348"><path
             id="path350"
             style="fill:#ffcc99;fill-opacity:1;fill-rule:nonzero;stroke:none"
             d="m 289,287 h 90 c 0.59091,0 1.17618,0.0577 1.75577,0.17291 0.57959,0.11527 1.14236,0.28598 1.68832,0.51215 0.54596,0.22613 1.06461,0.50336 1.55597,0.83166 0.49136,0.32834 0.94598,0.70142 1.36386,1.1193 0.41785,0.41787 0.79093,0.87246 1.11923,1.36383 0.32831,0.49136 0.60556,1.01001 0.83173,1.55597 0.22614,0.54596 0.39685,1.10873 0.51215,1.68835 C 387.94235,294.82379 388,295.40906 388,296 v 42 c 0,0.59094 -0.0577,1.17621 -0.17297,1.7558 -0.1153,0.57956 -0.28601,1.14233 -0.51218,1.68829 -0.22617,0.54596 -0.50339,1.06461 -0.8317,1.55597 -0.3283,0.49136 -0.70138,0.94598 -1.11923,1.36386 -0.41788,0.41788 -0.8725,0.79096 -1.36386,1.11923 -0.49136,0.32834 -1.01001,0.60556 -1.55597,0.8317 -0.54596,0.22617 -1.10873,0.39688 -1.68832,0.51218 C 380.17618,346.94232 379.59091,346.99997 379,347 h -90 c -0.59097,-3e-5 -1.17624,-0.0577 -1.75586,-0.17297 -0.57956,-0.1153 -1.14233,-0.28601 -1.68832,-0.51218 -0.54596,-0.22614 -1.06461,-0.50336 -1.55597,-0.8317 -0.49137,-0.32827 -0.94596,-0.70135 -1.36383,-1.11923 -0.41788,-0.41788 -0.79096,-0.8725 -1.1193,-1.36386 -0.3283,-0.49136 -0.60553,-1.01001 -0.83166,-1.55597 -0.22614,-0.54596 -0.39685,-1.10873 -0.51215,-1.68829 C 280.05765,339.17621 280,338.59094 280,338 v -42 c 0,-0.59094 0.0577,-1.17621 0.17291,-1.75583 0.1153,-0.57962 0.28601,-1.14239 0.51215,-1.68835 0.22613,-0.54596 0.50336,-1.06461 0.83166,-1.55597 0.32834,-0.49137 0.70142,-0.94596 1.1193,-1.36383 0.41787,-0.41788 0.87246,-0.79096 1.36383,-1.1193 0.49136,-0.3283 1.01001,-0.60553 1.55597,-0.83166 0.54599,-0.22617 1.10876,-0.39688 1.68832,-0.51215 C 287.82376,287.05765 288.40903,287 289,287 Z" /><path
             id="path352"
             style="fill:none;stroke:#36393d;stroke-width:1;stroke-linecap:butt;stroke-linejoin:miter;stroke-miterlimit:10;stroke-dasharray:none;stroke-opacity:1"
             d="m 289,287 h 90 c 0.59091,0 1.17618,0.0577 1.75577,0.17291 0.57959,0.11527 1.14236,0.28598 1.68832,0.51215 0.54596,0.22613 1.06461,0.50336 1.55597,0.83166 0.49136,0.32834 0.94598,0.70142 1.36386,1.1193 0.41785,0.41787 0.79093,0.87246 1.11923,1.36383 0.32831,0.49136 0.60556,1.01001 0.83173,1.55597 0.22614,0.54596 0.39685,1.10873 0.51215,1.68835 C 387.94235,294.82379 388,295.40906 388,296 v 42 c 0,0.59094 -0.0577,1.17621 -0.17297,1.7558 -0.1153,0.57956 -0.28601,1.14233 -0.51218,1.68829 -0.22617,0.54596 -0.50339,1.06461 -0.8317,1.55597 -0.3283,0.49136 -0.70138,0.94598 -1.11923,1.36386 -0.41788,0.41788 -0.8725,0.79096 -1.36386,1.11923 -0.49136,0.32834 -1.01001,0.60556 -1.55597,0.8317 -0.54596,0.22617 -1.10873,0.39688 -1.68832,0.51218 C 380.17618,346.94232 379.59091,346.99997 379,347 h -90 c -0.59097,-3e-5 -1.17624,-0.0577 -1.75586,-0.17297 -0.57956,-0.1153 -1.14233,-0.28601 -1.68832,-0.51218 -0.54596,-0.22614 -1.06461,-0.50336 -1.55597,-0.8317 -0.49137,-0.32827 -0.94596,-0.70135 -1.36383,-1.11923 -0.41788,-0.41788 -0.79096,-0.8725 -1.1193,-1.36386 -0.3283,-0.49136 -0.60553,-1.01001 -0.83166,-1.55597 -0.22614,-0.54596 -0.39685,-1.10873 -0.51215,-1.68829 C 280.05765,339.17621 280,338.59094 280,338 v -42 c 0,-0.59094 0.0577,-1.17621 0.17291,-1.75583 0.1153,-0.57962 0.28601,-1.14239 0.51215,-1.68835 0.22613,-0.54596 0.50336,-1.06461 0.83166,-1.55597 0.32834,-0.49137 0.70142,-0.94596 1.1193,-1.36383 0.41787,-0.41788 0.87246,-0.79096 1.36383,-1.1193 0.49136,-0.3283 1.01001,-0.60553 1.55597,-0.83166 0.54599,-0.22617 1.10876,-0.39688 1.68832,-0.51215 C 287.82376,287.05765 288.40903,287 289,287 Z" /></g><g
           transform="scale(2.9897184)"
           id="g354"><text
             id="text358"
             style="font-variant:normal;font-weight:normal;font-size:12px;font-family:ArialMT;-inkscape-font-specification:ArialMT;writing-mode:lr-tb;fill:#000000;fill-opacity:1;fill-rule:nonzero;stroke:none"
             transform="translate(289.96875,315)"><tspan
               id="tspan356"
               y="0"
               x="0 8.6660156 15.339844 18.673828 22.669922 29.34375 32.009766 38.683594 42.017578 45.351562 52.025391 58.699219 62.033203 68.707031 74.707031 81.380859">Retrain the used</tspan></text>
<text
             id="text362"
             style="font-variant:normal;font-weight:normal;font-size:12px;font-family:ArialMT;-inkscape-font-specification:ArialMT;writing-mode:lr-tb;fill:#000000;fill-opacity:1;fill-rule:nonzero;stroke:none"
             transform="translate(317.65625,329)"><tspan
               id="tspan360"
               y="0"
               x="0 9.9960938 16.669922 23.34375 30.017578">model</tspan></text>
<text
             id="text366"
             style="font-variant:normal;font-weight:normal;font-size:15px;font-family:ArialMT;-inkscape-font-specification:ArialMT;writing-mode:lr-tb;fill:#000000;fill-opacity:1;fill-rule:nonzero;stroke:none"
             transform="translate(418.32813,292)"><tspan
               id="tspan364"
               y="0"
               x="0 7.5 15.842285">yes</tspan></text>
<text
             id="text370"
             style="font-variant:normal;font-weight:normal;font-size:15px;font-family:ArialMT;-inkscape-font-specification:ArialMT;writing-mode:lr-tb;fill:#000000;fill-opacity:1;fill-rule:nonzero;stroke:none"
             transform="translate(500.65625,293)"><tspan
               id="tspan368"
               y="0"
               x="0 8.3422852">no</tspan></text>
</g></g></g></g></svg>