<?xml version="1.0" encoding="UTF-8" standalone="no"?>
<svg
   xmlns:dc="http://purl.org/dc/elements/1.1/"
   xmlns:cc="http://creativecommons.org/ns#"
   xmlns:rdf="http://www.w3.org/1999/02/22-rdf-syntax-ns#"
   xmlns:svg="http://www.w3.org/2000/svg"
   xmlns="http://www.w3.org/2000/svg"
   viewBox="0 0 917.43994 510.71997"
   height="510.71997"
   width="917.43994"
   xml:space="preserve"
   id="svg2"
   version="1.1"><metadata
     id="metadata8"><rdf:RDF><cc:Work
         rdf:about=""><dc:format>image/svg+xml</dc:format><dc:type
           rdf:resource="http://purl.org/dc/dcmitype/StillImage" /></cc:Work></rdf:RDF></metadata><defs
     id="defs6"><clipPath
       id="clipPath18"
       clipPathUnits="userSpaceOnUse"><path
         style="clip-rule:evenodd"
         id="path16"
         d="M 0,0 H 2866.6665 V 1595.2579 H 0 Z" /></clipPath><clipPath
       id="clipPath30"
       clipPathUnits="userSpaceOnUse"><path
         style="clip-rule:evenodd"
         id="path28"
         d="M 0,0 H 2866.6665 V 1589.2607 H 0 Z" /></clipPath></defs><g
     transform="matrix(0.31999998,0,0,0.31999998,0,9.434666e-6)"
     id="g10"><g
       id="g12"><g
         clip-path="url(#clipPath18)"
         id="g14"><g
           transform="scale(2.9986053)"
           id="g20"><path
             id="path22"
             style="fill:#ffffff;fill-opacity:1;fill-rule:nonzero;stroke:none"
             d="M 0,0 H 956 V 532 H 0 Z" /></g></g></g><g
       id="g24"><g
         clip-path="url(#clipPath30)"
         id="g26"><g
           transform="matrix(2.9986053,0,0,2.9986053,1.4993026,1.4993026)"
           id="g32"><path
             id="path34"
             style="fill:none;stroke:#82b366;stroke-width:1;stroke-linecap:butt;stroke-linejoin:miter;stroke-miterlimit:10;stroke-dasharray:none;stroke-opacity:1"
             d="M 470,128 V 94.709999" /><path
             id="path36"
             style="fill:none;stroke:#82b366;stroke-width:1;stroke-linecap:butt;stroke-linejoin:miter;stroke-miterlimit:10;stroke-dasharray:none;stroke-opacity:1"
             d="M 474.5,100.35 470,91.349998 465.5,100.35" /></g><g
           transform="scale(2.9986053)"
           id="g38"><path
             id="path40"
             style="fill:#d5e8d4;fill-opacity:1;fill-rule:nonzero;stroke:none"
             d="m 620,158 v -16.5 c 0,-9 -4.5,-13.5 -13.5,-13.5 h -273 c -9,0 -13.5,4.5 -13.5,13.5 V 158" /><path
             id="path42"
             style="fill:none;stroke:#82b366;stroke-width:1;stroke-linecap:butt;stroke-linejoin:miter;stroke-miterlimit:10;stroke-dasharray:none;stroke-opacity:1"
             d="m 620,158 v -16.5 c 0,-9 -4.5,-13.5 -13.5,-13.5 h -273 c -9,0 -13.5,4.5 -13.5,13.5 V 158" /><path
             id="path44"
             style="fill:none;stroke:#82b366;stroke-width:1;stroke-linecap:butt;stroke-linejoin:miter;stroke-miterlimit:10;stroke-dasharray:none;stroke-opacity:1"
             d="m 320,158 v 142.5 c 0,9 4.5,13.5 13.5,13.5 h 273 c 9,0 13.5,-4.5 13.5,-13.5 V 158" /><path
             id="path46"
             style="fill:none;stroke:#82b366;stroke-width:1;stroke-linecap:butt;stroke-linejoin:miter;stroke-miterlimit:10;stroke-dasharray:none;stroke-opacity:1"
             d="M 320,158 H 620" /><text
             id="text50"
             style="font-variant:normal;font-weight:bold;font-size:14px;font-family:Arial;-inkscape-font-specification:Arial-BoldMT;writing-mode:lr-tb;fill:#000000;fill-opacity:1;fill-rule:nonzero;stroke:none"
             transform="translate(445.21875,149)"><tspan
               id="tspan48"
               y="0"
               x="0 10.110352 17.896484 25.682617 33.46875 42.020508">Backup</tspan></text>
</g><g
           transform="matrix(2.9986053,0,0,2.9986053,1.4993026,1.4993026)"
           id="g52"><path
             id="path54"
             style="fill:none;stroke:#9673a6;stroke-width:1;stroke-linecap:butt;stroke-linejoin:miter;stroke-miterlimit:10;stroke-dasharray:none;stroke-opacity:1"
             d="m 610,198 h 40.5 v -37.2 l 33.78998,-0.04" /><path
             id="path56"
             style="fill:none;stroke:#9673a6;stroke-width:1;stroke-linecap:butt;stroke-linejoin:miter;stroke-miterlimit:10;stroke-dasharray:none;stroke-opacity:1"
             d="m 678.65002,165.27 9,-4.52 -9.01001,-4.48" /><path
             id="path58"
             style="fill:#e1d5e7;fill-opacity:1;fill-rule:nonzero;stroke:none"
             d="m 480.60001,166 h 119.80001 c 0.63031,0 1.25458,0.0615 1.87281,0.18445 0.61822,0.12297 1.21856,0.30507 1.8009,0.54629 0.58234,0.24123 1.13556,0.53694 1.65967,0.88715 0.52411,0.35019 1.00903,0.74815 1.45477,1.19389 0.44574,0.44573 0.84369,0.93064 1.19385,1.45473 0.35022,0.52412 0.64593,1.07736 0.88721,1.65971 0.24121,0.58236 0.42327,1.18267 0.54626,1.80091 0.12299,0.61824 0.18451,1.24252 0.18451,1.87288 v 44.79998 c 0,0.63034 -0.0615,1.25463 -0.18451,1.87285 -0.12299,0.61823 -0.30505,1.21852 -0.54626,1.80088 -0.24128,0.58236 -0.53699,1.1356 -0.88721,1.65971 -0.35016,0.52412 -0.74811,1.00905 -1.19385,1.45477 -0.44574,0.44573 -0.93066,0.84368 -1.45477,1.19386 -0.52411,0.35021 -1.07739,0.64591 -1.65973,0.88714 -0.58234,0.24122 -1.18262,0.42334 -1.80084,0.54632 -0.61823,0.12297 -1.2425,0.18446 -1.87281,0.18448 H 480.60001 c -0.63034,-2e-5 -1.25464,-0.0615 -1.8729,-0.18448 -0.61825,-0.12298 -1.21853,-0.3051 -1.8009,-0.54632 -0.58237,-0.24123 -1.13559,-0.53693 -1.65973,-0.88714 -0.52411,-0.35018 -1.00903,-0.74813 -1.45474,-1.19386 -0.44571,-0.44572 -0.84369,-0.93065 -1.19391,-1.45476 -0.35019,-0.52412 -0.64591,-1.07736 -0.88715,-1.65972 -0.24121,-0.58236 -0.42331,-1.18265 -0.54626,-1.80088 -0.12296,-0.61822 -0.18445,-1.24251 -0.18442,-1.87285 v -44.79998 c -3e-5,-0.63036 0.0615,-1.25466 0.18442,-1.8729 0.12295,-0.61824 0.30505,-1.21853 0.54626,-1.80089 0.24124,-0.58235 0.53696,-1.13559 0.88715,-1.65971 0.35022,-0.52411 0.7482,-1.00902 1.19391,-1.45474 0.44571,-0.44573 0.93063,-0.84369 1.45471,-1.1939 0.52414,-0.3502 1.07736,-0.6459 1.65973,-0.88713 0.58236,-0.24122 1.18268,-0.42332 1.80093,-0.54629 0.61826,-0.12297 1.24256,-0.18445 1.8729,-0.18445 z" /><path
             id="path60"
             style="fill:none;stroke:#9673a6;stroke-width:1;stroke-linecap:butt;stroke-linejoin:miter;stroke-miterlimit:10;stroke-dasharray:none;stroke-opacity:1"
             d="m 480.60001,166 h 119.80001 c 0.63031,0 1.25458,0.0615 1.87281,0.18445 0.61822,0.12297 1.21856,0.30507 1.8009,0.54629 0.58234,0.24123 1.13556,0.53694 1.65967,0.88715 0.52411,0.35019 1.00903,0.74815 1.45477,1.19389 0.44574,0.44573 0.84369,0.93064 1.19385,1.45473 0.35022,0.52412 0.64593,1.07736 0.88721,1.65971 0.24121,0.58236 0.42327,1.18267 0.54626,1.80091 0.12299,0.61824 0.18451,1.24252 0.18451,1.87288 v 44.79998 c 0,0.63034 -0.0615,1.25463 -0.18451,1.87285 -0.12299,0.61823 -0.30505,1.21852 -0.54626,1.80088 -0.24128,0.58236 -0.53699,1.1356 -0.88721,1.65971 -0.35016,0.52412 -0.74811,1.00905 -1.19385,1.45477 -0.44574,0.44573 -0.93066,0.84368 -1.45477,1.19386 -0.52411,0.35021 -1.07739,0.64591 -1.65973,0.88714 -0.58234,0.24122 -1.18262,0.42334 -1.80084,0.54632 -0.61823,0.12297 -1.2425,0.18446 -1.87281,0.18448 H 480.60001 c -0.63034,-2e-5 -1.25464,-0.0615 -1.8729,-0.18448 -0.61825,-0.12298 -1.21853,-0.3051 -1.8009,-0.54632 -0.58237,-0.24123 -1.13559,-0.53693 -1.65973,-0.88714 -0.52411,-0.35018 -1.00903,-0.74813 -1.45474,-1.19386 -0.44571,-0.44572 -0.84369,-0.93065 -1.19391,-1.45476 -0.35019,-0.52412 -0.64591,-1.07736 -0.88715,-1.65972 -0.24121,-0.58236 -0.42331,-1.18265 -0.54626,-1.80088 -0.12296,-0.61822 -0.18445,-1.24251 -0.18442,-1.87285 v -44.79998 c -3e-5,-0.63036 0.0615,-1.25466 0.18442,-1.8729 0.12295,-0.61824 0.30505,-1.21853 0.54626,-1.80089 0.24124,-0.58235 0.53696,-1.13559 0.88715,-1.65971 0.35022,-0.52411 0.7482,-1.00902 1.19391,-1.45474 0.44571,-0.44573 0.93063,-0.84369 1.45471,-1.1939 0.52414,-0.3502 1.07736,-0.6459 1.65973,-0.88713 0.58236,-0.24122 1.18268,-0.42332 1.80093,-0.54629 0.61826,-0.12297 1.24256,-0.18445 1.8729,-0.18445 z" /></g><g
           transform="scale(2.9986053)"
           id="g62"><text
             id="text66"
             style="font-variant:normal;font-weight:bold;font-size:15px;font-family:Arial;-inkscape-font-specification:Arial-BoldMT;writing-mode:lr-tb;fill:#000000;fill-opacity:1;fill-rule:nonzero;stroke:none"
             transform="translate(477,189)"><tspan
               id="tspan64"
               y="0"
               x="0 10.83252 19.174805 24.169922 32.512207">Dates</tspan></text>
<text
             id="text70"
             style="font-variant:normal;font-weight:normal;font-size:13px;font-family:ArialMT;-inkscape-font-specification:ArialMT;writing-mode:lr-tb;fill:#000000;fill-opacity:1;fill-rule:nonzero;stroke:none"
             transform="translate(477,205)"><tspan
               id="tspan68"
               y="0"
               x="0 9.3881836 16.618164 20.22998 27.459961 33.959961 37.571777 44.801758 48.413574 52.025391 54.913574 62.143555 68.643555 72.255371 75.867188 83.097168 89.597168 96.097168 103.32715 109.82715">Dates of last access</tspan></text>
<text
             id="text74"
             style="font-variant:normal;font-weight:normal;font-size:13px;font-family:ArialMT;-inkscape-font-specification:ArialMT;writing-mode:lr-tb;fill:#000000;fill-opacity:1;fill-rule:nonzero;stroke:none"
             transform="translate(477,220)"><tspan
               id="tspan72"
               y="0"
               x="0 6.5 9.3881836 16.618164 23.118164 30.348145 33.959961 41.189941 48.419922 54.919922 61.419922 68.649902">since backup</tspan></text>
</g><g
           transform="matrix(2.9986053,0,0,2.9986053,1.4993026,1.4993026)"
           id="g76"><path
             id="path78"
             style="fill:none;stroke:#d79b00;stroke-width:1;stroke-linecap:butt;stroke-linejoin:miter;stroke-miterlimit:10;stroke-dasharray:none;stroke-opacity:1"
             d="M 326,196 H 281 V 300.5 H 242.71001" /><path
             id="path80"
             style="fill:none;stroke:#d79b00;stroke-width:1;stroke-linecap:butt;stroke-linejoin:miter;stroke-miterlimit:10;stroke-dasharray:none;stroke-opacity:1"
             d="m 248.35001,296 -9,4.5 9,4.5" /><path
             id="path82"
             style="fill:none;stroke:#d79b00;stroke-width:1;stroke-linecap:butt;stroke-linejoin:miter;stroke-miterlimit:10;stroke-dasharray:none;stroke-opacity:1"
             d="M 326,196 H 281 V 115.5 H 242.71001" /><path
             id="path84"
             style="fill:none;stroke:#d79b00;stroke-width:1;stroke-linecap:butt;stroke-linejoin:miter;stroke-miterlimit:10;stroke-dasharray:none;stroke-opacity:1"
             d="m 248.35001,111 -9,4.5 9,4.5" /><path
             id="path86"
             style="fill:#ffe6cc;fill-opacity:1;fill-rule:nonzero;stroke:none"
             d="m 335.60001,164 h 119.79998 c 0.63034,0 1.25464,0.0615 1.87287,0.18446 0.61822,0.12297 1.2185,0.30506 1.80087,0.54628 0.58237,0.24123 1.13559,0.53693 1.6597,0.88712 0.52414,0.3502 1.00906,0.74817 1.45477,1.19389 0.44571,0.44573 0.84369,0.93064 1.19391,1.45474 0.35019,0.52413 0.64587,1.07737 0.88712,1.65973 0.24121,0.58237 0.42331,1.18267 0.54626,1.80089 0.12299,0.61824 0.18448,1.24254 0.18451,1.8729 v 44.79998 c -3e-5,0.63033 -0.0615,1.25461 -0.18451,1.87285 -0.12295,0.61824 -0.30505,1.21854 -0.54626,1.80091 -0.24125,0.58236 -0.53693,1.1356 -0.88712,1.65971 -0.35022,0.52411 -0.74817,1.00903 -1.19388,1.45476 -0.44574,0.44572 -0.93066,0.84367 -1.4548,1.19388 -0.52411,0.3502 -1.07733,0.6459 -1.6597,0.88713 -0.58237,0.24122 -1.18265,0.42332 -1.80087,0.54631 -0.61823,0.12297 -1.24253,0.18444 -1.87287,0.18446 H 335.60001 c -0.63034,-2e-5 -1.25464,-0.0615 -1.8729,-0.18448 -0.61822,-0.12297 -1.21853,-0.30507 -1.8009,-0.54629 -0.58237,-0.24123 -1.13559,-0.53693 -1.65973,-0.88713 -0.52411,-0.35021 -1.00903,-0.74816 -1.45474,-1.19388 -0.44574,-0.44573 -0.84372,-0.93065 -1.19391,-1.45476 -0.35019,-0.52411 -0.64591,-1.07735 -0.88712,-1.65971 -0.24124,-0.58237 -0.42334,-1.18267 -0.54629,-1.80089 -0.12296,-0.61824 -0.18445,-1.24254 -0.18442,-1.87287 v -44.79998 c -3e-5,-0.63036 0.0615,-1.25464 0.18442,-1.87288 0.12295,-0.61824 0.30505,-1.21854 0.54629,-1.80091 0.24121,-0.58236 0.53693,-1.1356 0.88712,-1.65971 0.35019,-0.52412 0.74817,-1.00903 1.19391,-1.45476 0.44571,-0.44572 0.93063,-0.84369 1.45471,-1.19388 0.52414,-0.3502 1.07736,-0.6459 1.65973,-0.88713 0.58236,-0.24122 1.18268,-0.42331 1.80093,-0.54628 0.61826,-0.12297 1.24256,-0.18446 1.8729,-0.18446 z" /><path
             id="path88"
             style="fill:none;stroke:#d79b00;stroke-width:1;stroke-linecap:butt;stroke-linejoin:miter;stroke-miterlimit:10;stroke-dasharray:none;stroke-opacity:1"
             d="m 335.60001,164 h 119.79998 c 0.63034,0 1.25464,0.0615 1.87287,0.18446 0.61822,0.12297 1.2185,0.30506 1.80087,0.54628 0.58237,0.24123 1.13559,0.53693 1.6597,0.88712 0.52414,0.3502 1.00906,0.74817 1.45477,1.19389 0.44571,0.44573 0.84369,0.93064 1.19391,1.45474 0.35019,0.52413 0.64587,1.07737 0.88712,1.65973 0.24121,0.58237 0.42331,1.18267 0.54626,1.80089 0.12299,0.61824 0.18448,1.24254 0.18451,1.8729 v 44.79998 c -3e-5,0.63033 -0.0615,1.25461 -0.18451,1.87285 -0.12295,0.61824 -0.30505,1.21854 -0.54626,1.80091 -0.24125,0.58236 -0.53693,1.1356 -0.88712,1.65971 -0.35022,0.52411 -0.74817,1.00903 -1.19388,1.45476 -0.44574,0.44572 -0.93066,0.84367 -1.4548,1.19388 -0.52411,0.3502 -1.07733,0.6459 -1.6597,0.88713 -0.58237,0.24122 -1.18265,0.42332 -1.80087,0.54631 -0.61823,0.12297 -1.24253,0.18444 -1.87287,0.18446 H 335.60001 c -0.63034,-2e-5 -1.25464,-0.0615 -1.8729,-0.18448 -0.61822,-0.12297 -1.21853,-0.30507 -1.8009,-0.54629 -0.58237,-0.24123 -1.13559,-0.53693 -1.65973,-0.88713 -0.52411,-0.35021 -1.00903,-0.74816 -1.45474,-1.19388 -0.44574,-0.44573 -0.84372,-0.93065 -1.19391,-1.45476 -0.35019,-0.52411 -0.64591,-1.07735 -0.88712,-1.65971 -0.24124,-0.58237 -0.42334,-1.18267 -0.54629,-1.80089 -0.12296,-0.61824 -0.18445,-1.24254 -0.18442,-1.87287 v -44.79998 c -3e-5,-0.63036 0.0615,-1.25464 0.18442,-1.87288 0.12295,-0.61824 0.30505,-1.21854 0.54629,-1.80091 0.24121,-0.58236 0.53693,-1.1356 0.88712,-1.65971 0.35019,-0.52412 0.74817,-1.00903 1.19391,-1.45476 0.44571,-0.44572 0.93063,-0.84369 1.45471,-1.19388 0.52414,-0.3502 1.07736,-0.6459 1.65973,-0.88713 0.58236,-0.24122 1.18268,-0.42331 1.80093,-0.54628 0.61826,-0.12297 1.24256,-0.18446 1.8729,-0.18446 z" /></g><g
           transform="scale(2.9986053)"
           id="g90"><text
             id="text94"
             style="font-variant:normal;font-weight:bold;font-size:15px;font-family:Arial;-inkscape-font-specification:Arial-BoldMT;writing-mode:lr-tb;fill:#000000;fill-opacity:1;fill-rule:nonzero;stroke:none"
             transform="translate(332,184)"><tspan
               id="tspan92"
               y="0"
               x="0 10.004883 18.347168 23.342285">Path</tspan></text>
<text
             id="text98"
             style="font-variant:normal;font-weight:normal;font-size:15px;font-family:ArialMT;-inkscape-font-specification:ArialMT;writing-mode:lr-tb;fill:#000000;fill-opacity:1;fill-rule:nonzero;stroke:none"
             transform="translate(332,202)"><tspan
               id="tspan96"
               y="0"
               x="0 9.1625977 12.495117 15.827637 24.169922 28.337402 35.837402 44.179688 52.521973 60.021973 63.354492 67.521973 70.854492">File specific</tspan></text>
<text
             id="text102"
             style="font-variant:normal;font-weight:normal;font-size:15px;font-family:ArialMT;-inkscape-font-specification:ArialMT;writing-mode:lr-tb;fill:#000000;fill-opacity:1;fill-rule:nonzero;stroke:none"
             transform="translate(332,220)"><tspan
               id="tspan100"
               y="0"
               x="0 4.1674805 12.509766 20.852051 25.019531 33.361816 38.356934 46.699219">features</tspan></text>
</g><g
           transform="matrix(2.9986053,0,0,2.9986053,1.4993026,1.4993026)"
           id="g104"><path
             id="path106"
             style="fill:none;stroke:#d6b656;stroke-width:1;stroke-linecap:butt;stroke-linejoin:miter;stroke-miterlimit:10;stroke-dasharray:none;stroke-opacity:1"
             d="m 541.5,303 v 80.10001 l 141.73999,-0.04" /><path
             id="path108"
             style="fill:none;stroke:#d6b656;stroke-width:1;stroke-linecap:butt;stroke-linejoin:miter;stroke-miterlimit:10;stroke-dasharray:none;stroke-opacity:1"
             d="m 677.59998,387.56 9,-4.5 -9,-4.5" /><path
             id="path110"
             style="fill:#fff2cc;fill-opacity:1;fill-rule:nonzero;stroke:none"
             d="m 481.60001,239 h 119.80001 c 0.63031,0 1.25452,0.0615 1.87275,0.18446 0.61822,0.12297 1.21856,0.30506 1.8009,0.54628 0.58234,0.24123 1.13556,0.53693 1.65973,0.88713 0.52411,0.35021 1.00903,0.74817 1.45477,1.1939 0.44568,0.44571 0.84363,0.93062 1.19385,1.45472 0.35016,0.52411 0.64587,1.07735 0.88715,1.65972 0.24121,0.58235 0.42327,1.18266 0.54626,1.8009 0.12299,0.61824 0.18451,1.24254 0.18457,1.8729 v 44.79998 c -6e-5,0.63034 -0.0616,1.25464 -0.18457,1.87287 -0.12299,0.61822 -0.30505,1.2185 -0.54626,1.80087 -0.24128,0.58237 -0.53699,1.13559 -0.88715,1.6597 -0.35022,0.52414 -0.74817,1.00906 -1.19385,1.45477 -0.44574,0.44571 -0.93066,0.84366 -1.45477,1.19385 -0.52417,0.35019 -1.07746,0.64593 -1.65979,0.88718 -0.58234,0.24121 -1.18262,0.42331 -1.80084,0.54626 -0.61823,0.12299 -1.24244,0.18448 -1.87275,0.18451 H 481.60001 c -0.63041,-3e-5 -1.2547,-0.0615 -1.87296,-0.18451 -0.61822,-0.12295 -1.21851,-0.30505 -1.80087,-0.54626 -0.58237,-0.24125 -1.13559,-0.53699 -1.6597,-0.88718 -0.52408,-0.35019 -1.009,-0.74814 -1.45474,-1.19385 -0.44571,-0.44571 -0.84369,-0.93063 -1.19391,-1.45477 -0.35019,-0.52411 -0.64591,-1.07733 -0.88715,-1.6597 -0.24121,-0.58237 -0.42331,-1.18265 -0.54626,-1.80087 C 472.06146,294.65463 472,294.03033 472,293.39999 v -44.79998 c 0,-0.63036 0.0615,-1.25466 0.18445,-1.8729 0.12295,-0.61824 0.30505,-1.21855 0.54626,-1.8009 0.24121,-0.58237 0.53693,-1.13561 0.88712,-1.65972 0.35022,-0.5241 0.7482,-1.00901 1.19391,-1.45472 0.44574,-0.44573 0.93066,-0.84369 1.45474,-1.1939 0.52411,-0.3502 1.07733,-0.6459 1.6597,-0.88713 0.58236,-0.24122 1.18265,-0.42331 1.80087,-0.54628 C 480.34531,239.06149 480.9696,239 481.60001,239 Z" /><path
             id="path112"
             style="fill:none;stroke:#d6b656;stroke-width:1;stroke-linecap:butt;stroke-linejoin:miter;stroke-miterlimit:10;stroke-dasharray:none;stroke-opacity:1"
             d="m 481.60001,239 h 119.80001 c 0.63031,0 1.25452,0.0615 1.87275,0.18446 0.61822,0.12297 1.21856,0.30506 1.8009,0.54628 0.58234,0.24123 1.13556,0.53693 1.65973,0.88713 0.52411,0.35021 1.00903,0.74817 1.45477,1.1939 0.44568,0.44571 0.84363,0.93062 1.19385,1.45472 0.35016,0.52411 0.64587,1.07735 0.88715,1.65972 0.24121,0.58235 0.42327,1.18266 0.54626,1.8009 0.12299,0.61824 0.18451,1.24254 0.18457,1.8729 v 44.79998 c -6e-5,0.63034 -0.0616,1.25464 -0.18457,1.87287 -0.12299,0.61822 -0.30505,1.2185 -0.54626,1.80087 -0.24128,0.58237 -0.53699,1.13559 -0.88715,1.6597 -0.35022,0.52414 -0.74817,1.00906 -1.19385,1.45477 -0.44574,0.44571 -0.93066,0.84366 -1.45477,1.19385 -0.52417,0.35019 -1.07746,0.64593 -1.65979,0.88718 -0.58234,0.24121 -1.18262,0.42331 -1.80084,0.54626 -0.61823,0.12299 -1.24244,0.18448 -1.87275,0.18451 H 481.60001 c -0.63041,-3e-5 -1.2547,-0.0615 -1.87296,-0.18451 -0.61822,-0.12295 -1.21851,-0.30505 -1.80087,-0.54626 -0.58237,-0.24125 -1.13559,-0.53699 -1.6597,-0.88718 -0.52408,-0.35019 -1.009,-0.74814 -1.45474,-1.19385 -0.44571,-0.44571 -0.84369,-0.93063 -1.19391,-1.45477 -0.35019,-0.52411 -0.64591,-1.07733 -0.88715,-1.6597 -0.24121,-0.58237 -0.42331,-1.18265 -0.54626,-1.80087 C 472.06146,294.65463 472,294.03033 472,293.39999 v -44.79998 c 0,-0.63036 0.0615,-1.25466 0.18445,-1.8729 0.12295,-0.61824 0.30505,-1.21855 0.54626,-1.8009 0.24121,-0.58237 0.53693,-1.13561 0.88712,-1.65972 0.35022,-0.5241 0.7482,-1.00901 1.19391,-1.45472 0.44574,-0.44573 0.93066,-0.84369 1.45474,-1.1939 0.52411,-0.3502 1.07733,-0.6459 1.6597,-0.88713 0.58236,-0.24122 1.18265,-0.42331 1.80087,-0.54628 C 480.34531,239.06149 480.9696,239 481.60001,239 Z" /></g><g
           transform="scale(2.9986053)"
           id="g114"><text
             id="text118"
             style="font-variant:normal;font-weight:bold;font-size:15px;font-family:Arial;-inkscape-font-specification:Arial-BoldMT;writing-mode:lr-tb;fill:#000000;fill-opacity:1;fill-rule:nonzero;stroke:none"
             transform="translate(478,267)"><tspan
               id="tspan116"
               y="0"
               x="0 10.83252 19.174805 27.51709">User</tspan></text>
<text
             id="text122"
             style="font-variant:normal;font-weight:normal;font-size:15px;font-family:ArialMT;-inkscape-font-specification:ArialMT;writing-mode:lr-tb;fill:#000000;fill-opacity:1;fill-rule:nonzero;stroke:none"
             transform="translate(478,287)"><tspan
               id="tspan120"
               y="0"
               x="0 10.83252 18.33252 26.674805 31.669922 35.837402 44.179688 48.347168 52.514648 60.856934 69.199219 76.699219 85.041504 89.208984 93.376465 96.708984 100.0415">User of each file</tspan></text>
</g><g
           transform="matrix(2.9986053,0,0,2.9986053,1.4993026,1.4993026)"
           id="g124"><path
             id="path126"
             style="fill:none;stroke:#6c8ebf;stroke-width:1;stroke-linecap:butt;stroke-linejoin:miter;stroke-miterlimit:10;stroke-dasharray:none;stroke-opacity:1"
             d="m 395.5,303 v 44.29001" /><path
             id="path128"
             style="fill:none;stroke:#6c8ebf;stroke-width:1;stroke-linecap:butt;stroke-linejoin:miter;stroke-miterlimit:10;stroke-dasharray:none;stroke-opacity:1"
             d="m 391,341.64999 4.5,9 4.5,-9" /><path
             id="path130"
             style="fill:#dae8fc;fill-opacity:1;fill-rule:nonzero;stroke:none"
             d="m 335.60001,239 h 119.79998 c 0.63034,0 1.25464,0.0615 1.87287,0.18446 0.61822,0.12297 1.2185,0.30506 1.80087,0.54628 0.58237,0.24123 1.13559,0.53693 1.6597,0.88713 0.52414,0.35021 1.00906,0.74817 1.45477,1.1939 0.44571,0.44571 0.84369,0.93062 1.19391,1.45472 0.35019,0.52411 0.64587,1.07735 0.88712,1.65972 0.24121,0.58235 0.42331,1.18266 0.54626,1.8009 0.12299,0.61824 0.18448,1.24254 0.18451,1.8729 v 44.79998 c -3e-5,0.63034 -0.0615,1.25464 -0.18451,1.87287 -0.12295,0.61822 -0.30505,1.2185 -0.54626,1.80087 -0.24125,0.58237 -0.53693,1.13559 -0.88712,1.6597 -0.35022,0.52414 -0.74817,1.00906 -1.19388,1.45477 -0.44574,0.44571 -0.93066,0.84366 -1.4548,1.19385 -0.52411,0.35019 -1.07733,0.64593 -1.6597,0.88718 -0.58237,0.24121 -1.18265,0.42331 -1.80087,0.54626 -0.61823,0.12299 -1.24253,0.18448 -1.87287,0.18451 H 335.60001 c -0.63034,-3e-5 -1.25464,-0.0615 -1.8729,-0.18451 -0.61822,-0.12295 -1.21853,-0.30505 -1.8009,-0.54626 -0.58237,-0.24125 -1.13559,-0.53699 -1.65973,-0.88718 -0.52411,-0.35019 -1.00903,-0.74814 -1.45474,-1.19385 -0.44574,-0.44571 -0.84372,-0.93063 -1.19391,-1.45477 -0.35019,-0.52411 -0.64591,-1.07733 -0.88712,-1.6597 -0.24124,-0.58237 -0.42334,-1.18265 -0.54629,-1.80087 -0.12296,-0.61823 -0.18445,-1.24253 -0.18442,-1.87287 v -44.79998 c -3e-5,-0.63036 0.0615,-1.25466 0.18442,-1.8729 0.12295,-0.61824 0.30505,-1.21855 0.54629,-1.8009 0.24121,-0.58237 0.53693,-1.13561 0.88712,-1.65972 0.35019,-0.5241 0.74817,-1.00901 1.19391,-1.45472 0.44571,-0.44573 0.93063,-0.84369 1.45471,-1.1939 0.52414,-0.3502 1.07736,-0.6459 1.65973,-0.88713 0.58236,-0.24122 1.18268,-0.42331 1.80093,-0.54628 0.61826,-0.12297 1.24256,-0.18446 1.8729,-0.18446 z" /><path
             id="path132"
             style="fill:none;stroke:#6c8ebf;stroke-width:1;stroke-linecap:butt;stroke-linejoin:miter;stroke-miterlimit:10;stroke-dasharray:none;stroke-opacity:1"
             d="m 335.60001,239 h 119.79998 c 0.63034,0 1.25464,0.0615 1.87287,0.18446 0.61822,0.12297 1.2185,0.30506 1.80087,0.54628 0.58237,0.24123 1.13559,0.53693 1.6597,0.88713 0.52414,0.35021 1.00906,0.74817 1.45477,1.1939 0.44571,0.44571 0.84369,0.93062 1.19391,1.45472 0.35019,0.52411 0.64587,1.07735 0.88712,1.65972 0.24121,0.58235 0.42331,1.18266 0.54626,1.8009 0.12299,0.61824 0.18448,1.24254 0.18451,1.8729 v 44.79998 c -3e-5,0.63034 -0.0615,1.25464 -0.18451,1.87287 -0.12295,0.61822 -0.30505,1.2185 -0.54626,1.80087 -0.24125,0.58237 -0.53693,1.13559 -0.88712,1.6597 -0.35022,0.52414 -0.74817,1.00906 -1.19388,1.45477 -0.44574,0.44571 -0.93066,0.84366 -1.4548,1.19385 -0.52411,0.35019 -1.07733,0.64593 -1.6597,0.88718 -0.58237,0.24121 -1.18265,0.42331 -1.80087,0.54626 -0.61823,0.12299 -1.24253,0.18448 -1.87287,0.18451 H 335.60001 c -0.63034,-3e-5 -1.25464,-0.0615 -1.8729,-0.18451 -0.61822,-0.12295 -1.21853,-0.30505 -1.8009,-0.54626 -0.58237,-0.24125 -1.13559,-0.53699 -1.65973,-0.88718 -0.52411,-0.35019 -1.00903,-0.74814 -1.45474,-1.19385 -0.44574,-0.44571 -0.84372,-0.93063 -1.19391,-1.45477 -0.35019,-0.52411 -0.64591,-1.07733 -0.88712,-1.6597 -0.24124,-0.58237 -0.42334,-1.18265 -0.54629,-1.80087 -0.12296,-0.61823 -0.18445,-1.24253 -0.18442,-1.87287 v -44.79998 c -3e-5,-0.63036 0.0615,-1.25466 0.18442,-1.8729 0.12295,-0.61824 0.30505,-1.21855 0.54629,-1.8009 0.24121,-0.58237 0.53693,-1.13561 0.88712,-1.65972 0.35019,-0.5241 0.74817,-1.00901 1.19391,-1.45472 0.44571,-0.44573 0.93063,-0.84369 1.45471,-1.1939 0.52414,-0.3502 1.07736,-0.6459 1.65973,-0.88713 0.58236,-0.24122 1.18268,-0.42331 1.80093,-0.54628 0.61826,-0.12297 1.24256,-0.18446 1.8729,-0.18446 z" /></g><g
           transform="scale(2.9986053)"
           id="g134"><text
             id="text138"
             style="font-variant:normal;font-weight:bold;font-size:15px;font-family:Arial;-inkscape-font-specification:Arial-BoldMT;writing-mode:lr-tb;fill:#000000;fill-opacity:1;fill-rule:nonzero;stroke:none"
             transform="translate(332,267)"><tspan
               id="tspan136"
               y="0"
               x="0 10.83252 19.174805 24.169922 28.337402 37.5">Action</tspan></text>
<text
             id="text142"
             style="font-variant:normal;font-weight:normal;font-size:15px;font-family:ArialMT;-inkscape-font-specification:ArialMT;writing-mode:lr-tb;fill:#000000;fill-opacity:1;fill-rule:nonzero;stroke:none"
             transform="translate(332,287)"><tspan
               id="tspan140"
               y="0"
               x="0 8.3349609 15.834961 24.177246 32.519531 36.687012 45.029297 49.196777 53.364258 61.706543 69.206543 73.374023 76.706543 85.048828 93.391113">Type of actions</tspan></text>
<path
             id="path144"
             style="fill:#e1d5e7;fill-opacity:1;fill-rule:nonzero;stroke:none"
             d="M 954,118 V 101.5 C 954,92.5 949.5,88 940.5,88 h -236 c -9,0 -13.5,4.5 -13.5,13.5 V 118" /><path
             id="path146"
             style="fill:none;stroke:#9673a6;stroke-width:1;stroke-linecap:butt;stroke-linejoin:miter;stroke-miterlimit:10;stroke-dasharray:none;stroke-opacity:1"
             d="M 954,118 V 101.5 C 954,92.5 949.5,88 940.5,88 h -236 c -9,0 -13.5,4.5 -13.5,13.5 V 118" /><path
             id="path148"
             style="fill:none;stroke:#9673a6;stroke-width:1;stroke-linecap:butt;stroke-linejoin:miter;stroke-miterlimit:10;stroke-dasharray:none;stroke-opacity:1"
             d="m 691,118 v 102 c 0,9 4.5,13.5 13.5,13.5 h 236 c 9,0 13.5,-4.5 13.5,-13.5 V 118" /><path
             id="path150"
             style="fill:none;stroke:#9673a6;stroke-width:1;stroke-linecap:butt;stroke-linejoin:miter;stroke-miterlimit:10;stroke-dasharray:none;stroke-opacity:1"
             d="M 691,118 H 954" /><text
             id="text154"
             style="font-variant:normal;font-weight:bold;font-size:14px;font-family:Arial;-inkscape-font-specification:Arial-BoldMT;writing-mode:lr-tb;fill:#000000;fill-opacity:1;fill-rule:nonzero;stroke:none"
             transform="translate(712.44824,109)"><tspan
               id="tspan152"
               y="0"
               x="0 10.110352 17.896484 22.558594 30.344727 34.234375 42.786133 50.572266 58.358398 63.020508 71.572266 77.020508 84.806641 92.592773 209.28223 217.06836">Date Features #5</tspan></text>
<path
             id="path156"
             style="fill:#0d0d0d;fill-opacity:1;fill-rule:nonzero;stroke:none"
             d="m 726,139.5 c -6e-5,0.33151 -0.0635,0.65041 -0.19037,0.9567 -0.12689,0.30627 -0.30755,0.57662 -0.54193,0.81106 -0.2345,0.23442 -0.50488,0.41506 -0.8111,0.54192 -0.30627,0.12687 -0.62512,0.1903 -0.9566,0.19032 -0.3316,-2e-5 -0.65051,-0.0634 -0.95679,-0.19032 -0.30633,-0.12686 -0.57666,-0.3075 -0.81103,-0.54192 -0.23444,-0.23444 -0.4151,-0.50479 -0.54199,-0.81106 -0.12684,-0.30629 -0.19025,-0.62519 -0.19019,-0.9567 -6e-5,-0.33153 0.0634,-0.65044 0.19025,-0.95673 0.12689,-0.30629 0.30749,-0.57663 0.54193,-0.81105 0.23437,-0.23442 0.5047,-0.41507 0.81103,-0.54193 C 722.84949,137.06343 723.1684,137 723.5,137 c 0.33148,0 0.65033,0.0634 0.9566,0.19029 0.30622,0.12686 0.5766,0.30751 0.8111,0.54193 0.23438,0.23442 0.41504,0.50476 0.54193,0.81105 0.12689,0.30629 0.19031,0.6252 0.19037,0.95673 z" /><text
             id="text160"
             style="font-variant:normal;font-weight:normal;font-size:15px;font-family:ArialMT;-inkscape-font-specification:ArialMT;writing-mode:lr-tb;fill:#0d0d0d;fill-opacity:1;fill-rule:nonzero;stroke:none"
             transform="translate(737,144)"><tspan
               id="tspan158"
               y="0"
               x="0 10.004883 14.172363 22.514648 27.509766 31.677246 35.844727 40.012207 43.344727 55.839844">Start time</tspan></text>
<path
             id="path162"
             style="fill:#0d0d0d;fill-opacity:1;fill-rule:nonzero;stroke:none"
             d="m 726,157.5 c -6e-5,0.3315 -0.0635,0.65041 -0.19037,0.9567 -0.12689,0.30627 -0.30755,0.57662 -0.54193,0.81106 -0.2345,0.23441 -0.50488,0.41504 -0.8111,0.54192 -0.30627,0.12687 -0.62512,0.1903 -0.9566,0.19032 -0.3316,-2e-5 -0.65051,-0.0634 -0.95679,-0.19032 -0.30633,-0.12688 -0.57666,-0.30751 -0.81103,-0.54192 -0.23444,-0.23444 -0.4151,-0.50479 -0.54199,-0.81106 -0.12684,-0.30629 -0.19025,-0.6252 -0.19019,-0.9567 -6e-5,-0.33153 0.0634,-0.65044 0.19025,-0.95673 0.12689,-0.30627 0.30749,-0.57663 0.54193,-0.81105 0.23437,-0.23442 0.5047,-0.41507 0.81103,-0.54193 C 722.84949,155.06343 723.1684,155 723.5,155 c 0.33148,0 0.65033,0.0634 0.9566,0.19029 0.30622,0.12686 0.5766,0.30751 0.8111,0.54193 0.23438,0.23442 0.41504,0.50478 0.54193,0.81105 0.12689,0.30629 0.19031,0.6252 0.19037,0.95673 z" /><text
             id="text166"
             style="font-variant:normal;font-weight:normal;font-size:15px;font-family:ArialMT;-inkscape-font-specification:ArialMT;writing-mode:lr-tb;fill:#0d0d0d;fill-opacity:1;fill-rule:nonzero;stroke:none"
             transform="translate(737,162)"><tspan
               id="tspan164"
               y="0"
               x="0 10.004883 18.347168 26.689453 30.856934 35.024414 38.356934 50.852051">End time</tspan></text>
<path
             id="path168"
             style="fill:#0d0d0d;fill-opacity:1;fill-rule:nonzero;stroke:none"
             d="m 726,175.5 c -6e-5,0.3315 -0.0635,0.65039 -0.19037,0.95668 -0.12689,0.30629 -0.30755,0.57665 -0.54193,0.81107 -0.2345,0.23442 -0.50488,0.41505 -0.8111,0.54191 -0.30627,0.12688 -0.62512,0.19032 -0.9566,0.19034 -0.3316,-2e-5 -0.65051,-0.0635 -0.95679,-0.19034 -0.30633,-0.12686 -0.57666,-0.30749 -0.81103,-0.54191 -0.23444,-0.23442 -0.4151,-0.50478 -0.54199,-0.81107 C 721.06335,176.15039 720.99994,175.8315 721,175.5 c -6e-5,-0.33153 0.0634,-0.65044 0.19025,-0.95673 0.12689,-0.30629 0.30749,-0.57663 0.54193,-0.81105 0.23437,-0.23442 0.5047,-0.41507 0.81103,-0.54194 C 722.84949,173.06343 723.1684,173 723.5,173 c 0.33148,0 0.65033,0.0634 0.9566,0.19028 0.30622,0.12687 0.5766,0.30752 0.8111,0.54194 0.23438,0.23442 0.41504,0.50476 0.54193,0.81105 0.12689,0.30629 0.19031,0.6252 0.19037,0.95673 z" /><text
             id="text172"
             style="font-variant:normal;font-weight:normal;font-size:15px;font-family:ArialMT;-inkscape-font-specification:ArialMT;writing-mode:lr-tb;fill:#0d0d0d;fill-opacity:1;fill-rule:nonzero;stroke:none"
             transform="translate(737,180)"><tspan
               id="tspan170"
               y="0"
               x="0 8.605957 11.938477 24.433594 32.775879 36.943359 41.938477 50.280762 58.623047 66.965332">Time range</tspan></text>
<path
             id="path174"
             style="fill:#0d0d0d;fill-opacity:1;fill-rule:nonzero;stroke:none"
             d="m 726,193.5 c -6e-5,0.3315 -0.0635,0.65039 -0.19037,0.95668 -0.12689,0.30627 -0.30755,0.57663 -0.54193,0.81107 -0.2345,0.23442 -0.50488,0.41505 -0.8111,0.54193 -0.30627,0.12687 -0.62512,0.1903 -0.9566,0.19032 -0.3316,-2e-5 -0.65051,-0.0634 -0.95679,-0.19032 -0.30633,-0.12688 -0.57666,-0.30751 -0.81103,-0.54193 -0.23444,-0.23444 -0.4151,-0.5048 -0.54199,-0.81107 C 721.06335,194.15039 720.99994,193.8315 721,193.5 c -6e-5,-0.33153 0.0634,-0.65045 0.19025,-0.95674 0.12689,-0.30629 0.30749,-0.57663 0.54193,-0.81105 0.23437,-0.23442 0.5047,-0.41507 0.81103,-0.54193 C 722.84949,191.06343 723.1684,191 723.5,191 c 0.33148,0 0.65033,0.0634 0.9566,0.19028 0.30622,0.12686 0.5766,0.30751 0.8111,0.54193 0.23438,0.23442 0.41504,0.50476 0.54193,0.81105 0.12689,0.30629 0.19031,0.62521 0.19037,0.95674 z" /><text
             id="text178"
             style="font-variant:normal;font-weight:normal;font-size:15px;font-family:ArialMT;-inkscape-font-specification:ArialMT;writing-mode:lr-tb;fill:#0d0d0d;fill-opacity:1;fill-rule:nonzero;stroke:none"
             transform="translate(737,198)"><tspan
               id="tspan176"
               y="0"
               x="0 8.605957 11.938477 24.433594 32.775879 36.943359 44.443359 48.61084 56.953125 65.29541 73.637695 81.97998 86.975098 95.317383 99.484863 107.82715 116.16943 123.66943 127.00195 135.34424 139.51172 142.84424 151.18652">Time standard deviation</tspan></text>
<path
             id="path180"
             style="fill:#0d0d0d;fill-opacity:1;fill-rule:nonzero;stroke:none"
             d="m 726,211.5 c -6e-5,0.33151 -0.0635,0.65041 -0.19037,0.9567 -0.12689,0.30629 -0.30755,0.57664 -0.54193,0.81106 -0.2345,0.23441 -0.50488,0.41506 -0.8111,0.54193 -0.30627,0.12685 -0.62512,0.19029 -0.9566,0.19031 -0.3316,-2e-5 -0.65051,-0.0635 -0.95679,-0.19032 -0.30633,-0.12688 -0.57666,-0.30751 -0.81103,-0.54192 -0.23444,-0.23442 -0.4151,-0.50479 -0.54199,-0.81108 -0.12684,-0.30627 -0.19025,-0.62517 -0.19019,-0.95668 -6e-5,-0.33154 0.0634,-0.65047 0.19025,-0.95676 0.12689,-0.30627 0.30749,-0.57661 0.54193,-0.81103 0.23437,-0.23442 0.5047,-0.41506 0.81103,-0.54193 C 722.84949,209.06343 723.1684,209 723.5,209 c 0.33148,0 0.65033,0.0634 0.9566,0.19026 0.30622,0.12688 0.5766,0.30753 0.8111,0.54195 0.23438,0.23442 0.41504,0.50476 0.54193,0.81105 0.12689,0.30629 0.19031,0.6252 0.19037,0.95674 z" /><text
             id="text184"
             style="font-variant:normal;font-weight:normal;font-size:15px;font-family:ArialMT;-inkscape-font-specification:ArialMT;writing-mode:lr-tb;fill:#0d0d0d;fill-opacity:1;fill-rule:nonzero;stroke:none"
             transform="translate(737,216)"><tspan
               id="tspan182"
               y="0"
               x="0 8.605957 11.938477 24.433594 32.775879 36.943359 45.285645 52.785645 61.12793 66.123047 74.465332 82.807617">Time average</tspan></text>
<path
             id="path186"
             style="fill:#fff2cc;fill-opacity:1;fill-rule:nonzero;stroke:none"
             d="m 953,356 v -16.5 c 0,-9 -4.5,-13.5 -13.5,-13.5 h -235 c -9,0 -13.5,4.5 -13.5,13.5 V 356" /><path
             id="path188"
             style="fill:none;stroke:#d6b656;stroke-width:1;stroke-linecap:butt;stroke-linejoin:miter;stroke-miterlimit:10;stroke-dasharray:none;stroke-opacity:1"
             d="m 953,356 v -16.5 c 0,-9 -4.5,-13.5 -13.5,-13.5 h -235 c -9,0 -13.5,4.5 -13.5,13.5 V 356" /><path
             id="path190"
             style="fill:none;stroke:#d6b656;stroke-width:1;stroke-linecap:butt;stroke-linejoin:miter;stroke-miterlimit:10;stroke-dasharray:none;stroke-opacity:1"
             d="m 691,356 v 62.5 c 0,9 4.5,13.5 13.5,13.5 h 235 c 9,0 13.5,-4.5 13.5,-13.5 V 356" /><path
             id="path192"
             style="fill:none;stroke:#d6b656;stroke-width:1;stroke-linecap:butt;stroke-linejoin:miter;stroke-miterlimit:10;stroke-dasharray:none;stroke-opacity:1"
             d="M 691,356 H 953" /><text
             id="text196"
             style="font-variant:normal;font-weight:bold;font-size:14px;font-family:Arial;-inkscape-font-specification:Arial-BoldMT;writing-mode:lr-tb;fill:#000000;fill-opacity:1;fill-rule:nonzero;stroke:none"
             transform="translate(708.55859,347)"><tspan
               id="tspan194"
               y="0"
               x="0 10.110352 17.896484 25.682617 31.130859 35.020508 43.572266 51.358398 59.144531 63.806641 72.358398 77.806641 85.592773 93.378906 221.7373 229.52344">User Features #5</tspan></text>
<path
             id="path198"
             style="fill:#0d0d0d;fill-opacity:1;fill-rule:nonzero;stroke:none"
             d="m 726,377.5 c -6e-5,0.33148 -0.0635,0.65036 -0.19037,0.95663 -0.12689,0.30628 -0.30755,0.57663 -0.54193,0.8111 -0.2345,0.23441 -0.50488,0.41504 -0.8111,0.54193 -0.30627,0.12686 -0.62512,0.19031 -0.9566,0.19034 -0.3316,-3e-5 -0.65051,-0.0635 -0.95679,-0.19034 -0.30633,-0.12689 -0.57666,-0.30752 -0.81103,-0.54193 -0.23444,-0.23447 -0.4151,-0.50482 -0.54199,-0.8111 -0.12684,-0.30627 -0.19025,-0.62515 -0.19019,-0.95663 -6e-5,-0.33154 0.0634,-0.65045 0.19025,-0.95676 0.12689,-0.30627 0.30749,-0.57663 0.54193,-0.81103 0.23437,-0.23444 0.5047,-0.4151 0.81103,-0.54196 C 722.84949,375.06342 723.1684,375 723.5,375 c 0.33148,0 0.65033,0.0634 0.9566,0.19025 0.30622,0.12686 0.5766,0.30752 0.8111,0.54196 0.23438,0.2344 0.41504,0.50476 0.54193,0.81103 0.12689,0.30631 0.19031,0.62522 0.19037,0.95676 z" /><text
             id="text202"
             style="font-variant:normal;font-weight:normal;font-size:15px;font-family:ArialMT;-inkscape-font-specification:ArialMT;writing-mode:lr-tb;fill:#0d0d0d;fill-opacity:1;fill-rule:nonzero;stroke:none"
             transform="translate(737,382)"><tspan
               id="tspan200"
               y="0"
               x="0 10.004883 22.5 30.842285 39.18457 47.526855 51.694336 55.861816 64.204102 68.371582 72.539062 80.881348 88.381348 96.723633 101.71875">Amount of users</tspan></text>
<path
             id="path204"
             style="fill:#0d0d0d;fill-opacity:1;fill-rule:nonzero;stroke:none"
             d="m 726,395.5 c -6e-5,0.33151 -0.0635,0.65039 -0.19037,0.95667 -0.12689,0.30627 -0.30755,0.57662 -0.54193,0.81106 -0.2345,0.23441 -0.50488,0.41504 -0.8111,0.5419 -0.30627,0.12689 -0.62512,0.19034 -0.9566,0.19037 -0.3316,-3e-5 -0.65051,-0.0635 -0.95679,-0.19037 -0.30633,-0.12686 -0.57666,-0.30749 -0.81103,-0.5419 -0.23444,-0.23444 -0.4151,-0.50479 -0.54199,-0.81106 -0.12684,-0.30628 -0.19025,-0.62516 -0.19019,-0.95667 -6e-5,-0.33154 0.0634,-0.65045 0.19025,-0.95676 0.12689,-0.3063 0.30749,-0.57663 0.54193,-0.81103 0.23437,-0.23441 0.5047,-0.41507 0.81103,-0.54196 C 722.84949,393.06342 723.1684,393 723.5,393 c 0.33148,0 0.65033,0.0634 0.9566,0.19025 0.30622,0.12689 0.5766,0.30755 0.8111,0.54196 0.23438,0.2344 0.41504,0.50473 0.54193,0.81103 0.12689,0.30631 0.19031,0.62522 0.19037,0.95676 z" /><text
             id="text208"
             style="font-variant:normal;font-weight:normal;font-size:15px;font-family:ArialMT;-inkscape-font-specification:ArialMT;writing-mode:lr-tb;fill:#0d0d0d;fill-opacity:1;fill-rule:nonzero;stroke:none"
             transform="translate(737,400)"><tspan
               id="tspan206"
               y="0"
               x="0 10.83252 19.174805 27.51709 35.859375 44.20166 52.543945 60.88623 65.053711 73.395996 80.895996 89.238281">Changed user</tspan></text>
<path
             id="path210"
             style="fill:#0d0d0d;fill-opacity:1;fill-rule:nonzero;stroke:none"
             d="m 726,413.5 c -6e-5,0.33148 -0.0635,0.65036 -0.19037,0.95663 -0.12689,0.30628 -0.30755,0.57663 -0.54193,0.81107 -0.2345,0.23441 -0.50488,0.41504 -0.8111,0.5419 -0.30627,0.12689 -0.62512,0.19037 -0.9566,0.1904 -0.3316,-3e-5 -0.65051,-0.0635 -0.95679,-0.19037 -0.30633,-0.12686 -0.57666,-0.30752 -0.81103,-0.54193 -0.23444,-0.23444 -0.4151,-0.50479 -0.54199,-0.81103 -0.12684,-0.30631 -0.19025,-0.62519 -0.19019,-0.95667 -6e-5,-0.33157 0.0634,-0.65048 0.19025,-0.95679 0.12689,-0.3063 0.30749,-0.57663 0.54193,-0.81103 0.23437,-0.23444 0.5047,-0.41507 0.81103,-0.54193 C 722.84949,411.06342 723.1684,411 723.5,411 c 0.33148,0 0.65033,0.0634 0.9566,0.19025 0.30622,0.12686 0.5766,0.30749 0.8111,0.54193 0.23438,0.2344 0.41504,0.50473 0.54193,0.81103 0.12689,0.30631 0.19031,0.62522 0.19037,0.95679 z" /><text
             id="text214"
             style="font-variant:normal;font-weight:normal;font-size:15px;font-family:ArialMT;-inkscape-font-specification:ArialMT;writing-mode:lr-tb;fill:#0d0d0d;fill-opacity:1;fill-rule:nonzero;stroke:none"
             transform="translate(737,418)"><tspan
               id="tspan212"
               y="0"
               x="0 9.1625977 12.495117 15.827637 24.169922 28.337402 36.679688 45.021973 50.01709 54.18457 62.526855 70.026855 78.369141 83.364258 87.531738 92.526855 105.02197 108.35449 116.69678 120.86426 125.03174 137.52686 145.86914 153.36914 157.53662 161.7041 171.43799 178.93799 187.28027">File per user (Min, Max, Avg)</tspan></text>
<path
             id="path216"
             style="fill:#dae8fc;fill-opacity:1;fill-rule:nonzero;stroke:none"
             d="M 526.5,384 V 367.5 C 526.5,358.5 522,354 513,354 H 278 c -9,0 -13.5,4.5 -13.5,13.5 V 384" /><path
             id="path218"
             style="fill:none;stroke:#6c8ebf;stroke-width:1;stroke-linecap:butt;stroke-linejoin:miter;stroke-miterlimit:10;stroke-dasharray:none;stroke-opacity:1"
             d="M 526.5,384 V 367.5 C 526.5,358.5 522,354 513,354 H 278 c -9,0 -13.5,4.5 -13.5,13.5 V 384" /><path
             id="path220"
             style="fill:none;stroke:#6c8ebf;stroke-width:1;stroke-linecap:butt;stroke-linejoin:miter;stroke-miterlimit:10;stroke-dasharray:none;stroke-opacity:1"
             d="m 264.5,384 v 130.5 c 0,9 4.5,13.5 13.5,13.5 h 235 c 9,0 13.5,-4.5 13.5,-13.5 V 384" /><path
             id="path222"
             style="fill:none;stroke:#6c8ebf;stroke-width:1;stroke-linecap:butt;stroke-linejoin:miter;stroke-miterlimit:10;stroke-dasharray:none;stroke-opacity:1"
             d="m 264.5,384 h 262" /><text
             id="text226"
             style="font-variant:normal;font-weight:bold;font-size:14px;font-family:Arial;-inkscape-font-specification:Arial-BoldMT;writing-mode:lr-tb;fill:#000000;fill-opacity:1;fill-rule:nonzero;stroke:none"
             transform="translate(282.55859,375)"><tspan
               id="tspan224"
               y="0"
               x="0 10.110352 17.896484 22.558594 26.448242 35 43.551758 47.441406 55.993164 63.779297 71.56543 76.227539 84.779297 90.227539 98.013672 105.7998 210.82031 218.60645">Action Features #8</tspan></text>
<path
             id="path228"
             style="fill:#0d0d0d;fill-opacity:1;fill-rule:nonzero;stroke:none"
             d="m 300,403.5 c -3e-5,0.33148 -0.0635,0.65036 -0.19034,0.95663 -0.12686,0.30628 -0.30752,0.57663 -0.54193,0.8111 -0.2344,0.23441 -0.50476,0.41504 -0.81106,0.54193 -0.30628,0.12686 -0.62516,0.19031 -0.95667,0.19034 -0.33154,-3e-5 -0.65045,-0.0635 -0.95676,-0.19034 -0.3063,-0.12689 -0.57663,-0.30752 -0.81103,-0.54193 -0.23447,-0.23447 -0.4151,-0.50482 -0.54196,-0.8111 -0.12686,-0.30627 -0.19028,-0.62515 -0.19025,-0.95663 -3e-5,-0.33154 0.0634,-0.65045 0.19025,-0.95676 0.12686,-0.30627 0.30749,-0.57663 0.54196,-0.81103 0.2344,-0.23444 0.50473,-0.4151 0.81103,-0.54196 C 296.84955,401.06342 297.16846,401 297.5,401 c 0.33151,0 0.65039,0.0634 0.95667,0.19025 0.3063,0.12686 0.57666,0.30752 0.81106,0.54196 0.23441,0.2344 0.41507,0.50476 0.54193,0.81103 0.12686,0.30631 0.19031,0.62522 0.19034,0.95676 z" /><text
             id="text232"
             style="font-variant:normal;font-weight:normal;font-size:15px;font-family:ArialMT;-inkscape-font-specification:ArialMT;writing-mode:lr-tb;fill:#0d0d0d;fill-opacity:1;fill-rule:nonzero;stroke:none"
             transform="translate(311,408)"><tspan
               id="tspan230"
               y="0"
               x="0 10.004883 22.5 30.842285 39.18457 47.526855 51.694336 55.861816 60.029297 68.371582">Amount for</tspan></text>
<path
             id="path234"
             style="fill:none;stroke:#0d0d0d;stroke-width:1;stroke-linecap:butt;stroke-linejoin:miter;stroke-miterlimit:10;stroke-dasharray:none;stroke-opacity:1"
             d="m 340,422 c -3e-5,0.26517 -0.0508,0.52026 -0.15225,0.76529 -0.1015,0.24502 -0.246,0.4613 -0.43353,0.64886 -0.18757,0.18753 -0.40384,0.33204 -0.64887,0.43354 -0.24506,0.1015 -0.50018,0.15228 -0.76535,0.15231 -0.26523,-3e-5 -0.52036,-0.0508 -0.76538,-0.15231 -0.24506,-0.1015 -0.46134,-0.24601 -0.64884,-0.43354 -0.18756,-0.18756 -0.33209,-0.40384 -0.43356,-0.64886 C 336.05072,422.52026 335.99997,422.26517 336,422 c -3e-5,-0.26523 0.0507,-0.52036 0.15222,-0.76538 0.10147,-0.24503 0.246,-0.4613 0.43356,-0.64884 0.1875,-0.18753 0.40378,-0.33206 0.64884,-0.43356 C 337.47964,420.05075 337.73477,420 338,420 c 0.26517,0 0.52029,0.0507 0.76535,0.15222 0.24503,0.1015 0.4613,0.24603 0.64887,0.43356 0.18753,0.18754 0.33203,0.40381 0.43353,0.64884 0.10147,0.24502 0.15222,0.50015 0.15225,0.76538 z" /><text
             id="text238"
             style="font-variant:normal;font-weight:normal;font-size:15px;font-family:ArialMT;-inkscape-font-specification:ArialMT;writing-mode:lr-tb;fill:#0d0d0d;fill-opacity:1;fill-rule:nonzero;stroke:none"
             transform="translate(351,426)"><tspan
               id="tspan236"
               y="0"
               x="0 10.83252 19.174805 27.51709 35.859375 48.354492 56.696777 60.864258 65.031738 75.864258 84.206543 87.539062 95.881348 100.04883 108.39111 112.55859">Rename, Delete, </tspan></text>
<text
             id="text242"
             style="font-variant:normal;font-weight:normal;font-size:15px;font-family:ArialMT;-inkscape-font-specification:ArialMT;writing-mode:lr-tb;fill:#0d0d0d;fill-opacity:1;fill-rule:nonzero;stroke:none"
             transform="translate(351,444)"><tspan
               id="tspan240"
               y="0"
               x="0 12.495117 20.837402 29.179688 32.512207 36.679688 40.012207 48.354492 56.696777 60.864258 65.031738 75.036621 83.378906 91.721191 100.06348">Modified, Added</tspan></text>
<path
             id="path244"
             style="fill:#0d0d0d;fill-opacity:1;fill-rule:nonzero;stroke:none"
             d="m 300,473 c -3e-5,0.26517 -0.0508,0.52029 -0.15225,0.76532 -0.10153,0.24503 -0.24603,0.4613 -0.43357,0.64886 -0.18756,0.18754 -0.40383,0.33204 -0.64883,0.43354 -0.24506,0.1015 -0.50018,0.15225 -0.76535,0.15228 -0.26523,-3e-5 -0.52036,-0.0508 -0.76538,-0.15228 -0.24506,-0.1015 -0.46134,-0.246 -0.64887,-0.43354 -0.18753,-0.18756 -0.33206,-0.40383 -0.43353,-0.64886 C 296.05072,473.52029 295.99997,473.26517 296,473 c -3e-5,-0.26526 0.0507,-0.52042 0.15222,-0.76544 0.10147,-0.24503 0.246,-0.46128 0.43353,-0.64881 0.18753,-0.18753 0.40381,-0.33206 0.64887,-0.43353 C 297.47964,471.05075 297.73477,471 298,471 c 0.26517,0 0.52029,0.0507 0.76535,0.15222 0.245,0.10147 0.46127,0.246 0.64883,0.43353 0.18754,0.18753 0.33204,0.40381 0.43357,0.64884 0.10147,0.24502 0.15222,0.50015 0.15225,0.76541 z" /><text
             id="text248"
             style="font-variant:normal;font-weight:normal;font-size:15px;font-family:ArialMT;-inkscape-font-specification:ArialMT;writing-mode:lr-tb;fill:#0d0d0d;fill-opacity:1;fill-rule:nonzero;stroke:none"
             transform="translate(311,477)"><tspan
               id="tspan246"
               y="0"
               x="0 10.83252 19.174805 22.507324 26.674805 35.01709 39.18457 46.68457 55.026855 67.521973 75.864258 84.206543 89.20166 97.543945 105.88623 110.05371 114.22119 122.56348 126.73096 130.06348 138.40576 145.90576 150.07324 154.24072 162.58301 170.92529 178.42529 185.92529 194.26758">Delta compared to last backup</tspan></text>
<path
             id="path250"
             style="fill:none;stroke:#0d0d0d;stroke-width:1;stroke-linecap:butt;stroke-linejoin:miter;stroke-miterlimit:10;stroke-dasharray:none;stroke-opacity:1"
             d="m 340,491 c -3e-5,0.26517 -0.0508,0.52029 -0.15225,0.76532 -0.1015,0.24503 -0.246,0.4613 -0.43353,0.64886 -0.18757,0.18754 -0.40384,0.33204 -0.64887,0.43351 -0.24506,0.1015 -0.50018,0.15228 -0.76535,0.15231 -0.26523,-3e-5 -0.52036,-0.0508 -0.76538,-0.15231 -0.24506,-0.10147 -0.46134,-0.24597 -0.64884,-0.43351 -0.18756,-0.18756 -0.33209,-0.40383 -0.43356,-0.64886 C 336.05072,491.52029 335.99997,491.26517 336,491 c -3e-5,-0.26523 0.0507,-0.52039 0.15222,-0.76541 0.10147,-0.24506 0.246,-0.46134 0.43356,-0.64884 0.1875,-0.18756 0.40378,-0.33209 0.64884,-0.43356 C 337.47964,489.05072 337.73477,489 338,489 c 0.26517,0 0.52029,0.0507 0.76535,0.15219 0.24503,0.10147 0.4613,0.246 0.64887,0.43356 0.18753,0.1875 0.33203,0.40378 0.43353,0.64884 0.10147,0.24502 0.15222,0.50018 0.15225,0.76541 z" /><text
             id="text254"
             style="font-variant:normal;font-weight:normal;font-size:15px;font-family:ArialMT;-inkscape-font-specification:ArialMT;writing-mode:lr-tb;fill:#0d0d0d;fill-opacity:1;fill-rule:nonzero;stroke:none"
             transform="translate(351,495)"><tspan
               id="tspan252"
               y="0"
               x="0 10.83252 19.174805 27.51709 35.859375 48.354492 56.696777 60.864258 65.031738 75.864258 84.206543 87.539062 95.881348 100.04883 108.39111">Rename, Delete,</tspan></text>
<text
             id="text258"
             style="font-variant:normal;font-weight:normal;font-size:15px;font-family:ArialMT;-inkscape-font-specification:ArialMT;writing-mode:lr-tb;fill:#0d0d0d;fill-opacity:1;fill-rule:nonzero;stroke:none"
             transform="translate(351,515)"><tspan
               id="tspan256"
               y="0"
               x="0 12.495117 20.837402 29.179688 32.512207 36.679688 40.012207 48.354492 56.696777 60.864258 65.031738 75.036621 83.378906 91.721191 100.06348">Modified, Added</tspan></text>
<path
             id="path260"
             style="fill:#ffe6cc;fill-opacity:1;fill-rule:nonzero;stroke:none"
             d="m 236,247 v -16.5 c 0,-9 -4.5,-13.5 -13.5,-13.5 H 14.5 C 5.5,217 1,221.5 1,230.5 V 247" /><path
             id="path262"
             style="fill:none;stroke:#d79b00;stroke-width:1;stroke-linecap:butt;stroke-linejoin:miter;stroke-miterlimit:10;stroke-dasharray:none;stroke-opacity:1"
             d="m 236,247 v -16.5 c 0,-9 -4.5,-13.5 -13.5,-13.5 H 14.5 C 5.5,217 1,221.5 1,230.5 V 247" /><path
             id="path264"
             style="fill:none;stroke:#d79b00;stroke-width:1;stroke-linecap:butt;stroke-linejoin:miter;stroke-miterlimit:10;stroke-dasharray:none;stroke-opacity:1"
             d="m 1,247 v 93.5 c 0,9 4.5,13.5 13.5,13.5 h 208 c 9,0 13.5,-4.5 13.5,-13.5 V 247" /><path
             id="path266"
             style="fill:none;stroke:#d79b00;stroke-width:1;stroke-linecap:butt;stroke-linejoin:miter;stroke-miterlimit:10;stroke-dasharray:none;stroke-opacity:1"
             d="M 1,247 H 236" /><text
             id="text270"
             style="font-variant:normal;font-weight:bold;font-size:14px;font-family:Arial;-inkscape-font-specification:Arial-BoldMT;writing-mode:lr-tb;fill:#000000;fill-opacity:1;fill-rule:nonzero;stroke:none"
             transform="translate(18.558594,238)"><tspan
               id="tspan268"
               y="0"
               x="0 9.3378906 17.124023 21.786133 30.337891 34.227539 42.779297 50.56543 58.351562 63.013672 71.56543 77.013672 84.799805 92.585938 189.82715 197.61328">Path Features #5</tspan></text>
<path
             id="path272"
             style="fill:#000000;fill-opacity:1;fill-rule:nonzero;stroke:none"
             d="m 36,268.5 c -4e-6,0.33148 -0.06344,0.65036 -0.190308,0.95663 -0.126869,0.30631 -0.307514,0.57666 -0.541931,0.8111 -0.234421,0.23441 -0.504772,0.41504 -0.811058,0.54193 C 34.150417,270.93652 33.831516,270.99997 33.5,271 c -0.331524,-3e-5 -0.650425,-0.0635 -0.956711,-0.19034 -0.306286,-0.12689 -0.576639,-0.30752 -0.811058,-0.54193 -0.234421,-0.23444 -0.415066,-0.50479 -0.541935,-0.81106 C 31.063431,269.15036 30.999998,268.83148 31,268.5 c -2e-6,-0.33154 0.06343,-0.65045 0.190298,-0.95676 0.126867,-0.30627 0.307512,-0.57663 0.541933,-0.81103 0.234419,-0.23441 0.504772,-0.41507 0.811058,-0.54193 C 32.849575,266.06342 33.168476,266 33.5,266 c 0.331516,0 0.650417,0.0634 0.956703,0.19028 0.306286,0.12686 0.576637,0.30752 0.811058,0.54193 0.234417,0.2344 0.415062,0.50476 0.541931,0.81106 0.12687,0.30628 0.190304,0.62519 0.190308,0.95673 z" /><text
             id="text276"
             style="font-variant:normal;font-weight:normal;font-size:15px;font-family:ArialMT;-inkscape-font-specification:ArialMT;writing-mode:lr-tb;fill:#000000;fill-opacity:1;fill-rule:nonzero;stroke:none"
             transform="translate(47,273)"><tspan
               id="tspan274"
               y="0"
               x="0 10.83252 14.165039 18.061523 22.229004 30.571289 35.566406 43.908691 52.250977 56.418457 60.585938 64.753418 73.095703 76.428223 84.770508 93.112793 98.10791">Different folders</tspan></text>
<path
             id="path278"
             style="fill:#000000;fill-opacity:1;fill-rule:nonzero;stroke:none"
             d="m 36,286.5 c -4e-6,0.33151 -0.06344,0.65039 -0.190308,0.95667 -0.126869,0.30627 -0.307514,0.57662 -0.541931,0.81106 -0.234421,0.23441 -0.504772,0.41504 -0.811058,0.5419 C 34.150417,288.93652 33.831516,288.99997 33.5,289 c -0.331524,-3e-5 -0.650425,-0.0635 -0.956711,-0.19037 -0.306286,-0.12686 -0.576639,-0.30749 -0.811058,-0.5419 -0.234421,-0.23444 -0.415066,-0.50479 -0.541935,-0.81106 C 31.063431,287.15039 30.999998,286.83151 31,286.5 c -2e-6,-0.33154 0.06343,-0.65045 0.190298,-0.95673 0.126867,-0.3063 0.307512,-0.57666 0.541933,-0.81106 0.234419,-0.23441 0.504772,-0.41507 0.811058,-0.54193 C 32.849575,284.06342 33.168476,284 33.5,284 c 0.331516,0 0.650417,0.0634 0.956703,0.19028 0.306286,0.12686 0.576637,0.30752 0.811058,0.54193 0.234417,0.2344 0.415062,0.50476 0.541931,0.81106 0.12687,0.30628 0.190304,0.62519 0.190308,0.95673 z" /><text
             id="text282"
             style="font-variant:normal;font-weight:normal;font-size:15px;font-family:ArialMT;-inkscape-font-specification:ArialMT;writing-mode:lr-tb;fill:#000000;fill-opacity:1;fill-rule:nonzero;stroke:none"
             transform="translate(47,291)"><tspan
               id="tspan280"
               y="0"
               x="0 10.004883 22.5 30.842285 39.18457 47.526855 51.694336 55.861816 64.204102 68.371582 72.539062 76.706543 80.039062 83.371582 91.713867 95.881348 104.22363 112.56592 120.9082 124.24072 132.58301 140.92529">Amount of file endings</tspan></text>
<path
             id="path284"
             style="fill:#000000;fill-opacity:1;fill-rule:nonzero;stroke:none"
             d="m 36,304.5 c -4e-6,0.33151 -0.06344,0.65039 -0.190308,0.95667 -0.126869,0.3063 -0.307514,0.57666 -0.541931,0.81109 -0.234421,0.23441 -0.504772,0.41504 -0.811058,0.5419 C 34.150417,306.93652 33.831516,306.99997 33.5,307 c -0.331524,-3e-5 -0.650425,-0.0635 -0.956711,-0.19034 -0.306286,-0.12686 -0.576639,-0.30749 -0.811058,-0.5419 -0.234421,-0.23443 -0.415066,-0.50479 -0.541935,-0.81109 C 31.063431,305.15039 30.999998,304.83151 31,304.5 c -2e-6,-0.33154 0.06343,-0.65045 0.190298,-0.95676 0.126867,-0.30627 0.307512,-0.5766 0.541933,-0.811 0.234419,-0.23444 0.504772,-0.4151 0.811058,-0.54196 C 32.849575,302.06342 33.168476,302 33.5,302 c 0.331516,0 0.650417,0.0634 0.956703,0.19028 0.306286,0.12686 0.576637,0.30752 0.811058,0.54196 0.234417,0.2344 0.415062,0.50473 0.541931,0.811 0.12687,0.30631 0.190304,0.62522 0.190308,0.95676 z" /><text
             id="text288"
             style="font-variant:normal;font-weight:normal;font-size:15px;font-family:ArialMT;-inkscape-font-specification:ArialMT;writing-mode:lr-tb;fill:#000000;fill-opacity:1;fill-rule:nonzero;stroke:none"
             transform="translate(47,309)"><tspan
               id="tspan286"
               y="0"
               x="0 9.7338867 17.233887 25.576172 29.743652 38.085938 41.418457 45.314941 49.482422 57.824707 62.819824 71.162109 79.504395 83.671875 87.839355 92.006836 95.339355 98.671875 107.01416 111.18164 119.52393 127.86621 136.2085 139.54102 147.8833 156.22559">Avg different file endings</tspan></text>
<path
             id="path290"
             style="fill:#000000;fill-opacity:1;fill-rule:nonzero;stroke:none"
             d="m 36,322.5 c -4e-6,0.33151 -0.06344,0.65039 -0.190308,0.9567 -0.126869,0.30627 -0.307514,0.57663 -0.541931,0.81103 -0.234421,0.23441 -0.504772,0.41507 -0.811058,0.54193 C 34.150417,324.93652 33.831516,324.99997 33.5,325 c -0.331524,-3e-5 -0.650425,-0.0635 -0.956711,-0.19034 -0.306286,-0.12686 -0.576639,-0.30752 -0.811058,-0.54193 -0.234421,-0.2344 -0.415066,-0.50476 -0.541935,-0.81103 C 31.063431,323.15039 30.999998,322.83151 31,322.5 c -2e-6,-0.33154 0.06343,-0.65045 0.190298,-0.95676 0.126867,-0.30627 0.307512,-0.57663 0.541933,-0.81103 0.234419,-0.23444 0.504772,-0.41507 0.811058,-0.54193 C 32.849575,320.06342 33.168476,320 33.5,320 c 0.331516,0 0.650417,0.0634 0.956703,0.19028 0.306286,0.12686 0.576637,0.30749 0.811058,0.54193 0.234417,0.2344 0.415062,0.50476 0.541931,0.81103 0.12687,0.30631 0.190304,0.62522 0.190308,0.95676 z" /><text
             id="text294"
             style="font-variant:normal;font-weight:normal;font-size:15px;font-family:ArialMT;-inkscape-font-specification:ArialMT;writing-mode:lr-tb;fill:#000000;fill-opacity:1;fill-rule:nonzero;stroke:none"
             transform="translate(47,327)"><tspan
               id="tspan292"
               y="0"
               x="0 9.1625977 12.495117 15.827637 24.169922 28.337402 36.679688 45.021973 49.189453 53.356934 61.699219 66.694336 75.036621 82.536621 85.869141 94.211426 102.55371 110.05371 113.38623 120.88623 125.05371 132.55371 136.72119 145.06348 150.05859 158.40088">File not previously stored</tspan></text>
<path
             id="path296"
             style="fill:#000000;fill-opacity:1;fill-rule:nonzero;stroke:none"
             d="m 36,340.5 c -4e-6,0.33148 -0.06344,0.65036 -0.190308,0.95663 -0.126869,0.30631 -0.307514,0.57666 -0.541931,0.8111 -0.234421,0.23441 -0.504772,0.41504 -0.811058,0.54193 C 34.150417,342.93652 33.831516,342.99997 33.5,343 c -0.331524,-3e-5 -0.650425,-0.0635 -0.956711,-0.19034 -0.306286,-0.12689 -0.576639,-0.30752 -0.811058,-0.54193 -0.234421,-0.23444 -0.415066,-0.50479 -0.541935,-0.8111 C 31.063431,341.15036 30.999998,340.83148 31,340.5 c -2e-6,-0.33154 0.06343,-0.65045 0.190298,-0.95676 0.126867,-0.3063 0.307512,-0.57663 0.541933,-0.81103 0.234419,-0.23441 0.504772,-0.41507 0.811058,-0.54193 C 32.849575,338.06342 33.168476,338 33.5,338 c 0.331516,0 0.650417,0.0634 0.956703,0.19028 0.306286,0.12686 0.576637,0.30752 0.811058,0.54193 0.234417,0.2344 0.415062,0.50473 0.541931,0.81103 0.12687,0.30631 0.190304,0.62522 0.190308,0.95676 z" /><text
             id="text300"
             style="font-variant:normal;font-weight:normal;font-size:15px;font-family:ArialMT;-inkscape-font-specification:ArialMT;writing-mode:lr-tb;fill:#000000;fill-opacity:1;fill-rule:nonzero;stroke:none"
             transform="translate(47,345)"><tspan
               id="tspan298"
               y="0"
               x="0 10.83252 15.827637 24.169922 31.669922 39.169922 43.337402 50.837402 59.179688 66.679688 70.847168 74.179688 82.521973">Cross section</tspan></text>
<path
             id="path302"
             style="fill:#ffe6cc;fill-opacity:1;fill-rule:nonzero;stroke:none"
             d="M 236,62 V 45.5 C 236,36.5 231.5,32 222.5,32 H 14.5 C 5.5,32 1,36.5 1,45.5 V 62" /><path
             id="path304"
             style="fill:none;stroke:#d79b00;stroke-width:1;stroke-linecap:butt;stroke-linejoin:miter;stroke-miterlimit:10;stroke-dasharray:none;stroke-opacity:1"
             d="M 236,62 V 45.5 C 236,36.5 231.5,32 222.5,32 H 14.5 C 5.5,32 1,36.5 1,45.5 V 62" /><path
             id="path306"
             style="fill:none;stroke:#d79b00;stroke-width:1;stroke-linecap:butt;stroke-linejoin:miter;stroke-miterlimit:10;stroke-dasharray:none;stroke-opacity:1"
             d="m 1,62 v 93.5 c 0,9 4.5,13.5 13.5,13.5 h 208 c 9,0 13.5,-4.5 13.5,-13.5 V 62" /><path
             id="path308"
             style="fill:none;stroke:#d79b00;stroke-width:1;stroke-linecap:butt;stroke-linejoin:miter;stroke-miterlimit:10;stroke-dasharray:none;stroke-opacity:1"
             d="M 1,62 H 236" /><text
             id="text312"
             style="font-variant:normal;font-weight:bold;font-size:14px;font-family:Arial;-inkscape-font-specification:Arial-BoldMT;writing-mode:lr-tb;fill:#000000;fill-opacity:1;fill-rule:nonzero;stroke:none"
             transform="translate(18.558594,53)"><tspan
               id="tspan310"
               y="0"
               x="0 8.5517578 12.441406 16.331055 24.117188 28.779297 34.227539 42.013672 49.799805 53.689453 62.241211 70.027344 77.813477 82.475586 91.027344 96.475586 104.26172 112.04785 193.73047 201.5166">Filetree Features #6</tspan></text>
<path
             id="path314"
             style="fill:#000000;fill-opacity:1;fill-rule:nonzero;stroke:none"
             d="m 36,83.5 c -4e-6,0.331512 -0.06344,0.650414 -0.190308,0.956696 -0.126869,0.306282 -0.307514,0.576637 -0.541931,0.811065 -0.234421,0.234421 -0.504772,0.415062 -0.811058,0.541931 C 34.150417,85.936562 33.831516,85.999992 33.5,86 33.168476,85.999992 32.849575,85.93656 32.543289,85.809692 32.237003,85.682823 31.96665,85.502182 31.732231,85.267761 31.49781,85.033333 31.317165,84.762978 31.190296,84.456696 31.063431,84.150414 30.999998,83.831512 31,83.5 c -2e-6,-0.331528 0.06343,-0.650436 0.190298,-0.956718 C 31.317165,82.237 31.49781,81.966644 31.732231,81.732231 31.96665,81.497803 32.237003,81.317162 32.543289,81.1903 32.849575,81.063431 33.168476,81 33.5,81 c 0.331516,0 0.650417,0.06343 0.956703,0.1903 0.306286,0.126862 0.576637,0.307503 0.811058,0.541931 0.234417,0.234413 0.415062,0.504769 0.541931,0.811051 C 35.936562,82.849564 35.999996,83.168472 36,83.5 Z" /><text
             id="text318"
             style="font-variant:normal;font-weight:normal;font-size:15px;font-family:ArialMT;-inkscape-font-specification:ArialMT;writing-mode:lr-tb;fill:#000000;fill-opacity:1;fill-rule:nonzero;stroke:none"
             transform="translate(47,88)"><tspan
               id="tspan316"
               y="0"
               x="0 10.004883 18.347168 22.514648 30.856934 35.024414 43.366699 51.708984 60.05127 68.393555 72.561035 80.90332">Path Length </tspan></text>
<path
             id="path320"
             style="fill:none;stroke:#000000;stroke-width:1;stroke-linecap:butt;stroke-linejoin:miter;stroke-miterlimit:10;stroke-dasharray:none;stroke-opacity:1"
             d="m 76,101.5 c -8e-6,0.33151 -0.06344,0.65041 -0.190308,0.9567 -0.126869,0.30628 -0.307518,0.57663 -0.541931,0.81105 -0.234428,0.23442 -0.504783,0.41506 -0.811065,0.54193 C 74.150414,103.93655 73.831512,103.99999 73.5,104 c -0.331528,-1e-5 -0.650436,-0.0635 -0.956718,-0.19031 -0.306282,-0.12687 -0.576638,-0.30752 -0.811051,-0.54194 -0.234428,-0.23442 -0.415069,-0.50477 -0.541939,-0.81105 C 71.063423,102.15041 70.999992,101.83151 71,101.5 c -8e-6,-0.33153 0.06342,-0.65044 0.190292,-0.95673 0.12687,-0.30628 0.307511,-0.576633 0.541939,-0.811046 0.234413,-0.234429 0.504769,-0.41507 0.811051,-0.541932 C 72.849564,99.063431 73.168472,99 73.5,99 c 0.331512,0 0.650414,0.06343 0.956696,0.1903 0.306282,0.126854 0.576637,0.307495 0.811065,0.541924 0.234413,0.234413 0.415062,0.504766 0.541931,0.811046 0.12687,0.30629 0.1903,0.6252 0.190308,0.95673 z" /><text
             id="text324"
             style="font-variant:normal;font-weight:normal;font-size:15px;font-family:ArialMT;-inkscape-font-specification:ArialMT;writing-mode:lr-tb;fill:#000000;fill-opacity:1;fill-rule:nonzero;stroke:none"
             transform="translate(87,106)"><tspan
               id="tspan322"
               y="0"
               x="0 12.495117 15.827637 24.169922 28.337402 32.504883 45 53.342285 60.842285 65.009766 69.177246 78.911133 86.411133">Min, Max, Avg</tspan></text>
<path
             id="path326"
             style="fill:#000000;fill-opacity:1;fill-rule:nonzero;stroke:none"
             d="m 36,137.5 c -4e-6,0.33151 -0.06344,0.65041 -0.190308,0.9567 -0.126869,0.30628 -0.307514,0.57664 -0.541931,0.81106 -0.234421,0.23442 -0.504772,0.41506 -0.811058,0.54192 -0.306286,0.12687 -0.625187,0.1903 -0.956703,0.19032 -0.331524,-2e-5 -0.650425,-0.0634 -0.956711,-0.19032 -0.306286,-0.12686 -0.576639,-0.3075 -0.811058,-0.54192 -0.234421,-0.23442 -0.415066,-0.50478 -0.541935,-0.81106 C 31.063431,138.15041 30.999998,137.83151 31,137.5 c -2e-6,-0.33153 0.06343,-0.65044 0.190298,-0.95673 0.126867,-0.30629 0.307512,-0.57663 0.541933,-0.81105 0.234419,-0.23442 0.504772,-0.41507 0.811058,-0.54194 C 32.849575,135.06343 33.168476,135 33.5,135 c 0.331516,0 0.650417,0.0634 0.956703,0.19028 0.306286,0.12687 0.576637,0.30752 0.811058,0.54194 0.234417,0.23442 0.415062,0.50476 0.541931,0.81105 0.12687,0.30629 0.190304,0.6252 0.190308,0.95673 z" /><text
             id="text330"
             style="font-variant:normal;font-weight:normal;font-size:15px;font-family:ArialMT;-inkscape-font-specification:ArialMT;writing-mode:lr-tb;fill:#000000;fill-opacity:1;fill-rule:nonzero;stroke:none"
             transform="translate(47,142)"><tspan
               id="tspan328"
               y="0"
               x="0 10.004883 15 23.342285 31.68457 39.18457 47.526855 50.859375 59.20166 67.543945 71.711426 80.874023 89.216309 96.716309 100.88379 109.22607 114.22119">Branching Factor </tspan></text>
<path
             id="path332"
             style="fill:none;stroke:#000000;stroke-width:1;stroke-linecap:butt;stroke-linejoin:miter;stroke-miterlimit:10;stroke-dasharray:none;stroke-opacity:1"
             d="m 76,155.5 c -8e-6,0.33151 -0.06344,0.65041 -0.190308,0.95668 -0.126869,0.30629 -0.307518,0.57664 -0.541931,0.81108 -0.234428,0.23442 -0.504783,0.41506 -0.811065,0.54192 -0.306282,0.12687 -0.625184,0.1903 -0.956696,0.19032 -0.331528,-2e-5 -0.650436,-0.0634 -0.956718,-0.19032 -0.306282,-0.12686 -0.576638,-0.3075 -0.811051,-0.54192 -0.234428,-0.23444 -0.415069,-0.50479 -0.541939,-0.81108 C 71.063423,156.15041 70.999992,155.83151 71,155.5 c -8e-6,-0.33153 0.06342,-0.65045 0.190292,-0.95674 0.12687,-0.30629 0.307511,-0.57663 0.541939,-0.81105 0.234413,-0.23442 0.504769,-0.41506 0.811051,-0.54193 C 72.849564,153.06343 73.168472,153 73.5,153 c 0.331512,0 0.650414,0.0634 0.956696,0.19028 0.306282,0.12687 0.576637,0.30751 0.811065,0.54193 0.234413,0.23442 0.415062,0.50476 0.541931,0.81105 0.12687,0.30629 0.1903,0.62521 0.190308,0.95674 z" /><text
             id="text336"
             style="font-variant:normal;font-weight:normal;font-size:15px;font-family:ArialMT;-inkscape-font-specification:ArialMT;writing-mode:lr-tb;fill:#000000;fill-opacity:1;fill-rule:nonzero;stroke:none"
             transform="translate(87,160)"><tspan
               id="tspan334"
               y="0"
               x="0 12.495117 15.827637 24.169922 28.337402 32.504883 45 53.342285 60.842285 65.009766 69.177246 78.911133 86.411133">Min, Max, Avg</tspan></text>
<path
             id="path338"
             style="fill:#d5e8d4;fill-opacity:1;fill-rule:nonzero;stroke:none"
             d="M 557,31 V 14.5 C 557,5.5 552.5,1 543.5,1 h -147 C 387.5,1 383,5.5 383,14.5 V 31" /><path
             id="path340"
             style="fill:none;stroke:#82b366;stroke-width:1;stroke-linecap:butt;stroke-linejoin:miter;stroke-miterlimit:10;stroke-dasharray:none;stroke-opacity:1"
             d="M 557,31 V 14.5 C 557,5.5 552.5,1 543.5,1 h -147 C 387.5,1 383,5.5 383,14.5 V 31" /><path
             id="path342"
             style="fill:none;stroke:#82b366;stroke-width:1;stroke-linecap:butt;stroke-linejoin:miter;stroke-miterlimit:10;stroke-dasharray:none;stroke-opacity:1"
             d="m 383,31 v 43.5 c 0,9 4.5,13.5 13.5,13.5 h 147 c 9,0 13.5,-4.5 13.5,-13.5 V 31" /><path
             id="path344"
             style="fill:none;stroke:#82b366;stroke-width:1;stroke-linecap:butt;stroke-linejoin:miter;stroke-miterlimit:10;stroke-dasharray:none;stroke-opacity:1"
             d="M 383,31 H 557" /><text
             id="text348"
             style="font-variant:normal;font-weight:bold;font-size:14px;font-family:Arial;-inkscape-font-specification:Arial-BoldMT;writing-mode:lr-tb;fill:#000000;fill-opacity:1;fill-rule:nonzero;stroke:none"
             transform="translate(392.7793,22)"><tspan
               id="tspan346"
               y="0"
               x="0 10.889648 18.675781 27.227539 35.013672 40.461914 48.248047 52.137695 56.027344 64.579102 72.365234 80.151367 84.813477 93.365234 98.813477 106.59961 114.38574 137.72363 145.50977">General Features #2</tspan></text>
<path
             id="path350"
             style="fill:#0d0d0d;fill-opacity:1;fill-rule:nonzero;stroke:none"
             d="m 418,52.5 c -3e-5,0.331516 -0.0635,0.650417 -0.19037,0.956699 -0.12686,0.306286 -0.30749,0.576638 -0.5419,0.811062 -0.23444,0.234417 -0.50479,0.415062 -0.81106,0.541928 C 416.15036,54.936558 415.83148,54.999996 415.5,55 c -0.33154,-4e-6 -0.65045,-0.06344 -0.95676,-0.190311 -0.30627,-0.126866 -0.57663,-0.307511 -0.81103,-0.541928 -0.23444,-0.234424 -0.4151,-0.504776 -0.54196,-0.811062 C 413.06339,53.150417 412.99997,52.831516 413,52.5 c -3e-5,-0.331524 0.0634,-0.650425 0.19025,-0.956711 0.12686,-0.306286 0.30752,-0.576641 0.54196,-0.811058 0.2344,-0.234424 0.50476,-0.415069 0.81103,-0.541935 C 414.84955,50.063431 415.16846,50 415.5,50 c 0.33148,0 0.65036,0.06343 0.95663,0.190296 0.30631,0.126866 0.57666,0.307511 0.8111,0.541935 0.23441,0.234417 0.41504,0.504772 0.5419,0.811058 0.12689,0.306286 0.19034,0.625187 0.19037,0.956711 z" /><text
             id="text354"
             style="font-variant:normal;font-weight:normal;font-size:15px;font-family:ArialMT;-inkscape-font-specification:ArialMT;writing-mode:lr-tb;fill:#0d0d0d;fill-opacity:1;fill-rule:nonzero;stroke:none"
             transform="translate(429,57)"><tspan
               id="tspan352"
               y="0"
               x="0 10.004883 22.5 30.842285 39.18457 47.526855">Amount</tspan></text>
<path
             id="path356"
             style="fill:#0d0d0d;fill-opacity:1;fill-rule:nonzero;stroke:none"
             d="m 418,70.5 c -3e-5,0.331512 -0.0635,0.650414 -0.19037,0.956696 -0.12686,0.306282 -0.30749,0.576637 -0.5419,0.811065 -0.23444,0.234421 -0.50479,0.415062 -0.81106,0.541931 -0.30631,0.12687 -0.62519,0.1903 -0.95667,0.190308 -0.33154,-8e-6 -0.65045,-0.06344 -0.95676,-0.190308 -0.30627,-0.126869 -0.57663,-0.30751 -0.81103,-0.541931 -0.23444,-0.234428 -0.4151,-0.504783 -0.54196,-0.811065 C 413.06339,71.150414 412.99997,70.831512 413,70.5 c -3e-5,-0.331528 0.0634,-0.650436 0.19025,-0.956718 0.12686,-0.306282 0.30752,-0.576638 0.54196,-0.811051 0.2344,-0.234421 0.50476,-0.415069 0.81103,-0.541939 C 414.84955,68.063431 415.16846,68 415.5,68 c 0.33148,0 0.65036,0.06343 0.95663,0.190292 0.30631,0.12687 0.57666,0.307518 0.8111,0.541939 0.23441,0.234413 0.41504,0.504769 0.5419,0.811051 0.12689,0.306282 0.19034,0.62519 0.19037,0.956718 z" /><text
             id="text360"
             style="font-variant:normal;font-weight:normal;font-size:15px;font-family:ArialMT;-inkscape-font-specification:ArialMT;writing-mode:lr-tb;fill:#0d0d0d;fill-opacity:1;fill-rule:nonzero;stroke:none"
             transform="translate(429,75)"><tspan
               id="tspan358"
               y="0"
               x="0 10.004883 22.5 30.842285 39.18457 47.526855 51.694336 55.861816 64.204102 72.546387 75.878906 80.046387">Amount delta</tspan></text>
</g></g></g></g></svg>