<?xml version="1.0" encoding="UTF-8" standalone="no"?>
<!DOCTYPE svg PUBLIC "-//W3C//DTD SVG 1.1//EN" "http://www.w3.org/Graphics/SVG/1.1/DTD/svg11.dtd">
<svg xmlns="http://www.w3.org/2000/svg" xmlns:xlink="http://www.w3.org/1999/xlink" version="1.1" width="463.91999pt" height="174pt" viewBox="0 0 463.91999 174">
<g enable-background="new">
<clipPath id="cp0">
<path transform="matrix(.24,0,0,.24,0,0)" d="M 0 0 L 1933.3333 0 L 1933.3333 724.2518 L 0 724.2518 Z " fill-rule="evenodd"/>
</clipPath>
<g clip-path="url(#cp0)">
<path transform="matrix(.7182662,0,0,.7182662,0,0)" d="M 0 0 L 646 0 L 646 242 L 0 242 Z " fill="#ffffff"/>
</g>
<clipPath id="cp1">
<path transform="matrix(.24,0,0,.24,0,0)" d="M 0 0 L 1933.3333 0 L 1933.3333 718.26626 L 0 718.26626 Z " fill-rule="evenodd"/>
</clipPath>
<g clip-path="url(#cp1)">
<path transform="matrix(.7182662,0,0,.7182662,.3591331,.3591331)" d="M 203.8 8 L 444.2 8 C 444.8365 8 445.44877 8.121793 446.0368 8.365378 C 446.62489 8.608963 447.14399 8.955799 447.5941 9.405887 C 448.04417 9.855974 448.391 10.3750519 448.63459 10.963119 C 448.87818 11.551186 448.99998 12.163479 449 12.8 L 449 35.2 C 448.99998 35.836519 448.87818 36.44881 448.63459 37.03688 C 448.391 37.624948 448.04417 38.144025 447.5941 38.59411 C 447.14399 39.044195 446.62489 39.39103 446.03684 39.634614 C 445.44877 39.8782 444.8365 39.999998 444.2 40 L 203.8 40 C 203.16347 39.999998 202.55117 39.8782 201.9631 39.634614 C 201.37503 39.39103 200.85596 39.044195 200.40589 38.59411 C 199.95578 38.144025 199.60894 37.624948 199.36536 37.036878 C 199.12178 36.44881 198.99999 35.836519 199 35.2 L 199 12.8 C 198.99999 12.163479 199.12178 11.551186 199.36536 10.963119 C 199.60894 10.3750519 199.95578 9.855974 200.40589 9.405887 C 200.85596 8.955799 201.37503 8.608962 201.9631 8.365376 C 202.55117 8.121792 203.16347 8 203.8 8 Z " fill="#d5e8d4"/>
<path transform="matrix(.7182662,0,0,.7182662,.3591331,.3591331)" stroke-width="1" stroke-linecap="butt" stroke-miterlimit="4" stroke-linejoin="miter" fill="none" stroke="#82b366" d="M 203.8 8 L 444.2 8 C 444.8365 8 445.44877 8.121793 446.0368 8.365378 C 446.62489 8.608963 447.14399 8.955799 447.5941 9.405887 C 448.04417 9.855974 448.391 10.3750519 448.63459 10.963119 C 448.87818 11.551186 448.99998 12.163479 449 12.8 L 449 35.2 C 448.99998 35.836519 448.87818 36.44881 448.63459 37.03688 C 448.391 37.624948 448.04417 38.144025 447.5941 38.59411 C 447.14399 39.044195 446.62489 39.39103 446.03684 39.634614 C 445.44877 39.8782 444.8365 39.999998 444.2 40 L 203.8 40 C 203.16347 39.999998 202.55117 39.8782 201.9631 39.634614 C 201.37503 39.39103 200.85596 39.044195 200.40589 38.59411 C 199.95578 38.144025 199.60894 37.624948 199.36536 37.036878 C 199.12178 36.44881 198.99999 35.836519 199 35.2 L 199 12.8 C 198.99999 12.163479 199.12178 11.551186 199.36536 10.963119 C 199.60894 10.3750519 199.95578 9.855974 200.40589 9.405887 C 200.85596 8.955799 201.37503 8.608962 201.9631 8.365376 C 202.55117 8.121792 203.16347 8 203.8 8 Z "/>
<path transform="matrix(.7182662,0,0,.7182662,.3591331,.3591331)" d="M 207.8 13 L 448.2 13 C 448.83653 13 449.44883 13.121792 450.03688 13.365376 C 450.6249 13.608962 451.14399 13.955799 451.5941 14.405887 C 452.04414 14.855973 452.39097 15.37505 452.63456 15.963117 C 452.87815 16.551186 452.99998 17.163479 453 17.8 L 453 40.2 C 452.99998 40.836519 452.87815 41.448808 452.63456 42.036878 C 452.39097 42.624948 452.04414 43.144025 451.59407 43.594114 C 451.14399 44.044198 450.6249 44.391035 450.03688 44.634618 C 449.44883 44.878206 448.83653 45 448.2 45 L 207.8 45 C 207.16347 45 206.55117 44.87821 205.9631 44.63462 C 205.37503 44.391035 204.85596 44.044198 204.40589 43.594114 C 203.9558 43.144025 203.60895 42.624948 203.36536 42.036878 C 203.12178 41.448808 202.99999 40.836519 203 40.2 L 203 17.8 C 202.99999 17.163479 203.12178 16.551186 203.36536 15.963117 C 203.60895 15.37505 203.9558 14.855973 204.40589 14.405887 C 204.85596 13.955799 205.37503 13.608962 205.96309 13.365376 C 206.55117 13.121792 207.16347 13 207.8 13 Z " fill="#d5e8d4"/>
<path transform="matrix(.7182662,0,0,.7182662,.3591331,.3591331)" stroke-width="1" stroke-linecap="butt" stroke-miterlimit="4" stroke-linejoin="miter" fill="none" stroke="#82b366" d="M 207.8 13 L 448.2 13 C 448.83653 13 449.44883 13.121792 450.03688 13.365376 C 450.6249 13.608962 451.14399 13.955799 451.5941 14.405887 C 452.04414 14.855973 452.39097 15.37505 452.63456 15.963117 C 452.87815 16.551186 452.99998 17.163479 453 17.8 L 453 40.2 C 452.99998 40.836519 452.87815 41.448808 452.63456 42.036878 C 452.39097 42.624948 452.04414 43.144025 451.59407 43.594114 C 451.14399 44.044198 450.6249 44.391035 450.03688 44.634618 C 449.44883 44.878206 448.83653 45 448.2 45 L 207.8 45 C 207.16347 45 206.55117 44.87821 205.9631 44.63462 C 205.37503 44.391035 204.85596 44.044198 204.40589 43.594114 C 203.9558 43.144025 203.60895 42.624948 203.36536 42.036878 C 203.12178 41.448808 202.99999 40.836519 203 40.2 L 203 17.8 C 202.99999 17.163479 203.12178 16.551186 203.36536 15.963117 C 203.60895 15.37505 203.9558 14.855973 204.40589 14.405887 C 204.85596 13.955799 205.37503 13.608962 205.96309 13.365376 C 206.55117 13.121792 207.16347 13 207.8 13 Z "/>
<path transform="matrix(.7182662,0,0,.7182662,.3591331,.3591331)" d="M 211.8 19 L 452.2 19 C 452.8365 19 453.44877 19.121792 454.03684 19.365376 C 454.62489 19.608962 455.14396 19.9558 455.5941 20.405888 C 456.04414 20.855975 456.39097 21.37505 456.63459 21.963118 C 456.87818 22.551184 456.99998 23.163477 457 23.8 L 457 46.2 C 456.99998 46.836519 456.87818 47.44881 456.63459 48.036878 C 456.39097 48.624944 456.04414 49.14402 455.5941 49.59411 C 455.14396 50.044195 454.62486 50.39103 454.0368 50.634618 C 453.44877 50.878206 452.8365 50.999998 452.2 51 L 211.8 51 C 211.16347 50.999998 210.55117 50.878206 209.96309 50.63462 C 209.37502 50.39103 208.85594 50.044195 208.40587 49.59411 C 207.95578 49.14402 207.60894 48.624944 207.36534 48.036874 C 207.12177 47.44881 206.99999 46.836519 207 46.2 L 207 23.8 C 206.99999 23.163477 207.12177 22.551184 207.36534 21.963118 C 207.60894 21.37505 207.95578 20.855975 208.40587 20.405888 C 208.85594 19.9558 209.37502 19.608962 209.96309 19.365376 C 210.55117 19.121792 211.16347 19 211.8 19 Z " fill="#d5e8d4"/>
<path transform="matrix(.7182662,0,0,.7182662,.3591331,.3591331)" stroke-width="1" stroke-linecap="butt" stroke-miterlimit="4" stroke-linejoin="miter" fill="none" stroke="#82b366" d="M 211.8 19 L 452.2 19 C 452.8365 19 453.44877 19.121792 454.03684 19.365376 C 454.62489 19.608962 455.14396 19.9558 455.5941 20.405888 C 456.04414 20.855975 456.39097 21.37505 456.63459 21.963118 C 456.87818 22.551184 456.99998 23.163477 457 23.8 L 457 46.2 C 456.99998 46.836519 456.87818 47.44881 456.63459 48.036878 C 456.39097 48.624944 456.04414 49.14402 455.5941 49.59411 C 455.14396 50.044195 454.62486 50.39103 454.0368 50.634618 C 453.44877 50.878206 452.8365 50.999998 452.2 51 L 211.8 51 C 211.16347 50.999998 210.55117 50.878206 209.96309 50.63462 C 209.37502 50.39103 208.85594 50.044195 208.40587 49.59411 C 207.95578 49.14402 207.60894 48.624944 207.36534 48.036874 C 207.12177 47.44881 206.99999 46.836519 207 46.2 L 207 23.8 C 206.99999 23.163477 207.12177 22.551184 207.36534 21.963118 C 207.60894 21.37505 207.95578 20.855975 208.40587 20.405888 C 208.85594 19.9558 209.37502 19.608962 209.96309 19.365376 C 210.55117 19.121792 211.16347 19 211.8 19 Z "/>
<path transform="matrix(.7182662,0,0,.7182662,.3591331,.3591331)" d="M 215 25 L 289 25 L 289 45 L 215 45 Z " fill="#ffe6cc"/>
<path transform="matrix(.7182662,0,0,.7182662,.3591331,.3591331)" stroke-width="1" stroke-linecap="butt" stroke-miterlimit="4" stroke-linejoin="miter" fill="none" stroke="#d79b00" d="M 215 25 L 289 25 L 289 45 L 215 45 Z "/>
<text xml:space="preserve" transform="matrix(.7182662 0 0 .7182662 0 0)" font-size="12" font-family="ArialMT"><tspan y="40" x="219.64063 227.64463 233.64463 239.64463 246.31662 252.31662 258.31663 264.98634 270.98634 277.65834">AccessType</tspan></text>
<path transform="matrix(.7182662,0,0,.7182662,.3591331,.3591331)" d="M 295 25 L 335 25 L 335 45 L 295 45 Z " fill="#fff2cc"/>
<path transform="matrix(.7182662,0,0,.7182662,.3591331,.3591331)" stroke-width="1" stroke-linecap="butt" stroke-miterlimit="4" stroke-linejoin="miter" fill="none" stroke="#d6b656" d="M 295 25 L 335 25 L 335 45 L 295 45 Z "/>
<text xml:space="preserve" transform="matrix(.7182662 0 0 .7182662 0 0)" font-size="12" font-family="ArialMT"><tspan y="40" x="302.65626 310.66026 317.33226 320.66825">Path</tspan></text>
<path transform="matrix(.7182662,0,0,.7182662,.3591331,.3591331)" d="M 341 25 L 381 25 L 381 45 L 341 45 Z " fill="#f8cecc"/>
<path transform="matrix(.7182662,0,0,.7182662,.3591331,.3591331)" stroke-width="1" stroke-linecap="butt" stroke-miterlimit="4" stroke-linejoin="miter" fill="none" stroke="#b85450" d="M 341 25 L 381 25 L 381 45 L 341 45 Z "/>
<text xml:space="preserve" transform="matrix(.7182662 0 0 .7182662 0 0)" font-size="12" font-family="ArialMT"><tspan y="40" x="348.32814 356.99214 362.99214 369.66413">User</tspan></text>
<path transform="matrix(.7182662,0,0,.7182662,.3591331,.3591331)" d="M 386 25 L 447 25 L 447 45 L 386 45 Z " fill="#e1d5e7"/>
<path transform="matrix(.7182662,0,0,.7182662,.3591331,.3591331)" stroke-width="1" stroke-linecap="butt" stroke-miterlimit="4" stroke-linejoin="miter" fill="none" stroke="#9673a6" d="M 386 25 L 447 25 L 447 45 L 386 45 Z "/>
<text xml:space="preserve" transform="matrix(.7182662 0 0 .7182662 0 0)" font-size="12" font-family="ArialMT"><tspan y="40" x="387.04689 393.93165 396.59565 406.59165 413.26365 419.26365 422.59965 429.27165 439.26765">Timestamp</tspan></text>
<path transform="matrix(.7182662,0,0,.7182662,.3591331,.3591331)" stroke-width="1" stroke-linecap="butt" stroke-miterlimit="10" stroke-linejoin="miter" fill="none" stroke="#000000" d="M 205 1 L 198.25 1 C 193.75 1 191.5 4.333333 191.5 11 L 191.5 19 C 191.5 24.333334 189.25 27 184.75 27 L 181.38 27 C 179.12667 27 180.25 27 184.75 27 L 188.13 27 C 190.37667 27 191.5 30.333333 191.5 37 L 191.5 45 C 191.5 50.333333 193.75 53 198.25 53 L 205 53 "/>
<path transform="matrix(.7182662,0,0,.7182662,.3591331,.3591331)" stroke-width="1" stroke-linecap="butt" stroke-miterlimit="10" stroke-linejoin="miter" fill="none" stroke="#000000" d="M 315 45 C 295.66667 71 296.16667 80.333339 316.5 73 C 336.83335 65.666667 343.38 75.61667 336.14 102.85 "/>
<path transform="matrix(.7182662,0,0,.7182662,.3591331,.3591331)" d="M 334.79 107.92 L 333.2 100.26 L 336.14 102.85 L 339.97 102.05 L 334.79 107.92 Z "/>
<path transform="matrix(.7182662,0,0,.7182662,.3591331,.3591331)" stroke-width="1" stroke-linecap="butt" stroke-miterlimit="10" stroke-linejoin="miter" fill="none" stroke="#000000" d="M 334.79 107.92 L 333.2 100.26 L 336.14 102.85 L 339.97 102.05 L 334.79 107.92 Z "/>
<path transform="matrix(.7182662,0,0,.7182662,.3591331,.3591331)" d="M 259.5 109 L 409.5 109 C 410.78038 109.00001 412.04847 109.1249 413.30424 109.37469 C 414.56004 109.62448 415.7794 109.99436 416.9623 110.484348 C 418.14524 110.97433 419.269 111.57499 420.33363 112.28634 C 421.39823 112.99768 422.3832 113.806049 423.28858 114.71142 C 424.19395 115.61678 425.0023 116.60177 425.71363 117.666378 C 426.42497 118.73097 427.0256 119.85474 427.5156 121.03766 C 428.00559 122.22059 428.3755 123.43995 428.62528 124.69574 C 428.87507 125.95153 428.99998 127.21961 429 128.5 L 429 219.5 C 428.99998 220.78038 428.87507 222.04845 428.62528 223.30423 C 428.3755 224.56003 428.00559 225.77939 427.5156 226.96231 C 427.0256 228.14525 426.42494 229.26902 425.7136 230.3336 C 425.00227 231.39821 424.19395 232.3832 423.28858 233.28858 C 422.3832 234.19396 421.39823 235.0023 420.33363 235.71366 C 419.269 236.42499 418.14524 237.02565 416.9623 237.51564 C 415.7794 238.00562 414.56004 238.3755 413.30427 238.6253 C 412.04847 238.87509 410.78038 238.99999 409.5 239 L 259.5 239 C 258.2196 238.99999 256.9515 238.87509 255.69574 238.62529 C 254.43996 238.3755 253.2206 238.00562 252.03766 237.51564 C 250.85472 237.02565 249.73096 236.42499 248.66637 235.71366 C 247.60176 235.0023 246.61678 234.19396 245.7114 233.28858 C 244.80602 232.3832 243.99765 231.39821 243.28632 230.33359 C 242.57497 229.269 241.9743 228.14525 241.48433 226.96231 C 240.99434 225.77939 240.62445 224.56003 240.37467 223.30425 C 240.12487 222.04846 239.99999 220.78038 240 219.5 L 240 128.5 C 239.99999 127.21961 240.12487 125.95153 240.37465 124.69574 C 240.62445 123.43995 240.99434 122.22059 241.48433 121.03767 C 241.9743 119.854747 242.57497 118.73098 243.28632 117.666378 C 243.99765 116.60177 244.80602 115.61678 245.7114 114.71142 C 246.61678 113.806049 247.60176 112.99768 248.66635 112.28634 C 249.73094 111.57498 250.8547 110.97432 252.03765 110.48434 C 253.22058 109.994358 254.43994 109.62447 255.69573 109.37468 C 256.9515 109.1249 258.2196 109.00001 259.5 109 Z " fill="#fff2cc"/>
<path transform="matrix(.7182662,0,0,.7182662,.3591331,.3591331)" stroke-width="1" stroke-linecap="butt" stroke-miterlimit="4" stroke-linejoin="miter" fill="none" stroke="#d6b656" d="M 259.5 109 L 409.5 109 C 410.78038 109.00001 412.04847 109.1249 413.30424 109.37469 C 414.56004 109.62448 415.7794 109.99436 416.9623 110.484348 C 418.14524 110.97433 419.269 111.57499 420.33363 112.28634 C 421.39823 112.99768 422.3832 113.806049 423.28858 114.71142 C 424.19395 115.61678 425.0023 116.60177 425.71363 117.666378 C 426.42497 118.73097 427.0256 119.85474 427.5156 121.03766 C 428.00559 122.22059 428.3755 123.43995 428.62528 124.69574 C 428.87507 125.95153 428.99998 127.21961 429 128.5 L 429 219.5 C 428.99998 220.78038 428.87507 222.04845 428.62528 223.30423 C 428.3755 224.56003 428.00559 225.77939 427.5156 226.96231 C 427.0256 228.14525 426.42494 229.26902 425.7136 230.3336 C 425.00227 231.39821 424.19395 232.3832 423.28858 233.28858 C 422.3832 234.19396 421.39823 235.0023 420.33363 235.71366 C 419.269 236.42499 418.14524 237.02565 416.9623 237.51564 C 415.7794 238.00562 414.56004 238.3755 413.30427 238.6253 C 412.04847 238.87509 410.78038 238.99999 409.5 239 L 259.5 239 C 258.2196 238.99999 256.9515 238.87509 255.69574 238.62529 C 254.43996 238.3755 253.2206 238.00562 252.03766 237.51564 C 250.85472 237.02565 249.73096 236.42499 248.66637 235.71366 C 247.60176 235.0023 246.61678 234.19396 245.7114 233.28858 C 244.80602 232.3832 243.99765 231.39821 243.28632 230.33359 C 242.57497 229.269 241.9743 228.14525 241.48433 226.96231 C 240.99434 225.77939 240.62445 224.56003 240.37467 223.30425 C 240.12487 222.04846 239.99999 220.78038 240 219.5 L 240 128.5 C 239.99999 127.21961 240.12487 125.95153 240.37465 124.69574 C 240.62445 123.43995 240.99434 122.22059 241.48433 121.03767 C 241.9743 119.854747 242.57497 118.73098 243.28632 117.666378 C 243.99765 116.60177 244.80602 115.61678 245.7114 114.71142 C 246.61678 113.806049 247.60176 112.99768 248.66635 112.28634 C 249.73094 111.57498 250.8547 110.97432 252.03765 110.48434 C 253.22058 109.994358 254.43994 109.62447 255.69573 109.37468 C 256.9515 109.1249 258.2196 109.00001 259.5 109 Z "/>
<text xml:space="preserve" transform="matrix(.7182662 0 0 .7182662 0 0)" font-size="12" font-family="Arial" font-weight="bold"><tspan y="128" x="249 257.004 263.676 267.672 275.004 278.34 287.004 293.676 297.672">Path Data</tspan></text>
<text xml:space="preserve" transform="matrix(.7182662 0 0 .7182662 0 0)" font-size="12" font-family="Arial" font-weight="bold"><tspan y="128" x="304.34376"> </tspan></text>
<text xml:space="preserve" transform="matrix(.7182662 0 0 .7182662 0 0)" font-size="12" font-family="Arial" font-weight="bold"><tspan y="142" x="249"> </tspan></text>
<text xml:space="preserve" transform="matrix(.7182662 0 0 .7182662 0 0)" font-size="12" font-family="Arial" font-weight="bold"><tspan y="156" x="249"> </tspan></text>
</g>
<clipPath id="cp2">
<path transform="matrix(.24,0,0,.24,0,0)" d="M 679.3601 380.08256 L 1262.9514 380.08256 L 1262.9514 682.3529 L 679.3601 682.3529 Z " fill-rule="evenodd"/>
</clipPath>
<g clip-path="url(#cp2)">
<path transform="matrix(.7182662,0,0,.7182662,0,0)" d="M 257 147 C 256.99998 147.26522 256.94923 147.52033 256.84773 147.76537 C 256.74623 148.01038 256.6017 148.22667 256.41419 148.41422 C 256.22666 148.60175 256.01039 148.74626 255.76534 148.84775 C 255.52031 148.94924 255.2652 148.99999 255 149 C 254.73477 148.99999 254.47965 148.94924 254.2346 148.84775 C 253.98957 148.74626 253.77329 148.60175 253.58577 148.41422 C 253.39823 148.22667 253.2537 148.01038 253.1522 147.76537 C 253.05072 147.52033 252.99999 147.26522 253 147 C 252.99999 146.73477 253.05072 146.47965 253.1522 146.23462 C 253.2537 145.9896 253.39823 145.77332 253.58577 145.58579 C 253.77329 145.39824 253.98957 145.25373 254.2346 145.15224 C 254.47965 145.05075 254.73477 145 255 145 C 255.2652 145 255.52031 145.05075 255.76534 145.15224 C 256.01039 145.25373 256.22666 145.39824 256.41419 145.58579 C 256.6017 145.77332 256.74623 145.9896 256.84773 146.23462 C 256.94923 146.47965 256.99998 146.73477 257 147 Z "/>
<text xml:space="preserve" transform="matrix(.7182662 0 0 .7182662 0 0)" font-size="12" font-family="ArialMT"><tspan y="150" x="267 275.664 282.336 289.008 293.004 299.676 305.676 312.348 319.02 322.356 325.692 332.36399 339.03599 343.03199 346.36799 349.03199 355.70399 358.36799 361.70399 365.03999 367.70399 370.36799 377.03999 380.37599 383.71199 387.70799 394.37998">Represent partial file tree</tspan></text>
<text xml:space="preserve" transform="matrix(.7182662 0 0 .7182662 0 0)" font-size="12" font-family="ArialMT"><tspan y="164" x="267 273.672 279.672 286.344 290.34 293.676 297.012 303.684 306.348 309.012 312.348 315.684 318.348 321.012 327.684 331.02 334.356 338.352 345.024">over full file tree</tspan></text>
<path transform="matrix(.7182662,0,0,.7182662,0,0)" d="M 257 175 C 256.99998 175.26522 256.94923 175.52033 256.84773 175.76534 C 256.74623 176.01036 256.6017 176.22666 256.41419 176.4142 C 256.22666 176.60172 256.01039 176.74623 255.76534 176.84774 C 255.52031 176.94924 255.2652 176.99999 255 177 C 254.73477 176.99999 254.47965 176.94924 254.2346 176.84774 C 253.98957 176.74623 253.77329 176.60172 253.58577 176.4142 C 253.39823 176.22666 253.2537 176.01036 253.1522 175.76534 C 253.05072 175.52033 252.99999 175.26522 253 175 C 252.99999 174.73477 253.05072 174.47965 253.1522 174.2346 C 253.2537 173.98958 253.39823 173.7733 253.58577 173.58577 C 253.77329 173.39823 253.98957 173.25371 254.2346 173.15222 C 254.47965 173.05074 254.73477 173 255 173 C 255.2652 173 255.52031 173.05074 255.76534 173.15222 C 256.01039 173.25371 256.22666 173.39823 256.41419 173.58577 C 256.6017 173.7733 256.74623 173.98958 256.84773 174.2346 C 256.94923 174.47965 256.99998 174.73477 257 175 Z "/>
<text xml:space="preserve" transform="matrix(.7182662 0 0 .7182662 0 0)" font-size="12" font-family="ArialMT"><tspan y="178" x="267 275.004 281.004 284.34 288.336 295.008 301.008 304.344 307.008 313.68 320.352 323.688 330.36 333.024 336.14649 339.48249 346.15449 350.15049 356.82249 363.49449 366.83049 370.16648 376.83848 379.50248 386.17448 396.17048 402.84248 409.51448 412.85047">Extracting different elements</tspan></text>
<text xml:space="preserve" transform="matrix(.7182662 0 0 .7182662 0 0)" font-size="12" font-family="ArialMT"><tspan y="192" x="267 273.672 277.008 280.344 283.68 290.352 297.024 300.36 307.03199 313.70399 317.03999">of the path</tspan></text>
<path transform="matrix(.7182662,0,0,.7182662,0,0)" d="M 257 203 C 256.99998 203.26522 256.94923 203.52033 256.84773 203.76535 C 256.74623 204.01039 256.6017 204.22667 256.41419 204.41422 C 256.22666 204.60173 256.01039 204.74625 255.76534 204.84775 C 255.52031 204.94925 255.2652 205 255 205 C 254.73477 205 254.47965 204.94925 254.2346 204.84775 C 253.98957 204.74625 253.77329 204.60173 253.58577 204.41422 C 253.39823 204.22667 253.2537 204.01039 253.1522 203.76535 C 253.05072 203.52033 252.99999 203.26522 253 203 C 252.99999 202.73477 253.05072 202.47965 253.1522 202.23462 C 253.2537 201.9896 253.39823 201.77332 253.58577 201.58579 C 253.77329 201.39824 253.98957 201.25373 254.2346 201.15222 C 254.47965 201.05074 254.73477 201 255 201 C 255.2652 201 255.52031 201.05074 255.76534 201.15222 C 256.01039 201.25373 256.22666 201.39824 256.41419 201.58579 C 256.6017 201.77332 256.74623 201.9896 256.84773 202.23462 C 256.94923 202.47965 256.99998 202.73477 257 203 Z "/>
<text xml:space="preserve" transform="matrix(.7182662 0 0 .7182662 0 0)" font-size="12" font-family="ArialMT"><tspan y="206" x="267 275.664 282.336 292.332 299.004 305.676 309.672 312.336 319.008 325.68 329.016 335.688 342.36 348.36 354.36 361.03199 367.70399 371.03999 377.71199 384.38398 387.71998 394.39198 397.72798 404.39997 411.07197 414.40797">Comparing backup path data</tspan></text>
<text xml:space="preserve" transform="matrix(.7182662 0 0 .7182662 0 0)" font-size="12" font-family="ArialMT"><tspan y="220" x="267 270.336 277.008 280.344 287.016 293.688 296.352 299.016 305.688 309.024 312.36 315.024 317.688 324.36 327.69599 333.69599 340.36799 344.36399 350.36399 357.03599 361.03199 364.36799 374.36399 381.03599 387.70799 394.37998">to build file server model</tspan></text>
</g>
<clipPath id="cp3">
<path transform="matrix(.24,0,0,.24,0,0)" d="M 0 0 L 1933.3333 0 L 1933.3333 718.26626 L 0 718.26626 Z " fill-rule="evenodd"/>
</clipPath>
<g clip-path="url(#cp3)">
<path transform="matrix(.7182662,0,0,.7182662,.3591331,.3591331)" d="M 474.5 109 L 624.5 109 C 625.7804 109.00001 627.04849 109.1249 628.3042 109.37469 C 629.56 109.62448 630.7793 109.99436 631.9622 110.484348 C 633.14517 110.97433 634.2689 111.57499 635.33358 112.28634 C 636.3982 112.99768 637.3832 113.806049 638.2885 114.71142 C 639.19387 115.61678 640.00228 116.60177 640.7136 117.666378 C 641.4249 118.73097 642.0256 119.85474 642.51559 121.03766 C 643.00558 122.22059 643.3754 123.43995 643.62527 124.69574 C 643.87509 125.95153 644 127.21961 644 128.5 L 644 219.5 C 644 220.78038 643.87509 222.04845 643.62527 223.30423 C 643.3754 224.56003 643.00558 225.77939 642.51559 226.96231 C 642.0256 228.14525 641.4249 229.26902 640.7136 230.3336 C 640.00228 231.39821 639.19387 232.3832 638.2885 233.28858 C 637.3832 234.19396 636.3982 235.0023 635.33358 235.71366 C 634.2689 236.42499 633.14517 237.02565 631.9622 237.51564 C 630.7793 238.00562 629.56 238.3755 628.3042 238.6253 C 627.04849 238.87509 625.7804 238.99999 624.5 239 L 474.5 239 C 473.21958 238.99999 471.95149 238.87509 470.69569 238.62529 C 469.43989 238.3755 468.22053 238.00562 467.0376 237.51564 C 465.85469 237.02565 464.73094 236.42499 463.66633 235.71366 C 462.60176 235.0023 461.61677 234.19396 460.7114 233.28858 C 459.80604 232.3832 458.99766 231.39821 458.2863 230.33359 C 457.57496 229.269 456.97428 228.14525 456.4843 226.96231 C 455.99433 225.77939 455.62443 224.56003 455.37464 223.30425 C 455.12486 222.04846 454.99998 220.78038 455 219.5 L 455 128.5 C 454.99998 127.21961 455.12486 125.95153 455.37464 124.69574 C 455.62443 123.43995 455.99433 122.22059 456.4843 121.03767 C 456.97428 119.854747 457.57496 118.73098 458.28633 117.666378 C 458.99766 116.60177 459.80604 115.61678 460.7114 114.71142 C 461.61677 113.806049 462.60176 112.99768 463.66633 112.28634 C 464.73094 111.57498 465.85469 110.97432 467.0376 110.48434 C 468.22053 109.994358 469.43989 109.62447 470.69569 109.37468 C 471.95149 109.1249 473.21958 109.00001 474.5 109 Z " fill="#dae8fc"/>
<path transform="matrix(.7182662,0,0,.7182662,.3591331,.3591331)" stroke-width="1" stroke-linecap="butt" stroke-miterlimit="4" stroke-linejoin="miter" fill="none" stroke="#6c8ebf" d="M 474.5 109 L 624.5 109 C 625.7804 109.00001 627.04849 109.1249 628.3042 109.37469 C 629.56 109.62448 630.7793 109.99436 631.9622 110.484348 C 633.14517 110.97433 634.2689 111.57499 635.33358 112.28634 C 636.3982 112.99768 637.3832 113.806049 638.2885 114.71142 C 639.19387 115.61678 640.00228 116.60177 640.7136 117.666378 C 641.4249 118.73097 642.0256 119.85474 642.51559 121.03766 C 643.00558 122.22059 643.3754 123.43995 643.62527 124.69574 C 643.87509 125.95153 644 127.21961 644 128.5 L 644 219.5 C 644 220.78038 643.87509 222.04845 643.62527 223.30423 C 643.3754 224.56003 643.00558 225.77939 642.51559 226.96231 C 642.0256 228.14525 641.4249 229.26902 640.7136 230.3336 C 640.00228 231.39821 639.19387 232.3832 638.2885 233.28858 C 637.3832 234.19396 636.3982 235.0023 635.33358 235.71366 C 634.2689 236.42499 633.14517 237.02565 631.9622 237.51564 C 630.7793 238.00562 629.56 238.3755 628.3042 238.6253 C 627.04849 238.87509 625.7804 238.99999 624.5 239 L 474.5 239 C 473.21958 238.99999 471.95149 238.87509 470.69569 238.62529 C 469.43989 238.3755 468.22053 238.00562 467.0376 237.51564 C 465.85469 237.02565 464.73094 236.42499 463.66633 235.71366 C 462.60176 235.0023 461.61677 234.19396 460.7114 233.28858 C 459.80604 232.3832 458.99766 231.39821 458.2863 230.33359 C 457.57496 229.269 456.97428 228.14525 456.4843 226.96231 C 455.99433 225.77939 455.62443 224.56003 455.37464 223.30425 C 455.12486 222.04846 454.99998 220.78038 455 219.5 L 455 128.5 C 454.99998 127.21961 455.12486 125.95153 455.37464 124.69574 C 455.62443 123.43995 455.99433 122.22059 456.4843 121.03767 C 456.97428 119.854747 457.57496 118.73098 458.28633 117.666378 C 458.99766 116.60177 459.80604 115.61678 460.7114 114.71142 C 461.61677 113.806049 462.60176 112.99768 463.66633 112.28634 C 464.73094 111.57498 465.85469 110.97432 467.0376 110.48434 C 468.22053 109.994358 469.43989 109.62447 470.69569 109.37468 C 471.95149 109.1249 473.21958 109.00001 474.5 109 Z "/>
<text xml:space="preserve" transform="matrix(.7182662 0 0 .7182662 0 0)" font-size="12" font-family="Arial" font-weight="bold"><tspan y="128" x="464 471.332 474.668 478.004 484.676 488.012 496.676 503.348 507.344 514.016 517.352 520.688 524.024 532.688 536.024 542.696 546.69198 554.0239 558.69198">File Data / History</tspan></text>
<text xml:space="preserve" transform="matrix(.7182662 0 0 .7182662 0 0)" font-size="12" font-family="Arial" font-weight="bold"><tspan y="128" x="565.3594"> </tspan></text>
</g>
<clipPath id="cp4">
<path transform="matrix(.24,0,0,.24,0,0)" d="M 1322.807 380.08256 L 1807.6366 380.08256 L 1807.6366 682.3529 L 1322.807 682.3529 Z " fill-rule="evenodd"/>
</clipPath>
<g clip-path="url(#cp4)">
<path transform="matrix(.7182662,0,0,.7182662,0,0)" d="M 472 149 C 471.99998 149.26522 471.94923 149.52033 471.84773 149.76537 C 471.74623 150.01039 471.6017 150.22667 471.41419 150.41422 C 471.22666 150.60175 471.01036 150.74626 470.7653 150.84775 C 470.5203 150.94924 470.2652 150.99999 470 151 C 469.73478 150.99999 469.4796 150.94924 469.23457 150.84775 C 468.98954 150.74626 468.7733 150.60175 468.58576 150.41422 C 468.3982 150.22667 468.25367 150.01039 468.15217 149.76537 C 468.0507 149.52033 467.99998 149.26522 468 149 C 467.99998 148.73479 468.0507 148.47966 468.15217 148.23462 C 468.25367 147.98958 468.3982 147.7733 468.58576 147.58579 C 468.7733 147.39824 468.98954 147.25373 469.23457 147.15224 C 469.4796 147.05075 469.73478 147 470 147 C 470.2652 147 470.5203 147.05075 470.76533 147.15224 C 471.01036 147.25373 471.22666 147.39824 471.41419 147.58579 C 471.6017 147.7733 471.74623 147.98958 471.8477 148.23462 C 471.94923 148.47966 471.99998 148.73479 472 149 Z "/>
<text xml:space="preserve" transform="matrix(.7182662 0 0 .7182662 0 0)" font-size="12" font-family="ArialMT"><tspan y="152" x="482 488 494.672 498.008 504.68 507.344 510.68 516.68 523.352 530.024 536.696 543.368 550.04 553.376 560.048 570.04397 576.71597 583.38796 590.05996">Total change amount</tspan></text>
<path transform="matrix(.7182662,0,0,.7182662,0,0)" d="M 472 167 C 471.99998 167.2652 471.94923 167.52031 471.84773 167.76535 C 471.74623 168.01038 471.6017 168.22666 471.41419 168.4142 C 471.22666 168.60173 471.01036 168.74625 470.7653 168.84775 C 470.5203 168.94924 470.2652 168.99999 470 169 C 469.73478 168.99999 469.4796 168.94924 469.23457 168.84775 C 468.98954 168.74625 468.7733 168.60173 468.58576 168.4142 C 468.3982 168.22666 468.25367 168.01038 468.15217 167.76535 C 468.0507 167.52031 467.99998 167.2652 468 167 C 467.99998 166.73477 468.0507 166.47965 468.15217 166.23462 C 468.25367 165.98958 468.3982 165.7733 468.58576 165.58577 C 468.7733 165.39823 468.98954 165.25371 469.23457 165.15222 C 469.4796 165.05074 469.73478 165 470 165 C 470.2652 165 470.5203 165.05074 470.76533 165.15222 C 471.01036 165.25371 471.22666 165.39823 471.41419 165.58577 C 471.6017 165.7733 471.74623 165.98958 471.8477 166.23462 C 471.94923 166.47965 471.99998 166.73477 472 167 Z "/>
<text xml:space="preserve" transform="matrix(.7182662 0 0 .7182662 0 0)" font-size="12" font-family="ArialMT"><tspan y="170" x="482 490.664 497.336 504.008 510.68 517.352 524.024 527.36 530.696 534.69198 541.36398 548.03598 554.70797 561.37997 568.05197 574.05197">Change frequency</tspan></text>
<path transform="matrix(.7182662,0,0,.7182662,0,0)" d="M 472 185 C 471.99998 185.26522 471.94923 185.52033 471.84773 185.76534 C 471.74623 186.01038 471.6017 186.22666 471.41419 186.4142 C 471.22666 186.60172 471.01036 186.74623 470.7653 186.84774 C 470.5203 186.94922 470.2652 186.99999 470 187 C 469.73478 186.99999 469.4796 186.94922 469.23457 186.84772 C 468.98954 186.74623 468.7733 186.60172 468.58576 186.4142 C 468.3982 186.22666 468.25367 186.01038 468.15217 185.76534 C 468.0507 185.52033 467.99998 185.26522 468 185 C 467.99998 184.73477 468.0507 184.47965 468.15217 184.2346 C 468.25367 183.98957 468.3982 183.77329 468.58576 183.58577 C 468.7733 183.39823 468.98954 183.25371 469.23457 183.15222 C 469.4796 183.05074 469.73478 183 470 183 C 470.2652 183 470.5203 183.05074 470.76533 183.1522 C 471.01036 183.25371 471.22666 183.39823 471.41419 183.58577 C 471.6017 183.77329 471.74623 183.98957 471.8477 184.2346 C 471.94923 184.47965 471.99998 184.73477 472 185 Z "/>
<text xml:space="preserve" transform="matrix(.7182662 0 0 .7182662 0 0)" font-size="12" font-family="ArialMT"><tspan y="188" x="482 488.88478 491.54878 501.54478 508.21678 511.55278 517.55276 520.21676 526.88876 532.88876 539.5607 542.8967 545.5607 552.2327 558.2327 561.5687 564.9047 570.9047 577.5767 584.2487 590.9207 597.5927">Time since last change</tspan></text>
<path transform="matrix(.7182662,0,0,.7182662,0,0)" d="M 472 203 C 471.99998 203.26522 471.94923 203.52033 471.84773 203.76535 C 471.74623 204.01039 471.6017 204.22667 471.41419 204.41422 C 471.22666 204.60173 471.01036 204.74625 470.7653 204.84775 C 470.5203 204.94925 470.2652 205 470 205 C 469.73478 205 469.4796 204.94925 469.23457 204.84775 C 468.98954 204.74625 468.7733 204.60173 468.58576 204.41422 C 468.3982 204.22667 468.25367 204.01039 468.15217 203.76535 C 468.0507 203.52033 467.99998 203.26522 468 203 C 467.99998 202.73477 468.0507 202.47965 468.15217 202.23462 C 468.25367 201.9896 468.3982 201.77332 468.58576 201.58579 C 468.7733 201.39824 468.98954 201.25373 469.23457 201.15222 C 469.4796 201.05074 469.73478 201 470 201 C 470.2652 201 470.5203 201.05074 470.76533 201.15222 C 471.01036 201.25373 471.22666 201.39824 471.41419 201.58579 C 471.6017 201.77332 471.74623 201.9896 471.8477 202.23462 C 471.94923 202.47965 471.99998 202.73477 472 203 Z "/>
<text xml:space="preserve" transform="matrix(.7182662 0 0 .7182662 0 0)" font-size="12" font-family="ArialMT"><tspan y="206" x="482 490.664 496.664 503.336 507.332 510.668 516.66799 523.33999 530.01199 536.68399 543.35598 550.02798">User changes</tspan></text>
<path transform="matrix(.7182662,0,0,.7182662,0,0)" d="M 472 221 C 471.99998 221.26522 471.94923 221.52033 471.84773 221.76535 C 471.74623 222.01036 471.6017 222.22666 471.41419 222.4142 C 471.22666 222.60173 471.01036 222.74625 470.7653 222.84774 C 470.5203 222.94924 470.2652 222.99999 470 223 C 469.73478 222.99999 469.4796 222.94924 469.23457 222.84774 C 468.98954 222.74625 468.7733 222.60173 468.58576 222.4142 C 468.3982 222.22666 468.25367 222.01036 468.15217 221.76535 C 468.0507 221.52033 467.99998 221.26522 468 221 C 467.99998 220.73476 468.0507 220.47963 468.15217 220.23459 C 468.25367 219.98958 468.3982 219.7733 468.58576 219.58577 C 468.7733 219.39823 468.98954 219.25371 469.23457 219.15222 C 469.4796 219.05074 469.73478 219 470 219 C 470.2652 219 470.5203 219.05074 470.76533 219.15222 C 471.01036 219.25371 471.22666 219.39823 471.41419 219.58577 C 471.6017 219.7733 471.74623 219.98958 471.8477 220.2346 C 471.94923 220.47963 471.99998 220.73476 472 221 Z "/>
<text xml:space="preserve" transform="matrix(.7182662 0 0 .7182662 0 0)" font-size="12" font-family="ArialMT"><tspan y="224" x="482 490.004 494 500.672 507.344 510.008 516.008 519.344 522.68 526.016 528.68 531.344 538.016 541.352 544.688 551.36 554.696 563.36 569.36 576.032">Predict file to User</tspan></text>
</g>
<clipPath id="cp5">
<path transform="matrix(.24,0,0,.24,0,0)" d="M 0 0 L 1933.3333 0 L 1933.3333 718.26626 L 0 718.26626 Z " fill-rule="evenodd"/>
</clipPath>
<g clip-path="url(#cp5)">
<path transform="matrix(.7182662,0,0,.7182662,.3591331,.3591331)" d="M 35.5 109 L 185.5 109 C 186.78038 109.00001 188.04846 109.1249 189.30425 109.37469 C 190.56003 109.62448 191.77938 109.99436 192.96231 110.484348 C 194.14522 110.97433 195.26898 111.57499 196.3336 112.28634 C 197.39821 112.99768 198.3832 113.806049 199.28858 114.71142 C 200.19394 115.61678 201.00229 116.60177 201.71364 117.666378 C 202.42499 118.73097 203.02567 119.85474 203.51564 121.03766 C 204.00563 122.22059 204.37552 123.43995 204.62532 124.69574 C 204.87509 125.95153 204.99999 127.21961 205 128.5 L 205 219.5 C 204.99999 220.78038 204.87509 222.04845 204.6253 223.30423 C 204.37552 224.56003 204.00563 225.77939 203.51564 226.96231 C 203.02567 228.14525 202.42499 229.26902 201.71364 230.3336 C 201.00229 231.39821 200.19394 232.3832 199.28858 233.28858 C 198.3832 234.19396 197.39821 235.0023 196.3336 235.71366 C 195.26898 236.42499 194.14522 237.02565 192.96231 237.51564 C 191.77938 238.00562 190.56003 238.3755 189.30425 238.6253 C 188.04846 238.87509 186.78038 238.99999 185.5 239 L 35.5 239 C 34.21961 238.99999 32.951524 238.87509 31.695736 238.62529 C 30.43995 238.3755 29.220595 238.00562 28.03767 237.51564 C 26.854746 237.02565 25.730982 236.42499 24.666378 235.71366 C 23.601775 235.0023 22.616787 234.19396 21.711417 233.28858 C 20.806046 232.3832 19.997687 231.39821 19.28634 230.33359 C 18.574994 229.269 17.974329 228.14525 17.484347 226.96231 C 16.994364 225.77939 16.624478 224.56003 16.374688 223.30425 C 16.124896 222.04846 15.999999 220.78038 16 219.5 L 16 128.5 C 15.999999 127.21961 16.124894 125.95153 16.374686 124.69574 C 16.624478 123.43995 16.994364 122.22059 17.484347 121.03767 C 17.974329 119.854747 18.574994 118.73098 19.28634 117.666378 C 19.997687 116.60177 20.806046 115.61678 21.711417 114.71142 C 22.616787 113.806049 23.601775 112.99768 24.66638 112.28634 C 25.730984 111.57498 26.854746 110.97432 28.03767 110.48434 C 29.220595 109.994358 30.43995 109.62447 31.695736 109.37468 C 32.951524 109.1249 34.21961 109.00001 35.5 109 Z " fill="#d5e8d4"/>
<path transform="matrix(.7182662,0,0,.7182662,.3591331,.3591331)" stroke-width="1" stroke-linecap="butt" stroke-miterlimit="4" stroke-linejoin="miter" fill="none" stroke="#82b366" d="M 35.5 109 L 185.5 109 C 186.78038 109.00001 188.04846 109.1249 189.30425 109.37469 C 190.56003 109.62448 191.77938 109.99436 192.96231 110.484348 C 194.14522 110.97433 195.26898 111.57499 196.3336 112.28634 C 197.39821 112.99768 198.3832 113.806049 199.28858 114.71142 C 200.19394 115.61678 201.00229 116.60177 201.71364 117.666378 C 202.42499 118.73097 203.02567 119.85474 203.51564 121.03766 C 204.00563 122.22059 204.37552 123.43995 204.62532 124.69574 C 204.87509 125.95153 204.99999 127.21961 205 128.5 L 205 219.5 C 204.99999 220.78038 204.87509 222.04845 204.6253 223.30423 C 204.37552 224.56003 204.00563 225.77939 203.51564 226.96231 C 203.02567 228.14525 202.42499 229.26902 201.71364 230.3336 C 201.00229 231.39821 200.19394 232.3832 199.28858 233.28858 C 198.3832 234.19396 197.39821 235.0023 196.3336 235.71366 C 195.26898 236.42499 194.14522 237.02565 192.96231 237.51564 C 191.77938 238.00562 190.56003 238.3755 189.30425 238.6253 C 188.04846 238.87509 186.78038 238.99999 185.5 239 L 35.5 239 C 34.21961 238.99999 32.951524 238.87509 31.695736 238.62529 C 30.43995 238.3755 29.220595 238.00562 28.03767 237.51564 C 26.854746 237.02565 25.730982 236.42499 24.666378 235.71366 C 23.601775 235.0023 22.616787 234.19396 21.711417 233.28858 C 20.806046 232.3832 19.997687 231.39821 19.28634 230.33359 C 18.574994 229.269 17.974329 228.14525 17.484347 226.96231 C 16.994364 225.77939 16.624478 224.56003 16.374688 223.30425 C 16.124896 222.04846 15.999999 220.78038 16 219.5 L 16 128.5 C 15.999999 127.21961 16.124894 125.95153 16.374686 124.69574 C 16.624478 123.43995 16.994364 122.22059 17.484347 121.03767 C 17.974329 119.854747 18.574994 118.73098 19.28634 117.666378 C 19.997687 116.60177 20.806046 115.61678 21.711417 114.71142 C 22.616787 113.806049 23.601775 112.99768 24.66638 112.28634 C 25.730984 111.57498 26.854746 110.97432 28.03767 110.48434 C 29.220595 109.994358 30.43995 109.62447 31.695736 109.37468 C 32.951524 109.1249 34.21961 109.00001 35.5 109 Z "/>
<text xml:space="preserve" transform="matrix(.7182662 0 0 .7182662 0 0)" font-size="12" font-family="Arial" font-weight="bold"><tspan y="128" x="25 33.664 40.336004 47.008005 53.680006 61.012006 68.344 71.68 81.676 88.34801 92.34401 99.01601 102.352008 111.01601 117.688 121.684009">Backup Meta Data</tspan></text>
<text xml:space="preserve" transform="matrix(.7182662 0 0 .7182662 0 0)" font-size="12" font-family="Arial" font-weight="bold"><tspan y="128" x="128.35938"> </tspan></text>
<text xml:space="preserve" transform="matrix(.7182662 0 0 .7182662 0 0)" font-size="12" font-family="Arial" font-weight="bold"><tspan y="142" x="25"> </tspan></text>
<text xml:space="preserve" transform="matrix(.7182662 0 0 .7182662 0 0)" font-size="12" font-family="Arial" font-weight="bold"><tspan y="156" x="25"> </tspan></text>
</g>
<clipPath id="cp6">
<path transform="matrix(.24,0,0,.24,0,0)" d="M 8.978328 380.08256 L 592.56967 380.08256 L 592.56967 682.3529 L 8.978328 682.3529 Z " fill-rule="evenodd"/>
</clipPath>
<g clip-path="url(#cp6)">
<path transform="matrix(.7182662,0,0,.7182662,0,0)" d="M 33 147 C 32.999998 147.26522 32.94925 147.52033 32.847757 147.76537 C 32.74626 148.01038 32.601747 148.22667 32.41421 148.41422 C 32.226675 148.60175 32.01039 148.74626 31.765364 148.84775 C 31.520337 148.94924 31.265215 148.99999 31 149 C 30.734782 148.99999 30.479657 148.94924 30.234629 148.84775 C 29.989602 148.74626 29.77332 148.60175 29.585785 148.41422 C 29.398247 148.22667 29.25373 148.01038 29.152237 147.76537 C 29.050744 147.52033 28.999999 147.26522 29 147 C 28.999999 146.73477 29.050744 146.47965 29.152237 146.23462 C 29.25373 145.9896 29.398247 145.77332 29.585785 145.58579 C 29.77332 145.39824 29.989602 145.25373 30.234629 145.15224 C 30.479657 145.05075 30.734782 145 31 145 C 31.265215 145 31.520337 145.05075 31.765364 145.15224 C 32.01039 145.25373 32.226675 145.39824 32.41421 145.58579 C 32.601747 145.77332 32.74626 145.9896 32.847757 146.23462 C 32.94925 146.47965 32.999998 146.73477 33 147 Z "/>
<text xml:space="preserve" transform="matrix(.7182662 0 0 .7182662 0 0)" font-size="12" font-family="ArialMT"><tspan y="150" x="43 51.004 57.004 60.340005 64.336009 71.00801 77.00801 80.34401 83.00801 89.68001 96.352008 99.688 106.36 113.032 119.703998 126.37599 130.372 137.04399 139.708 142.372 145.708 149.04399 155.71599 162.38799 165.72399 172.39598 176.39199 183.06398">Extracting generall features</tspan></text>
<text xml:space="preserve" transform="matrix(.7182662 0 0 .7182662 0 0)" font-size="12" font-family="ArialMT"><tspan y="164" x="43 49.672 55.672 62.344 66.340007 69.676 76.34801 79.01201 81.67601 85.01201 91.684009 94.34801 100.34801 107.020008 113.692 117.028 123.7 127.696 134.368 141.04 147.71199 151.708 155.04399 157.708 164.37999">over all given properties</tspan></text>
<path transform="matrix(.7182662,0,0,.7182662,0,0)" d="M 33 175 C 32.999998 175.26522 32.94925 175.52033 32.847757 175.76534 C 32.74626 176.01036 32.601747 176.22666 32.41421 176.4142 C 32.226675 176.60172 32.01039 176.74623 31.765364 176.84774 C 31.520337 176.94924 31.265215 176.99999 31 177 C 30.734782 176.99999 30.479657 176.94924 30.234629 176.84774 C 29.989602 176.74623 29.77332 176.60172 29.585785 176.4142 C 29.398247 176.22666 29.25373 176.01036 29.152237 175.76534 C 29.050744 175.52033 28.999999 175.26522 29 175 C 28.999999 174.73477 29.050744 174.47965 29.152237 174.2346 C 29.25373 173.98958 29.398247 173.7733 29.585785 173.58577 C 29.77332 173.39823 29.989602 173.25371 30.234629 173.15222 C 30.479657 173.05074 30.734782 173 31 173 C 31.265215 173 31.520337 173.05074 31.765364 173.15222 C 32.01039 173.25371 32.226675 173.39823 32.41421 173.58577 C 32.601747 173.7733 32.74626 173.98958 32.847757 174.2346 C 32.94925 174.47965 32.999998 174.73477 33 175 Z "/>
<text xml:space="preserve" transform="matrix(.7182662 0 0 .7182662 0 0)" font-size="12" font-family="ArialMT"><tspan y="178" x="43 51.664 58.336004 61.000005 67.672008 71.008 73.672008 80.34401 87.01601 90.352008 99.01601 101.68001 105.01601 111.688 115.024 121.696 125.692 132.364 138.364 141.028 147.7 154.372 160.372 163.708 170.37999 177.05199">Relation with previous and</tspan></text>
<text xml:space="preserve" transform="matrix(.7182662 0 0 .7182662 0 0)" font-size="12" font-family="ArialMT"><tspan y="192" x="43 49.672 55.672 62.344 66.340007 73.01201 75.67601 78.34001 81.67601 88.34801 95.020008 98.356">overall data</tspan></text>
<path transform="matrix(.7182662,0,0,.7182662,0,0)" d="M 33 203 C 32.999998 203.26522 32.94925 203.52033 32.847757 203.76535 C 32.74626 204.01039 32.601747 204.22667 32.41421 204.41422 C 32.226675 204.60173 32.01039 204.74625 31.765364 204.84775 C 31.520337 204.94925 31.265215 205 31 205 C 30.734782 205 30.479657 204.94925 30.234629 204.84775 C 29.989602 204.74625 29.77332 204.60173 29.585785 204.41422 C 29.398247 204.22667 29.25373 204.01039 29.152237 203.76535 C 29.050744 203.52033 28.999999 203.26522 29 203 C 28.999999 202.73477 29.050744 202.47965 29.152237 202.23462 C 29.25373 201.9896 29.398247 201.77332 29.585785 201.58579 C 29.77332 201.39824 29.989602 201.25373 30.234629 201.15222 C 30.479657 201.05074 30.734782 201 31 201 C 31.265215 201 31.520337 201.05074 31.765364 201.15222 C 32.01039 201.25373 32.226675 201.39824 32.41421 201.58579 C 32.601747 201.77332 32.74626 201.9896 32.847757 202.23462 C 32.94925 202.47965 32.999998 202.73477 33 203 Z "/>
<text xml:space="preserve" transform="matrix(.7182662 0 0 .7182662 0 0)" font-size="12" font-family="ArialMT"><tspan y="206" x="43 51.664 58.336004 68.332 75.004 81.675998 85.672 88.336 95.007999 101.67999 105.01599 108.35199 115.02399 118.359989 125.03198 129.02799 135.69998 141.69998 144.36399 151.03598 157.70798">Comparing to previous</tspan></text>
<text xml:space="preserve" transform="matrix(.7182662 0 0 .7182662 0 0)" font-size="12" font-family="ArialMT"><tspan y="220" x="43 52.996004 59.668004 63.004007 69.67601 76.34801 83.020008 86.356 93.028">metadata </tspan></text>
</g>
<clipPath id="cp7">
<path transform="matrix(.24,0,0,.24,0,0)" d="M 0 0 L 1933.3333 0 L 1933.3333 718.26626 L 0 718.26626 Z " fill-rule="evenodd"/>
</clipPath>
<g clip-path="url(#cp7)">
<path transform="matrix(.7182662,0,0,.7182662,.3591331,.3591331)" stroke-width="1" stroke-linecap="butt" stroke-miterlimit="10" stroke-linejoin="miter" fill="none" stroke="#000000" d="M 457 35 C 519 35 549.8467 57.54333 549.54 102.63 "/>
<path transform="matrix(.7182662,0,0,.7182662,.3591331,.3591331)" d="M 549.51 107.88 L 546.05 100.86 L 549.54 102.63 L 553.05 100.91 L 549.51 107.88 Z "/>
<path transform="matrix(.7182662,0,0,.7182662,.3591331,.3591331)" stroke-width="1" stroke-linecap="butt" stroke-miterlimit="10" stroke-linejoin="miter" fill="none" stroke="#000000" d="M 549.51 107.88 L 546.05 100.86 L 549.54 102.63 L 553.05 100.91 L 549.51 107.88 Z "/>
<path transform="matrix(.7182662,0,0,.7182662,.3591331,.3591331)" stroke-width="1" stroke-linecap="butt" stroke-miterlimit="10" stroke-linejoin="miter" fill="none" stroke="#000000" d="M 180.7 27 C 126.23333 27 102.54 52.23 109.62 102.69 "/>
<path transform="matrix(.7182662,0,0,.7182662,.3591331,.3591331)" d="M 110.34 107.89 L 105.91 101.45 L 109.62 102.69 L 112.84 100.47 L 110.34 107.89 Z "/>
<path transform="matrix(.7182662,0,0,.7182662,.3591331,.3591331)" stroke-width="1" stroke-linecap="butt" stroke-miterlimit="10" stroke-linejoin="miter" fill="none" stroke="#000000" d="M 110.34 107.89 L 105.91 101.45 L 109.62 102.69 L 112.84 100.47 L 110.34 107.89 Z "/>
</g>
</g>
</svg>
