<?xml version="1.0" encoding="UTF-8" standalone="no"?>
<!DOCTYPE svg PUBLIC "-//W3C//DTD SVG 1.1//EN" "http://www.w3.org/Graphics/SVG/1.1/DTD/svg11.dtd">
<svg xmlns="http://www.w3.org/2000/svg" xmlns:xlink="http://www.w3.org/1999/xlink" version="1.1" width="398.88pt" height="220.08pt" viewBox="0 0 398.88 220.08">
<g enable-background="new">
<clipPath id="cp0">
<path transform="matrix(.24,0,0,.24,0,0)" d="M 0 0 L 1662.4999 0 L 1662.4999 916.6216 L 0 916.6216 Z " fill-rule="evenodd"/>
</clipPath>
<g clip-path="url(#cp0)">
<path transform="matrix(.71891888,0,0,.71891888,0,0)" d="M 0 0 L 555 0 L 555 306 L 0 306 Z " fill="#ffffff"/>
</g>
<clipPath id="cp1">
<path transform="matrix(.24,0,0,.24,0,0)" d="M 0 0 L 1662.4999 0 L 1662.4999 913.6261 L 0 913.6261 Z " fill-rule="evenodd"/>
</clipPath>
<g clip-path="url(#cp1)">
<path transform="matrix(.71891888,0,0,.71891888,.35945944,.35945944)" stroke-width="1" stroke-linecap="butt" stroke-miterlimit="10" stroke-linejoin="miter" fill="none" stroke="#000000" d="M 101 164 L 122 164 L 122 98 L 136.63 98 "/>
<path transform="matrix(.71891888,0,0,.71891888,.35945944,.35945944)" d="M 141.88 98 L 134.88 101.5 L 136.63 98 L 134.88 94.5 L 141.88 98 Z "/>
<path transform="matrix(.71891888,0,0,.71891888,.35945944,.35945944)" stroke-width="1" stroke-linecap="butt" stroke-miterlimit="10" stroke-linejoin="miter" fill="none" stroke="#000000" d="M 141.88 98 L 134.88 101.5 L 136.63 98 L 134.88 94.5 L 141.88 98 Z "/>
<path transform="matrix(.71891888,0,0,.71891888,.35945944,.35945944)" stroke-width="1" stroke-linecap="butt" stroke-miterlimit="10" stroke-linejoin="miter" fill="none" stroke="#000000" d="M 101 164 L 122 164 L 122 243 L 136.63 243 "/>
<path transform="matrix(.71891888,0,0,.71891888,.35945944,.35945944)" d="M 141.88 243 L 134.88 246.5 L 136.63 243 L 134.88 239.5 L 141.88 243 Z "/>
<path transform="matrix(.71891888,0,0,.71891888,.35945944,.35945944)" stroke-width="1" stroke-linecap="butt" stroke-miterlimit="10" stroke-linejoin="miter" fill="none" stroke="#000000" d="M 141.88 243 L 134.88 246.5 L 136.63 243 L 134.88 239.5 L 141.88 243 Z "/>
<path transform="matrix(.71891888,0,0,.71891888,.35945944,.35945944)" d="M 8.5 139 L 93.5 139 C 93.992458 139 94.48018 139.04804 94.96317 139.14412 C 95.44617 139.24019 95.915149 139.38245 96.37012 139.57089 C 96.82509 139.75936 97.25731 139.99037 97.66677 140.26398 C 98.07623 140.53755 98.45508 140.84847 98.8033 141.19669 C 99.15151 141.5449 99.46242 141.92375 99.736019 142.3332 C 100.00961 142.74268 100.24063 143.1749 100.429088 143.62985 C 100.617549 144.08483 100.75981 144.5538 100.85588 145.0368 C 100.95196 145.5198 101 146.00754 101 146.5 L 101 181.5 C 101 181.99245 100.95196 182.48018 100.85588 182.96317 C 100.75981 183.44615 100.617549 183.91513 100.429088 184.3701 C 100.24063 184.82508 100.00961 185.2573 99.736019 185.66677 C 99.46242 186.07624 99.15151 186.45508 98.8033 186.8033 C 98.45508 187.15152 98.07623 187.46242 97.66677 187.73603 C 97.25731 188.00962 96.82509 188.24063 96.37012 188.4291 C 95.915149 188.61754 95.44617 188.7598 94.96317 188.85588 C 94.48018 188.95195 93.992458 188.99999 93.5 189 L 8.5 189 C 8.007543 188.99999 7.5198166 188.95195 7.036822 188.85588 C 6.5538275 188.7598 6.0848448 188.61754 5.6298739 188.42908 C 5.174903 188.24062 4.742686 188.0096 4.333223 187.73601 C 3.9237598 187.46242 3.5449184 187.15152 3.196699 186.8033 C 2.8484793 186.45508 2.537572 186.07624 2.2639774 185.66677 C 1.990383 185.2573 1.7593584 184.82508 1.5709033 184.3701 C 1.3824482 183.91513 1.2401838 183.44615 1.1441102 182.96315 C 1.0480367 182.48017 .99999997 181.99245 1 181.5 L 1 146.5 C .99999997 146.00754 1.0480367 145.5198 1.1441102 145.0368 C 1.2401838 144.5538 1.3824482 144.08483 1.5709033 143.62985 C 1.7593584 143.1749 1.9903832 142.74268 2.2639776 142.3332 C 2.5375722 141.92375 2.8484793 141.5449 3.196699 141.19669 C 3.5449184 140.84847 3.9237598 140.53755 4.333223 140.26398 C 4.742686 139.99037 5.174903 139.75936 5.6298739 139.57089 C 6.0848448 139.38245 6.5538275 139.24019 7.036822 139.14412 C 7.5198166 139.04804 8.007543 139 8.5 139 Z " fill="#d5e8d4"/>
<path transform="matrix(.71891888,0,0,.71891888,.35945944,.35945944)" stroke-width="1" stroke-linecap="butt" stroke-miterlimit="4" stroke-linejoin="miter" fill="none" stroke="#82b366" d="M 8.5 139 L 93.5 139 C 93.992458 139 94.48018 139.04804 94.96317 139.14412 C 95.44617 139.24019 95.915149 139.38245 96.37012 139.57089 C 96.82509 139.75936 97.25731 139.99037 97.66677 140.26398 C 98.07623 140.53755 98.45508 140.84847 98.8033 141.19669 C 99.15151 141.5449 99.46242 141.92375 99.736019 142.3332 C 100.00961 142.74268 100.24063 143.1749 100.429088 143.62985 C 100.617549 144.08483 100.75981 144.5538 100.85588 145.0368 C 100.95196 145.5198 101 146.00754 101 146.5 L 101 181.5 C 101 181.99245 100.95196 182.48018 100.85588 182.96317 C 100.75981 183.44615 100.617549 183.91513 100.429088 184.3701 C 100.24063 184.82508 100.00961 185.2573 99.736019 185.66677 C 99.46242 186.07624 99.15151 186.45508 98.8033 186.8033 C 98.45508 187.15152 98.07623 187.46242 97.66677 187.73603 C 97.25731 188.00962 96.82509 188.24063 96.37012 188.4291 C 95.915149 188.61754 95.44617 188.7598 94.96317 188.85588 C 94.48018 188.95195 93.992458 188.99999 93.5 189 L 8.5 189 C 8.007543 188.99999 7.5198166 188.95195 7.036822 188.85588 C 6.5538275 188.7598 6.0848448 188.61754 5.6298739 188.42908 C 5.174903 188.24062 4.742686 188.0096 4.333223 187.73601 C 3.9237598 187.46242 3.5449184 187.15152 3.196699 186.8033 C 2.8484793 186.45508 2.537572 186.07624 2.2639774 185.66677 C 1.990383 185.2573 1.7593584 184.82508 1.5709033 184.3701 C 1.3824482 183.91513 1.2401838 183.44615 1.1441102 182.96315 C 1.0480367 182.48017 .99999997 181.99245 1 181.5 L 1 146.5 C .99999997 146.00754 1.0480367 145.5198 1.1441102 145.0368 C 1.2401838 144.5538 1.3824482 144.08483 1.5709033 143.62985 C 1.7593584 143.1749 1.9903832 142.74268 2.2639776 142.3332 C 2.5375722 141.92375 2.8484793 141.5449 3.196699 141.19669 C 3.5449184 140.84847 3.9237598 140.53755 4.333223 140.26398 C 4.742686 139.99037 5.174903 139.75936 5.6298739 139.57089 C 6.0848448 139.38245 6.5538275 139.24019 7.036822 139.14412 C 7.5198166 139.04804 8.007543 139 8.5 139 Z "/>
<text xml:space="preserve" transform="matrix(.71891888 0 0 .71891888 0 0)" font-size="12" font-family="ArialMT"><tspan y="162" x="6.3125 15.6485 22.320502 25.656502 28.320502 30.9845 37.6565 41.6525 44.988504 53.652505 60.324506 63.660509 70.332508 76.332508 79.6685 82.332508 89.0045">Outlier Detection</tspan></text>
<text xml:space="preserve" transform="matrix(.71891888 0 0 .71891888 0 0)" font-size="12" font-family="ArialMT"><tspan y="162" x="95.671878"> </tspan></text>
<text xml:space="preserve" transform="matrix(.71891888 0 0 .71891888 0 0)" font-size="12" font-family="ArialMT"><tspan y="176" x="18.984375 26.988377 33.660379 40.33238 44.328378 51.000379 57.67238 63.67238 70.344379 77.01637">Approaches</tspan></text>
<path transform="matrix(.71891888,0,0,.71891888,.35945944,.35945944)" stroke-width="1" stroke-linecap="butt" stroke-miterlimit="10" stroke-linejoin="miter" fill="none" stroke="#000000" d="M 243 98 L 271.5 98 L 271.5 61.5 L 293.63 61.5 "/>
<path transform="matrix(.71891888,0,0,.71891888,.35945944,.35945944)" d="M 298.88 61.5 L 291.88 65 L 293.63 61.5 L 291.88 58 L 298.88 61.5 Z "/>
<path transform="matrix(.71891888,0,0,.71891888,.35945944,.35945944)" stroke-width="1" stroke-linecap="butt" stroke-miterlimit="10" stroke-linejoin="miter" fill="none" stroke="#000000" d="M 298.88 61.5 L 291.88 65 L 293.63 61.5 L 291.88 58 L 298.88 61.5 Z "/>
<path transform="matrix(.71891888,0,0,.71891888,.35945944,.35945944)" stroke-width="1" stroke-linecap="butt" stroke-miterlimit="10" stroke-linejoin="miter" fill="none" stroke="#000000" d="M 243 98 L 271.5 98 L 271.5 134 L 293.63 134 "/>
<path transform="matrix(.71891888,0,0,.71891888,.35945944,.35945944)" d="M 298.88 134 L 291.88 137.5 L 293.63 134 L 291.88 130.5 L 298.88 134 Z "/>
<path transform="matrix(.71891888,0,0,.71891888,.35945944,.35945944)" stroke-width="1" stroke-linecap="butt" stroke-miterlimit="10" stroke-linejoin="miter" fill="none" stroke="#000000" d="M 298.88 134 L 291.88 137.5 L 293.63 134 L 291.88 130.5 L 298.88 134 Z "/>
<path transform="matrix(.71891888,0,0,.71891888,.35945944,.35945944)" d="M 150.5 73 L 235.5 73 C 235.99245 73 236.48018 73.048038 236.96317 73.14411 C 237.44615 73.24017 237.91513 73.38244 238.3701 73.57089 C 238.82508 73.759349 239.2573 73.990367 239.66677 74.26396 C 240.07624 74.53756 240.45508 74.84847 240.8033 75.19669 C 241.1515 75.54491 241.4624 75.923748 241.736 76.333209 C 242.0096 76.74267 242.24062 77.17489 242.42908 77.62986 C 242.61754 78.08483 242.7598 78.55382 242.85588 79.03681 C 242.95195 79.519809 242.99999 80.00754 243 80.5 L 243 115.5 C 242.99999 115.992458 242.95195 116.48017 242.85588 116.963169 C 242.7598 117.44616 242.61754 117.915149 242.42908 118.37012 C 242.24062 118.82508 242.0096 119.2573 241.736 119.66676 C 241.4624 120.076229 241.1515 120.45507 240.8033 120.80329 C 240.45508 121.151508 240.07624 121.46241 239.66678 121.736 C 239.25731 122.00959 238.82508 122.240619 238.3701 122.42908 C 237.91513 122.61753 237.44614 122.7598 236.96315 122.85588 C 236.48017 122.95196 235.99245 122.99999 235.5 123 L 150.5 123 C 150.00754 122.99999 149.5198 122.95196 149.03682 122.85588 C 148.5538 122.7598 148.08483 122.61753 147.62987 122.42908 C 147.1749 122.240619 146.74268 122.00959 146.3332 121.73599 C 145.92374 121.46241 145.5449 121.151508 145.19669 120.80329 C 144.84847 120.45507 144.53755 120.076229 144.26395 119.66676 C 143.99037 119.2573 143.75936 118.82508 143.57089 118.37012 C 143.38243 117.915149 143.24018 117.44616 143.14409 116.963169 C 143.04804 116.48017 143 115.992458 143 115.5 L 143 80.5 C 143 80.00754 143.04804 79.519809 143.14409 79.03681 C 143.24018 78.55382 143.38243 78.08483 143.57089 77.62986 C 143.75936 77.17489 143.99037 76.74267 144.26395 76.333209 C 144.53755 75.923748 144.84847 75.54491 145.19669 75.19669 C 145.5449 74.84847 145.92374 74.53756 146.3332 74.26396 C 146.74268 73.990367 147.1749 73.759349 147.62987 73.57089 C 148.08483 73.38244 148.5538 73.24017 149.03682 73.14411 C 149.5198 73.048038 150.00754 73 150.5 73 Z " fill="#dae8fc"/>
<path transform="matrix(.71891888,0,0,.71891888,.35945944,.35945944)" stroke-width="1" stroke-linecap="butt" stroke-miterlimit="4" stroke-linejoin="miter" fill="none" stroke="#6c8ebf" d="M 150.5 73 L 235.5 73 C 235.99245 73 236.48018 73.048038 236.96317 73.14411 C 237.44615 73.24017 237.91513 73.38244 238.3701 73.57089 C 238.82508 73.759349 239.2573 73.990367 239.66677 74.26396 C 240.07624 74.53756 240.45508 74.84847 240.8033 75.19669 C 241.1515 75.54491 241.4624 75.923748 241.736 76.333209 C 242.0096 76.74267 242.24062 77.17489 242.42908 77.62986 C 242.61754 78.08483 242.7598 78.55382 242.85588 79.03681 C 242.95195 79.519809 242.99999 80.00754 243 80.5 L 243 115.5 C 242.99999 115.992458 242.95195 116.48017 242.85588 116.963169 C 242.7598 117.44616 242.61754 117.915149 242.42908 118.37012 C 242.24062 118.82508 242.0096 119.2573 241.736 119.66676 C 241.4624 120.076229 241.1515 120.45507 240.8033 120.80329 C 240.45508 121.151508 240.07624 121.46241 239.66678 121.736 C 239.25731 122.00959 238.82508 122.240619 238.3701 122.42908 C 237.91513 122.61753 237.44614 122.7598 236.96315 122.85588 C 236.48017 122.95196 235.99245 122.99999 235.5 123 L 150.5 123 C 150.00754 122.99999 149.5198 122.95196 149.03682 122.85588 C 148.5538 122.7598 148.08483 122.61753 147.62987 122.42908 C 147.1749 122.240619 146.74268 122.00959 146.3332 121.73599 C 145.92374 121.46241 145.5449 121.151508 145.19669 120.80329 C 144.84847 120.45507 144.53755 120.076229 144.26395 119.66676 C 143.99037 119.2573 143.75936 118.82508 143.57089 118.37012 C 143.38243 117.915149 143.24018 117.44616 143.14409 116.963169 C 143.04804 116.48017 143 115.992458 143 115.5 L 143 80.5 C 143 80.00754 143.04804 79.519809 143.14409 79.03681 C 143.24018 78.55382 143.38243 78.08483 143.57089 77.62986 C 143.75936 77.17489 143.99037 76.74267 144.26395 76.333209 C 144.53755 75.923748 144.84847 75.54491 145.19669 75.19669 C 145.5449 74.84847 145.92374 74.53756 146.3332 74.26396 C 146.74268 73.990367 147.1749 73.759349 147.62987 73.57089 C 148.08483 73.38244 148.5538 73.24017 149.03682 73.14411 C 149.5198 73.048038 150.00754 73 150.5 73 Z "/>
<text xml:space="preserve" transform="matrix(.71891888 0 0 .71891888 0 0)" font-size="12" font-family="ArialMT"><tspan y="96" x="157.96875 165.30075 171.97275 178.64475 185.31674 191.98874 201.98474 208.65674 215.32874 218.66474 225.33673">Fundamental</tspan></text>
<text xml:space="preserve" transform="matrix(.71891888 0 0 .71891888 0 0)" font-size="12" font-family="ArialMT"><tspan y="96" x="228"> </tspan></text>
<text xml:space="preserve" transform="matrix(.71891888 0 0 .71891888 0 0)" font-size="12" font-family="ArialMT"><tspan y="110" x="160.96875 168.97275 175.64475 182.31674 186.31275 192.98474 199.65674 205.65674 212.32874 219.00074">Approaches</tspan></text>
<path transform="matrix(.71891888,0,0,.71891888,.35945944,.35945944)" stroke-width="1" stroke-linecap="butt" stroke-miterlimit="10" stroke-linejoin="miter" fill="none" stroke="#000000" d="M 400 61.5 L 425 61.5 L 425 26 L 443.63 26 "/>
<path transform="matrix(.71891888,0,0,.71891888,.35945944,.35945944)" d="M 448.88 26 L 441.88 29.5 L 443.63 26 L 441.88 22.5 L 448.88 26 Z "/>
<path transform="matrix(.71891888,0,0,.71891888,.35945944,.35945944)" stroke-width="1" stroke-linecap="butt" stroke-miterlimit="10" stroke-linejoin="miter" fill="none" stroke="#000000" d="M 448.88 26 L 441.88 29.5 L 443.63 26 L 441.88 22.5 L 448.88 26 Z "/>
<path transform="matrix(.71891888,0,0,.71891888,.35945944,.35945944)" stroke-width="1" stroke-linecap="butt" stroke-miterlimit="10" stroke-linejoin="miter" fill="none" stroke="#000000" d="M 400 61.5 L 425 61.5 L 425 98 L 443.63 98 "/>
<path transform="matrix(.71891888,0,0,.71891888,.35945944,.35945944)" d="M 448.88 98 L 441.88 101.5 L 443.63 98 L 441.88 94.5 L 448.88 98 Z "/>
<path transform="matrix(.71891888,0,0,.71891888,.35945944,.35945944)" stroke-width="1" stroke-linecap="butt" stroke-miterlimit="10" stroke-linejoin="miter" fill="none" stroke="#000000" d="M 448.88 98 L 441.88 101.5 L 443.63 98 L 441.88 94.5 L 448.88 98 Z "/>
<path transform="matrix(.71891888,0,0,.71891888,.35945944,.35945944)" d="M 307.5 36.5 L 392.5 36.5 C 392.99247 36.5 393.48017 36.548036 393.96318 36.644109 C 394.4461 36.74018 394.91508 36.882444 395.37007 37.070898 C 395.82505 37.259355 396.2573 37.49038 396.66676 37.763975 C 397.0762 38.037569 397.45506 38.348474 397.80329 38.696695 C 398.1515 39.04491 398.46238 39.42375 398.73597 39.833219 C 399.00959 40.242685 399.2406 40.6749 399.42906 41.12987 C 399.6175 41.584844 399.75978 42.053827 399.85585 42.53682 C 399.95195 43.019819 399.99998 43.50754 400 44 L 400 79 C 399.99998 79.492458 399.95195 79.98018 399.85585 80.46317 C 399.75975 80.94617 399.61747 81.415149 399.42903 81.87012 C 399.24058 82.32509 399.00956 82.7573 398.73594 83.16676 C 398.46238 83.576229 398.1515 83.95506 397.80329 84.30329 C 397.45506 84.65151 397.0762 84.96242 396.66676 85.236019 C 396.2573 85.50961 395.82508 85.74063 395.3701 85.929088 C 394.9151 86.11754 394.44615 86.2598 393.96315 86.35588 C 393.48017 86.45196 392.99247 86.49999 392.5 86.5 L 307.5 86.5 C 307.00755 86.49999 306.5198 86.45196 306.03678 86.35588 C 305.55378 86.2598 305.0848 86.11754 304.62986 85.929088 C 304.1749 85.74063 303.74269 85.50961 303.3332 85.236019 C 302.92375 84.96242 302.5449 84.65151 302.1967 84.30329 C 301.84846 83.95506 301.53755 83.576229 301.26393 83.16676 C 300.99034 82.7573 300.7593 82.32509 300.57087 81.87012 C 300.38243 81.415149 300.24015 80.94617 300.14408 80.46317 C 300.048 79.98018 299.99998 79.492458 300 79 L 300 44 C 299.99998 43.50754 300.048 43.019819 300.14408 42.53682 C 300.24015 42.053827 300.38243 41.584844 300.57087 41.12987 C 300.7593 40.6749 300.99037 40.24268 301.26396 39.833215 C 301.53755 39.42375 301.84846 39.04491 302.1967 38.696695 C 302.5449 38.348474 302.92375 38.037569 303.3332 37.763975 C 303.74269 37.49038 304.1749 37.259355 304.62986 37.070898 C 305.0848 36.882444 305.55378 36.74018 306.03678 36.644109 C 306.5198 36.548036 307.00755 36.5 307.5 36.5 Z " fill="#e1d5e7"/>
<path transform="matrix(.71891888,0,0,.71891888,.35945944,.35945944)" stroke-width="1" stroke-linecap="butt" stroke-miterlimit="4" stroke-linejoin="miter" fill="none" stroke="#9673a6" d="M 307.5 36.5 L 392.5 36.5 C 392.99247 36.5 393.48017 36.548036 393.96318 36.644109 C 394.4461 36.74018 394.91508 36.882444 395.37007 37.070898 C 395.82505 37.259355 396.2573 37.49038 396.66676 37.763975 C 397.0762 38.037569 397.45506 38.348474 397.80329 38.696695 C 398.1515 39.04491 398.46238 39.42375 398.73597 39.833219 C 399.00959 40.242685 399.2406 40.6749 399.42906 41.12987 C 399.6175 41.584844 399.75978 42.053827 399.85585 42.53682 C 399.95195 43.019819 399.99998 43.50754 400 44 L 400 79 C 399.99998 79.492458 399.95195 79.98018 399.85585 80.46317 C 399.75975 80.94617 399.61747 81.415149 399.42903 81.87012 C 399.24058 82.32509 399.00956 82.7573 398.73594 83.16676 C 398.46238 83.576229 398.1515 83.95506 397.80329 84.30329 C 397.45506 84.65151 397.0762 84.96242 396.66676 85.236019 C 396.2573 85.50961 395.82508 85.74063 395.3701 85.929088 C 394.9151 86.11754 394.44615 86.2598 393.96315 86.35588 C 393.48017 86.45196 392.99247 86.49999 392.5 86.5 L 307.5 86.5 C 307.00755 86.49999 306.5198 86.45196 306.03678 86.35588 C 305.55378 86.2598 305.0848 86.11754 304.62986 85.929088 C 304.1749 85.74063 303.74269 85.50961 303.3332 85.236019 C 302.92375 84.96242 302.5449 84.65151 302.1967 84.30329 C 301.84846 83.95506 301.53755 83.576229 301.26393 83.16676 C 300.99034 82.7573 300.7593 82.32509 300.57087 81.87012 C 300.38243 81.415149 300.24015 80.94617 300.14408 80.46317 C 300.048 79.98018 299.99998 79.492458 300 79 L 300 44 C 299.99998 43.50754 300.048 43.019819 300.14408 42.53682 C 300.24015 42.053827 300.38243 41.584844 300.57087 41.12987 C 300.7593 40.6749 300.99037 40.24268 301.26396 39.833215 C 301.53755 39.42375 301.84846 39.04491 302.1967 38.696695 C 302.5449 38.348474 302.92375 38.037569 303.3332 37.763975 C 303.74269 37.49038 304.1749 37.259355 304.62986 37.070898 C 305.0848 36.882444 305.55378 36.74018 306.03678 36.644109 C 306.5198 36.548036 307.00755 36.5 307.5 36.5 Z "/>
<text xml:space="preserve" transform="matrix(.71891888 0 0 .71891888 0 0)" font-size="12" font-family="ArialMT"><tspan y="60" x="306.98439 314.98838 318.98439 325.65638 331.65638 334.32038 344.31639 346.98039 350.31639 356.31639 360.31239 366.98439 373.65638 379.65638 386.32838">Proximity-based</tspan></text>
<text xml:space="preserve" transform="matrix(.71891888 0 0 .71891888 0 0)" font-size="12" font-family="ArialMT"><tspan y="60" x="393"> </tspan></text>
<text xml:space="preserve" transform="matrix(.71891888 0 0 .71891888 0 0)" font-size="12" font-family="ArialMT"><tspan y="74" x="317.98439 325.98838 332.66038 339.33238 343.32838 350.00038 356.67237 362.67237 369.34437 376.01637">Approaches</tspan></text>
<path transform="matrix(.71891888,0,0,.71891888,.35945944,.35945944)" d="M 307.5 109 L 392.5 109 C 392.99247 109.00001 393.48017 109.04804 393.96318 109.14411 C 394.4461 109.24019 394.91508 109.38245 395.37007 109.5709 C 395.82505 109.75935 396.2573 109.99037 396.66676 110.26397 C 397.0762 110.53757 397.45506 110.84847 397.80329 111.19669 C 398.1515 111.54491 398.46238 111.923748 398.73597 112.333209 C 399.00959 112.74267 399.2406 113.17488 399.42906 113.62986 C 399.6175 114.08483 399.75978 114.55382 399.85585 115.03681 C 399.95195 115.51981 399.99998 116.007549 400 116.5 L 400 151.5 C 399.99998 151.99245 399.95195 152.48018 399.85585 152.96317 C 399.75975 153.44615 399.61747 153.91515 399.42903 154.37012 C 399.24058 154.82509 399.00956 155.2573 398.73594 155.66677 C 398.46238 156.07624 398.1515 156.45508 397.80329 156.8033 C 397.45506 157.1515 397.0762 157.4624 396.66676 157.73601 C 396.2573 158.00959 395.82508 158.24062 395.3701 158.42908 C 394.9151 158.61754 394.44615 158.7598 393.96315 158.85588 C 393.48017 158.95197 392.99247 159 392.5 159 L 307.5 159 C 307.00755 159 306.5198 158.95197 306.03678 158.85588 C 305.55378 158.7598 305.0848 158.61754 304.62986 158.42908 C 304.1749 158.24062 303.74269 158.00959 303.3332 157.73601 C 302.92375 157.4624 302.5449 157.1515 302.1967 156.8033 C 301.84846 156.45508 301.53755 156.07624 301.26393 155.66677 C 300.99034 155.2573 300.7593 154.82509 300.57087 154.37012 C 300.38243 153.91515 300.24015 153.44615 300.14408 152.96317 C 300.048 152.48018 299.99998 151.99245 300 151.5 L 300 116.5 C 299.99998 116.007549 300.048 115.51981 300.14408 115.03681 C 300.24015 114.55382 300.38243 114.08483 300.57087 113.62986 C 300.7593 113.17488 300.99037 112.74267 301.26396 112.333209 C 301.53755 111.923748 301.84846 111.54491 302.1967 111.19669 C 302.5449 110.84847 302.92375 110.53757 303.3332 110.26397 C 303.74269 109.99037 304.1749 109.75935 304.62986 109.5709 C 305.0848 109.38245 305.55378 109.24019 306.03678 109.14411 C 306.5198 109.04804 307.00755 109.00001 307.5 109 Z " fill="#fff2cc"/>
<path transform="matrix(.71891888,0,0,.71891888,.35945944,.35945944)" stroke-width="1" stroke-linecap="butt" stroke-miterlimit="4" stroke-linejoin="miter" fill="none" stroke="#d6b656" d="M 307.5 109 L 392.5 109 C 392.99247 109.00001 393.48017 109.04804 393.96318 109.14411 C 394.4461 109.24019 394.91508 109.38245 395.37007 109.5709 C 395.82505 109.75935 396.2573 109.99037 396.66676 110.26397 C 397.0762 110.53757 397.45506 110.84847 397.80329 111.19669 C 398.1515 111.54491 398.46238 111.923748 398.73597 112.333209 C 399.00959 112.74267 399.2406 113.17488 399.42906 113.62986 C 399.6175 114.08483 399.75978 114.55382 399.85585 115.03681 C 399.95195 115.51981 399.99998 116.007549 400 116.5 L 400 151.5 C 399.99998 151.99245 399.95195 152.48018 399.85585 152.96317 C 399.75975 153.44615 399.61747 153.91515 399.42903 154.37012 C 399.24058 154.82509 399.00956 155.2573 398.73594 155.66677 C 398.46238 156.07624 398.1515 156.45508 397.80329 156.8033 C 397.45506 157.1515 397.0762 157.4624 396.66676 157.73601 C 396.2573 158.00959 395.82508 158.24062 395.3701 158.42908 C 394.9151 158.61754 394.44615 158.7598 393.96315 158.85588 C 393.48017 158.95197 392.99247 159 392.5 159 L 307.5 159 C 307.00755 159 306.5198 158.95197 306.03678 158.85588 C 305.55378 158.7598 305.0848 158.61754 304.62986 158.42908 C 304.1749 158.24062 303.74269 158.00959 303.3332 157.73601 C 302.92375 157.4624 302.5449 157.1515 302.1967 156.8033 C 301.84846 156.45508 301.53755 156.07624 301.26393 155.66677 C 300.99034 155.2573 300.7593 154.82509 300.57087 154.37012 C 300.38243 153.91515 300.24015 153.44615 300.14408 152.96317 C 300.048 152.48018 299.99998 151.99245 300 151.5 L 300 116.5 C 299.99998 116.007549 300.048 115.51981 300.14408 115.03681 C 300.24015 114.55382 300.38243 114.08483 300.57087 113.62986 C 300.7593 113.17488 300.99037 112.74267 301.26396 112.333209 C 301.53755 111.923748 301.84846 111.54491 302.1967 111.19669 C 302.5449 110.84847 302.92375 110.53757 303.3332 110.26397 C 303.74269 109.99037 304.1749 109.75935 304.62986 109.5709 C 305.0848 109.38245 305.55378 109.24019 306.03678 109.14411 C 306.5198 109.04804 307.00755 109.00001 307.5 109 Z "/>
<text xml:space="preserve" transform="matrix(.71891888 0 0 .71891888 0 0)" font-size="12" font-family="ArialMT"><tspan y="132" x="304.96876 312.97276 316.96876 323.64076 326.30476 332.97676 338.97676 342.31275 344.97676 351.64875 358.32075 362.31675 368.98875 375.66075 381.66075 388.33274">Projection-based</tspan></text>
<text xml:space="preserve" transform="matrix(.71891888 0 0 .71891888 0 0)" font-size="12" font-family="ArialMT"><tspan y="132" x="395.01564"> </tspan></text>
<text xml:space="preserve" transform="matrix(.71891888 0 0 .71891888 0 0)" font-size="12" font-family="ArialMT"><tspan y="146" x="317.98439 325.98838 332.66038 339.33238 343.32838 350.00038 356.67237 362.67237 369.34437 376.01637">Approaches</tspan></text>
<path transform="matrix(.71891888,0,0,.71891888,.35945944,.35945944)" d="M 457.5 1 L 545.5 1 C 545.9925 1 546.4802 1.0480368 546.9632 1.1441103 C 547.44619 1.240184 547.9151 1.3824483 548.37008 1.5709034 C 548.8251 1.7593585 549.25729 1.9903832 549.6667 2.2639776 C 550.0762 2.5375722 550.4551 2.8484793 550.8033 3.196699 C 551.1515 3.5449184 551.46237 3.9237598 551.73599 4.333223 C 552.0096 4.742686 552.2406 5.174903 552.429 5.6298739 C 552.6175 6.0848448 552.75979 6.5538275 552.8558 7.036822 C 552.9519 7.5198166 552.99996 8.007543 553 8.5 L 553 43.5 C 552.99996 43.992456 552.9519 44.48018 552.8558 44.963174 C 552.75979 45.446168 552.6175 45.91515 552.429 46.37012 C 552.2406 46.82509 552.0096 47.257307 551.73599 47.66677 C 551.46237 48.076238 551.1515 48.45508 550.8033 48.8033 C 550.4551 49.151517 550.07626 49.462427 549.66677 49.73602 C 549.25729 50.009614 548.8251 50.240636 548.37008 50.42909 C 547.9151 50.617547 547.44619 50.75981 546.9632 50.855886 C 546.4802 50.95196 545.9925 51 545.5 51 L 457.5 51 C 457.00755 51 456.5198 50.95196 456.0368 50.85589 C 455.55378 50.759817 455.08479 50.61755 454.62983 50.429094 C 454.17488 50.240636 453.74266 50.009614 453.3332 49.73602 C 452.92375 49.462427 452.5449 49.151517 452.1967 48.8033 C 451.84846 48.45508 451.53758 48.076238 451.26399 47.66677 C 450.99037 47.257307 450.7593 46.82509 450.57087 46.37012 C 450.38243 45.91515 450.24015 45.446168 450.14408 44.963174 C 450.04804 44.48018 450 43.992456 450 43.5 L 450 8.5 C 450 8.007543 450.04804 7.5198166 450.14408 7.036822 C 450.24015 6.5538275 450.38243 6.0848448 450.57087 5.6298739 C 450.7593 5.174903 450.99037 4.742686 451.26396 4.333223 C 451.53755 3.9237598 451.84846 3.5449184 452.1967 3.196699 C 452.5449 2.8484793 452.9237 2.537572 453.33317 2.2639774 C 453.74266 1.990383 454.17488 1.7593584 454.62983 1.5709033 C 455.08479 1.3824483 455.55378 1.240184 456.03678 1.1441103 C 456.5198 1.0480368 457.00755 1 457.5 1 Z " fill="#d0cee2"/>
<path transform="matrix(.71891888,0,0,.71891888,.35945944,.35945944)" stroke-width="1" stroke-linecap="butt" stroke-miterlimit="4" stroke-linejoin="miter" fill="none" stroke="#56517e" d="M 457.5 1 L 545.5 1 C 545.9925 1 546.4802 1.0480368 546.9632 1.1441103 C 547.44619 1.240184 547.9151 1.3824483 548.37008 1.5709034 C 548.8251 1.7593585 549.25729 1.9903832 549.6667 2.2639776 C 550.0762 2.5375722 550.4551 2.8484793 550.8033 3.196699 C 551.1515 3.5449184 551.46237 3.9237598 551.73599 4.333223 C 552.0096 4.742686 552.2406 5.174903 552.429 5.6298739 C 552.6175 6.0848448 552.75979 6.5538275 552.8558 7.036822 C 552.9519 7.5198166 552.99996 8.007543 553 8.5 L 553 43.5 C 552.99996 43.992456 552.9519 44.48018 552.8558 44.963174 C 552.75979 45.446168 552.6175 45.91515 552.429 46.37012 C 552.2406 46.82509 552.0096 47.257307 551.73599 47.66677 C 551.46237 48.076238 551.1515 48.45508 550.8033 48.8033 C 550.4551 49.151517 550.07626 49.462427 549.66677 49.73602 C 549.25729 50.009614 548.8251 50.240636 548.37008 50.42909 C 547.9151 50.617547 547.44619 50.75981 546.9632 50.855886 C 546.4802 50.95196 545.9925 51 545.5 51 L 457.5 51 C 457.00755 51 456.5198 50.95196 456.0368 50.85589 C 455.55378 50.759817 455.08479 50.61755 454.62983 50.429094 C 454.17488 50.240636 453.74266 50.009614 453.3332 49.73602 C 452.92375 49.462427 452.5449 49.151517 452.1967 48.8033 C 451.84846 48.45508 451.53758 48.076238 451.26399 47.66677 C 450.99037 47.257307 450.7593 46.82509 450.57087 46.37012 C 450.38243 45.91515 450.24015 45.446168 450.14408 44.963174 C 450.04804 44.48018 450 43.992456 450 43.5 L 450 8.5 C 450 8.007543 450.04804 7.5198166 450.14408 7.036822 C 450.24015 6.5538275 450.38243 6.0848448 450.57087 5.6298739 C 450.7593 5.174903 450.99037 4.742686 451.26396 4.333223 C 451.53755 3.9237598 451.84846 3.5449184 452.1967 3.196699 C 452.5449 2.8484793 452.9237 2.537572 453.33317 2.2639774 C 453.74266 1.990383 454.17488 1.7593584 454.62983 1.5709033 C 455.08479 1.3824483 455.55378 1.240184 456.03678 1.1441103 C 456.5198 1.0480368 457.00755 1 457.5 1 Z "/>
<text xml:space="preserve" transform="matrix(.71891888 0 0 .71891888 0 0)" font-size="12" font-family="ArialMT"><tspan y="24" x="453.14064 461.80464 468.47663 475.14863 479.14463 485.81663 491.81663 495.15263 499.14863 505.82063 512.4926 515.1566 521.8286 528.5006 535.1726 541.8446 545.8406">Nearest-neighbor-</tspan></text>
<text xml:space="preserve" transform="matrix(.71891888 0 0 .71891888 0 0)" font-size="12" font-family="ArialMT"><tspan y="24" x="549.84378"> </tspan></text>
<text xml:space="preserve" transform="matrix(.71891888 0 0 .71891888 0 0)" font-size="12" font-family="ArialMT"><tspan y="38" x="485.15626 491.82826 498.50025 504.50025 511.17225">based</tspan></text>
<path transform="matrix(.71891888,0,0,.71891888,.35945944,.35945944)" d="M 457.5 73 L 542.5 73 C 542.9924 73 543.4801 73.048038 543.9631 73.14411 C 544.44607 73.24017 544.91506 73.38244 545.37 73.57089 C 545.82498 73.759349 546.2572 73.990367 546.6667 74.26396 C 547.0762 74.53756 547.455 74.84847 547.8032 75.19669 C 548.1514 75.54491 548.46237 75.923748 548.73599 76.333209 C 549.0095 76.74267 549.24057 77.17489 549.429 77.62986 C 549.61746 78.08483 549.7597 78.55382 549.85586 79.03681 C 549.95199 79.519809 550 80.00754 550 80.5 L 550 115.5 C 550 115.992458 549.95199 116.48017 549.85586 116.963169 C 549.7597 117.44616 549.61746 117.915149 549.429 118.37012 C 549.24057 118.82508 549.0095 119.2573 548.73599 119.66676 C 548.46237 120.076229 548.1514 120.45507 547.8032 120.80329 C 547.455 121.151508 547.0762 121.46241 546.6667 121.736 C 546.2572 122.00959 545.82498 122.240619 545.37 122.42908 C 544.91506 122.61753 544.44607 122.7598 543.9631 122.85588 C 543.4801 122.95196 542.9924 122.99999 542.5 123 L 457.5 123 C 457.00755 122.99999 456.5198 122.95196 456.0368 122.85588 C 455.55378 122.7598 455.08479 122.61753 454.62983 122.42908 C 454.17488 122.240619 453.74266 122.00959 453.3332 121.73599 C 452.92375 121.46241 452.5449 121.151508 452.1967 120.80329 C 451.84846 120.45507 451.53758 120.076229 451.26399 119.66676 C 450.99037 119.2573 450.7593 118.82508 450.57087 118.37012 C 450.38243 117.915149 450.24015 117.44616 450.14408 116.963169 C 450.04804 116.48017 450 115.992458 450 115.5 L 450 80.5 C 450 80.00754 450.04804 79.519809 450.14408 79.03681 C 450.24015 78.55382 450.38243 78.08483 450.57087 77.62986 C 450.7593 77.17489 450.99037 76.74267 451.26396 76.333209 C 451.53755 75.923748 451.84846 75.54491 452.1967 75.19669 C 452.5449 74.84847 452.9237 74.53756 453.33317 74.26396 C 453.74266 73.990367 454.17488 73.759349 454.62983 73.57089 C 455.08479 73.38244 455.55378 73.24017 456.03678 73.14411 C 456.5198 73.048038 457.00755 73 457.5 73 Z " fill="#d0cee2"/>
<path transform="matrix(.71891888,0,0,.71891888,.35945944,.35945944)" stroke-width="1" stroke-linecap="butt" stroke-miterlimit="4" stroke-linejoin="miter" fill="none" stroke="#56517e" d="M 457.5 73 L 542.5 73 C 542.9924 73 543.4801 73.048038 543.9631 73.14411 C 544.44607 73.24017 544.91506 73.38244 545.37 73.57089 C 545.82498 73.759349 546.2572 73.990367 546.6667 74.26396 C 547.0762 74.53756 547.455 74.84847 547.8032 75.19669 C 548.1514 75.54491 548.46237 75.923748 548.73599 76.333209 C 549.0095 76.74267 549.24057 77.17489 549.429 77.62986 C 549.61746 78.08483 549.7597 78.55382 549.85586 79.03681 C 549.95199 79.519809 550 80.00754 550 80.5 L 550 115.5 C 550 115.992458 549.95199 116.48017 549.85586 116.963169 C 549.7597 117.44616 549.61746 117.915149 549.429 118.37012 C 549.24057 118.82508 549.0095 119.2573 548.73599 119.66676 C 548.46237 120.076229 548.1514 120.45507 547.8032 120.80329 C 547.455 121.151508 547.0762 121.46241 546.6667 121.736 C 546.2572 122.00959 545.82498 122.240619 545.37 122.42908 C 544.91506 122.61753 544.44607 122.7598 543.9631 122.85588 C 543.4801 122.95196 542.9924 122.99999 542.5 123 L 457.5 123 C 457.00755 122.99999 456.5198 122.95196 456.0368 122.85588 C 455.55378 122.7598 455.08479 122.61753 454.62983 122.42908 C 454.17488 122.240619 453.74266 122.00959 453.3332 121.73599 C 452.92375 121.46241 452.5449 121.151508 452.1967 120.80329 C 451.84846 120.45507 451.53758 120.076229 451.26399 119.66676 C 450.99037 119.2573 450.7593 118.82508 450.57087 118.37012 C 450.38243 117.915149 450.24015 117.44616 450.14408 116.963169 C 450.04804 116.48017 450 115.992458 450 115.5 L 450 80.5 C 450 80.00754 450.04804 79.519809 450.14408 79.03681 C 450.24015 78.55382 450.38243 78.08483 450.57087 77.62986 C 450.7593 77.17489 450.99037 76.74267 451.26396 76.333209 C 451.53755 75.923748 451.84846 75.54491 452.1967 75.19669 C 452.5449 74.84847 452.9237 74.53756 453.33317 74.26396 C 453.74266 73.990367 454.17488 73.759349 454.62983 73.57089 C 455.08479 73.38244 455.55378 73.24017 456.03678 73.14411 C 456.5198 73.048038 457.00755 73 457.5 73 Z "/>
<text xml:space="preserve" transform="matrix(.71891888 0 0 .71891888 0 0)" font-size="12" font-family="ArialMT"><tspan y="103" x="454.64064 463.30464 465.96864 472.64064 478.64064 481.97663 488.64863 492.64463 495.30863 501.98063 508.65263 512.6486 519.3206 525.9926 531.9926 538.6646">Clustering-based</tspan></text>
<path transform="matrix(.71891888,0,0,.71891888,.35945944,.35945944)" stroke-width="1" stroke-linecap="butt" stroke-miterlimit="10" stroke-linejoin="miter" fill="none" stroke="#000000" d="M 243 243 L 271.5 243 L 271.5 207 L 293.63 207 "/>
<path transform="matrix(.71891888,0,0,.71891888,.35945944,.35945944)" d="M 298.88 207 L 291.88 210.5 L 293.63 207 L 291.88 203.5 L 298.88 207 Z "/>
<path transform="matrix(.71891888,0,0,.71891888,.35945944,.35945944)" stroke-width="1" stroke-linecap="butt" stroke-miterlimit="10" stroke-linejoin="miter" fill="none" stroke="#000000" d="M 298.88 207 L 291.88 210.5 L 293.63 207 L 291.88 203.5 L 298.88 207 Z "/>
<path transform="matrix(.71891888,0,0,.71891888,.35945944,.35945944)" stroke-width="1" stroke-linecap="butt" stroke-miterlimit="10" stroke-linejoin="miter" fill="none" stroke="#000000" d="M 243 243 L 271.5 243 L 271.5 279 L 293.63 279 "/>
<path transform="matrix(.71891888,0,0,.71891888,.35945944,.35945944)" d="M 298.88 279 L 291.88 282.5 L 293.63 279 L 291.88 275.5 L 298.88 279 Z "/>
<path transform="matrix(.71891888,0,0,.71891888,.35945944,.35945944)" stroke-width="1" stroke-linecap="butt" stroke-miterlimit="10" stroke-linejoin="miter" fill="none" stroke="#000000" d="M 298.88 279 L 291.88 282.5 L 293.63 279 L 291.88 275.5 L 298.88 279 Z "/>
<path transform="matrix(.71891888,0,0,.71891888,.35945944,.35945944)" d="M 150.5 218 L 235.5 218 C 235.99245 218.00002 236.48018 218.04805 236.96317 218.14412 C 237.44615 218.24019 237.91513 218.38245 238.3701 218.5709 C 238.82508 218.75936 239.2573 218.99037 239.66677 219.26398 C 240.07624 219.53757 240.45508 219.84848 240.8033 220.1967 C 241.1515 220.54492 241.4624 220.92375 241.736 221.3332 C 242.0096 221.74266 242.24062 222.17488 242.42908 222.62985 C 242.61754 223.08483 242.7598 223.5538 242.85588 224.03682 C 242.95195 224.51982 242.99999 225.00756 243 225.5 L 243 260.5 C 242.99999 260.99244 242.95195 261.48014 242.85588 261.96315 C 242.7598 262.44615 242.61754 262.9151 242.42908 263.3701 C 242.24062 263.82505 242.0096 264.25727 241.736 264.66673 C 241.4624 265.0762 241.1515 265.45506 240.8033 265.80329 C 240.45508 266.1515 240.07624 266.46238 239.66678 266.73597 C 239.25731 267.00956 238.82508 267.24058 238.3701 267.42906 C 237.91513 267.61753 237.44614 267.7598 236.96315 267.8559 C 236.48017 267.95198 235.99245 268 235.5 268 L 150.5 268 C 150.00754 268 149.5198 267.95198 149.03682 267.8559 C 148.5538 267.7598 148.08483 267.61753 147.62987 267.42906 C 147.1749 267.24058 146.74268 267.00956 146.3332 266.73597 C 145.92374 266.46238 145.5449 266.1515 145.19669 265.80329 C 144.84847 265.45506 144.53755 265.0762 144.26395 264.66676 C 143.99037 264.25727 143.75936 263.82505 143.57089 263.3701 C 143.38243 262.9151 143.24018 262.44615 143.14409 261.96315 C 143.04804 261.48014 143 260.99244 143 260.5 L 143 225.5 C 143 225.00756 143.04804 224.51982 143.14409 224.03684 C 143.24018 223.55382 143.38243 223.08484 143.57089 222.62987 C 143.75936 222.1749 143.99037 221.74268 144.26395 221.3332 C 144.53755 220.92375 144.84847 220.54492 145.19669 220.1967 C 145.5449 219.84848 145.92374 219.53757 146.3332 219.26398 C 146.74268 218.99037 147.1749 218.75936 147.62987 218.57089 C 148.08483 218.38243 148.5538 218.24018 149.03682 218.1441 C 149.5198 218.04805 150.00754 218.00002 150.5 218 Z " fill="#f8cecc"/>
<path transform="matrix(.71891888,0,0,.71891888,.35945944,.35945944)" stroke-width="1" stroke-linecap="butt" stroke-miterlimit="4" stroke-linejoin="miter" fill="none" stroke="#b85450" d="M 150.5 218 L 235.5 218 C 235.99245 218.00002 236.48018 218.04805 236.96317 218.14412 C 237.44615 218.24019 237.91513 218.38245 238.3701 218.5709 C 238.82508 218.75936 239.2573 218.99037 239.66677 219.26398 C 240.07624 219.53757 240.45508 219.84848 240.8033 220.1967 C 241.1515 220.54492 241.4624 220.92375 241.736 221.3332 C 242.0096 221.74266 242.24062 222.17488 242.42908 222.62985 C 242.61754 223.08483 242.7598 223.5538 242.85588 224.03682 C 242.95195 224.51982 242.99999 225.00756 243 225.5 L 243 260.5 C 242.99999 260.99244 242.95195 261.48014 242.85588 261.96315 C 242.7598 262.44615 242.61754 262.9151 242.42908 263.3701 C 242.24062 263.82505 242.0096 264.25727 241.736 264.66673 C 241.4624 265.0762 241.1515 265.45506 240.8033 265.80329 C 240.45508 266.1515 240.07624 266.46238 239.66678 266.73597 C 239.25731 267.00956 238.82508 267.24058 238.3701 267.42906 C 237.91513 267.61753 237.44614 267.7598 236.96315 267.8559 C 236.48017 267.95198 235.99245 268 235.5 268 L 150.5 268 C 150.00754 268 149.5198 267.95198 149.03682 267.8559 C 148.5538 267.7598 148.08483 267.61753 147.62987 267.42906 C 147.1749 267.24058 146.74268 267.00956 146.3332 266.73597 C 145.92374 266.46238 145.5449 266.1515 145.19669 265.80329 C 144.84847 265.45506 144.53755 265.0762 144.26395 264.66676 C 143.99037 264.25727 143.75936 263.82505 143.57089 263.3701 C 143.38243 262.9151 143.24018 262.44615 143.14409 261.96315 C 143.04804 261.48014 143 260.99244 143 260.5 L 143 225.5 C 143 225.00756 143.04804 224.51982 143.14409 224.03684 C 143.24018 223.55382 143.38243 223.08484 143.57089 222.62987 C 143.75936 222.1749 143.99037 221.74268 144.26395 221.3332 C 144.53755 220.92375 144.84847 220.54492 145.19669 220.1967 C 145.5449 219.84848 145.92374 219.53757 146.3332 219.26398 C 146.74268 218.99037 147.1749 218.75936 147.62987 218.57089 C 148.08483 218.38243 148.5538 218.24018 149.03682 218.1441 C 149.5198 218.04805 150.00754 218.00002 150.5 218 Z "/>
<text xml:space="preserve" transform="matrix(.71891888 0 0 .71891888 0 0)" font-size="12" font-family="ArialMT"><tspan y="241" x="166.3125 174.3165 180.9885 186.9885 193.66049 200.33249 206.33249 213.00449">Advanced</tspan></text>
<text xml:space="preserve" transform="matrix(.71891888 0 0 .71891888 0 0)" font-size="12" font-family="ArialMT"><tspan y="241" x="219.67188"> </tspan></text>
<text xml:space="preserve" transform="matrix(.71891888 0 0 .71891888 0 0)" font-size="12" font-family="ArialMT"><tspan y="255" x="160.96875 168.97275 175.64475 182.31674 186.31275 192.98474 199.65674 205.65674 212.32874 219.00074">Approaches</tspan></text>
<path transform="matrix(.71891888,0,0,.71891888,.35945944,.35945944)" d="M 307.5 182 L 392.5 182 C 392.99247 182 393.48017 182.04804 393.96318 182.14412 C 394.4461 182.24019 394.91508 182.38245 395.37007 182.57089 C 395.82505 182.75934 396.2573 182.99036 396.66676 183.26395 C 397.0762 183.53755 397.45506 183.84847 397.80329 184.19669 C 398.1515 184.5449 398.46238 184.92374 398.73597 185.3332 C 399.00959 185.74266 399.2406 186.17488 399.42906 186.62985 C 399.6175 187.08483 399.75978 187.5538 399.85585 188.0368 C 399.95195 188.5198 399.99998 189.00754 400 189.5 L 400 224.5 C 399.99998 224.99245 399.95195 225.48018 399.85585 225.96317 C 399.75975 226.44615 399.61747 226.91513 399.42903 227.3701 C 399.24058 227.82508 399.00956 228.25728 398.73594 228.66675 C 398.46238 229.0762 398.1515 229.45505 397.80329 229.80329 C 397.45506 230.1515 397.0762 230.4624 396.66676 230.736 C 396.2573 231.0096 395.82508 231.24062 395.3701 231.42908 C 394.9151 231.61754 394.44615 231.7598 393.96315 231.85588 C 393.48017 231.95195 392.99247 231.99999 392.5 232 L 307.5 232 C 307.00755 231.99999 306.5198 231.95195 306.03678 231.85588 C 305.55378 231.7598 305.0848 231.61753 304.62986 231.42906 C 304.1749 231.2406 303.74269 231.00959 303.3332 230.736 C 302.92375 230.4624 302.5449 230.1515 302.1967 229.80329 C 301.84846 229.45505 301.53755 229.0762 301.26393 228.66677 C 300.99034 228.2573 300.7593 227.82508 300.57087 227.3701 C 300.38243 226.91513 300.24015 226.44615 300.14408 225.96315 C 300.048 225.48017 299.99998 224.99245 300 224.5 L 300 189.5 C 299.99998 189.00754 300.048 188.5198 300.14408 188.0368 C 300.24015 187.5538 300.38243 187.08481 300.57087 186.62984 C 300.7593 186.17487 300.99037 185.74265 301.26396 185.3332 C 301.53755 184.92374 301.84846 184.5449 302.1967 184.19669 C 302.5449 183.84847 302.92375 183.53755 303.3332 183.26398 C 303.74269 182.99037 304.1749 182.75934 304.62986 182.57089 C 305.0848 182.38245 305.55378 182.24019 306.03678 182.14412 C 306.5198 182.04804 307.00755 182 307.5 182 Z " fill="#ffddd9"/>
<path transform="matrix(.71891888,0,0,.71891888,.35945944,.35945944)" stroke-width="1" stroke-linecap="butt" stroke-miterlimit="4" stroke-linejoin="miter" fill="none" stroke="#ae4132" d="M 307.5 182 L 392.5 182 C 392.99247 182 393.48017 182.04804 393.96318 182.14412 C 394.4461 182.24019 394.91508 182.38245 395.37007 182.57089 C 395.82505 182.75934 396.2573 182.99036 396.66676 183.26395 C 397.0762 183.53755 397.45506 183.84847 397.80329 184.19669 C 398.1515 184.5449 398.46238 184.92374 398.73597 185.3332 C 399.00959 185.74266 399.2406 186.17488 399.42906 186.62985 C 399.6175 187.08483 399.75978 187.5538 399.85585 188.0368 C 399.95195 188.5198 399.99998 189.00754 400 189.5 L 400 224.5 C 399.99998 224.99245 399.95195 225.48018 399.85585 225.96317 C 399.75975 226.44615 399.61747 226.91513 399.42903 227.3701 C 399.24058 227.82508 399.00956 228.25728 398.73594 228.66675 C 398.46238 229.0762 398.1515 229.45505 397.80329 229.80329 C 397.45506 230.1515 397.0762 230.4624 396.66676 230.736 C 396.2573 231.0096 395.82508 231.24062 395.3701 231.42908 C 394.9151 231.61754 394.44615 231.7598 393.96315 231.85588 C 393.48017 231.95195 392.99247 231.99999 392.5 232 L 307.5 232 C 307.00755 231.99999 306.5198 231.95195 306.03678 231.85588 C 305.55378 231.7598 305.0848 231.61753 304.62986 231.42906 C 304.1749 231.2406 303.74269 231.00959 303.3332 230.736 C 302.92375 230.4624 302.5449 230.1515 302.1967 229.80329 C 301.84846 229.45505 301.53755 229.0762 301.26393 228.66677 C 300.99034 228.2573 300.7593 227.82508 300.57087 227.3701 C 300.38243 226.91513 300.24015 226.44615 300.14408 225.96315 C 300.048 225.48017 299.99998 224.99245 300 224.5 L 300 189.5 C 299.99998 189.00754 300.048 188.5198 300.14408 188.0368 C 300.24015 187.5538 300.38243 187.08481 300.57087 186.62984 C 300.7593 186.17487 300.99037 185.74265 301.26396 185.3332 C 301.53755 184.92374 301.84846 184.5449 302.1967 184.19669 C 302.5449 183.84847 302.92375 183.53755 303.3332 183.26398 C 303.74269 182.99037 304.1749 182.75934 304.62986 182.57089 C 305.0848 182.38245 305.55378 182.24019 306.03678 182.14412 C 306.5198 182.04804 307.00755 182 307.5 182 Z "/>
<text xml:space="preserve" transform="matrix(.71891888 0 0 .71891888 0 0)" font-size="12" font-family="ArialMT"><tspan y="205" x="310.64064 319.30464 325.97663 332.64863 339.32063 342.65663 349.3286 356.0006 362.6726 366.6686 373.3406 376.0046 382.6766">Deep Learning</tspan></text>
<text xml:space="preserve" transform="matrix(.71891888 0 0 .71891888 0 0)" font-size="12" font-family="ArialMT"><tspan y="219" x="317.98439 325.98838 332.66038 339.33238 343.32838 350.00038 356.67237 362.67237 369.34437 376.01637">Approaches</tspan></text>
<path transform="matrix(.71891888,0,0,.71891888,.35945944,.35945944)" d="M 307.5 254 L 392.5 254 C 392.99247 254 393.48017 254.04804 393.96318 254.1441 C 394.4461 254.24019 394.91508 254.38245 395.37007 254.57088 C 395.82505 254.75934 396.2573 254.99036 396.66676 255.26396 C 397.0762 255.53755 397.45506 255.84847 397.80329 256.1967 C 398.1515 256.54493 398.46238 256.92375 398.73597 257.3332 C 399.00959 257.74266 399.2406 258.17485 399.42906 258.62983 C 399.6175 259.0848 399.75978 259.55378 399.85585 260.03678 C 399.95195 260.51979 399.99998 261.00755 400 261.5 L 400 296.5 C 399.99998 296.99247 399.95195 297.48017 399.85585 297.96318 C 399.75975 298.44618 399.61747 298.91514 399.42903 299.3701 C 399.24058 299.82508 399.00956 300.2573 398.73594 300.66676 C 398.46238 301.0762 398.1515 301.45506 397.80329 301.80329 C 397.45506 302.15147 397.0762 302.46238 396.66676 302.73597 C 396.2573 303.00956 395.82508 303.2406 395.3701 303.42906 C 394.9151 303.61753 394.44615 303.7598 393.96315 303.85588 C 393.48017 303.95195 392.99247 303.99998 392.5 304 L 307.5 304 C 307.00755 303.99998 306.5198 303.95195 306.03678 303.85588 C 305.55378 303.7598 305.0848 303.61753 304.62986 303.42906 C 304.1749 303.2406 303.74269 303.00956 303.3332 302.73594 C 302.92375 302.46235 302.5449 302.15147 302.1967 301.80329 C 301.84846 301.45506 301.53755 301.0762 301.26393 300.66676 C 300.99034 300.2573 300.7593 299.82508 300.57087 299.3701 C 300.38243 298.91514 300.24015 298.44618 300.14408 297.96318 C 300.048 297.48017 299.99998 296.99247 300 296.5 L 300 261.5 C 299.99998 261.00755 300.048 260.51979 300.14408 260.03678 C 300.24015 259.55378 300.38243 259.0848 300.57087 258.62983 C 300.7593 258.17485 300.99037 257.74266 301.26396 257.3332 C 301.53755 256.92375 301.84846 256.54493 302.1967 256.1967 C 302.5449 255.84847 302.92375 255.53755 303.3332 255.26395 C 303.74269 254.99036 304.1749 254.75934 304.62986 254.57088 C 305.0848 254.38245 305.55378 254.24019 306.03678 254.1441 C 306.5198 254.04804 307.00755 254 307.5 254 Z " fill="#ffddd9"/>
<path transform="matrix(.71891888,0,0,.71891888,.35945944,.35945944)" stroke-width="1" stroke-linecap="butt" stroke-miterlimit="4" stroke-linejoin="miter" fill="none" stroke="#ae4132" d="M 307.5 254 L 392.5 254 C 392.99247 254 393.48017 254.04804 393.96318 254.1441 C 394.4461 254.24019 394.91508 254.38245 395.37007 254.57088 C 395.82505 254.75934 396.2573 254.99036 396.66676 255.26396 C 397.0762 255.53755 397.45506 255.84847 397.80329 256.1967 C 398.1515 256.54493 398.46238 256.92375 398.73597 257.3332 C 399.00959 257.74266 399.2406 258.17485 399.42906 258.62983 C 399.6175 259.0848 399.75978 259.55378 399.85585 260.03678 C 399.95195 260.51979 399.99998 261.00755 400 261.5 L 400 296.5 C 399.99998 296.99247 399.95195 297.48017 399.85585 297.96318 C 399.75975 298.44618 399.61747 298.91514 399.42903 299.3701 C 399.24058 299.82508 399.00956 300.2573 398.73594 300.66676 C 398.46238 301.0762 398.1515 301.45506 397.80329 301.80329 C 397.45506 302.15147 397.0762 302.46238 396.66676 302.73597 C 396.2573 303.00956 395.82508 303.2406 395.3701 303.42906 C 394.9151 303.61753 394.44615 303.7598 393.96315 303.85588 C 393.48017 303.95195 392.99247 303.99998 392.5 304 L 307.5 304 C 307.00755 303.99998 306.5198 303.95195 306.03678 303.85588 C 305.55378 303.7598 305.0848 303.61753 304.62986 303.42906 C 304.1749 303.2406 303.74269 303.00956 303.3332 302.73594 C 302.92375 302.46235 302.5449 302.15147 302.1967 301.80329 C 301.84846 301.45506 301.53755 301.0762 301.26393 300.66676 C 300.99034 300.2573 300.7593 299.82508 300.57087 299.3701 C 300.38243 298.91514 300.24015 298.44618 300.14408 297.96318 C 300.048 297.48017 299.99998 296.99247 300 296.5 L 300 261.5 C 299.99998 261.00755 300.048 260.51979 300.14408 260.03678 C 300.24015 259.55378 300.38243 259.0848 300.57087 258.62983 C 300.7593 258.17485 300.99037 257.74266 301.26396 257.3332 C 301.53755 256.92375 301.84846 256.54493 302.1967 256.1967 C 302.5449 255.84847 302.92375 255.53755 303.3332 255.26395 C 303.74269 254.99036 304.1749 254.75934 304.62986 254.57088 C 305.0848 254.38245 305.55378 254.24019 306.03678 254.1441 C 306.5198 254.04804 307.00755 254 307.5 254 Z "/>
<text xml:space="preserve" transform="matrix(.71891888 0 0 .71891888 0 0)" font-size="12" font-family="ArialMT"><tspan y="270" x="323.65626 330.98826 337.66026 344.33226 351.00425 357.67625 364.34825 370.34825">Feedback</tspan></text>
<text xml:space="preserve" transform="matrix(.71891888 0 0 .71891888 0 0)" font-size="12" font-family="ArialMT"><tspan y="284" x="315.3125 317.9765 324.6485 330.6485 337.3205 341.3165 347.9885 354.6605 358.6565 365.3285 368.6645 371.3285 378.0005">incorporating</tspan></text>
<text xml:space="preserve" transform="matrix(.71891888 0 0 .71891888 0 0)" font-size="12" font-family="ArialMT"><tspan y="284" x="384.6875"> </tspan></text>
<text xml:space="preserve" transform="matrix(.71891888 0 0 .71891888 0 0)" font-size="12" font-family="ArialMT"><tspan y="298" x="317.98439 325.98838 332.66038 339.33238 343.32838 350.00038 356.67237 362.67237 369.34437 376.01637">Approaches</tspan></text>
</g>
</g>
</svg>
