<?xml version="1.0" encoding="UTF-8" standalone="no"?>
<!DOCTYPE svg PUBLIC "-//W3C//DTD SVG 1.1//EN" "http://www.w3.org/Graphics/SVG/1.1/DTD/svg11.dtd">
<svg xmlns="http://www.w3.org/2000/svg" xmlns:xlink="http://www.w3.org/1999/xlink" version="1.1" width="579.456pt" height="346.752pt" viewBox="0 0 579.456 346.752">
<g enable-background="new">
<path transform="matrix(1,0,0,-1,0,346.752)" d="M 0 0 L 579.456 0 L 579.456 346.752 L 0 346.752 Z " fill="#ffffff"/>
<path transform="matrix(1,0,0,-1,0,346.752)" d="M 72.432 38.14272 L 521.5104 38.14272 L 521.5104 305.14176 L 72.432 305.14176 Z " fill="#ffffff"/>
<path transform="matrix(1,0,0,-1,0,346.752)" d="M 146.8779 38.14272 L 146.8779 34.64272 "/>
<path transform="matrix(1,0,0,-1,0,346.752)" stroke-width=".8" stroke-linecap="butt" stroke-linejoin="round" fill="none" stroke="#000000" d="M 146.8779 38.14272 L 146.8779 34.64272 "/>
<text xml:space="preserve" transform="matrix(1 0 -0 1 143.69821 323.20304)" font-size="10" font-family="DejaVuSans"><tspan y="0" x="0">1</tspan></text>
<path transform="matrix(1,0,0,-1,0,346.752)" d="M 224.3736 38.14272 L 224.3736 34.64272 "/>
<path transform="matrix(1,0,0,-1,0,346.752)" stroke-width=".8" stroke-linecap="butt" stroke-linejoin="round" fill="none" stroke="#000000" d="M 224.3736 38.14272 L 224.3736 34.64272 "/>
<text xml:space="preserve" transform="matrix(1 0 -0 1 221.19391 323.20304)" font-size="10" font-family="DejaVuSans"><tspan y="0" x="0">2</tspan></text>
<path transform="matrix(1,0,0,-1,0,346.752)" d="M 301.86933 38.14272 L 301.86933 34.64272 "/>
<path transform="matrix(1,0,0,-1,0,346.752)" stroke-width=".8" stroke-linecap="butt" stroke-linejoin="round" fill="none" stroke="#000000" d="M 301.86933 38.14272 L 301.86933 34.64272 "/>
<text xml:space="preserve" transform="matrix(1 0 -0 1 298.68965 323.20304)" font-size="10" font-family="DejaVuSans"><tspan y="0" x="0">3</tspan></text>
<path transform="matrix(1,0,0,-1,0,346.752)" d="M 379.36503 38.14272 L 379.36503 34.64272 "/>
<path transform="matrix(1,0,0,-1,0,346.752)" stroke-width=".8" stroke-linecap="butt" stroke-linejoin="round" fill="none" stroke="#000000" d="M 379.36503 38.14272 L 379.36503 34.64272 "/>
<text xml:space="preserve" transform="matrix(1 0 -0 1 376.18534 323.20304)" font-size="10" font-family="DejaVuSans"><tspan y="0" x="0">4</tspan></text>
<path transform="matrix(1,0,0,-1,0,346.752)" d="M 456.86073 38.14272 L 456.86073 34.64272 "/>
<path transform="matrix(1,0,0,-1,0,346.752)" stroke-width=".8" stroke-linecap="butt" stroke-linejoin="round" fill="none" stroke="#000000" d="M 456.86073 38.14272 L 456.86073 34.64272 "/>
<text xml:space="preserve" transform="matrix(1 0 -0 1 453.68104 323.20304)" font-size="10" font-family="DejaVuSans"><tspan y="0" x="0">5</tspan></text>
<text xml:space="preserve" transform="matrix(1 0 -0 1 242.8384 336.8749)" font-size="10" font-family="DejaVuSans"><tspan y="0" x="0 7.7000005 10.4800009 15.690001 19.61 25.740002 32.08 37.58 43.730005 46.910005 50.83 56.95 60.13 64.05 70.39 76.54 79.72 85.840007 89.950008 92.73 99.08 101.86">Distance to the origin</tspan></text>
<path transform="matrix(1,0,0,-1,0,346.752)" d="M 72.432 89.22768 L 68.932 89.22768 "/>
<path transform="matrix(1,0,0,-1,0,346.752)" stroke-width=".8" stroke-linecap="butt" stroke-linejoin="round" fill="none" stroke="#000000" d="M 72.432 89.22768 L 68.932 89.22768 "/>
<text xml:space="preserve" transform="matrix(1 0 -0 1 49.52575 261.32124)" font-size="10" font-family="DejaVuSans"><tspan y="0" x="0 6.3600008 9.540001">0.2</tspan></text>
<path transform="matrix(1,0,0,-1,0,346.752)" d="M 72.432 140.91945 L 68.932 140.91945 "/>
<path transform="matrix(1,0,0,-1,0,346.752)" stroke-width=".8" stroke-linecap="butt" stroke-linejoin="round" fill="none" stroke="#000000" d="M 72.432 140.91945 L 68.932 140.91945 "/>
<text xml:space="preserve" transform="matrix(1 0 -0 1 49.52575 209.62944)" font-size="10" font-family="DejaVuSans"><tspan y="0" x="0 6.3600008 9.540001">0.4</tspan></text>
<path transform="matrix(1,0,0,-1,0,346.752)" d="M 72.432 192.61124 L 68.932 192.61124 "/>
<path transform="matrix(1,0,0,-1,0,346.752)" stroke-width=".8" stroke-linecap="butt" stroke-linejoin="round" fill="none" stroke="#000000" d="M 72.432 192.61124 L 68.932 192.61124 "/>
<text xml:space="preserve" transform="matrix(1 0 -0 1 49.52575 157.93766)" font-size="10" font-family="DejaVuSans"><tspan y="0" x="0 6.3600008 9.540001">0.6</tspan></text>
<path transform="matrix(1,0,0,-1,0,346.752)" d="M 72.432 244.30301 L 68.932 244.30301 "/>
<path transform="matrix(1,0,0,-1,0,346.752)" stroke-width=".8" stroke-linecap="butt" stroke-linejoin="round" fill="none" stroke="#000000" d="M 72.432 244.30301 L 68.932 244.30301 "/>
<text xml:space="preserve" transform="matrix(1 0 -0 1 49.52575 106.24588)" font-size="10" font-family="DejaVuSans"><tspan y="0" x="0 6.3600008 9.540001">0.8</tspan></text>
<path transform="matrix(1,0,0,-1,0,346.752)" d="M 72.432 295.99479 L 68.932 295.99479 "/>
<path transform="matrix(1,0,0,-1,0,346.752)" stroke-width=".8" stroke-linecap="butt" stroke-linejoin="round" fill="none" stroke="#000000" d="M 72.432 295.99479 L 68.932 295.99479 "/>
<text xml:space="preserve" transform="matrix(1 0 -0 1 49.52575 54.554109)" font-size="10" font-family="DejaVuSans"><tspan y="0" x="0 6.3600008 9.540001">1.0</tspan></text>
<text xml:space="preserve" transform="matrix(0 -1 1 0 43.447626 220.35196)" font-size="10" font-family="DejaVuSans"><tspan y="0" x="0 7.870001 14.210001 18.130002 20.910002 23.690003 29.840003 33.95 37.13 43.480005 47.371255 53.491254 59.841257 65.97125 72.32125 75.10125 77.88125 80.66125 84.581249">Outlier probability</tspan></text>
<clipPath id="cp0">
<path transform="matrix(1,0,0,-1,0,346.752)" d="M 72.432 38.14272 L 521.5104 38.14272 L 521.5104 305.14179 L 72.432 305.14179 Z "/>
</clipPath>
<g clip-path="url(#cp0)">
<path transform="matrix(1,0,0,-1,0,346.752)" stroke-width="1.5" stroke-linecap="square" stroke-linejoin="round" fill="none" stroke="#1f77b4" d="M 72.59932 38.248949 L 94.211078 40.173543 L 115.82283 46.78681 L 137.43459 63.125688 L 159.04636 92.98858 L 180.65811 133.80316 L 202.26987 194.53015 L 223.88162 241.7645 L 245.49338 264.92185 L 267.10514 268.62977 L 288.7169 280.39015 L 310.32868 284.84803 L 331.94044 289.24156 L 353.5522 288.0864 L 375.16395 289.31626 L 396.7757 288.53233 L 418.38746 289.66596 L 439.9992 290.4476 L 461.61097 292.39863 L 483.22273 291.702 L 504.8345 292.2551 L 526.4462 292.14576 L 580.456 80.04802 "/>
</g>
<clipPath id="cp1">
<path transform="matrix(1,0,0,-1,0,346.752)" d="M 72.432 38.14272 L 521.5104 38.14272 L 521.5104 305.14179 L 72.432 305.14179 Z "/>
</clipPath>
<g clip-path="url(#cp1)">
<path transform="matrix(1,0,0,-1,0,346.752)" stroke-width="1.5" stroke-linecap="butt" stroke-dasharray="5.55,2.4" stroke-linejoin="round" fill="none" stroke="#ff0000" d="M 135.56063 38.14272 L 135.56063 305.14176 "/>
</g>
<path transform="matrix(1,0,0,-1,0,346.752)" stroke-width=".8" stroke-linecap="square" stroke-miterlimit="10" stroke-linejoin="miter" fill="none" stroke="#000000" d="M 72.432 38.14272 L 72.432 305.14176 "/>
<path transform="matrix(1,0,0,-1,0,346.752)" stroke-width=".8" stroke-linecap="square" stroke-miterlimit="10" stroke-linejoin="miter" fill="none" stroke="#000000" d="M 521.5104 38.14272 L 521.5104 305.14176 "/>
<path transform="matrix(1,0,0,-1,0,346.752)" stroke-width=".8" stroke-linecap="square" stroke-miterlimit="10" stroke-linejoin="miter" fill="none" stroke="#000000" d="M 72.432 38.14272 L 521.5104 38.14272 "/>
<path transform="matrix(1,0,0,-1,0,346.752)" stroke-width=".8" stroke-linecap="square" stroke-miterlimit="10" stroke-linejoin="miter" fill="none" stroke="#000000" d="M 72.432 305.14176 L 521.5104 305.14176 "/>
<text xml:space="preserve" transform="matrix(1 0 -0 1 242.6587 35.61026)" font-size="12" font-family="DejaVuSans"><tspan y="0" x="0 9.444 17.052 21.756 25.092001 28.428002 35.808004 40.74 44.556005 52.176004 56.858 64.202 71.82201 79.17801 86.79801 90.13401 93.47001 96.80601 101.51001">Outlier probability</tspan></text>
<g>
<path transform="matrix(1,0,0,-1,0,346.752)" d="M 366.02604 43.14272 L 514.5104 43.14272 C 515.84378 43.14272 516.5104 43.809389 516.5104 45.14272 L 516.5104 73.48647 C 516.5104 74.8198 515.84378 75.48647 514.5104 75.48647 L 366.02604 75.48647 C 364.6927 75.48647 364.02604 74.8198 364.02604 73.48647 L 364.02604 45.14272 C 364.02604 43.809389 364.6927 43.14272 366.02604 43.14272 Z " fill="#ffffff" fill-opacity=".8"/>
<path transform="matrix(1,0,0,-1,0,346.752)" stroke-width="1" stroke-linecap="butt" stroke-miterlimit="10" stroke-linejoin="miter" fill="none" stroke="#d5d6d5" stroke-opacity=".8" d="M 366.02604 43.14272 L 514.5104 43.14272 C 515.84378 43.14272 516.5104 43.809389 516.5104 45.14272 L 516.5104 73.48647 C 516.5104 74.8198 515.84378 75.48647 514.5104 75.48647 L 366.02604 75.48647 C 364.6927 75.48647 364.02604 74.8198 364.02604 73.48647 L 364.02604 45.14272 C 364.02604 43.809389 364.6927 43.14272 366.02604 43.14272 Z "/>
</g>
<path transform="matrix(1,0,0,-1,0,346.752)" stroke-width="1.5" stroke-linecap="square" stroke-linejoin="round" fill="none" stroke="#1f77b4" d="M 368.02604 67.39272 L 378.02604 67.39272 L 388.02604 67.39272 "/>
<text xml:space="preserve" transform="matrix(1 0 -0 1 396.02604 282.85929)" font-size="10" font-family="DejaVuSans"><tspan y="0" x="0 6.3500006 10.241251 16.361252 22.711253 28.841252 35.191255 37.971254 40.75125 43.53125 47.45125 50.231248 56.38125">probabilities</tspan></text>
<path transform="matrix(1,0,0,-1,0,346.752)" stroke-width="1.5" stroke-linecap="butt" stroke-dasharray="5.55,2.4" stroke-linejoin="round" fill="none" stroke="#ff0000" d="M 368.02604 52.720846 L 378.02604 52.720846 L 388.02604 52.720846 "/>
<text xml:space="preserve" transform="matrix(1 0 -0 1 396.02604 297.53117)" font-size="10" font-family="DejaVuSans"><tspan y="0" x="0 6.98 9.76 15.89 21.1 26.310002 29.090003 32.61 35.39 40.89 47.02 50.940004 53.72 59.84 66.18 69.36 73.28 79.619998 83.511249 89.66125 94.87125 101.21124 107.331249 110.111248">Classification threshold</tspan></text>
</g>
</svg>
