<?xml version="1.0" encoding="UTF-8" standalone="no"?>
<!DOCTYPE svg PUBLIC "-//W3C//DTD SVG 1.1//EN" "http://www.w3.org/Graphics/SVG/1.1/DTD/svg11.dtd">
<svg xmlns="http://www.w3.org/2000/svg" xmlns:xlink="http://www.w3.org/1999/xlink" version="1.1" width="198pt" height="136.08pt" viewBox="0 0 198 136.08">
<g enable-background="new">
<clipPath id="cp0">
<path transform="matrix(.24,0,0,.24,0,0)" d="M 0 0 L 824.99996 0 L 824.99996 564.9456 L 0 564.9456 Z " fill-rule="evenodd"/>
</clipPath>
<g clip-path="url(#cp0)">
<path transform="matrix(.71739128,0,0,.71739128,0,0)" d="M 0 0 L 276 0 L 276 189 L 0 189 Z " fill="#ffffff"/>
</g>
<clipPath id="cp1">
<path transform="matrix(.24,0,0,.24,0,0)" d="M 0 0 L 824.99996 0 L 824.99996 561.9565 L 0 561.9565 Z " fill-rule="evenodd"/>
</clipPath>
<g clip-path="url(#cp1)">
<path transform="matrix(.71739128,0,0,.71739128,.35869564,.35869564)" stroke-width="1" stroke-linecap="butt" stroke-miterlimit="10" stroke-linejoin="miter" fill="none" stroke="#000000" d="M 8 176 L 8 14.37 "/>
<path transform="matrix(.71739128,0,0,.71739128,.35869564,.35869564)" d="M 8 9.12 L 11.5 16.12 L 8 14.37 L 4.5 16.12 L 8 9.12 Z "/>
<path transform="matrix(.71739128,0,0,.71739128,.35869564,.35869564)" stroke-width="1" stroke-linecap="butt" stroke-miterlimit="10" stroke-linejoin="miter" fill="none" stroke="#000000" d="M 8 9.12 L 11.5 16.12 L 8 14.37 L 4.5 16.12 L 8 9.12 Z "/>
<path transform="matrix(.71739128,0,0,.71739128,.35869564,.35869564)" stroke-width="1" stroke-linecap="butt" stroke-miterlimit="10" stroke-linejoin="miter" fill="none" stroke="#000000" d="M 8 176 L 259.63 176 "/>
<path transform="matrix(.71739128,0,0,.71739128,.35869564,.35869564)" d="M 264.88 176 L 257.88 179.5 L 259.63 176 L 257.88 172.5 L 264.88 176 Z "/>
<path transform="matrix(.71739128,0,0,.71739128,.35869564,.35869564)" stroke-width="1" stroke-linecap="butt" stroke-miterlimit="10" stroke-linejoin="miter" fill="none" stroke="#000000" d="M 264.88 176 L 257.88 179.5 L 259.63 176 L 257.88 172.5 L 264.88 176 Z "/>
<path transform="matrix(.71739128,0,0,.71739128,.35869564,.35869564)" d="M 20 176 C 19.999999 176.39781 19.923878 176.78049 19.771636 177.14803 C 19.619395 177.51557 19.402623 177.83998 19.121319 178.1213 C 18.840014 178.4026 18.515589 178.61937 18.148049 178.77162 C 17.780508 178.92386 17.397826 178.99999 17 179 C 16.602175 178.99999 16.21949 178.92386 15.851947 178.77162 C 15.484405 178.61937 15.159982 178.4026 14.878678 178.1213 C 14.597374 177.83998 14.380601 177.51557 14.228359 177.14803 C 14.076118 176.78049 13.999999 176.39781 14 176 C 13.999999 175.60216 14.076118 175.21945 14.228359 174.85192 C 14.380601 174.48438 14.597374 174.15996 14.878678 173.87866 C 15.159982 173.59737 15.484405 173.38059 15.851948 173.22835 C 16.21949 173.07611 16.602175 173 17 173 C 17.397826 173 17.780508 173.07611 18.148049 173.22835 C 18.515589 173.38059 18.840014 173.59737 19.121319 173.87866 C 19.402623 174.15996 19.619395 174.48438 19.771636 174.85192 C 19.923878 175.21945 19.999999 175.60216 20 176 Z " fill="#f8cecc"/>
<path transform="matrix(.71739128,0,0,.71739128,.35869564,.35869564)" stroke-width="1" stroke-linecap="butt" stroke-miterlimit="4" stroke-linejoin="miter" fill="none" stroke="#b85450" d="M 20 176 C 19.999999 176.39781 19.923878 176.78049 19.771636 177.14803 C 19.619395 177.51557 19.402623 177.83998 19.121319 178.1213 C 18.840014 178.4026 18.515589 178.61937 18.148049 178.77162 C 17.780508 178.92386 17.397826 178.99999 17 179 C 16.602175 178.99999 16.21949 178.92386 15.851947 178.77162 C 15.484405 178.61937 15.159982 178.4026 14.878678 178.1213 C 14.597374 177.83998 14.380601 177.51557 14.228359 177.14803 C 14.076118 176.78049 13.999999 176.39781 14 176 C 13.999999 175.60216 14.076118 175.21945 14.228359 174.85192 C 14.380601 174.48438 14.597374 174.15996 14.878678 173.87866 C 15.159982 173.59737 15.484405 173.38059 15.851948 173.22835 C 16.21949 173.07611 16.602175 173 17 173 C 17.397826 173 17.780508 173.07611 18.148049 173.22835 C 18.515589 173.38059 18.840014 173.59737 19.121319 173.87866 C 19.402623 174.15996 19.619395 174.48438 19.771636 174.85192 C 19.923878 175.21945 19.999999 175.60216 20 176 Z "/>
<path transform="matrix(.71739128,0,0,.71739128,.35869564,.35869564)" d="M 34 176 C 33.999998 176.39781 33.923879 176.78049 33.771638 177.14803 C 33.619394 177.51557 33.40262 177.83998 33.12132 178.1213 C 32.84001 178.4026 32.51559 178.61937 32.14805 178.77162 C 31.780505 178.92386 31.397822 178.99999 31 179 C 30.602173 178.99999 30.219489 178.92386 29.851946 178.77162 C 29.484404 178.61937 29.15998 178.4026 28.878678 178.1213 C 28.597373 177.83998 28.380599 177.51557 28.228358 177.14803 C 28.076117 176.78049 27.999999 176.39781 28 176 C 27.999999 175.60216 28.076117 175.21945 28.228358 174.85192 C 28.380599 174.48438 28.597373 174.15996 28.878678 173.87866 C 29.15998 173.59737 29.484404 173.38059 29.851946 173.22835 C 30.219489 173.07611 30.602173 173 31 173 C 31.397822 173 31.780505 173.07611 32.14805 173.22835 C 32.51559 173.38059 32.84001 173.59737 33.12132 173.87866 C 33.40262 174.15996 33.619394 174.48438 33.771638 174.85192 C 33.923879 175.21945 33.999998 175.60216 34 176 Z " fill="#f8cecc"/>
<path transform="matrix(.71739128,0,0,.71739128,.35869564,.35869564)" stroke-width="1" stroke-linecap="butt" stroke-miterlimit="4" stroke-linejoin="miter" fill="none" stroke="#b85450" d="M 34 176 C 33.999998 176.39781 33.923879 176.78049 33.771638 177.14803 C 33.619394 177.51557 33.40262 177.83998 33.12132 178.1213 C 32.84001 178.4026 32.51559 178.61937 32.14805 178.77162 C 31.780505 178.92386 31.397822 178.99999 31 179 C 30.602173 178.99999 30.219489 178.92386 29.851946 178.77162 C 29.484404 178.61937 29.15998 178.4026 28.878678 178.1213 C 28.597373 177.83998 28.380599 177.51557 28.228358 177.14803 C 28.076117 176.78049 27.999999 176.39781 28 176 C 27.999999 175.60216 28.076117 175.21945 28.228358 174.85192 C 28.380599 174.48438 28.597373 174.15996 28.878678 173.87866 C 29.15998 173.59737 29.484404 173.38059 29.851946 173.22835 C 30.219489 173.07611 30.602173 173 31 173 C 31.397822 173 31.780505 173.07611 32.14805 173.22835 C 32.51559 173.38059 32.84001 173.59737 33.12132 173.87866 C 33.40262 174.15996 33.619394 174.48438 33.771638 174.85192 C 33.923879 175.21945 33.999998 175.60216 34 176 Z "/>
<path transform="matrix(.71739128,0,0,.71739128,.35869564,.35869564)" d="M 51 176 C 50.999998 176.39781 50.923879 176.78049 50.771638 177.14803 C 50.619394 177.51557 50.40262 177.83998 50.12132 178.1213 C 49.84001 178.4026 49.515588 178.61937 49.148046 178.77162 C 48.780504 178.92386 48.39782 178.99999 48 179 C 47.602174 178.99999 47.219488 178.92386 46.851945 178.77162 C 46.4844 178.61937 46.15998 178.4026 45.878679 178.1213 C 45.597375 177.83998 45.3806 177.51557 45.228357 177.14803 C 45.07612 176.78049 45 176.39781 45 176 C 45 175.60216 45.07612 175.21945 45.22836 174.85192 C 45.3806 174.48438 45.597375 174.15996 45.878679 173.87866 C 46.15998 173.59737 46.484407 173.38059 46.851949 173.22835 C 47.21949 173.07611 47.602174 173 48 173 C 48.39782 173 48.780504 173.07611 49.148046 173.22835 C 49.515588 173.38059 49.84001 173.59737 50.12132 173.87866 C 50.40262 174.15996 50.619394 174.48438 50.771635 174.85192 C 50.923875 175.21945 50.999998 175.60216 51 176 Z " fill="#f8cecc"/>
<path transform="matrix(.71739128,0,0,.71739128,.35869564,.35869564)" stroke-width="1" stroke-linecap="butt" stroke-miterlimit="4" stroke-linejoin="miter" fill="none" stroke="#b85450" d="M 51 176 C 50.999998 176.39781 50.923879 176.78049 50.771638 177.14803 C 50.619394 177.51557 50.40262 177.83998 50.12132 178.1213 C 49.84001 178.4026 49.515588 178.61937 49.148046 178.77162 C 48.780504 178.92386 48.39782 178.99999 48 179 C 47.602174 178.99999 47.219488 178.92386 46.851945 178.77162 C 46.4844 178.61937 46.15998 178.4026 45.878679 178.1213 C 45.597375 177.83998 45.3806 177.51557 45.228357 177.14803 C 45.07612 176.78049 45 176.39781 45 176 C 45 175.60216 45.07612 175.21945 45.22836 174.85192 C 45.3806 174.48438 45.597375 174.15996 45.878679 173.87866 C 46.15998 173.59737 46.484407 173.38059 46.851949 173.22835 C 47.21949 173.07611 47.602174 173 48 173 C 48.39782 173 48.780504 173.07611 49.148046 173.22835 C 49.515588 173.38059 49.84001 173.59737 50.12132 173.87866 C 50.40262 174.15996 50.619394 174.48438 50.771635 174.85192 C 50.923875 175.21945 50.999998 175.60216 51 176 Z "/>
<path transform="matrix(.71739128,0,0,.71739128,.35869564,.35869564)" d="M 64 176 C 63.999998 176.39781 63.923875 176.78049 63.771635 177.14803 C 63.61939 177.51557 63.40262 177.83998 63.12132 178.1213 C 62.84001 178.4026 62.515588 178.61937 62.148046 178.77162 C 61.780504 178.92386 61.39782 178.99999 61 179 C 60.602174 178.99999 60.219488 178.92386 59.851945 178.77162 C 59.4844 178.61937 59.159978 178.4026 58.878675 178.1213 C 58.597368 177.83998 58.380594 177.51557 58.22835 177.14803 C 58.07611 176.78049 57.999998 176.39781 58 176 C 57.999998 175.60216 58.07611 175.21945 58.22835 174.85192 C 58.380594 174.48438 58.597368 174.15996 58.878675 173.87866 C 59.159978 173.59737 59.484399 173.38059 59.85194 173.22835 C 60.219488 173.07611 60.602174 173 61 173 C 61.39782 173 61.780504 173.07611 62.148046 173.22835 C 62.515588 173.38059 62.84001 173.59737 63.12132 173.87866 C 63.40262 174.15996 63.61939 174.48438 63.771635 174.85192 C 63.923875 175.21945 63.999998 175.60216 64 176 Z " fill="#f8cecc"/>
<path transform="matrix(.71739128,0,0,.71739128,.35869564,.35869564)" stroke-width="1" stroke-linecap="butt" stroke-miterlimit="4" stroke-linejoin="miter" fill="none" stroke="#b85450" d="M 64 176 C 63.999998 176.39781 63.923875 176.78049 63.771635 177.14803 C 63.61939 177.51557 63.40262 177.83998 63.12132 178.1213 C 62.84001 178.4026 62.515588 178.61937 62.148046 178.77162 C 61.780504 178.92386 61.39782 178.99999 61 179 C 60.602174 178.99999 60.219488 178.92386 59.851945 178.77162 C 59.4844 178.61937 59.159978 178.4026 58.878675 178.1213 C 58.597368 177.83998 58.380594 177.51557 58.22835 177.14803 C 58.07611 176.78049 57.999998 176.39781 58 176 C 57.999998 175.60216 58.07611 175.21945 58.22835 174.85192 C 58.380594 174.48438 58.597368 174.15996 58.878675 173.87866 C 59.159978 173.59737 59.484399 173.38059 59.85194 173.22835 C 60.219488 173.07611 60.602174 173 61 173 C 61.39782 173 61.780504 173.07611 62.148046 173.22835 C 62.515588 173.38059 62.84001 173.59737 63.12132 173.87866 C 63.40262 174.15996 63.61939 174.48438 63.771635 174.85192 C 63.923875 175.21945 63.999998 175.60216 64 176 Z "/>
<path transform="matrix(.71739128,0,0,.71739128,.35869564,.35869564)" d="M 75 176 C 74.99999 176.39781 74.92387 176.78049 74.77163 177.14803 C 74.619388 177.51557 74.40262 177.83998 74.121318 178.1213 C 73.84001 178.4026 73.51559 178.61937 73.14804 178.77162 C 72.780498 178.92386 72.39782 178.99999 72 179 C 71.60217 178.99999 71.21948 178.92386 70.85194 178.77162 C 70.4844 178.61937 70.15998 178.4026 69.87868 178.1213 C 69.59737 177.83998 69.38059 177.51557 69.228359 177.14803 C 69.07611 176.78049 68.99999 176.39781 69 176 C 68.99999 175.60216 69.07611 175.21945 69.22835 174.85192 C 69.38059 174.48438 69.59737 174.15996 69.87868 173.87866 C 70.15998 173.59737 70.4844 173.38059 70.85194 173.22835 C 71.21948 173.07611 71.60217 173 72 173 C 72.39782 173 72.780498 173.07611 73.14804 173.22835 C 73.51559 173.38059 73.84001 173.59737 74.121318 173.87866 C 74.40262 174.15996 74.619388 174.48438 74.77163 174.85192 C 74.92387 175.21945 74.99999 175.60216 75 176 Z " fill="#f8cecc"/>
<path transform="matrix(.71739128,0,0,.71739128,.35869564,.35869564)" stroke-width="1" stroke-linecap="butt" stroke-miterlimit="4" stroke-linejoin="miter" fill="none" stroke="#b85450" d="M 75 176 C 74.99999 176.39781 74.92387 176.78049 74.77163 177.14803 C 74.619388 177.51557 74.40262 177.83998 74.121318 178.1213 C 73.84001 178.4026 73.51559 178.61937 73.14804 178.77162 C 72.780498 178.92386 72.39782 178.99999 72 179 C 71.60217 178.99999 71.21948 178.92386 70.85194 178.77162 C 70.4844 178.61937 70.15998 178.4026 69.87868 178.1213 C 69.59737 177.83998 69.38059 177.51557 69.228359 177.14803 C 69.07611 176.78049 68.99999 176.39781 69 176 C 68.99999 175.60216 69.07611 175.21945 69.22835 174.85192 C 69.38059 174.48438 69.59737 174.15996 69.87868 173.87866 C 70.15998 173.59737 70.4844 173.38059 70.85194 173.22835 C 71.21948 173.07611 71.60217 173 72 173 C 72.39782 173 72.780498 173.07611 73.14804 173.22835 C 73.51559 173.38059 73.84001 173.59737 74.121318 173.87866 C 74.40262 174.15996 74.619388 174.48438 74.77163 174.85192 C 74.92387 175.21945 74.99999 175.60216 75 176 Z "/>
<path transform="matrix(.71739128,0,0,.71739128,.35869564,.35869564)" d="M 110 176 C 109.99999 176.39781 109.92387 176.78049 109.77162 177.14803 C 109.61938 177.51557 109.40261 177.83998 109.12131 178.1213 C 108.84 178.4026 108.51557 178.61937 108.14803 178.77162 C 107.78049 178.92386 107.39781 178.99999 107 179 C 106.602169 178.99999 106.21948 178.92386 105.85194 178.77162 C 105.48439 178.61937 105.15997 178.4026 104.87867 178.1213 C 104.59736 177.83998 104.380588 177.51557 104.22835 177.14803 C 104.0761 176.78049 103.99999 176.39781 104 176 C 103.99999 175.60216 104.0761 175.21945 104.22835 174.85192 C 104.380588 174.48438 104.59736 174.15996 104.87867 173.87866 C 105.15997 173.59737 105.48439 173.38059 105.85194 173.22835 C 106.21948 173.07611 106.602169 173 107 173 C 107.39781 173 107.78049 173.07611 108.148029 173.22835 C 108.51557 173.38059 108.84 173.59737 109.12131 173.87866 C 109.40261 174.15996 109.619388 174.48438 109.77163 174.85192 C 109.92387 175.21945 109.99999 175.60216 110 176 Z " fill="#d5e8d4"/>
<path transform="matrix(.71739128,0,0,.71739128,.35869564,.35869564)" stroke-width="1" stroke-linecap="butt" stroke-miterlimit="4" stroke-linejoin="miter" fill="none" stroke="#82b366" d="M 110 176 C 109.99999 176.39781 109.92387 176.78049 109.77162 177.14803 C 109.61938 177.51557 109.40261 177.83998 109.12131 178.1213 C 108.84 178.4026 108.51557 178.61937 108.14803 178.77162 C 107.78049 178.92386 107.39781 178.99999 107 179 C 106.602169 178.99999 106.21948 178.92386 105.85194 178.77162 C 105.48439 178.61937 105.15997 178.4026 104.87867 178.1213 C 104.59736 177.83998 104.380588 177.51557 104.22835 177.14803 C 104.0761 176.78049 103.99999 176.39781 104 176 C 103.99999 175.60216 104.0761 175.21945 104.22835 174.85192 C 104.380588 174.48438 104.59736 174.15996 104.87867 173.87866 C 105.15997 173.59737 105.48439 173.38059 105.85194 173.22835 C 106.21948 173.07611 106.602169 173 107 173 C 107.39781 173 107.78049 173.07611 108.148029 173.22835 C 108.51557 173.38059 108.84 173.59737 109.12131 173.87866 C 109.40261 174.15996 109.619388 174.48438 109.77163 174.85192 C 109.92387 175.21945 109.99999 175.60216 110 176 Z "/>
<path transform="matrix(.71739128,0,0,.71739128,.35869564,.35869564)" d="M 121 176 C 120.99999 176.39781 120.923877 176.78049 120.77163 177.14803 C 120.619388 177.51557 120.40262 177.83998 120.121318 178.1213 C 119.840007 178.4026 119.51558 178.61937 119.14803 178.77162 C 118.780498 178.92386 118.39782 178.99999 118 179 C 117.602169 178.99999 117.219478 178.92386 116.85193 178.77162 C 116.48439 178.61937 116.15997 178.4026 115.87867 178.1213 C 115.59737 177.83998 115.380588 177.51557 115.22834 177.14803 C 115.0761 176.78049 114.99999 176.39781 115 176 C 114.99999 175.60216 115.0761 175.21945 115.22834 174.85192 C 115.380588 174.48438 115.59737 174.15996 115.87867 173.87866 C 116.15997 173.59737 116.48439 173.38059 116.85194 173.22835 C 117.219478 173.07611 117.602169 173 118 173 C 118.39782 173 118.780498 173.07611 119.14803 173.22835 C 119.51558 173.38059 119.840007 173.59737 120.121318 173.87866 C 120.40262 174.15996 120.619388 174.48438 120.77163 174.85192 C 120.923877 175.21945 120.99999 175.60216 121 176 Z " fill="#d5e8d4"/>
<path transform="matrix(.71739128,0,0,.71739128,.35869564,.35869564)" stroke-width="1" stroke-linecap="butt" stroke-miterlimit="4" stroke-linejoin="miter" fill="none" stroke="#82b366" d="M 121 176 C 120.99999 176.39781 120.923877 176.78049 120.77163 177.14803 C 120.619388 177.51557 120.40262 177.83998 120.121318 178.1213 C 119.840007 178.4026 119.51558 178.61937 119.14803 178.77162 C 118.780498 178.92386 118.39782 178.99999 118 179 C 117.602169 178.99999 117.219478 178.92386 116.85193 178.77162 C 116.48439 178.61937 116.15997 178.4026 115.87867 178.1213 C 115.59737 177.83998 115.380588 177.51557 115.22834 177.14803 C 115.0761 176.78049 114.99999 176.39781 115 176 C 114.99999 175.60216 115.0761 175.21945 115.22834 174.85192 C 115.380588 174.48438 115.59737 174.15996 115.87867 173.87866 C 116.15997 173.59737 116.48439 173.38059 116.85194 173.22835 C 117.219478 173.07611 117.602169 173 118 173 C 118.39782 173 118.780498 173.07611 119.14803 173.22835 C 119.51558 173.38059 119.840007 173.59737 120.121318 173.87866 C 120.40262 174.15996 120.619388 174.48438 120.77163 174.85192 C 120.923877 175.21945 120.99999 175.60216 121 176 Z "/>
<path transform="matrix(.71739128,0,0,.71739128,.35869564,.35869564)" d="M 134 176 C 134 176.39781 133.92388 176.78049 133.77162 177.14803 C 133.61937 177.51557 133.4026 177.83998 133.1213 178.1213 C 132.84 178.4026 132.51557 178.61937 132.14803 178.77162 C 131.78049 178.92386 131.39781 178.99999 131 179 C 130.60216 178.99999 130.21947 178.92386 129.85193 178.77162 C 129.48439 178.61937 129.15998 178.4026 128.87868 178.1213 C 128.59737 177.83998 128.38059 177.51557 128.22835 177.14803 C 128.07611 176.78049 127.99999 176.39781 128 176 C 127.99999 175.60216 128.07611 175.21945 128.22835 174.85192 C 128.38059 174.48438 128.59737 174.15996 128.87868 173.87866 C 129.15998 173.59737 129.48439 173.38059 129.85193 173.22835 C 130.21947 173.07611 130.60216 173 131 173 C 131.39781 173 131.7805 173.07611 132.14804 173.22835 C 132.51558 173.38059 132.84 173.59737 133.1213 173.87866 C 133.4026 174.15996 133.61937 174.48438 133.77162 174.85192 C 133.92388 175.21945 134 175.60216 134 176 Z " fill="#d5e8d4"/>
<path transform="matrix(.71739128,0,0,.71739128,.35869564,.35869564)" stroke-width="1" stroke-linecap="butt" stroke-miterlimit="4" stroke-linejoin="miter" fill="none" stroke="#82b366" d="M 134 176 C 134 176.39781 133.92388 176.78049 133.77162 177.14803 C 133.61937 177.51557 133.4026 177.83998 133.1213 178.1213 C 132.84 178.4026 132.51557 178.61937 132.14803 178.77162 C 131.78049 178.92386 131.39781 178.99999 131 179 C 130.60216 178.99999 130.21947 178.92386 129.85193 178.77162 C 129.48439 178.61937 129.15998 178.4026 128.87868 178.1213 C 128.59737 177.83998 128.38059 177.51557 128.22835 177.14803 C 128.07611 176.78049 127.99999 176.39781 128 176 C 127.99999 175.60216 128.07611 175.21945 128.22835 174.85192 C 128.38059 174.48438 128.59737 174.15996 128.87868 173.87866 C 129.15998 173.59737 129.48439 173.38059 129.85193 173.22835 C 130.21947 173.07611 130.60216 173 131 173 C 131.39781 173 131.7805 173.07611 132.14804 173.22835 C 132.51558 173.38059 132.84 173.59737 133.1213 173.87866 C 133.4026 174.15996 133.61937 174.48438 133.77162 174.85192 C 133.92388 175.21945 134 175.60216 134 176 Z "/>
<path transform="matrix(.71739128,0,0,.71739128,.35869564,.35869564)" d="M 146 176 C 145.99999 176.39781 145.92386 176.78049 145.77162 177.14803 C 145.61937 177.51557 145.4026 177.83998 145.1213 178.1213 C 144.84 178.4026 144.51558 178.61937 144.14804 178.77162 C 143.7805 178.92386 143.39781 178.99999 143 179 C 142.60218 178.99999 142.21949 178.92386 141.85195 178.77162 C 141.4844 178.61937 141.15998 178.4026 140.87868 178.1213 C 140.59737 177.83998 140.38059 177.51557 140.22835 177.14803 C 140.07611 176.78049 139.99999 176.39781 140 176 C 139.99999 175.60216 140.07611 175.21945 140.22835 174.85192 C 140.38059 174.48438 140.59737 174.15996 140.87868 173.87866 C 141.15998 173.59737 141.4844 173.38059 141.85195 173.22835 C 142.21949 173.07611 142.60218 173 143 173 C 143.39781 173 143.7805 173.07611 144.14804 173.22835 C 144.51558 173.38059 144.84 173.59737 145.1213 173.87866 C 145.4026 174.15996 145.61937 174.48438 145.77162 174.85192 C 145.92386 175.21945 145.99999 175.60216 146 176 Z " fill="#d5e8d4"/>
<path transform="matrix(.71739128,0,0,.71739128,.35869564,.35869564)" stroke-width="1" stroke-linecap="butt" stroke-miterlimit="4" stroke-linejoin="miter" fill="none" stroke="#82b366" d="M 146 176 C 145.99999 176.39781 145.92386 176.78049 145.77162 177.14803 C 145.61937 177.51557 145.4026 177.83998 145.1213 178.1213 C 144.84 178.4026 144.51558 178.61937 144.14804 178.77162 C 143.7805 178.92386 143.39781 178.99999 143 179 C 142.60218 178.99999 142.21949 178.92386 141.85195 178.77162 C 141.4844 178.61937 141.15998 178.4026 140.87868 178.1213 C 140.59737 177.83998 140.38059 177.51557 140.22835 177.14803 C 140.07611 176.78049 139.99999 176.39781 140 176 C 139.99999 175.60216 140.07611 175.21945 140.22835 174.85192 C 140.38059 174.48438 140.59737 174.15996 140.87868 173.87866 C 141.15998 173.59737 141.4844 173.38059 141.85195 173.22835 C 142.21949 173.07611 142.60218 173 143 173 C 143.39781 173 143.7805 173.07611 144.14804 173.22835 C 144.51558 173.38059 144.84 173.59737 145.1213 173.87866 C 145.4026 174.15996 145.61937 174.48438 145.77162 174.85192 C 145.92386 175.21945 145.99999 175.60216 146 176 Z "/>
<path transform="matrix(.71739128,0,0,.71739128,.35869564,.35869564)" d="M 162 176.5 C 161.99999 176.96413 161.91117 177.41059 161.73357 177.83939 C 161.55594 178.26819 161.30304 178.64669 160.97487 178.97487 C 160.64667 179.30306 160.26816 179.55596 159.83937 179.73357 C 159.41059 179.9112 158.96413 180 158.5 180 C 158.03588 180 157.5894 179.9112 157.1606 179.73357 C 156.7318 179.55596 156.3533 179.30306 156.02512 178.97487 C 155.69692 178.64669 155.44402 178.26819 155.26642 177.83939 C 155.0888 177.41059 155 176.96413 155 176.5 C 155 176.03586 155.0888 175.58939 155.26642 175.16059 C 155.44402 174.73177 155.69692 174.35329 156.02512 174.02512 C 156.3533 173.69692 156.7318 173.44402 157.1606 173.2664 C 157.5894 173.0888 158.03588 173 158.5 173 C 158.96413 173 159.41059 173.0888 159.83937 173.2664 C 160.26816 173.44402 160.64667 173.69692 160.97487 174.02512 C 161.30304 174.35329 161.55594 174.73177 161.73357 175.16059 C 161.91117 175.58939 161.99999 176.03586 162 176.5 Z " fill="#d5e8d4"/>
<path transform="matrix(.71739128,0,0,.71739128,.35869564,.35869564)" stroke-width="1" stroke-linecap="butt" stroke-miterlimit="4" stroke-linejoin="miter" fill="none" stroke="#82b366" d="M 162 176.5 C 161.99999 176.96413 161.91117 177.41059 161.73357 177.83939 C 161.55594 178.26819 161.30304 178.64669 160.97487 178.97487 C 160.64667 179.30306 160.26816 179.55596 159.83937 179.73357 C 159.41059 179.9112 158.96413 180 158.5 180 C 158.03588 180 157.5894 179.9112 157.1606 179.73357 C 156.7318 179.55596 156.3533 179.30306 156.02512 178.97487 C 155.69692 178.64669 155.44402 178.26819 155.26642 177.83939 C 155.0888 177.41059 155 176.96413 155 176.5 C 155 176.03586 155.0888 175.58939 155.26642 175.16059 C 155.44402 174.73177 155.69692 174.35329 156.02512 174.02512 C 156.3533 173.69692 156.7318 173.44402 157.1606 173.2664 C 157.5894 173.0888 158.03588 173 158.5 173 C 158.96413 173 159.41059 173.0888 159.83937 173.2664 C 160.26816 173.44402 160.64667 173.69692 160.97487 174.02512 C 161.30304 174.35329 161.55594 174.73177 161.73357 175.16059 C 161.91117 175.58939 161.99999 176.03586 162 176.5 Z "/>
<path transform="matrix(.71739128,0,0,.71739128,.35869564,.35869564)" d="M 200 176.5 C 199.99999 176.89781 199.92385 177.28049 199.7716 177.64803 C 199.61937 178.01557 199.4026 178.34 199.1213 178.6213 C 198.84 178.9026 198.51557 179.11937 198.14803 179.27162 C 197.78049 179.42386 197.39781 179.49999 197 179.5 C 196.60216 179.49999 196.21947 179.42386 195.85192 179.27162 C 195.48438 179.11937 195.15996 178.9026 194.87866 178.6213 C 194.59734 178.34 194.38057 178.01557 194.22834 177.64803 C 194.0761 177.28049 193.99999 176.89781 194 176.5 C 193.99999 176.10216 194.0761 175.71947 194.22834 175.35193 C 194.38057 174.98439 194.59734 174.65996 194.87866 174.37866 C 195.15996 174.09735 195.48438 173.88057 195.85192 173.72834 C 196.21947 173.57611 196.60216 173.5 197 173.5 C 197.39781 173.5 197.78049 173.57611 198.14803 173.72834 C 198.51557 173.88057 198.84 174.09735 199.1213 174.37866 C 199.4026 174.65996 199.61937 174.98439 199.7716 175.35193 C 199.92385 175.71947 199.99999 176.10216 200 176.5 Z " fill="#f8cecc"/>
<path transform="matrix(.71739128,0,0,.71739128,.35869564,.35869564)" stroke-width="1" stroke-linecap="butt" stroke-miterlimit="4" stroke-linejoin="miter" fill="none" stroke="#b85450" d="M 200 176.5 C 199.99999 176.89781 199.92385 177.28049 199.7716 177.64803 C 199.61937 178.01557 199.4026 178.34 199.1213 178.6213 C 198.84 178.9026 198.51557 179.11937 198.14803 179.27162 C 197.78049 179.42386 197.39781 179.49999 197 179.5 C 196.60216 179.49999 196.21947 179.42386 195.85192 179.27162 C 195.48438 179.11937 195.15996 178.9026 194.87866 178.6213 C 194.59734 178.34 194.38057 178.01557 194.22834 177.64803 C 194.0761 177.28049 193.99999 176.89781 194 176.5 C 193.99999 176.10216 194.0761 175.71947 194.22834 175.35193 C 194.38057 174.98439 194.59734 174.65996 194.87866 174.37866 C 195.15996 174.09735 195.48438 173.88057 195.85192 173.72834 C 196.21947 173.57611 196.60216 173.5 197 173.5 C 197.39781 173.5 197.78049 173.57611 198.14803 173.72834 C 198.51557 173.88057 198.84 174.09735 199.1213 174.37866 C 199.4026 174.65996 199.61937 174.98439 199.7716 175.35193 C 199.92385 175.71947 199.99999 176.10216 200 176.5 Z "/>
<path transform="matrix(.71739128,0,0,.71739128,.35869564,.35869564)" d="M 209 176.5 C 208.99999 176.89781 208.92386 177.28049 208.77162 177.64803 C 208.61939 178.01557 208.4026 178.34 208.1213 178.6213 C 207.84 178.9026 207.51557 179.11937 207.14803 179.27162 C 206.78049 179.42386 206.39781 179.49999 206 179.5 C 205.60216 179.49999 205.21947 179.42386 204.85193 179.27162 C 204.48439 179.11937 204.15996 178.9026 203.87866 178.6213 C 203.59735 178.34 203.38057 178.01557 203.22834 177.64803 C 203.0761 177.28049 202.99999 176.89781 203 176.5 C 202.99999 176.10216 203.0761 175.71947 203.22834 175.35193 C 203.38057 174.98439 203.59735 174.65996 203.87866 174.37866 C 204.15996 174.09735 204.48439 173.88057 204.85193 173.72834 C 205.21947 173.57611 205.60216 173.5 206 173.5 C 206.39781 173.5 206.78049 173.57611 207.14803 173.72834 C 207.51557 173.88057 207.84 174.09735 208.1213 174.37866 C 208.4026 174.65996 208.61939 174.98439 208.77162 175.35193 C 208.92386 175.71947 208.99999 176.10216 209 176.5 Z " fill="#f8cecc"/>
<path transform="matrix(.71739128,0,0,.71739128,.35869564,.35869564)" stroke-width="1" stroke-linecap="butt" stroke-miterlimit="4" stroke-linejoin="miter" fill="none" stroke="#b85450" d="M 209 176.5 C 208.99999 176.89781 208.92386 177.28049 208.77162 177.64803 C 208.61939 178.01557 208.4026 178.34 208.1213 178.6213 C 207.84 178.9026 207.51557 179.11937 207.14803 179.27162 C 206.78049 179.42386 206.39781 179.49999 206 179.5 C 205.60216 179.49999 205.21947 179.42386 204.85193 179.27162 C 204.48439 179.11937 204.15996 178.9026 203.87866 178.6213 C 203.59735 178.34 203.38057 178.01557 203.22834 177.64803 C 203.0761 177.28049 202.99999 176.89781 203 176.5 C 202.99999 176.10216 203.0761 175.71947 203.22834 175.35193 C 203.38057 174.98439 203.59735 174.65996 203.87866 174.37866 C 204.15996 174.09735 204.48439 173.88057 204.85193 173.72834 C 205.21947 173.57611 205.60216 173.5 206 173.5 C 206.39781 173.5 206.78049 173.57611 207.14803 173.72834 C 207.51557 173.88057 207.84 174.09735 208.1213 174.37866 C 208.4026 174.65996 208.61939 174.98439 208.77162 175.35193 C 208.92386 175.71947 208.99999 176.10216 209 176.5 Z "/>
<path transform="matrix(.71739128,0,0,.71739128,.35869564,.35869564)" d="M 218 176 C 218 176.39781 217.92388 176.78049 217.77164 177.14803 C 217.61939 177.51557 217.40262 177.83998 217.12133 178.1213 C 216.84 178.4026 216.51557 178.61937 216.14803 178.77162 C 215.78049 178.92386 215.39781 178.99999 215 179 C 214.60216 178.99999 214.21945 178.92386 213.85192 178.77162 C 213.48438 178.61937 213.15995 178.4026 212.87865 178.1213 C 212.59734 177.83998 212.38056 177.51557 212.22832 177.14803 C 212.07608 176.78049 211.99999 176.39781 212 176 C 211.99999 175.60216 212.07608 175.21945 212.22832 174.85192 C 212.38056 174.48438 212.59734 174.15996 212.87865 173.87866 C 213.15995 173.59737 213.48438 173.38059 213.85192 173.22835 C 214.21945 173.07611 214.60216 173 215 173 C 215.39781 173 215.7805 173.07611 216.14804 173.22835 C 216.51558 173.38059 216.84 173.59737 217.12133 173.87866 C 217.40262 174.15996 217.61939 174.48438 217.77162 174.85192 C 217.92388 175.21945 218 175.60216 218 176 Z " fill="#f8cecc"/>
<path transform="matrix(.71739128,0,0,.71739128,.35869564,.35869564)" stroke-width="1" stroke-linecap="butt" stroke-miterlimit="4" stroke-linejoin="miter" fill="none" stroke="#b85450" d="M 218 176 C 218 176.39781 217.92388 176.78049 217.77164 177.14803 C 217.61939 177.51557 217.40262 177.83998 217.12133 178.1213 C 216.84 178.4026 216.51557 178.61937 216.14803 178.77162 C 215.78049 178.92386 215.39781 178.99999 215 179 C 214.60216 178.99999 214.21945 178.92386 213.85192 178.77162 C 213.48438 178.61937 213.15995 178.4026 212.87865 178.1213 C 212.59734 177.83998 212.38056 177.51557 212.22832 177.14803 C 212.07608 176.78049 211.99999 176.39781 212 176 C 211.99999 175.60216 212.07608 175.21945 212.22832 174.85192 C 212.38056 174.48438 212.59734 174.15996 212.87865 173.87866 C 213.15995 173.59737 213.48438 173.38059 213.85192 173.22835 C 214.21945 173.07611 214.60216 173 215 173 C 215.39781 173 215.7805 173.07611 216.14804 173.22835 C 216.51558 173.38059 216.84 173.59737 217.12133 173.87866 C 217.40262 174.15996 217.61939 174.48438 217.77162 174.85192 C 217.92388 175.21945 218 175.60216 218 176 Z "/>
<path transform="matrix(.71739128,0,0,.71739128,.35869564,.35869564)" d="M 231 176 C 230.99999 176.39781 230.92386 176.78049 230.7716 177.14803 C 230.61937 177.51557 230.4026 177.83998 230.1213 178.1213 C 229.83998 178.4026 229.51557 178.61937 229.14803 178.77162 C 228.78049 178.92386 228.39781 178.99999 228 179 C 227.60216 178.99999 227.21947 178.92386 226.85193 178.77162 C 226.48439 178.61937 226.15996 178.4026 225.87866 178.1213 C 225.59735 177.83998 225.38057 177.51557 225.22834 177.14803 C 225.0761 176.78049 224.99999 176.39781 225 176 C 224.99999 175.60216 225.0761 175.21945 225.22834 174.85192 C 225.38057 174.48438 225.59735 174.15996 225.87866 173.87866 C 226.15996 173.59737 226.48439 173.38059 226.85193 173.22835 C 227.21947 173.07611 227.60216 173 228 173 C 228.39781 173 228.7805 173.07611 229.14804 173.22835 C 229.51557 173.38059 229.83998 173.59737 230.1213 173.87866 C 230.4026 174.15996 230.61937 174.48438 230.7716 174.85192 C 230.92386 175.21945 230.99999 175.60216 231 176 Z " fill="#f8cecc"/>
<path transform="matrix(.71739128,0,0,.71739128,.35869564,.35869564)" stroke-width="1" stroke-linecap="butt" stroke-miterlimit="4" stroke-linejoin="miter" fill="none" stroke="#b85450" d="M 231 176 C 230.99999 176.39781 230.92386 176.78049 230.7716 177.14803 C 230.61937 177.51557 230.4026 177.83998 230.1213 178.1213 C 229.83998 178.4026 229.51557 178.61937 229.14803 178.77162 C 228.78049 178.92386 228.39781 178.99999 228 179 C 227.60216 178.99999 227.21947 178.92386 226.85193 178.77162 C 226.48439 178.61937 226.15996 178.4026 225.87866 178.1213 C 225.59735 177.83998 225.38057 177.51557 225.22834 177.14803 C 225.0761 176.78049 224.99999 176.39781 225 176 C 224.99999 175.60216 225.0761 175.21945 225.22834 174.85192 C 225.38057 174.48438 225.59735 174.15996 225.87866 173.87866 C 226.15996 173.59737 226.48439 173.38059 226.85193 173.22835 C 227.21947 173.07611 227.60216 173 228 173 C 228.39781 173 228.7805 173.07611 229.14804 173.22835 C 229.51557 173.38059 229.83998 173.59737 230.1213 173.87866 C 230.4026 174.15996 230.61937 174.48438 230.7716 174.85192 C 230.92386 175.21945 230.99999 175.60216 231 176 Z "/>
<path transform="matrix(.71739128,0,0,.71739128,.35869564,.35869564)" d="M 248 176.5 C 247.99999 176.96413 247.91118 177.41059 247.73355 177.83939 C 247.55594 178.26819 247.30304 178.64669 246.97487 178.97487 C 246.64667 179.30306 246.26818 179.55596 245.83937 179.73357 C 245.41057 179.9112 244.96411 180 244.5 180 C 244.03585 180 243.58937 179.9112 243.16057 179.73357 C 242.73178 179.55596 242.35329 179.30306 242.0251 178.97487 C 241.6969 178.64669 241.444 178.26819 241.26639 177.83939 C 241.08879 177.41059 240.99999 176.96413 241 176.5 C 240.99999 176.03586 241.08879 175.58939 241.26639 175.16059 C 241.444 174.73177 241.6969 174.35329 242.0251 174.02512 C 242.35329 173.69692 242.73178 173.44402 243.16059 173.2664 C 243.58937 173.0888 244.03585 173 244.5 173 C 244.96411 173 245.41057 173.0888 245.83937 173.2664 C 246.26818 173.44402 246.64667 173.69692 246.97487 174.02512 C 247.30304 174.35329 247.55594 174.73177 247.73355 175.16059 C 247.91118 175.58939 247.99999 176.03586 248 176.5 Z " fill="#f8cecc"/>
<path transform="matrix(.71739128,0,0,.71739128,.35869564,.35869564)" stroke-width="1" stroke-linecap="butt" stroke-miterlimit="4" stroke-linejoin="miter" fill="none" stroke="#b85450" d="M 248 176.5 C 247.99999 176.96413 247.91118 177.41059 247.73355 177.83939 C 247.55594 178.26819 247.30304 178.64669 246.97487 178.97487 C 246.64667 179.30306 246.26818 179.55596 245.83937 179.73357 C 245.41057 179.9112 244.96411 180 244.5 180 C 244.03585 180 243.58937 179.9112 243.16057 179.73357 C 242.73178 179.55596 242.35329 179.30306 242.0251 178.97487 C 241.6969 178.64669 241.444 178.26819 241.26639 177.83939 C 241.08879 177.41059 240.99999 176.96413 241 176.5 C 240.99999 176.03586 241.08879 175.58939 241.26639 175.16059 C 241.444 174.73177 241.6969 174.35329 242.0251 174.02512 C 242.35329 173.69692 242.73178 173.44402 243.16059 173.2664 C 243.58937 173.0888 244.03585 173 244.5 173 C 244.96411 173 245.41057 173.0888 245.83937 173.2664 C 246.26818 173.44402 246.64667 173.69692 246.97487 174.02512 C 247.30304 174.35329 247.55594 174.73177 247.73355 175.16059 C 247.91118 175.58939 247.99999 176.03586 248 176.5 Z "/>
<path transform="matrix(.71739128,0,0,.71739128,.35869564,.35869564)" stroke-width="1" stroke-linecap="butt" stroke-miterlimit="10" stroke-linejoin="miter" fill="none" stroke="#000000" d="M 8 176 C 113.333339 157.33333 197 105.333339 259 20 "/>
<path transform="matrix(.71739128,0,0,.71739128,.35869564,.35869564)" d="M 51 166 C 50.999998 166.39781 50.923879 166.78049 50.771638 167.14803 C 50.619394 167.51557 50.40262 167.84 50.12132 168.1213 C 49.84001 168.4026 49.515588 168.61939 49.148046 168.77162 C 48.780504 168.92386 48.39782 168.99999 48 169 C 47.602174 168.99999 47.219488 168.92386 46.851945 168.77162 C 46.4844 168.61939 46.15998 168.4026 45.878679 168.1213 C 45.597375 167.84 45.3806 167.51557 45.228357 167.14803 C 45.07612 166.78049 45 166.39781 45 166 C 45 165.60216 45.07612 165.21947 45.22836 164.85193 C 45.3806 164.48439 45.597375 164.15996 45.878679 163.87866 C 46.15998 163.59735 46.484407 163.38057 46.851949 163.22834 C 47.21949 163.07611 47.602174 163 48 163 C 48.39782 163 48.780504 163.07611 49.148046 163.22834 C 49.515588 163.38057 49.84001 163.59735 50.12132 163.87866 C 50.40262 164.15996 50.619394 164.48439 50.771635 164.85193 C 50.923875 165.21947 50.999998 165.60216 51 166 Z " fill="#f8cecc"/>
<path transform="matrix(.71739128,0,0,.71739128,.35869564,.35869564)" stroke-width="1" stroke-linecap="butt" stroke-miterlimit="4" stroke-linejoin="miter" fill="none" stroke="#b85450" d="M 51 166 C 50.999998 166.39781 50.923879 166.78049 50.771638 167.14803 C 50.619394 167.51557 50.40262 167.84 50.12132 168.1213 C 49.84001 168.4026 49.515588 168.61939 49.148046 168.77162 C 48.780504 168.92386 48.39782 168.99999 48 169 C 47.602174 168.99999 47.219488 168.92386 46.851945 168.77162 C 46.4844 168.61939 46.15998 168.4026 45.878679 168.1213 C 45.597375 167.84 45.3806 167.51557 45.228357 167.14803 C 45.07612 166.78049 45 166.39781 45 166 C 45 165.60216 45.07612 165.21947 45.22836 164.85193 C 45.3806 164.48439 45.597375 164.15996 45.878679 163.87866 C 46.15998 163.59735 46.484407 163.38057 46.851949 163.22834 C 47.21949 163.07611 47.602174 163 48 163 C 48.39782 163 48.780504 163.07611 49.148046 163.22834 C 49.515588 163.38057 49.84001 163.59735 50.12132 163.87866 C 50.40262 164.15996 50.619394 164.48439 50.771635 164.85193 C 50.923875 165.21947 50.999998 165.60216 51 166 Z "/>
<path transform="matrix(.71739128,0,0,.71739128,.35869564,.35869564)" d="M 34 171 C 33.999998 171.39781 33.923879 171.78049 33.771638 172.14803 C 33.619394 172.51557 33.40262 172.84 33.12132 173.12129 C 32.84001 173.4026 32.51559 173.61937 32.14805 173.7716 C 31.780505 173.92386 31.397822 173.99999 31 174 C 30.602173 173.99999 30.219489 173.92386 29.851946 173.7716 C 29.484404 173.61937 29.15998 173.4026 28.878678 173.12129 C 28.597373 172.84 28.380599 172.51557 28.228358 172.14803 C 28.076117 171.78049 27.999999 171.39781 28 171 C 27.999999 170.60218 28.076117 170.21949 28.228358 169.85193 C 28.380599 169.48439 28.597373 169.15998 28.878678 168.87868 C 29.15998 168.59737 29.484404 168.38059 29.851946 168.22835 C 30.219489 168.07611 30.602173 168 31 168 C 31.397822 168 31.780505 168.07611 32.14805 168.22835 C 32.51559 168.38059 32.84001 168.59737 33.12132 168.87868 C 33.40262 169.15998 33.619394 169.48439 33.771638 169.85193 C 33.923879 170.21949 33.999998 170.60218 34 171 Z " fill="#f8cecc"/>
<path transform="matrix(.71739128,0,0,.71739128,.35869564,.35869564)" stroke-width="1" stroke-linecap="butt" stroke-miterlimit="4" stroke-linejoin="miter" fill="none" stroke="#b85450" d="M 34 171 C 33.999998 171.39781 33.923879 171.78049 33.771638 172.14803 C 33.619394 172.51557 33.40262 172.84 33.12132 173.12129 C 32.84001 173.4026 32.51559 173.61937 32.14805 173.7716 C 31.780505 173.92386 31.397822 173.99999 31 174 C 30.602173 173.99999 30.219489 173.92386 29.851946 173.7716 C 29.484404 173.61937 29.15998 173.4026 28.878678 173.12129 C 28.597373 172.84 28.380599 172.51557 28.228358 172.14803 C 28.076117 171.78049 27.999999 171.39781 28 171 C 27.999999 170.60218 28.076117 170.21949 28.228358 169.85193 C 28.380599 169.48439 28.597373 169.15998 28.878678 168.87868 C 29.15998 168.59737 29.484404 168.38059 29.851946 168.22835 C 30.219489 168.07611 30.602173 168 31 168 C 31.397822 168 31.780505 168.07611 32.14805 168.22835 C 32.51559 168.38059 32.84001 168.59737 33.12132 168.87868 C 33.40262 169.15998 33.619394 169.48439 33.771638 169.85193 C 33.923879 170.21949 33.999998 170.60218 34 171 Z "/>
<path transform="matrix(.71739128,0,0,.71739128,.35869564,.35869564)" d="M 64 163 C 63.999998 163.39781 63.923875 163.78049 63.771635 164.14803 C 63.61939 164.51557 63.40262 164.83998 63.12132 165.1213 C 62.84001 165.4026 62.515588 165.61939 62.148046 165.77164 C 61.780504 165.92388 61.39782 165.99999 61 166 C 60.602174 165.99999 60.219488 165.92388 59.851945 165.77164 C 59.4844 165.61939 59.159978 165.4026 58.878675 165.1213 C 58.597368 164.83998 58.380594 164.51557 58.22835 164.14803 C 58.07611 163.78049 57.999998 163.39781 58 163 C 57.999998 162.60218 58.07611 162.21949 58.22835 161.85195 C 58.380594 161.4844 58.597368 161.15998 58.878675 160.87868 C 59.159978 160.59737 59.484399 160.38059 59.85194 160.22835 C 60.219488 160.07611 60.602174 160 61 160 C 61.39782 160 61.780504 160.07611 62.148046 160.22835 C 62.515588 160.38059 62.84001 160.59737 63.12132 160.87868 C 63.40262 161.15998 63.61939 161.4844 63.771635 161.85195 C 63.923875 162.21949 63.999998 162.60218 64 163 Z " fill="#f8cecc"/>
<path transform="matrix(.71739128,0,0,.71739128,.35869564,.35869564)" stroke-width="1" stroke-linecap="butt" stroke-miterlimit="4" stroke-linejoin="miter" fill="none" stroke="#b85450" d="M 64 163 C 63.999998 163.39781 63.923875 163.78049 63.771635 164.14803 C 63.61939 164.51557 63.40262 164.83998 63.12132 165.1213 C 62.84001 165.4026 62.515588 165.61939 62.148046 165.77164 C 61.780504 165.92388 61.39782 165.99999 61 166 C 60.602174 165.99999 60.219488 165.92388 59.851945 165.77164 C 59.4844 165.61939 59.159978 165.4026 58.878675 165.1213 C 58.597368 164.83998 58.380594 164.51557 58.22835 164.14803 C 58.07611 163.78049 57.999998 163.39781 58 163 C 57.999998 162.60218 58.07611 162.21949 58.22835 161.85195 C 58.380594 161.4844 58.597368 161.15998 58.878675 160.87868 C 59.159978 160.59737 59.484399 160.38059 59.85194 160.22835 C 60.219488 160.07611 60.602174 160 61 160 C 61.39782 160 61.780504 160.07611 62.148046 160.22835 C 62.515588 160.38059 62.84001 160.59737 63.12132 160.87868 C 63.40262 161.15998 63.61939 161.4844 63.771635 161.85195 C 63.923875 162.21949 63.999998 162.60218 64 163 Z "/>
<path transform="matrix(.71739128,0,0,.71739128,.35869564,.35869564)" d="M 75 159 C 74.99999 159.39781 74.92387 159.78049 74.77163 160.14803 C 74.619388 160.51557 74.40262 160.84 74.121318 161.1213 C 73.84001 161.4026 73.51559 161.61939 73.14804 161.77162 C 72.780498 161.92386 72.39782 161.99999 72 162 C 71.60217 161.99999 71.21948 161.92386 70.85194 161.77162 C 70.4844 161.61939 70.15998 161.4026 69.87868 161.1213 C 69.59737 160.84 69.38059 160.51557 69.228359 160.14803 C 69.07611 159.78049 68.99999 159.39781 69 159 C 68.99999 158.60216 69.07611 158.21947 69.22835 157.85193 C 69.38059 157.48438 69.59737 157.15996 69.87868 156.87866 C 70.15998 156.59737 70.4844 156.38059 70.85194 156.22835 C 71.21948 156.07611 71.60217 156 72 156 C 72.39782 156 72.780498 156.07611 73.14804 156.22835 C 73.51559 156.38059 73.84001 156.59737 74.121318 156.87866 C 74.40262 157.15996 74.619388 157.48438 74.77163 157.85193 C 74.92387 158.21947 74.99999 158.60216 75 159 Z " fill="#f8cecc"/>
<path transform="matrix(.71739128,0,0,.71739128,.35869564,.35869564)" stroke-width="1" stroke-linecap="butt" stroke-miterlimit="4" stroke-linejoin="miter" fill="none" stroke="#b85450" d="M 75 159 C 74.99999 159.39781 74.92387 159.78049 74.77163 160.14803 C 74.619388 160.51557 74.40262 160.84 74.121318 161.1213 C 73.84001 161.4026 73.51559 161.61939 73.14804 161.77162 C 72.780498 161.92386 72.39782 161.99999 72 162 C 71.60217 161.99999 71.21948 161.92386 70.85194 161.77162 C 70.4844 161.61939 70.15998 161.4026 69.87868 161.1213 C 69.59737 160.84 69.38059 160.51557 69.228359 160.14803 C 69.07611 159.78049 68.99999 159.39781 69 159 C 68.99999 158.60216 69.07611 158.21947 69.22835 157.85193 C 69.38059 157.48438 69.59737 157.15996 69.87868 156.87866 C 70.15998 156.59737 70.4844 156.38059 70.85194 156.22835 C 71.21948 156.07611 71.60217 156 72 156 C 72.39782 156 72.780498 156.07611 73.14804 156.22835 C 73.51559 156.38059 73.84001 156.59737 74.121318 156.87866 C 74.40262 157.15996 74.619388 157.48438 74.77163 157.85193 C 74.92387 158.21947 74.99999 158.60216 75 159 Z "/>
<path transform="matrix(.71739128,0,0,.71739128,.35869564,.35869564)" d="M 110 147 C 109.99999 147.39781 109.92387 147.78049 109.77162 148.14803 C 109.61938 148.51557 109.40261 148.84 109.12131 149.1213 C 108.84 149.4026 108.51557 149.61939 108.14803 149.77162 C 107.78049 149.92386 107.39781 149.99999 107 150 C 106.602169 149.99999 106.21948 149.92386 105.85194 149.77162 C 105.48439 149.61939 105.15997 149.4026 104.87867 149.1213 C 104.59736 148.84 104.380588 148.51557 104.22835 148.14803 C 104.0761 147.78049 103.99999 147.39781 104 147 C 103.99999 146.60216 104.0761 146.21947 104.22835 145.85193 C 104.380588 145.48439 104.59736 145.15996 104.87867 144.87866 C 105.15997 144.59735 105.48439 144.38057 105.85194 144.22834 C 106.21948 144.07611 106.602169 144 107 144 C 107.39781 144 107.78049 144.07611 108.148029 144.22834 C 108.51557 144.38057 108.84 144.59735 109.12131 144.87866 C 109.40261 145.15996 109.619388 145.48439 109.77163 145.85193 C 109.92387 146.21947 109.99999 146.60216 110 147 Z " fill="#d5e8d4"/>
<path transform="matrix(.71739128,0,0,.71739128,.35869564,.35869564)" stroke-width="1" stroke-linecap="butt" stroke-miterlimit="4" stroke-linejoin="miter" fill="none" stroke="#82b366" d="M 110 147 C 109.99999 147.39781 109.92387 147.78049 109.77162 148.14803 C 109.61938 148.51557 109.40261 148.84 109.12131 149.1213 C 108.84 149.4026 108.51557 149.61939 108.14803 149.77162 C 107.78049 149.92386 107.39781 149.99999 107 150 C 106.602169 149.99999 106.21948 149.92386 105.85194 149.77162 C 105.48439 149.61939 105.15997 149.4026 104.87867 149.1213 C 104.59736 148.84 104.380588 148.51557 104.22835 148.14803 C 104.0761 147.78049 103.99999 147.39781 104 147 C 103.99999 146.60216 104.0761 146.21947 104.22835 145.85193 C 104.380588 145.48439 104.59736 145.15996 104.87867 144.87866 C 105.15997 144.59735 105.48439 144.38057 105.85194 144.22834 C 106.21948 144.07611 106.602169 144 107 144 C 107.39781 144 107.78049 144.07611 108.148029 144.22834 C 108.51557 144.38057 108.84 144.59735 109.12131 144.87866 C 109.40261 145.15996 109.619388 145.48439 109.77163 145.85193 C 109.92387 146.21947 109.99999 146.60216 110 147 Z "/>
<path transform="matrix(.71739128,0,0,.71739128,.35869564,.35869564)" d="M 121 142 C 120.99999 142.39781 120.923877 142.78049 120.77163 143.14804 C 120.619388 143.51558 120.40262 143.84001 120.121318 144.1213 C 119.840007 144.40262 119.51558 144.61939 119.14803 144.77162 C 118.780498 144.92386 118.39782 144.99999 118 145 C 117.602169 144.99999 117.219478 144.92386 116.85193 144.77162 C 116.48439 144.61939 116.15997 144.40262 115.87867 144.1213 C 115.59737 143.84001 115.380588 143.51558 115.22834 143.14804 C 115.0761 142.78049 114.99999 142.39781 115 142 C 114.99999 141.60218 115.0761 141.21949 115.22834 140.85193 C 115.380588 140.48439 115.59737 140.15998 115.87867 139.87868 C 116.15997 139.59737 116.48439 139.3806 116.85194 139.22837 C 117.219478 139.07613 117.602169 139 118 139 C 118.39782 139 118.780498 139.07613 119.14803 139.22837 C 119.51558 139.3806 119.840007 139.59737 120.121318 139.87868 C 120.40262 140.15998 120.619388 140.48439 120.77163 140.85193 C 120.923877 141.21949 120.99999 141.60218 121 142 Z " fill="#d5e8d4"/>
<path transform="matrix(.71739128,0,0,.71739128,.35869564,.35869564)" stroke-width="1" stroke-linecap="butt" stroke-miterlimit="4" stroke-linejoin="miter" fill="none" stroke="#82b366" d="M 121 142 C 120.99999 142.39781 120.923877 142.78049 120.77163 143.14804 C 120.619388 143.51558 120.40262 143.84001 120.121318 144.1213 C 119.840007 144.40262 119.51558 144.61939 119.14803 144.77162 C 118.780498 144.92386 118.39782 144.99999 118 145 C 117.602169 144.99999 117.219478 144.92386 116.85193 144.77162 C 116.48439 144.61939 116.15997 144.40262 115.87867 144.1213 C 115.59737 143.84001 115.380588 143.51558 115.22834 143.14804 C 115.0761 142.78049 114.99999 142.39781 115 142 C 114.99999 141.60218 115.0761 141.21949 115.22834 140.85193 C 115.380588 140.48439 115.59737 140.15998 115.87867 139.87868 C 116.15997 139.59737 116.48439 139.3806 116.85194 139.22837 C 117.219478 139.07613 117.602169 139 118 139 C 118.39782 139 118.780498 139.07613 119.14803 139.22837 C 119.51558 139.3806 119.840007 139.59737 120.121318 139.87868 C 120.40262 140.15998 120.619388 140.48439 120.77163 140.85193 C 120.923877 141.21949 120.99999 141.60218 121 142 Z "/>
<path transform="matrix(.71739128,0,0,.71739128,.35869564,.35869564)" d="M 134 136 C 134 136.39781 133.92388 136.7805 133.77162 137.14804 C 133.61937 137.51558 133.4026 137.84 133.1213 138.1213 C 132.84 138.4026 132.51557 138.61939 132.14803 138.77162 C 131.78049 138.92386 131.39781 138.99999 131 139 C 130.60216 138.99999 130.21947 138.92386 129.85193 138.77162 C 129.48439 138.61939 129.15998 138.4026 128.87868 138.1213 C 128.59737 137.84 128.38059 137.51558 128.22835 137.14804 C 128.07611 136.7805 127.99999 136.39781 128 136 C 127.99999 135.60218 128.07611 135.21949 128.22835 134.85195 C 128.38059 134.48439 128.59737 134.15996 128.87868 133.87866 C 129.15998 133.59735 129.48439 133.38059 129.85193 133.22835 C 130.21947 133.07611 130.60216 133 131 133 C 131.39781 133 131.7805 133.07611 132.14804 133.22835 C 132.51558 133.38059 132.84 133.59735 133.1213 133.87866 C 133.4026 134.15996 133.61937 134.48439 133.77162 134.85195 C 133.92388 135.21949 134 135.60218 134 136 Z " fill="#d5e8d4"/>
<path transform="matrix(.71739128,0,0,.71739128,.35869564,.35869564)" stroke-width="1" stroke-linecap="butt" stroke-miterlimit="4" stroke-linejoin="miter" fill="none" stroke="#82b366" d="M 134 136 C 134 136.39781 133.92388 136.7805 133.77162 137.14804 C 133.61937 137.51558 133.4026 137.84 133.1213 138.1213 C 132.84 138.4026 132.51557 138.61939 132.14803 138.77162 C 131.78049 138.92386 131.39781 138.99999 131 139 C 130.60216 138.99999 130.21947 138.92386 129.85193 138.77162 C 129.48439 138.61939 129.15998 138.4026 128.87868 138.1213 C 128.59737 137.84 128.38059 137.51558 128.22835 137.14804 C 128.07611 136.7805 127.99999 136.39781 128 136 C 127.99999 135.60218 128.07611 135.21949 128.22835 134.85195 C 128.38059 134.48439 128.59737 134.15996 128.87868 133.87866 C 129.15998 133.59735 129.48439 133.38059 129.85193 133.22835 C 130.21947 133.07611 130.60216 133 131 133 C 131.39781 133 131.7805 133.07611 132.14804 133.22835 C 132.51558 133.38059 132.84 133.59735 133.1213 133.87866 C 133.4026 134.15996 133.61937 134.48439 133.77162 134.85195 C 133.92388 135.21949 134 135.60218 134 136 Z "/>
<path transform="matrix(.71739128,0,0,.71739128,.35869564,.35869564)" d="M 148 127 C 147.99999 127.39782 147.92386 127.780498 147.7716 128.14804 C 147.61937 128.51558 147.4026 128.84001 147.1213 129.12133 C 146.84 129.40262 146.51558 129.6194 146.14804 129.77164 C 145.7805 129.92388 145.39781 129.99999 145 130 C 144.60216 129.99999 144.21947 129.92388 143.85193 129.77164 C 143.48439 129.6194 143.15998 129.40262 142.87868 129.12133 C 142.59737 128.84001 142.38059 128.51558 142.22835 128.14804 C 142.07611 127.780498 141.99999 127.39782 142 127 C 141.99999 126.602169 142.07611 126.21948 142.22835 125.851947 C 142.38059 125.4844 142.59737 125.15997 142.87868 124.87868 C 143.15998 124.59737 143.48439 124.38059 143.85193 124.22835 C 144.21947 124.07612 144.60216 124 145 124 C 145.39781 124 145.7805 124.07612 146.14804 124.22835 C 146.51558 124.38059 146.84 124.59737 147.1213 124.87868 C 147.4026 125.15997 147.61937 125.4844 147.7716 125.851947 C 147.92386 126.21948 147.99999 126.602169 148 127 Z " fill="#d5e8d4"/>
<path transform="matrix(.71739128,0,0,.71739128,.35869564,.35869564)" stroke-width="1" stroke-linecap="butt" stroke-miterlimit="4" stroke-linejoin="miter" fill="none" stroke="#82b366" d="M 148 127 C 147.99999 127.39782 147.92386 127.780498 147.7716 128.14804 C 147.61937 128.51558 147.4026 128.84001 147.1213 129.12133 C 146.84 129.40262 146.51558 129.6194 146.14804 129.77164 C 145.7805 129.92388 145.39781 129.99999 145 130 C 144.60216 129.99999 144.21947 129.92388 143.85193 129.77164 C 143.48439 129.6194 143.15998 129.40262 142.87868 129.12133 C 142.59737 128.84001 142.38059 128.51558 142.22835 128.14804 C 142.07611 127.780498 141.99999 127.39782 142 127 C 141.99999 126.602169 142.07611 126.21948 142.22835 125.851947 C 142.38059 125.4844 142.59737 125.15997 142.87868 124.87868 C 143.15998 124.59737 143.48439 124.38059 143.85193 124.22835 C 144.21947 124.07612 144.60216 124 145 124 C 145.39781 124 145.7805 124.07612 146.14804 124.22835 C 146.51558 124.38059 146.84 124.59737 147.1213 124.87868 C 147.4026 125.15997 147.61937 125.4844 147.7716 125.851947 C 147.92386 126.21948 147.99999 126.602169 148 127 Z "/>
<path transform="matrix(.71739128,0,0,.71739128,.35869564,.35869564)" d="M 162 118.5 C 161.99999 118.96412 161.91117 119.41058 161.73357 119.83938 C 161.55594 120.26817 161.30304 120.646678 160.97487 120.97487 C 160.64667 121.30305 160.26816 121.555957 159.83937 121.733577 C 159.41059 121.91119 158.96413 121.99999 158.5 122 C 158.03588 121.99999 157.5894 121.91119 157.1606 121.733577 C 156.7318 121.555957 156.3533 121.30305 156.02512 120.97487 C 155.69692 120.646678 155.44402 120.26817 155.26642 119.83938 C 155.0888 119.41058 155 118.96412 155 118.5 C 155 118.03586 155.0888 117.589389 155.26642 117.16059 C 155.44402 116.73179 155.69692 116.353298 156.02512 116.025119 C 156.3533 115.69692 156.7318 115.44402 157.1606 115.2664 C 157.5894 115.0888 158.03588 115 158.5 115 C 158.96413 115 159.41059 115.088809 159.83937 115.26641 C 160.26816 115.44402 160.64667 115.69692 160.97487 116.025119 C 161.30304 116.353298 161.55594 116.73179 161.73357 117.1606 C 161.91117 117.58939 161.99999 118.03586 162 118.5 Z " fill="#d5e8d4"/>
<path transform="matrix(.71739128,0,0,.71739128,.35869564,.35869564)" stroke-width="1" stroke-linecap="butt" stroke-miterlimit="4" stroke-linejoin="miter" fill="none" stroke="#82b366" d="M 162 118.5 C 161.99999 118.96412 161.91117 119.41058 161.73357 119.83938 C 161.55594 120.26817 161.30304 120.646678 160.97487 120.97487 C 160.64667 121.30305 160.26816 121.555957 159.83937 121.733577 C 159.41059 121.91119 158.96413 121.99999 158.5 122 C 158.03588 121.99999 157.5894 121.91119 157.1606 121.733577 C 156.7318 121.555957 156.3533 121.30305 156.02512 120.97487 C 155.69692 120.646678 155.44402 120.26817 155.26642 119.83938 C 155.0888 119.41058 155 118.96412 155 118.5 C 155 118.03586 155.0888 117.589389 155.26642 117.16059 C 155.44402 116.73179 155.69692 116.353298 156.02512 116.025119 C 156.3533 115.69692 156.7318 115.44402 157.1606 115.2664 C 157.5894 115.0888 158.03588 115 158.5 115 C 158.96413 115 159.41059 115.088809 159.83937 115.26641 C 160.26816 115.44402 160.64667 115.69692 160.97487 116.025119 C 161.30304 116.353298 161.55594 116.73179 161.73357 117.1606 C 161.91117 117.58939 161.99999 118.03586 162 118.5 Z "/>
<path transform="matrix(.71739128,0,0,.71739128,.35869564,.35869564)" d="M 198 89 C 197.99999 89.39782 197.92388 89.780498 197.77164 90.14804 C 197.61937 90.51559 197.4026 90.84002 197.1213 91.12132 C 196.83998 91.402629 196.51557 91.61939 196.14803 91.77164 C 195.78049 91.923877 195.39781 91.99999 195 92 C 194.60216 91.99999 194.21947 91.923877 193.85193 91.77164 C 193.48439 91.61939 193.15996 91.402629 192.87866 91.12132 C 192.59735 90.84002 192.38057 90.51559 192.22834 90.14804 C 192.0761 89.780498 191.99999 89.39782 192 89 C 191.99999 88.602169 192.0761 88.21948 192.22834 87.851947 C 192.38057 87.4844 192.59735 87.15998 192.87866 86.87868 C 193.15996 86.597377 193.48439 86.38059 193.85193 86.22835 C 194.21947 86.07612 194.60216 86 195 86 C 195.39781 86 195.7805 86.07612 196.14804 86.22835 C 196.51557 86.38059 196.83998 86.597377 197.1213 86.87868 C 197.4026 87.15998 197.61937 87.4844 197.77162 87.851947 C 197.92386 88.21948 197.99999 88.602169 198 89 Z " fill="#f8cecc"/>
<path transform="matrix(.71739128,0,0,.71739128,.35869564,.35869564)" stroke-width="1" stroke-linecap="butt" stroke-miterlimit="4" stroke-linejoin="miter" fill="none" stroke="#b85450" d="M 198 89 C 197.99999 89.39782 197.92388 89.780498 197.77164 90.14804 C 197.61937 90.51559 197.4026 90.84002 197.1213 91.12132 C 196.83998 91.402629 196.51557 91.61939 196.14803 91.77164 C 195.78049 91.923877 195.39781 91.99999 195 92 C 194.60216 91.99999 194.21947 91.923877 193.85193 91.77164 C 193.48439 91.61939 193.15996 91.402629 192.87866 91.12132 C 192.59735 90.84002 192.38057 90.51559 192.22834 90.14804 C 192.0761 89.780498 191.99999 89.39782 192 89 C 191.99999 88.602169 192.0761 88.21948 192.22834 87.851947 C 192.38057 87.4844 192.59735 87.15998 192.87866 86.87868 C 193.15996 86.597377 193.48439 86.38059 193.85193 86.22835 C 194.21947 86.07612 194.60216 86 195 86 C 195.39781 86 195.7805 86.07612 196.14804 86.22835 C 196.51557 86.38059 196.83998 86.597377 197.1213 86.87868 C 197.4026 87.15998 197.61937 87.4844 197.77162 87.851947 C 197.92386 88.21948 197.99999 88.602169 198 89 Z "/>
<path transform="matrix(.71739128,0,0,.71739128,.35869564,.35869564)" d="M 209 80 C 208.99999 80.39782 208.92386 80.780498 208.77162 81.14804 C 208.61939 81.51558 208.4026 81.840007 208.1213 82.121318 C 207.84 82.40262 207.51557 82.619388 207.14803 82.77163 C 206.78049 82.923877 206.39781 82.99999 206 83 C 205.60216 82.99999 205.21947 82.923877 204.85193 82.77163 C 204.48439 82.619388 204.15996 82.40262 203.87866 82.121318 C 203.59735 81.840007 203.38057 81.51558 203.22834 81.14804 C 203.0761 80.780498 202.99999 80.39782 203 80 C 202.99999 79.60217 203.0761 79.21949 203.22834 78.851947 C 203.38057 78.4844 203.59735 78.15998 203.87866 77.87868 C 204.15996 77.59737 204.48439 77.38059 204.85193 77.228359 C 205.21947 77.07612 205.60216 77 206 77 C 206.39781 77 206.78049 77.07612 207.14803 77.228359 C 207.51557 77.38059 207.84 77.59737 208.1213 77.87868 C 208.4026 78.15998 208.61939 78.4844 208.77162 78.851947 C 208.92386 79.21949 208.99999 79.60217 209 80 Z " fill="#f8cecc"/>
<path transform="matrix(.71739128,0,0,.71739128,.35869564,.35869564)" stroke-width="1" stroke-linecap="butt" stroke-miterlimit="4" stroke-linejoin="miter" fill="none" stroke="#b85450" d="M 209 80 C 208.99999 80.39782 208.92386 80.780498 208.77162 81.14804 C 208.61939 81.51558 208.4026 81.840007 208.1213 82.121318 C 207.84 82.40262 207.51557 82.619388 207.14803 82.77163 C 206.78049 82.923877 206.39781 82.99999 206 83 C 205.60216 82.99999 205.21947 82.923877 204.85193 82.77163 C 204.48439 82.619388 204.15996 82.40262 203.87866 82.121318 C 203.59735 81.840007 203.38057 81.51558 203.22834 81.14804 C 203.0761 80.780498 202.99999 80.39782 203 80 C 202.99999 79.60217 203.0761 79.21949 203.22834 78.851947 C 203.38057 78.4844 203.59735 78.15998 203.87866 77.87868 C 204.15996 77.59737 204.48439 77.38059 204.85193 77.228359 C 205.21947 77.07612 205.60216 77 206 77 C 206.39781 77 206.78049 77.07612 207.14803 77.228359 C 207.51557 77.38059 207.84 77.59737 208.1213 77.87868 C 208.4026 78.15998 208.61939 78.4844 208.77162 78.851947 C 208.92386 79.21949 208.99999 79.60217 209 80 Z "/>
<path transform="matrix(.71739128,0,0,.71739128,.35869564,.35869564)" d="M 218 71 C 218 71.39782 217.92388 71.7805 217.77164 72.14804 C 217.61939 72.51558 217.40262 72.840007 217.12133 73.121318 C 216.84 73.40262 216.51557 73.619388 216.14803 73.77163 C 215.78049 73.923877 215.39781 73.99999 215 74 C 214.60216 73.99999 214.21945 73.923877 213.85192 73.77163 C 213.48438 73.619388 213.15995 73.40262 212.87865 73.121318 C 212.59734 72.840007 212.38056 72.51558 212.22832 72.14804 C 212.07608 71.7805 211.99999 71.39782 212 71 C 211.99999 70.602169 212.07608 70.21948 212.22832 69.851947 C 212.38056 69.484409 212.59734 69.15998 212.87865 68.87868 C 213.15995 68.597377 213.48438 68.3806 213.85192 68.228359 C 214.21945 68.07612 214.60216 68 215 68 C 215.39781 68 215.7805 68.07612 216.14804 68.228359 C 216.51558 68.3806 216.84 68.597377 217.12133 68.87868 C 217.40262 69.15998 217.61939 69.484409 217.77162 69.851947 C 217.92388 70.21948 218 70.602169 218 71 Z " fill="#f8cecc"/>
<path transform="matrix(.71739128,0,0,.71739128,.35869564,.35869564)" stroke-width="1" stroke-linecap="butt" stroke-miterlimit="4" stroke-linejoin="miter" fill="none" stroke="#b85450" d="M 218 71 C 218 71.39782 217.92388 71.7805 217.77164 72.14804 C 217.61939 72.51558 217.40262 72.840007 217.12133 73.121318 C 216.84 73.40262 216.51557 73.619388 216.14803 73.77163 C 215.78049 73.923877 215.39781 73.99999 215 74 C 214.60216 73.99999 214.21945 73.923877 213.85192 73.77163 C 213.48438 73.619388 213.15995 73.40262 212.87865 73.121318 C 212.59734 72.840007 212.38056 72.51558 212.22832 72.14804 C 212.07608 71.7805 211.99999 71.39782 212 71 C 211.99999 70.602169 212.07608 70.21948 212.22832 69.851947 C 212.38056 69.484409 212.59734 69.15998 212.87865 68.87868 C 213.15995 68.597377 213.48438 68.3806 213.85192 68.228359 C 214.21945 68.07612 214.60216 68 215 68 C 215.39781 68 215.7805 68.07612 216.14804 68.228359 C 216.51558 68.3806 216.84 68.597377 217.12133 68.87868 C 217.40262 69.15998 217.61939 69.484409 217.77162 69.851947 C 217.92388 70.21948 218 70.602169 218 71 Z "/>
<path transform="matrix(.71739128,0,0,.71739128,.35869564,.35869564)" d="M 248 39.5 C 247.99999 39.964128 247.91118 40.410589 247.73355 40.839387 C 247.55594 41.26819 247.30304 41.646684 246.97487 41.974874 C 246.64667 42.30306 246.26818 42.555959 245.83937 42.733575 C 245.41057 42.91119 244.96411 42.999998 244.5 43 C 244.03585 42.999998 243.58937 42.91119 243.16057 42.733575 C 242.73178 42.555959 242.35329 42.30306 242.0251 41.974874 C 241.6969 41.646684 241.444 41.26819 241.26639 40.839387 C 241.08879 40.410589 240.99999 39.964128 241 39.5 C 240.99999 39.03587 241.08879 38.589406 241.26639 38.160608 C 241.444 37.731805 241.6969 37.35331 242.0251 37.025125 C 242.35329 36.696935 242.73178 36.444036 243.16059 36.26642 C 243.58937 36.088808 244.03585 36 244.5 36 C 244.96411 36 245.41057 36.088808 245.83937 36.26642 C 246.26818 36.444036 246.64667 36.696935 246.97487 37.025125 C 247.30304 37.35331 247.55594 37.731805 247.73355 38.160608 C 247.91118 38.589406 247.99999 39.03587 248 39.5 Z " fill="#f8cecc"/>
<path transform="matrix(.71739128,0,0,.71739128,.35869564,.35869564)" stroke-width="1" stroke-linecap="butt" stroke-miterlimit="4" stroke-linejoin="miter" fill="none" stroke="#b85450" d="M 248 39.5 C 247.99999 39.964128 247.91118 40.410589 247.73355 40.839387 C 247.55594 41.26819 247.30304 41.646684 246.97487 41.974874 C 246.64667 42.30306 246.26818 42.555959 245.83937 42.733575 C 245.41057 42.91119 244.96411 42.999998 244.5 43 C 244.03585 42.999998 243.58937 42.91119 243.16057 42.733575 C 242.73178 42.555959 242.35329 42.30306 242.0251 41.974874 C 241.6969 41.646684 241.444 41.26819 241.26639 40.839387 C 241.08879 40.410589 240.99999 39.964128 241 39.5 C 240.99999 39.03587 241.08879 38.589406 241.26639 38.160608 C 241.444 37.731805 241.6969 37.35331 242.0251 37.025125 C 242.35329 36.696935 242.73178 36.444036 243.16059 36.26642 C 243.58937 36.088808 244.03585 36 244.5 36 C 244.96411 36 245.41057 36.088808 245.83937 36.26642 C 246.26818 36.444036 246.64667 36.696935 246.97487 37.025125 C 247.30304 37.35331 247.55594 37.731805 247.73355 38.160608 C 247.91118 38.589406 247.99999 39.03587 248 39.5 Z "/>
<path transform="matrix(.71739128,0,0,.71739128,.35869564,.35869564)" d="M 20 174 C 19.999999 174.39781 19.923878 174.78049 19.771636 175.14803 C 19.619395 175.51558 19.402623 175.84001 19.121319 176.1213 C 18.840014 176.4026 18.515589 176.61939 18.148049 176.77162 C 17.780508 176.92386 17.397826 176.99999 17 177 C 16.602175 176.99999 16.21949 176.92386 15.851947 176.77162 C 15.484405 176.61939 15.159982 176.4026 14.878678 176.1213 C 14.597374 175.84001 14.380601 175.51558 14.228359 175.14803 C 14.076118 174.78049 13.999999 174.39781 14 174 C 13.999999 173.60216 14.076118 173.21947 14.228359 172.85193 C 14.380601 172.48439 14.597374 172.15996 14.878678 171.87866 C 15.159982 171.59735 15.484405 171.38059 15.851948 171.22835 C 16.21949 171.07611 16.602175 171 17 171 C 17.397826 171 17.780508 171.07611 18.148049 171.22835 C 18.515589 171.38059 18.840014 171.59735 19.121319 171.87866 C 19.402623 172.15996 19.619395 172.48439 19.771636 172.85193 C 19.923878 173.21947 19.999999 173.60216 20 174 Z " fill="#f8cecc"/>
<path transform="matrix(.71739128,0,0,.71739128,.35869564,.35869564)" stroke-width="1" stroke-linecap="butt" stroke-miterlimit="4" stroke-linejoin="miter" fill="none" stroke="#b85450" d="M 20 174 C 19.999999 174.39781 19.923878 174.78049 19.771636 175.14803 C 19.619395 175.51558 19.402623 175.84001 19.121319 176.1213 C 18.840014 176.4026 18.515589 176.61939 18.148049 176.77162 C 17.780508 176.92386 17.397826 176.99999 17 177 C 16.602175 176.99999 16.21949 176.92386 15.851947 176.77162 C 15.484405 176.61939 15.159982 176.4026 14.878678 176.1213 C 14.597374 175.84001 14.380601 175.51558 14.228359 175.14803 C 14.076118 174.78049 13.999999 174.39781 14 174 C 13.999999 173.60216 14.076118 173.21947 14.228359 172.85193 C 14.380601 172.48439 14.597374 172.15996 14.878678 171.87866 C 15.159982 171.59735 15.484405 171.38059 15.851948 171.22835 C 16.21949 171.07611 16.602175 171 17 171 C 17.397826 171 17.780508 171.07611 18.148049 171.22835 C 18.515589 171.38059 18.840014 171.59735 19.121319 171.87866 C 19.402623 172.15996 19.619395 172.48439 19.771636 172.85193 C 19.923878 173.21947 19.999999 173.60216 20 174 Z "/>
<text xml:space="preserve" transform="matrix(.71739128 0 0 .71739128 0 0)" font-size="12" font-family="ArialMT"><tspan y="38" x="33.3125 39.9845 48.648504 51.984506 59.988508 66.66051 69.32451 75.32451 81.996509 88.6685 98.664508 101.32851 108.0005">2D Polynomial</tspan></text>
<text xml:space="preserve" transform="matrix(.71739128 0 0 .71739128 0 0)" font-size="12" font-family="ArialMT"><tspan y="52" x="55.65625 61.65625 68.32825 72.32425 78.99625 85.66824">kernal</tspan></text>
<path transform="matrix(.71739128,0,0,.71739128,.35869564,.35869564)" stroke-width="1" stroke-linecap="butt" stroke-miterlimit="10" stroke-linejoin="miter" fill="none" stroke="#000000" d="M 31 186 L 263 53 "/>
<path transform="matrix(.71739128,0,0,.71739128,.35869564,.35869564)" stroke-width="1" stroke-linecap="butt" stroke-miterlimit="10" stroke-linejoin="miter" fill="none" stroke="#666666" d="M 221.33 163 L 221.01 99.87 "/>
<path transform="matrix(.71739128,0,0,.71739128,.35869564,.35869564)" d="M 221.01 99.12 L 221.51 100.12 L 221.01 99.87 L 220.51 100.12 L 221.01 99.12 Z " fill="#666666"/>
<path transform="matrix(.71739128,0,0,.71739128,.35869564,.35869564)" stroke-width="1" stroke-linecap="butt" stroke-miterlimit="10" stroke-linejoin="miter" fill="none" stroke="#666666" d="M 221.01 99.12 L 221.51 100.12 L 221.01 99.87 L 220.51 100.12 L 221.01 99.12 Z "/>
<path transform="matrix(.71739128,0,0,.71739128,.35869564,.35869564)" stroke-width="1" stroke-linecap="butt" stroke-miterlimit="10" stroke-linejoin="miter" fill="none" stroke="#666666" d="M 134.33 169 L 134.03 148.87 "/>
<path transform="matrix(.71739128,0,0,.71739128,.35869564,.35869564)" d="M 134.02 148.12 L 134.53 149.11 L 134.03 148.87 L 133.53 149.13 L 134.02 148.12 Z " fill="#666666"/>
<path transform="matrix(.71739128,0,0,.71739128,.35869564,.35869564)" stroke-width="1" stroke-linecap="butt" stroke-miterlimit="10" stroke-linejoin="miter" fill="none" stroke="#666666" d="M 134.02 148.12 L 134.53 149.11 L 134.03 148.87 L 133.53 149.13 L 134.02 148.12 Z "/>
<path transform="matrix(.71739128,0,0,.71739128,.35869564,.35869564)" stroke-width="1" stroke-linecap="butt" stroke-miterlimit="10" stroke-linejoin="miter" fill="none" stroke="#666666" d="M 179.33 167 L 179.02 129.87 "/>
<path transform="matrix(.71739128,0,0,.71739128,.35869564,.35869564)" d="M 179.01 129.12 L 179.52 130.11 L 179.02 129.87 L 178.52 130.12 L 179.01 129.12 Z " fill="#666666"/>
<path transform="matrix(.71739128,0,0,.71739128,.35869564,.35869564)" stroke-width="1" stroke-linecap="butt" stroke-miterlimit="10" stroke-linejoin="miter" fill="none" stroke="#666666" d="M 179.01 129.12 L 179.52 130.11 L 179.02 129.87 L 178.52 130.12 L 179.01 129.12 Z "/>
<path transform="matrix(.71739128,0,0,.71739128,.35869564,.35869564)" stroke-width="1" stroke-linecap="butt" stroke-miterlimit="10" stroke-linejoin="miter" fill="none" stroke="#666666" d="M 95.33 169.5 L 95.06 160.87 "/>
<path transform="matrix(.71739128,0,0,.71739128,.35869564,.35869564)" d="M 95.04 160.12 L 95.57 161.1 L 95.06 160.87 L 94.57 161.13 L 95.04 160.12 Z " fill="#666666"/>
<path transform="matrix(.71739128,0,0,.71739128,.35869564,.35869564)" stroke-width="1" stroke-linecap="butt" stroke-miterlimit="10" stroke-linejoin="miter" fill="none" stroke="#666666" d="M 95.04 160.12 L 95.57 161.1 L 95.06 160.87 L 94.57 161.13 L 95.04 160.12 Z "/>
</g>
</g>
</svg>
